<?xml version="1.0" encoding="UTF-8"?>
<svg id="Layer_2" data-name="Layer 2" xmlns="http://www.w3.org/2000/svg" xmlns:xlink="http://www.w3.org/1999/xlink" viewBox="0 0 872.88 479.33">
  <defs>
    <style>
      .cls-1, .cls-2, .cls-3, .cls-4, .cls-5, .cls-6, .cls-7, .cls-8, .cls-9, .cls-10, .cls-11, .cls-12, .cls-13, .cls-14 {
        stroke-width: 0px;
      }

      .cls-1, .cls-14 {
        fill: none;
        stroke-linecap: round;
        stroke-linejoin: round;
      }

      .cls-1, .cls-15 {
        stroke: #000;
      }

      .cls-2 {
        fill: url(#linear-gradient);
      }

      .cls-3, .cls-15 {
        fill: #000;
      }

      .cls-4 {
        fill: #004b37;
      }

      .cls-16 {
        fill: url(#linear-gradient-3);
      }

      .cls-16, .cls-17 {
        stroke: red;
      }

      .cls-16, .cls-17, .cls-15 {
        stroke-miterlimit: 10;
      }

      .cls-17 {
        fill: url(#linear-gradient-5);
      }

      .cls-5 {
        fill: #e0e6e2;
      }

      .cls-6 {
        fill: #c1272d;
      }

      .cls-7 {
        fill: url(#linear-gradient-4);
      }

      .cls-8 {
        fill: url(#linear-gradient-2);
      }

      .cls-9 {
        fill: url(#linear-gradient-6);
      }

      .cls-10 {
        fill: red;
      }

      .cls-11 {
        fill: #fcee21;
      }

      .cls-12 {
        fill: #77272d;
      }

      .cls-13 {
        fill: #006837;
      }

      .cls-14 {
        stroke: #006837;
      }

      .cls-15 {
        stroke-width: 8px;
      }
    </style>
    <linearGradient id="linear-gradient" x1="4" y1="342.65" x2="868.88" y2="342.65" gradientUnits="userSpaceOnUse">
      <stop offset="0" stop-color="red"/>
      <stop offset=".02" stop-color="#db0000"/>
      <stop offset=".04" stop-color="#bc0000"/>
      <stop offset=".06" stop-color="#a30000"/>
      <stop offset=".08" stop-color="#900000"/>
      <stop offset=".11" stop-color="#830000"/>
      <stop offset=".14" stop-color="#7b0000"/>
      <stop offset=".21" stop-color="#790000"/>
      <stop offset=".3" stop-color="#8d0b0c"/>
      <stop offset=".48" stop-color="#c1272d"/>
      <stop offset=".56" stop-color="#6c0000"/>
      <stop offset=".63" stop-color="#700000"/>
      <stop offset=".7" stop-color="#7c0000"/>
      <stop offset=".78" stop-color="#900000"/>
      <stop offset=".85" stop-color="#ac0000"/>
      <stop offset=".92" stop-color="#d00000"/>
      <stop offset="1" stop-color="#fc0000"/>
      <stop offset="1" stop-color="red"/>
    </linearGradient>
    <linearGradient id="linear-gradient-2" x1="175.65" y1="239.45" x2="697.23" y2="239.45" gradientUnits="userSpaceOnUse">
      <stop offset="0" stop-color="#004b37"/>
      <stop offset=".53" stop-color="#000"/>
      <stop offset="1" stop-color="#004b37"/>
    </linearGradient>
    <linearGradient id="linear-gradient-3" x1="367.48" y1="143.86" x2="504.33" y2="143.86" gradientUnits="userSpaceOnUse">
      <stop offset="0" stop-color="red"/>
      <stop offset=".15" stop-color="#c1272d"/>
      <stop offset=".44" stop-color="#651418"/>
      <stop offset=".85" stop-color="#c1272d"/>
      <stop offset="1" stop-color="red"/>
    </linearGradient>
    <linearGradient id="linear-gradient-4" x1="367.5" y1="161.91" x2="504.31" y2="161.91" gradientUnits="userSpaceOnUse">
      <stop offset="0" stop-color="red"/>
      <stop offset=".15" stop-color="#c1272d"/>
      <stop offset=".5" stop-color="#000"/>
      <stop offset=".85" stop-color="#c1272d"/>
      <stop offset="1" stop-color="red"/>
    </linearGradient>
    <linearGradient id="linear-gradient-5" x1="390.4" y1="133.59" x2="482.13" y2="133.59" xlink:href="#linear-gradient-3"/>
    <linearGradient id="linear-gradient-6" x1="411.7" y1="107.69" x2="460.23" y2="107.69" xlink:href="#linear-gradient-4"/>
  </defs>
  <g id="Layer_1-2" data-name="Layer 1">
    <g>
      <g>
        <path class="cls-15" d="M868.87,207.96c-.02-1.26-.43-2.52-1.2-3.73,0,0,0,0,0,0-.13-.2-.27-.4-.42-.6,0,0-.02-.02-.02-.03-.14-.19-.3-.38-.46-.57-.01-.02-.03-.03-.05-.05-.16-.18-.32-.36-.5-.53-.02-.02-.05-.05-.07-.07-.17-.17-.35-.34-.54-.51-.03-.03-.07-.06-.11-.09-.18-.16-.37-.32-.56-.47-.05-.04-.11-.08-.16-.12-.19-.14-.37-.29-.57-.43-.07-.05-.15-.1-.22-.15-.19-.13-.38-.26-.58-.39-.09-.06-.19-.11-.28-.17-.19-.12-.38-.24-.59-.36-.1-.06-.2-.11-.3-.16-.21-.12-.41-.23-.63-.34-.05-.02-.1-.05-.15-.07-.27-.14-.55-.28-.84-.42l-171.33-80.86c-23.36-43.73-96.29-78.16-188.95-89.17l-44.01-20.77c-2.75-1.3-5.92-2.27-9.31-2.92-.85-.16-1.71-.3-2.58-.43-2.61-.36-5.31-.55-8.01-.55-.96,0-1.92.03-2.88.07-1.63.08-3.24.23-4.83.44-1.16.16-2.31.35-3.43.58-3.18.65-6.17,1.57-8.76,2.8l-44.01,20.77c-92.66,11.02-165.59,45.44-188.95,89.17L12.24,198.69c-.25.12-.5.24-.74.37-.08.04-.17.08-.25.12-.2.11-.4.22-.59.32-.11.06-.23.12-.34.18-.2.11-.38.23-.57.34-.1.06-.2.12-.3.18-.19.12-.38.25-.56.38-.08.05-.16.11-.24.16-.2.14-.38.28-.56.42-.06.04-.12.09-.17.13-.19.15-.37.31-.55.46-.04.03-.08.07-.12.1-.19.17-.36.33-.53.5-.03.03-.05.05-.08.08-.18.18-.34.35-.5.53-.02.02-.03.03-.05.05-.16.19-.31.37-.46.56,0,.01-.02.02-.03.03-.15.2-.29.39-.41.59,0,0,0,0,0,0-.78,1.22-1.18,2.47-1.2,3.73h0v62.32h.08c-.57,3.71,2.15,7.52,8.16,10.36l404.29,190.8c10.99,5.19,28.82,5.19,39.81,0l404.29-190.8c6.02-2.84,8.73-6.65,8.16-10.36h.08v-62.32h0Z"/>
        <g>
          <path class="cls-12" d="M10.33,200.7c.11-.06.22-.12.34-.18-.11.06-.23.12-.34.18Z"/>
          <path class="cls-12" d="M9.47,201.22c.1-.06.2-.12.3-.18-.1.06-.2.12-.3.18Z"/>
          <path class="cls-12" d="M11.26,200.19c.08-.04.17-.08.25-.12-.08.04-.17.08-.25.12Z"/>
          <path class="cls-12" d="M433.56,5.08c.96-.05,1.92-.07,2.88-.07-.96,0-1.92.03-2.88.07Z"/>
          <path class="cls-12" d="M425.3,6.1c1.12-.23,2.26-.42,3.43-.58-1.16.16-2.31.35-3.43.58Z"/>
          <path class="cls-12" d="M8.67,201.76c.08-.05.16-.11.24-.16-.08.05-.16.11-.24.16Z"/>
          <path class="cls-12" d="M861.47,200.12s.1.05.15.07c-.05-.02-.1-.05-.15-.07Z"/>
          <path class="cls-12" d="M5.63,204.63s.02-.02.03-.03c0,.01-.02.02-.03.03Z"/>
          <path class="cls-12" d="M5.21,205.24s0,0,0,0c0,0,0,0,0,0Z"/>
          <path class="cls-12" d="M6.11,204.04s.03-.03.05-.05c-.02.02-.03.03-.05.05Z"/>
          <path class="cls-12" d="M7.93,202.31c.06-.04.12-.09.17-.13-.06.04-.12.09-.17.13Z"/>
          <path class="cls-12" d="M6.66,203.45s.05-.05.08-.08c-.03.03-.05.05-.08.08Z"/>
          <path class="cls-12" d="M7.26,202.88s.08-.07.12-.1c-.04.03-.08.07-.12.1Z"/>
          <path class="cls-12" d="M862.25,200.53c.1.06.2.11.3.16-.1-.06-.2-.11-.3-.16Z"/>
          <path class="cls-12" d="M867.22,204.61s.02.02.02.03c0,0-.01-.02-.02-.03Z"/>
          <path class="cls-12" d="M867.66,205.23s0,0,0,0c0,0,0,0,0,0Z"/>
          <path class="cls-12" d="M863.13,201.05c.09.06.19.11.28.17-.09-.06-.19-.11-.28-.17Z"/>
          <path class="cls-12" d="M866.72,203.99s.03.03.05.05c-.01-.02-.03-.03-.05-.05Z"/>
          <path class="cls-2" d="M860.63,218.49l-404.29,190.8c-10.99,5.19-28.82,5.19-39.81,0L12.24,218.49c-5.56-2.63-8.31-6.08-8.24-9.52h0v62.32h.08c-.57,3.71,2.15,7.52,8.16,10.36l404.29,190.8c10.99,5.19,28.82,5.19,39.81,0l404.29-190.8c6.02-2.84,8.73-6.65,8.16-10.36h.08v-62.19c0,3.4-2.75,6.8-8.24,9.39Z"/>
          <path class="cls-12" d="M868.87,208.97s0,.08,0,.12v-.12h0Z"/>
          <path class="cls-12" d="M863.99,201.61c.07.05.15.1.22.15-.07-.05-.15-.1-.22-.15Z"/>
          <path class="cls-12" d="M866.15,203.38s.05.05.07.07c-.02-.02-.05-.05-.07-.07Z"/>
          <path class="cls-12" d="M864.78,202.19c.05.04.11.08.16.12-.05-.04-.11-.08-.16-.12Z"/>
          <path class="cls-12" d="M865.5,202.79s.07.06.11.09c-.03-.03-.07-.06-.11-.09Z"/>
          <path class="cls-6" d="M867.66,205.23s0,0,0,0c-.13-.2-.27-.4-.42-.6,0,0-.02-.02-.02-.03-.14-.19-.3-.38-.46-.57-.01-.02-.03-.03-.05-.05-.16-.18-.32-.36-.5-.53-.02-.02-.05-.05-.07-.07-.17-.17-.35-.34-.54-.51-.03-.03-.07-.06-.11-.09-.18-.16-.37-.32-.56-.47-.05-.04-.11-.08-.16-.12-.19-.14-.37-.29-.57-.43-.07-.05-.15-.1-.22-.15-.19-.13-.38-.26-.58-.39-.09-.06-.19-.11-.28-.17-.19-.12-.38-.24-.59-.36-.1-.06-.2-.11-.3-.16-.21-.12-.41-.23-.63-.34-.05-.02-.1-.05-.15-.07-.27-.14-.55-.28-.84-.42L456.34,8.9c-2.75-1.3-5.92-2.27-9.31-2.92-.85-.16-1.71-.3-2.58-.43-2.61-.36-5.31-.55-8.01-.55-.96,0-1.92.03-2.88.07-1.63.08-3.24.23-4.83.44-1.16.16-2.31.35-3.43.58-3.18.65-6.17,1.57-8.76,2.8L12.24,199.7c-.25.12-.5.24-.74.37-.08.04-.17.08-.25.12-.2.11-.4.22-.59.32-.11.06-.23.12-.34.18-.2.11-.38.23-.57.34-.1.06-.2.12-.3.18-.19.12-.38.25-.56.38-.08.05-.16.11-.24.16-.2.14-.38.28-.56.42-.06.04-.12.09-.17.13-.19.15-.37.31-.55.46-.04.03-.08.07-.12.1-.19.17-.36.33-.53.5-.03.03-.05.05-.08.08-.18.18-.34.35-.5.53-.02.02-.03.03-.05.05-.16.19-.31.37-.46.56,0,.01-.02.02-.03.03-.15.2-.29.39-.41.59,0,0,0,0,0,0-.78,1.22-1.18,2.47-1.2,3.73-.07,3.44,2.68,6.89,8.24,9.52l404.29,190.8c10.99,5.19,28.82,5.19,39.81,0l404.29-190.8c5.5-2.59,8.24-5.99,8.24-9.39,0-.04,0-.08,0-.12-.02-1.26-.43-2.52-1.2-3.73ZM439.97,17.86l129.49,61.11,3.54,1.67-3.54,1.67-3.47,1.64-2.48,1.17-3.18-.7c-4.63-1.02-9.39-2-14.14-2.91-34.96-6.69-71.88-10.08-109.76-10.08-37.88,0-74.8,3.39-109.76,10.08-4.75.91-9.51,1.89-14.14,2.91l-3.18.7-2.48-1.17-3.47-1.64-3.54-1.67,3.54-1.67,129.49-61.11,3.54-1.67,3.54,1.67ZM171.26,270.24l-3.47,1.64-3.54,1.67-3.54-1.67L31.23,210.76l-3.54-1.67,3.54-1.67,129.49-61.11,3.54-1.67,3.54,1.67,3.47,1.64,2.48,1.17-1.49,1.5c-2.17,2.19-4.25,4.43-6.17,6.67-14.18,16.5-21.36,33.93-21.36,51.8s7.19,35.3,21.36,51.8c1.93,2.24,4,4.49,6.17,6.67l1.49,1.5-2.48,1.17ZM569.47,339.21l-129.49,61.11-3.54,1.67-3.54-1.67-129.49-61.11-3.54-1.67,3.54-1.67,3.47-1.64,2.48-1.17,3.18.7c4.63,1.02,9.39,2,14.14,2.91,34.96,6.69,71.88,10.08,109.76,10.08s74.8-3.39,109.76-10.08c4.75-.91,9.51-1.89,14.14-2.91l3.18-.7,2.48,1.17,3.47,1.64,3.54,1.67-3.54,1.67ZM625.03,298.1c-104.16,49.16-273.03,49.16-377.19,0s-104.16-128.86,0-178.01c104.16-49.16,273.03-49.16,377.19,0,104.16,49.16,104.16,128.86,0,178.01ZM841.64,210.76l-129.49,61.11-3.54,1.67-3.54-1.67-3.47-1.64-2.48-1.17,1.49-1.5c2.17-2.19,4.25-4.43,6.17-6.67,14.18-16.5,21.36-33.93,21.36-51.8s-7.19-35.3-21.36-51.8c-1.93-2.24-4-4.49-6.17-6.67l-1.49-1.5,2.48-1.17,3.47-1.64,3.54-1.67,3.54,1.67,129.49,61.11,3.54,1.67-3.54,1.67Z"/>
          <path class="cls-12" d="M625.03,120.08c-104.16-49.16-273.03-49.16-377.19,0-104.16,49.16-104.16,128.86,0,178.01s273.03,49.16,377.19,0,104.16-128.86,0-178.01ZM580.73,277.19c-79.69,37.61-208.89,37.61-288.58,0-79.69-37.61-79.69-98.58,0-136.19,79.69-37.61,208.89-37.61,288.58,0s79.69,98.58,0,136.19Z"/>
          <path class="cls-12" d="M577.9,142.33c-19.1-9.01-41.36-15.99-66.18-20.74-23.97-4.59-49.3-6.91-75.28-6.91s-51.31,2.33-75.28,6.91c-24.81,4.75-47.08,11.73-66.18,20.74-19.1,9.01-33.88,19.52-43.95,31.23-9.72,11.31-14.65,23.27-14.65,35.53,0,12.26,4.93,24.22,14.65,35.53,10.06,11.71,24.85,22.22,43.95,31.23s41.36,15.99,66.18,20.74c23.97,4.59,49.3,6.91,75.28,6.91s51.31-2.33,75.28-6.91c24.81-4.75,47.08-11.73,66.18-20.74s33.88-19.52,43.95-31.23c9.72-11.31,14.65-23.27,14.65-35.53s-4.93-24.22-14.65-35.53c-10.06-11.71-24.85-22.22-43.95-31.23ZM523.49,250.18c-8.26,3.9-17.41,7.13-27.13,9.69-1.77.47-3.56.91-5.36,1.33-11.73,2.74-24.19,4.54-36.89,5.4-1.95.13-3.91.24-5.87.33-.98.04-1.96.08-2.95.12-1.96.07-3.93.11-5.9.13-.98.01-1.97.02-2.95.02-1.97,0-3.94-.02-5.91-.07-.98-.02-1.97-.05-2.95-.08-28.49-.96-56.41-6.59-78.2-16.87-11.8-5.57-20.7-11.99-26.71-18.84-.28-.32-.55-.64-.81-.95-4.28-5.14-6.95-10.51-8.01-15.93-.17-.85-.3-1.71-.38-2.57-.05-.48-.08-.95-.11-1.43-.05-.92-.05-1.84,0-2.76.07-1.39.25-2.79.53-4.18.19-.93.42-1.85.7-2.77,1.27-4.15,3.49-8.24,6.66-12.21.7-.88,1.46-1.76,2.25-2.62s1.64-1.73,2.54-2.58c.89-.85,1.83-1.7,2.82-2.53,1.97-1.67,4.13-3.3,6.48-4.89,1.17-.79,2.39-1.58,3.66-2.35,3.17-1.93,6.63-3.79,10.39-5.56s7.69-3.41,11.79-4.9c1.64-.6,3.3-1.17,4.98-1.73,6.74-2.22,13.84-4.08,21.19-5.58,1.84-.38,3.69-.73,5.56-1.06,10.27-1.83,20.95-2.99,31.74-3.47,2.94-.13,5.89-.22,8.85-.25,2.95-.03,5.91-.02,8.86.05,2.95.07,5.9.18,8.83.35,1.96.11,3.91.24,5.86.4,5.84.47,11.62,1.13,17.3,1.99,3.78.58,7.52,1.24,11.2,1.99,2.76.56,5.48,1.18,8.16,1.84,1.79.44,3.56.91,5.3,1.4.87.24,1.74.49,2.61.75,1.73.51,3.44,1.04,5.12,1.6.84.28,1.68.56,2.51.85,2.49.86,4.93,1.78,7.31,2.74s4.7,1.98,6.95,3.04c48.08,22.69,48.08,59.48,0,82.17Z"/>
          <path class="cls-12" d="M520.66,169.34c-22.5-10.62-52.41-16.47-84.23-16.47s-61.73,5.85-84.23,16.47c-22.5,10.62-34.89,24.73-34.89,39.75,0,15.02,12.39,29.13,34.89,39.75s52.41,16.46,84.23,16.46,61.73-5.85,84.23-16.46,34.89-24.73,34.89-39.75-12.39-29.13-34.89-39.75ZM443.97,212.65c-4.16,1.96-10.9,1.96-15.06,0s-4.16-5.15,0-7.11,10.9-1.96,15.06,0c4.16,1.96,4.16,5.15,0,7.11Z"/>
          <path class="cls-6" d="M580.73,141c-79.69-37.61-208.89-37.61-288.58,0-79.69,37.61-79.69,98.58,0,136.19,79.69,37.61,208.89,37.61,288.58,0,79.69-37.61,79.69-98.58,0-136.19ZM636.49,209.09c0,12.26-4.93,24.22-14.65,35.53-10.06,11.71-24.85,22.22-43.95,31.23s-41.36,15.99-66.18,20.74c-23.97,4.59-49.3,6.91-75.28,6.91s-51.31-2.33-75.28-6.91c-24.81-4.75-47.08-11.73-66.18-20.74s-33.88-19.52-43.95-31.23c-9.72-11.31-14.65-23.27-14.65-35.53,0-12.26,4.93-24.22,14.65-35.53,10.06-11.71,24.85-22.22,43.95-31.23,19.1-9.01,41.36-15.99,66.18-20.74,23.97-4.59,49.3-6.91,75.28-6.91s51.31,2.33,75.28,6.91c24.81,4.75,47.08,11.73,66.18,20.74,19.1,9.01,33.88,19.52,43.95,31.23,9.72,11.31,14.65,23.27,14.65,35.53Z"/>
          <path class="cls-11" d="M313.36,207.7c-.05.92-.05,1.84,0,2.76-.05-.92-.05-1.84,0-2.76Z"/>
          <path class="cls-11" d="M313.85,214.45c-.17-.85-.3-1.71-.38-2.57.09.86.22,1.71.38,2.57Z"/>
          <path class="cls-6" d="M523.49,168.01c-2.25-1.06-4.57-2.08-6.95-3.04s-4.82-1.88-7.31-2.74c-.83-.29-1.67-.57-2.51-.85-1.68-.55-3.39-1.09-5.12-1.6-.86-.25-1.73-.5-2.61-.75-1.75-.49-3.52-.95-5.3-1.4-2.68-.67-5.4-1.28-8.16-1.84-3.67-.75-7.41-1.42-11.2-1.99-5.68-.86-11.46-1.53-17.3-1.99-1.95-.16-3.9-.29-5.86-.4-2.94-.17-5.88-.28-8.83-.35-2.95-.07-5.91-.08-8.86-.05-2.95.03-5.9.12-8.85.25-10.79.49-21.47,1.65-31.74,3.47-1.87.33-3.72.69-5.56,1.06-7.35,1.51-14.45,3.37-21.19,5.58-1.68.55-3.35,1.13-4.98,1.73-4.09,1.5-8.03,3.13-11.79,4.9s-7.22,3.63-10.39,5.56c-1.27.77-2.49,1.56-3.66,2.35-2.35,1.59-4.51,3.22-6.48,4.89-.99.83-1.93,1.68-2.82,2.53-.89.85-1.74,1.71-2.54,2.58s-1.55,1.74-2.25,2.62c-3.17,3.96-5.39,8.06-6.66,12.21-.28.92-.52,1.85-.7,2.77-.28,1.39-.46,2.78-.53,4.18-.05.92-.05,1.84,0,2.76.02.48.06.95.11,1.43.09.86.22,1.71.38,2.57,1.06,5.43,3.73,10.79,8.01,15.93.27.32.54.64.81.95,6.01,6.85,14.91,13.27,26.71,18.84,21.79,10.28,49.71,15.9,78.2,16.87.98.03,1.97.06,2.95.08,1.97.04,3.94.07,5.91.07.98,0,1.97,0,2.95-.02,1.97-.02,3.94-.07,5.9-.13.98-.03,1.96-.07,2.95-.12,1.96-.09,3.92-.2,5.87-.33,12.69-.86,25.16-2.66,36.89-5.4,1.8-.42,3.59-.86,5.36-1.33,9.73-2.56,18.87-5.79,27.13-9.69,48.08-22.69,48.08-59.48,0-82.17ZM520.66,248.84c-22.5,10.62-52.41,16.46-84.23,16.46s-61.73-5.85-84.23-16.46-34.89-24.73-34.89-39.75c0-15.02,12.39-29.13,34.89-39.75,22.5-10.62,52.41-16.47,84.23-16.47s61.73,5.85,84.23,16.47c22.5,10.62,34.89,24.73,34.89,39.75s-12.39,29.13-34.89,39.75Z"/>
          <path class="cls-6" d="M443.97,205.54c-4.16-1.96-10.9-1.96-15.06,0s-4.16,5.15,0,7.11,10.9,1.96,15.06,0c4.16-1.96,4.16-5.15,0-7.11Z"/>
          <path class="cls-12" d="M303.41,78.97l-3.54,1.67,3.54,1.67,3.47,1.64,2.48,1.17,3.18-.7c4.63-1.02,9.39-2,14.14-2.91,34.96-6.69,71.88-10.08,109.76-10.08,37.88,0,74.8,3.39,109.76,10.08,4.75.91,9.51,1.89,14.14,2.91l3.18.7,2.48-1.17,3.47-1.64,3.54-1.67-3.54-1.67-129.49-61.11-3.54-1.67-3.54,1.67-129.49,61.11ZM565.93,80.64l-3.47,1.64c-4.73-1.04-9.52-2.03-14.38-2.96-35.55-6.8-73.12-10.25-111.64-10.25s-76.08,3.45-111.64,10.25c-4.86.93-9.66,1.92-14.38,2.96l-3.47-1.64,129.49-61.11,129.49,61.11Z"/>
          <path class="cls-12" d="M712.15,146.31l-3.54-1.67-3.54,1.67-3.47,1.64-2.48,1.17,1.49,1.5c2.17,2.19,4.25,4.43,6.17,6.67,14.18,16.5,21.36,33.93,21.36,51.8s-7.19,35.3-21.36,51.8c-1.93,2.24-4,4.49-6.17,6.67l-1.49,1.5,2.48,1.17,3.47,1.64,3.54,1.67,3.54-1.67,129.49-61.11,3.54-1.67-3.54-1.67-129.49-61.11ZM708.62,270.2l-3.47-1.64c2.21-2.23,4.31-4.49,6.28-6.79,14.42-16.78,21.73-34.51,21.73-52.69s-7.31-35.91-21.73-52.69c-1.97-2.29-4.06-4.56-6.28-6.79l3.47-1.64,129.49,61.11-129.49,61.11Z"/>
          <path class="cls-12" d="M566,334.24l-2.48-1.17-3.18.7c-4.64,1.02-9.39,2-14.14,2.91-34.96,6.69-71.88,10.08-109.76,10.08s-74.81-3.39-109.76-10.08c-4.75-.91-9.51-1.89-14.14-2.91l-3.18-.7-2.48,1.17-3.47,1.64-3.54,1.67,3.54,1.67,129.49,61.11,3.54,1.67,3.54-1.67,129.49-61.11,3.54-1.67-3.54-1.67-3.47-1.64ZM436.44,398.66l-129.49-61.11,3.47-1.64c4.73,1.04,9.52,2.03,14.38,2.96,35.56,6.8,73.12,10.25,111.64,10.25s76.08-3.45,111.64-10.25c4.86-.93,9.66-1.92,14.38-2.96l3.47,1.64-129.49,61.11Z"/>
          <path class="cls-12" d="M166.08,260.89c-14.18-16.5-21.36-33.93-21.36-51.8s7.19-35.3,21.36-51.8c1.93-2.24,4-4.49,6.17-6.67l1.49-1.5-2.48-1.17-3.47-1.64-3.54-1.67-3.54,1.67L31.23,207.42l-3.54,1.67,3.54,1.67,129.49,61.11,3.54,1.67,3.54-1.67,3.47-1.64,2.48-1.17-1.49-1.5c-2.17-2.19-4.25-4.43-6.17-6.67ZM164.26,270.2l-129.49-61.11,129.49-61.11,3.47,1.64c-2.21,2.23-4.31,4.49-6.28,6.79-14.42,16.78-21.73,34.51-21.73,52.69s7.31,35.91,21.73,52.69c1.97,2.29,4.06,4.56,6.28,6.79l-3.47,1.64Z"/>
          <path class="cls-5" d="M310.42,82.28c4.73-1.04,9.52-2.03,14.38-2.96,35.56-6.8,73.12-10.25,111.64-10.25s76.08,3.45,111.64,10.25c4.86.93,9.66,1.92,14.38,2.96l3.47-1.64-129.49-61.11-129.49,61.11,3.47,1.64ZM436.44,23.53h0l116,54.74h0,0c-.83-.16-1.65-.32-2.48-.48-11.3-2.16-22.8-3.99-34.46-5.48-9.33-1.19-18.77-2.17-28.3-2.94-4.76-.38-9.55-.71-14.36-.98-12.02-.68-24.16-1.02-36.4-1.02-39.17,0-77.36,3.51-113.52,10.43-.83.16-1.65.32-2.48.48h0l116-54.74Z"/>
          <path class="cls-5" d="M705.15,149.62c2.21,2.23,4.31,4.49,6.28,6.79,14.42,16.78,21.73,34.51,21.73,52.69s-7.31,35.91-21.73,52.69c-1.97,2.29-4.06,4.56-6.28,6.79l3.47,1.64,129.49-61.11-129.49-61.11-3.47,1.64ZM829.62,209.09l-116,54.74c.34-.39.68-.78,1.02-1.17,14.66-17.06,22.09-35.09,22.09-53.57,0-18.49-7.43-36.51-22.09-53.57-.33-.39-.67-.78-1.02-1.17l116,54.74Z"/>
          <path class="cls-5" d="M548.08,338.87c-35.55,6.8-73.12,10.25-111.64,10.25s-76.08-3.45-111.64-10.25c-4.86-.93-9.66-1.92-14.38-2.96l-3.47,1.64,129.49,61.11,129.49-61.11-3.47-1.64c-4.73,1.04-9.52,2.03-14.38,2.96ZM436.44,394.65l-116-54.74c.83.16,1.65.32,2.48.48,36.15,6.92,74.35,10.43,113.52,10.43,39.17,0,77.36-3.51,113.52-10.43.83-.16,1.65-.32,2.48-.48l-116,54.74Z"/>
          <path class="cls-5" d="M139.72,209.09c0-18.18,7.31-35.91,21.73-52.69,1.97-2.29,4.06-4.56,6.28-6.79l-3.47-1.64-129.49,61.11,129.49,61.11,3.47-1.64c-2.21-2.23-4.31-4.49-6.28-6.79-14.42-16.78-21.73-34.51-21.73-52.69ZM43.25,209.09h0l116-54.74h0c-.34.39-.68.78-1.02,1.17-14.66,17.06-22.09,35.09-22.09,53.57,0,5.78.73,11.51,2.17,17.18.58,2.27,1.27,4.53,2.08,6.78,1.62,4.5,3.69,8.95,6.22,13.35,3.16,5.5,7.04,10.93,11.62,16.26.33.39.67.78,1.02,1.17l-116-54.74Z"/>
          <rect class="cls-11" x="37.12" y="181.72" width="128.27" transform="translate(-67.87 60.6) rotate(-25.26)"/>
          <path class="cls-11" d="M153.81,158.25l-107.73,50.84,107.73,50.84c-13.06-16.26-19.68-33.34-19.68-50.84,0-17.5,6.62-34.59,19.68-50.84Z"/>
          <path class="cls-10" d="M146.61,246.4c-2.53-4.4-4.61-8.86-6.22-13.35-.81-2.25-1.5-4.51-2.08-6.78-1.45-5.67-2.17-11.4-2.17-17.18,0-18.49,7.43-36.51,22.09-53.57.34-.39.68-.78,1.02-1.17h0l-116,54.74,116,54.74c-.34-.39-.68-.78-1.02-1.17-4.58-5.33-8.46-10.76-11.62-16.26ZM46.08,209.09l107.73-50.84c-13.06,16.26-19.68,33.35-19.68,50.84,0,17.5,6.62,34.59,19.68,50.84l-107.73-50.84Z"/>
          <path class="cls-11" d="M328.71,342.48l107.73,50.84,107.73-50.84c-34.45,6.16-70.65,9.29-107.73,9.29-37.08,0-73.28-3.12-107.73-9.29Z"/>
          <path class="cls-10" d="M436.44,350.82c-39.17,0-77.36-3.51-113.52-10.43-.83-.16-1.65-.32-2.48-.48l116,54.74,116-54.74c-.83.16-1.65.32-2.48.48-36.15,6.92-74.35,10.43-113.52,10.43ZM436.44,393.32l-107.73-50.84c34.45,6.16,70.66,9.29,107.73,9.29,37.08,0,73.28-3.12,107.73-9.29l-107.73,50.84Z"/>
          <path class="cls-11" d="M719.06,259.93l107.73-50.84-107.73-50.84c13.06,16.26,19.68,33.34,19.68,50.84,0,17.5-6.62,34.59-19.68,50.84Z"/>
          <path class="cls-10" d="M736.74,209.09c0,18.49-7.43,36.51-22.09,53.57-.34.39-.68.78-1.02,1.17l116-54.74-116-54.74c.34.39.68.78,1.02,1.17,14.66,17.06,22.09,35.09,22.09,53.57ZM826.8,209.09l-107.73,50.84c13.06-16.26,19.68-33.35,19.68-50.84,0-17.5-6.62-34.59-19.68-50.84l107.73,50.84Z"/>
          <path class="cls-11" d="M552.43,78.27h0c-.83-.16-1.65-.32-2.48-.48.83.16,1.65.32,2.48.48Z"/>
          <path class="cls-11" d="M544.17,75.71l-107.73-50.84-107.73,50.84c34.45-6.16,70.65-9.29,107.73-9.29,37.08,0,73.28,3.12,107.73,9.29Z"/>
          <rect class="cls-11" x="378.44" y="-13.23" height="128.27"/>
          <path class="cls-10" d="M320.44,78.27c.83-.16,1.65-.32,2.48-.48,36.15-6.92,74.35-10.43,113.52-10.43,12.24,0,24.39.34,36.4,1.02,4.81.27,9.59.6,14.36.98,9.53.76,18.97,1.74,28.3,2.94,11.66,1.49,23.16,3.32,34.46,5.48.83.16,1.65.32,2.48.48h0l-116-54.74-116,54.74h0ZM436.44,24.86l107.73,50.84c-34.45-6.16-70.66-9.29-107.73-9.29-37.08,0-73.28,3.12-107.73,9.29l107.73-50.84Z"/>
        </g>
        <g>
          <path class="cls-4" d="M175.65,143.44v5.58c0-1.87.1-3.73.28-5.58h-.28Z"/>
          <path class="cls-8" d="M436.44,272.1c-144.03,0-260.79-55.1-260.79-123.08v57.71h0s0,.05,0,.08c0,67.97,116.76,123.08,260.79,123.08s260.79-55.1,260.79-123.08c0-.03,0-.05,0-.08h0v-57.71c0,67.97-116.76,123.08-260.79,123.08Z"/>
          <path class="cls-4" d="M696.95,143.44c.17,1.85.28,3.71.28,5.58v-5.58h-.28Z"/>
          <path class="cls-4" d="M550.29,55.95c-4.24-1.15-8.77-1.85-13.33-2.12-1.71-.1-3.43-.14-5.14-.12-1.14.01-2.27.05-3.4.11-3.38.19-6.69.61-9.82,1.24-3.65.74-7.06,1.77-10.05,3.07-.85.37-1.67.77-2.45,1.18-1.56.83-2.97,1.75-4.19,2.75-.05.04-.09.08-.14.12-.29.82-.46,1.64-.5,2.46-.05.99.08,1.98.37,2.95.3.99.76,1.98,1.4,2.93.03.05.07.1.1.15.25.35.52.7.81,1.05,1.91,2.27,4.81,4.37,8.63,6.14.56.26,1.13.51,1.73.75.45.18.9.36,1.37.53,1.4.52,2.9,1,4.49,1.43,2.12.58,4.31,1.05,6.54,1.41.74.12,1.49.23,2.24.33,5.41.71,11,.83,16.37.4,1.19-.09,2.38-.22,3.55-.36,1.17-.15,2.32-.32,3.46-.52,2.27-.4,4.46-.9,6.54-1.5,1.48-.43,2.9-.91,4.26-1.44.05-.04.1-.07.15-.11,9.78-8,3.98-18.22-12.97-22.84Z"/>
          <path class="cls-4" d="M414.68,65.02c-4.24-1.15-8.77-1.85-13.33-2.12-1.71-.1-3.43-.14-5.14-.12-1.14.01-2.27.05-3.4.11-3.38.19-6.69.61-9.82,1.24-3.65.74-7.06,1.77-10.05,3.07-.85.37-1.67.77-2.45,1.18-1.56.83-2.97,1.75-4.19,2.75-.61.5-1.16,1.01-1.65,1.52-.49.52-.92,1.04-1.29,1.56-.37.53-.69,1.06-.94,1.59-.51,1.07-.79,2.15-.85,3.23-.05.93.07,1.85.34,2.76.28.93.71,1.85,1.31,2.75.03.05.07.09.1.14.16.23.34.45.52.68,1.19.77,2.52,1.49,3.98,2.17.56.26,1.13.51,1.73.75,1.79.73,3.74,1.39,5.86,1.97,2.12.58,4.31,1.05,6.54,1.41.74.12,1.49.23,2.24.33,5.41.71,11,.83,16.37.4,1.19-.09,2.38-.22,3.55-.36,1.17-.15,2.32-.32,3.46-.52,2.27-.4,4.46-.9,6.54-1.5,3.12-.9,5.99-2.03,8.49-3.36.83-.44,1.63-.91,2.37-1.4s1.45-1,2.1-1.53c2.72-2.22,4.3-4.61,4.85-7.01-1.7-4.74-7.7-9.11-17.22-11.7Z"/>
          <path class="cls-4" d="M293.19,199.91c0,2.31.99,4.51,2.78,6.51.67.75,1.46,1.47,2.34,2.16.59.46,1.23.9,1.91,1.33,2.04,1.29,4.46,2.43,7.19,3.39,3.18,1.12,6.78,2,10.66,2.57,1.11.16,2.24.3,3.4.41,2.31.22,4.69.34,7.14.34,1.22,0,2.43-.03,3.62-.09,1.19-.06,2.36-.14,3.52-.25s2.29-.25,3.4-.41c2.22-.33,4.34-.75,6.35-1.27,1.73-.44,3.36-.96,4.9-1.52,1.57-.58,3.04-1.22,4.38-1.91.07-.04.14-.07.2-.11.34-.18.66-.37.98-.55.81-.87,1.48-1.78,2-2.71.19-.36.37-.72.51-1.08.11-.27.21-.55.29-.83.25-.83.38-1.69.38-2.55s-.13-1.72-.38-2.55c-.08-.28-.18-.55-.29-.83-.15-.36-.32-.73-.51-1.08-1.4-2.57-3.98-4.91-7.45-6.89-.77-.44-1.59-.86-2.44-1.27-.86-.4-1.75-.79-2.69-1.15-1.87-.73-3.89-1.37-6.03-1.92-3.22-.82-6.71-1.43-10.4-1.79-1.23-.12-2.48-.21-3.75-.27-1.27-.06-2.56-.09-3.87-.09-5.44,0-10.61.55-15.28,1.52-7.86,3.07-12.86,7.7-12.86,12.89Z"/>
          <path class="cls-4" d="M340.9,105.2c-1.71-.1-3.43-.14-5.14-.12-1.14.01-2.27.05-3.4.11-3.38.19-6.69.61-9.82,1.24-3.65.74-7.06,1.77-10.05,3.07-.85.37-1.67.77-2.45,1.18-1.56.83-2.97,1.75-4.19,2.75-.61.5-1.16,1.01-1.65,1.52s-.92,1.04-1.29,1.56c-.37.53-.69,1.06-.94,1.59-.51,1.07-.79,2.15-.85,3.23-.05.93.07,1.85.34,2.76.28.93.71,1.85,1.31,2.75.03.05.07.09.1.14.23.33.49.66.76.99,1.79,2.13,4.51,4.1,8.08,5.75.52.24,1.06.48,1.62.7.42.17.85.34,1.28.5,1.31.49,2.72.94,4.21,1.34.66.18,1.33.35,2.01.51s1.36.3,2.04.44c.83.16,1.67.31,2.51.44,3.57.2,7.15.18,10.65-.1,1.19-.09,2.38-.22,3.55-.36,1.17-.15,2.32-.32,3.46-.52,2.27-.4,4.46-.9,6.54-1.5,3.12-.9,5.99-2.03,8.49-3.36.83-.44,1.63-.91,2.37-1.4.75-.49,1.45-1,2.1-1.53,7.75-6.34,6.33-13.98-2.32-19.52-1.8-.76-3.8-1.45-5.98-2.05-4.24-1.15-8.77-1.85-13.33-2.12Z"/>
          <path class="cls-4" d="M208.73,149.02c0,2.31.99,4.51,2.78,6.51.67.75,1.46,1.47,2.34,2.16.59.46,1.23.9,1.91,1.33,2.04,1.29,4.46,2.43,7.19,3.39,3.18,1.12,6.78,2,10.66,2.57,1.11.16,2.24.3,3.4.41,2.31.22,4.69.34,7.14.34.06,0,.12,0,.18,0,1.68-.29,3.31-.62,4.87-1.02,1.84-.47,3.59-1.02,5.23-1.62,1.68-.62,3.25-1.3,4.68-2.04.07-.04.14-.08.22-.12.53-.28,1.03-.56,1.52-.86,3.22-1.92,5.62-4.16,6.95-6.6.19-.36.37-.72.51-1.08.11-.27.21-.55.29-.83.25-.83.38-1.69.38-2.55s-.13-1.72-.38-2.55c-.08-.28-.18-.55-.29-.83-.15-.36-.32-.73-.51-1.08-1.4-2.57-3.98-4.91-7.45-6.89-.77-.44-1.59-.86-2.44-1.27s-1.75-.79-2.69-1.15c-1.87-.73-3.89-1.37-6.03-1.92-1.52-.39-3.11-.73-4.75-1.02-.1,0-.2,0-.3,0-19.57,0-35.43,7.49-35.43,16.72Z"/>
          <path class="cls-4" d="M564.61,131.88c1.04-.65,1.97-1.33,2.79-2.04.55-.47,1.05-.95,1.49-1.45,1.34-1.48,2.23-3.04,2.63-4.64.47-1.86.28-3.77-.61-5.64-.26-.53-.57-1.07-.94-1.59-.74-1.05-1.72-2.09-2.95-3.09-.61-.5-1.27-.98-1.97-1.44-.7-.46-1.44-.9-2.22-1.31-.78-.42-1.6-.81-2.45-1.18-1.71-.74-3.55-1.4-5.5-1.96-1.68-.48-3.43-.9-5.24-1.24-1.85-.35-3.75-.63-5.7-.84-.1-.01-.2-.02-.3-.03-.72-.07-1.45-.13-2.19-.18-4.81-.33-9.77-.21-14.59.43-.7.09-1.4.2-2.1.31-2.09.34-4.14.78-6.12,1.32-1.49.41-2.89.85-4.21,1.34-.44.16-.87.33-1.28.5-.18.07-.35.16-.53.23-2.07,1.33-3.73,2.79-4.94,4.32-.42.54-.79,1.08-1.11,1.63-.31.55-.57,1.11-.77,1.67-.4,1.13-.57,2.27-.51,3.42.09,1.73.72,3.46,1.91,5.15.4.56.86,1.12,1.38,1.67.52.55,1.11,1.09,1.76,1.63,7.75,6.34,22.49,9.58,36.97,8.81,2.3-.35,4.56-.83,6.75-1.42,4.24-1.15,7.78-2.66,10.55-4.39Z"/>
          <path class="cls-4" d="M601.44,182.12c4.24-1.15,7.78-2.66,10.55-4.39,1.04-.65,1.97-1.33,2.79-2.04.55-.47,1.05-.95,1.49-1.45,1.34-1.48,2.23-3.04,2.63-4.64.47-1.86.28-3.77-.61-5.64-.26-.53-.57-1.07-.94-1.59-.74-1.05-1.72-2.09-2.95-3.09-.61-.5-1.27-.98-1.97-1.44-.7-.46-1.44-.9-2.22-1.31-.78-.42-1.6-.81-2.45-1.18-1.71-.74-3.55-1.4-5.5-1.96-1.68-.48-3.43-.9-5.24-1.24-1.85-.35-3.75-.63-5.7-.84-.1-.01-.2-.02-.3-.03-.44-.04-.89-.08-1.34-.11-2.06.1-4.11.26-6.14.53-.75.1-1.5.21-2.24.33-1.11.18-2.22.39-3.31.63-1.09.24-2.17.5-3.23.79-1.59.43-3.09.91-4.49,1.43-.47.17-.92.35-1.37.53-.6.24-1.17.49-1.73.75-4.01,1.85-7.02,4.08-8.93,6.49-.42.54-.79,1.08-1.11,1.63s-.57,1.11-.77,1.67c-.4,1.13-.57,2.27-.51,3.42.1,1.73.72,3.46,1.91,5.15.4.56.86,1.12,1.38,1.67.52.55,1.11,1.09,1.76,1.63,2.72,2.22,6.31,4.06,10.44,5.49,9.56,1.68,20.57,1.41,30.09-1.19Z"/>
          <path class="cls-4" d="M550.29,242.09c4.24-1.15,7.78-2.66,10.55-4.39,1.04-.65,1.97-1.33,2.79-2.04.55-.47,1.05-.95,1.49-1.45,1.34-1.48,2.23-3.04,2.63-4.64.47-1.86.28-3.77-.61-5.64-.26-.53-.57-1.07-.94-1.59-.74-1.05-1.72-2.09-2.95-3.09-.03-.02-.06-.04-.09-.07-1.38-.54-2.81-1.05-4.32-1.48-1.79-.52-3.66-.96-5.6-1.32-1.97-.38-4.01-.68-6.08-.89-.11-.01-.21-.02-.32-.03-.77-.08-1.55-.14-2.34-.19-5.13-.35-10.43-.22-15.58.46-3,.4-5.95.97-8.78,1.74-2.12.58-4.08,1.24-5.86,1.97-.6.24-1.17.49-1.73.75-4.01,1.85-7.02,4.08-8.93,6.49-.42.54-.79,1.08-1.11,1.63s-.57,1.11-.77,1.67c-.4,1.13-.57,2.27-.51,3.42.05.82.22,1.64.51,2.46.05.04.09.08.13.12,9.78,8,31.45,10.74,48.39,6.12Z"/>
          <path class="cls-4" d="M403.8,209.97c.67.75,1.46,1.47,2.34,2.16.59.46,1.23.9,1.91,1.33,2.04,1.29,4.46,2.43,7.19,3.39,3.18,1.12,6.78,2,10.66,2.57,1.11.16,2.24.3,3.4.41,2.31.22,4.69.34,7.14.34,1.22,0,2.43-.03,3.62-.09s2.36-.14,3.52-.25c1.15-.11,2.29-.25,3.4-.41,2.22-.33,4.34-.75,6.35-1.27,1.73-.44,3.36-.96,4.9-1.52,1.57-.58,3.04-1.22,4.38-1.91.07-.04.14-.07.2-.11.49-.26.97-.53,1.43-.8,3.01-1.8,5.27-3.89,6.51-6.18.18-.33.34-.67.48-1.01.42-1.02.63-2.08.63-3.17s-.22-2.14-.63-3.16c-.05-.11-.11-.22-.16-.33-1.41-1.51-3.25-2.92-5.45-4.18-.77-.44-1.59-.86-2.44-1.27-.86-.4-1.75-.79-2.69-1.15-1.87-.73-3.89-1.37-6.03-1.92-3.22-.82-6.71-1.43-10.4-1.79-1.23-.12-2.48-.21-3.75-.27-1.27-.06-2.56-.09-3.87-.09-15.5,0-28.82,4.4-34.66,10.71-.5,1.12-.77,2.28-.77,3.47,0,2.31.99,4.51,2.78,6.51Z"/>
          <path class="cls-13" d="M569.24,243.68c1.11-.69,2.11-1.42,2.98-2.18.58-.5,1.12-1.02,1.59-1.54.1-.11.18-.22.27-.33-12.52,4.24-25.95,7.93-40.13,10.96,8.03.52,16.46-.16,24.02-2.22,4.52-1.23,8.3-2.84,11.26-4.69Z"/>
          <path class="cls-13" d="M543.74,47.41c-1.83-.11-3.66-.15-5.49-.13-1.22.01-2.43.05-3.63.12-.22.01-.44.03-.66.05,14.18,3.04,27.61,6.72,40.13,10.96-3.05-3.56-8.54-6.68-16.12-8.74-4.52-1.23-9.36-1.97-14.23-2.26Z"/>
          <path class="cls-13" d="M200.2,149.02c0-3.7.39-7.35,1.14-10.96-5,3.03-7.98,6.83-7.98,10.96,0,2.46,1.06,4.81,2.97,6.95.72.8,1.56,1.57,2.5,2.31.63.49,1.31.97,2.04,1.42.15.09.32.18.47.28-.74-3.6-1.14-7.26-1.14-10.95Z"/>
          <path class="cls-13" d="M413.21,59.35c-4.52-1.23-9.36-1.97-14.23-2.26-1.83-.11-3.66-.15-5.49-.13-1.22.01-2.43.05-3.63.12-3.61.2-7.15.65-10.49,1.33-3.9.79-7.54,1.89-10.72,3.28-.91.4-1.79.82-2.62,1.26-1.67.89-3.17,1.87-4.48,2.93-.65.53-1.24,1.08-1.76,1.63-.52.55-.98,1.11-1.38,1.67-.4.56-.73,1.13-1.01,1.7-.55,1.14-.85,2.3-.91,3.45-.05.99.08,1.98.37,2.95.3.99.76,1.98,1.4,2.93.03.05.07.1.1.15.25.35.52.7.81,1.05,1.18,1.4,2.74,2.74,4.65,3.97-.18-.22-.37-.45-.52-.68-.03-.05-.07-.09-.1-.14-.6-.9-1.04-1.81-1.31-2.75-.27-.91-.39-1.84-.34-2.76.06-1.08.34-2.16.85-3.23.26-.53.57-1.07.94-1.59.37-.53.8-1.05,1.29-1.56.49-.52,1.04-1.02,1.65-1.52,1.22-1,2.63-1.92,4.19-2.75.78-.42,1.6-.81,2.45-1.18,2.99-1.3,6.39-2.33,10.05-3.07,3.13-.63,6.44-1.05,9.82-1.24,1.13-.06,2.26-.1,3.4-.11,1.71-.02,3.43.02,5.14.12,4.57.27,9.1.96,13.33,2.12,9.52,2.59,15.52,6.96,17.22,11.7,1.55-6.81-5.31-13.73-18.69-17.37Z"/>
          <path class="cls-13" d="M524.14,48.72c-3.9.79-7.54,1.89-10.72,3.28-.91.4-1.79.82-2.62,1.26-1.67.89-3.17,1.87-4.48,2.93-.65.53-1.24,1.08-1.76,1.63s-.98,1.11-1.38,1.67-.73,1.13-1.01,1.7c-.16.33-.29.66-.41.99.05-.04.09-.08.14-.12,1.22-1,2.63-1.92,4.19-2.75.78-.42,1.6-.81,2.45-1.18,2.99-1.3,6.39-2.33,10.05-3.07,3.13-.63,6.44-1.05,9.82-1.24,1.13-.06,2.26-.1,3.4-.11,1.71-.02,3.43.02,5.14.12,4.57.27,9.1.96,13.33,2.12,16.94,4.62,22.75,14.84,12.97,22.84-.05.04-.1.07-.15.11,1.5-.58,2.92-1.22,4.23-1.92.83-.44,1.63-.91,2.37-1.4.75-.49,1.45-1,2.1-1.53,6.06-4.96,6.51-10.71,2.28-15.64-12.52-4.24-25.95-7.93-40.13-10.96-3.38.22-6.69.64-9.83,1.28Z"/>
          <path class="cls-13" d="M612.58,184.36c4.52-1.23,8.3-2.84,11.26-4.69,1.11-.69,2.11-1.42,2.98-2.18.58-.5,1.12-1.02,1.59-1.54,1.43-1.58,2.38-3.25,2.81-4.95.5-1.99.3-4.02-.66-6.02-.27-.57-.61-1.14-1.01-1.7-.79-1.12-1.84-2.23-3.15-3.3-.65-.53-1.35-1.05-2.1-1.53-.75-.49-1.54-.96-2.37-1.4-.83-.44-1.71-.86-2.62-1.26-1.82-.79-3.79-1.49-5.87-2.1-1.79-.52-3.66-.96-5.6-1.32-1.97-.38-4.01-.68-6.08-.89-.11-.01-.21-.02-.32-.03-.77-.08-1.55-.14-2.34-.19-3.11-.21-6.28-.23-9.44-.07.45.04.89.07,1.34.11.1.01.2.02.3.03,1.94.2,3.85.48,5.7.84,1.81.35,3.57.76,5.24,1.24,1.95.56,3.79,1.22,5.5,1.96.85.37,1.67.77,2.45,1.18.78.42,1.52.85,2.22,1.31.7.46,1.36.94,1.97,1.44,1.22,1,2.2,2.03,2.95,3.09.37.53.69,1.06.94,1.59.9,1.87,1.08,3.78.61,5.64-.4,1.6-1.29,3.16-2.63,4.64-.45.49-.95.98-1.49,1.45-.82.71-1.75,1.39-2.79,2.04-2.77,1.73-6.31,3.24-10.55,4.39-9.52,2.59-20.53,2.87-30.09,1.19,11.72,4.04,27.85,4.69,41.22,1.05Z"/>
          <path class="cls-13" d="M401.59,214.09c.72.8,1.56,1.57,2.5,2.31.63.49,1.31.97,2.04,1.42,2.18,1.37,4.77,2.6,7.68,3.62,3.4,1.2,7.24,2.14,11.38,2.74,1.18.17,2.39.32,3.62.44,2.46.24,5.01.36,7.62.36,1.31,0,2.6-.03,3.87-.09,1.27-.06,2.52-.15,3.75-.27s2.44-.27,3.62-.44c2.37-.35,4.64-.8,6.78-1.35,1.84-.47,3.59-1.02,5.23-1.62,1.68-.62,3.25-1.3,4.68-2.04.07-.04.14-.08.22-.12.53-.28,1.03-.56,1.52-.86,3.22-1.92,5.62-4.16,6.95-6.6.19-.36.37-.72.51-1.08.11-.27.21-.55.29-.83.25-.83.38-1.69.38-2.55s-.13-1.72-.38-2.55c-.08-.28-.18-.55-.29-.83-.15-.36-.32-.73-.51-1.08-.51-.94-1.18-1.84-1.99-2.71.05.11.11.22.16.33.42,1.02.63,2.08.63,3.16s-.22,2.14-.63,3.17c-.14.34-.3.68-.48,1.01-1.25,2.29-3.5,4.38-6.51,6.18-.46.27-.93.54-1.43.8-.07.04-.13.07-.2.11-1.34.69-2.81,1.33-4.38,1.91-1.54.57-3.17,1.08-4.9,1.52-2.01.51-4.13.94-6.35,1.27-1.11.16-2.24.3-3.4.41-1.15.11-2.33.2-3.52.25s-2.4.09-3.62.09c-2.45,0-4.83-.12-7.14-.34-1.15-.11-2.29-.25-3.4-.41-3.88-.57-7.48-1.45-10.66-2.57-2.73-.96-5.15-2.11-7.19-3.39-.68-.43-1.32-.87-1.91-1.33-.89-.69-1.67-1.41-2.34-2.16-1.79-2-2.78-4.2-2.78-6.51,0-1.19.27-2.35.77-3.47-2.03,2.19-3.16,4.6-3.16,7.14s1.06,4.81,2.97,6.95Z"/>
          <path class="cls-13" d="M334.45,102.24c-1.83-.11-3.66-.15-5.49-.13-1.22.01-2.43.05-3.63.12-3.61.2-7.15.65-10.49,1.33-3.9.79-7.54,1.89-10.72,3.28-.91.4-1.79.82-2.62,1.26-1.67.89-3.17,1.87-4.48,2.93-.65.53-1.24,1.08-1.76,1.63-.52.55-.98,1.11-1.38,1.67s-.73,1.13-1.01,1.7c-.55,1.14-.85,2.3-.91,3.45-.05.99.08,1.98.37,2.95.3.99.76,1.98,1.4,2.93.03.05.07.1.1.15.25.35.52.7.81,1.05,1.91,2.27,4.81,4.37,8.63,6.14.56.26,1.13.51,1.73.75.45.18.9.36,1.37.53,1.4.52,2.9,1,4.49,1.43,1.41.39,2.86.72,4.32,1.01s2.95.53,4.46.73c1.89.25,3.8.4,5.72.5-.84-.13-1.68-.28-2.51-.44-.69-.14-1.37-.28-2.04-.44s-1.34-.33-2.01-.51c-1.49-.41-2.89-.85-4.21-1.34-.44-.16-.87-.33-1.28-.5-.56-.23-1.1-.46-1.62-.7-3.57-1.65-6.29-3.62-8.08-5.75-.27-.32-.53-.65-.76-.99-.03-.05-.07-.09-.1-.14-.6-.9-1.04-1.82-1.31-2.75-.27-.91-.39-1.84-.34-2.76.06-1.08.34-2.16.85-3.23.26-.53.57-1.07.94-1.59.37-.53.8-1.05,1.29-1.56s1.04-1.02,1.65-1.52c1.22-1,2.63-1.92,4.19-2.75.78-.42,1.6-.81,2.45-1.18,2.99-1.3,6.39-2.33,10.05-3.07,3.13-.63,6.44-1.05,9.82-1.24,1.13-.06,2.26-.1,3.4-.11,1.71-.02,3.43.02,5.14.12,4.57.27,9.1.96,13.33,2.12,2.18.59,4.18,1.28,5.98,2.05-3-1.92-6.87-3.59-11.53-4.86-4.52-1.23-9.36-1.97-14.23-2.26Z"/>
          <path class="cls-13" d="M288.99,212.59c.63.49,1.31.97,2.04,1.42,2.18,1.37,4.77,2.6,7.68,3.62,3.4,1.2,7.24,2.14,11.38,2.74,1.18.17,2.39.32,3.62.44,2.46.24,5.01.36,7.62.36,1.31,0,2.6-.03,3.87-.09,1.27-.06,2.52-.15,3.75-.27s2.44-.27,3.62-.44c2.37-.35,4.64-.8,6.78-1.35,1.84-.47,3.59-1.02,5.23-1.62,1.68-.62,3.25-1.3,4.68-2.04.07-.04.14-.08.22-.12.53-.28,1.03-.56,1.52-.86,1.98-1.18,3.65-2.49,4.96-3.88-.32.19-.64.37-.98.55-.07.04-.13.07-.2.11-1.34.69-2.81,1.33-4.38,1.91-1.54.57-3.17,1.08-4.9,1.52-2.01.51-4.13.94-6.35,1.27-1.11.16-2.24.3-3.4.41s-2.33.2-3.52.25c-1.19.06-2.4.09-3.62.09-2.45,0-4.83-.12-7.14-.34-1.15-.11-2.29-.25-3.4-.41-3.88-.57-7.48-1.45-10.66-2.57-2.73-.96-5.15-2.11-7.19-3.39-.68-.43-1.32-.87-1.91-1.33-.89-.69-1.67-1.41-2.34-2.16-1.79-2-2.78-4.2-2.78-6.51,0-5.19,5.01-9.82,12.86-12.89-13.27,2.77-22.53,9.04-22.53,16.32,0,2.46,1.06,4.81,2.97,6.95.72.8,1.56,1.57,2.5,2.31Z"/>
          <path class="cls-13" d="M576.63,235.01c.5-1.99.3-4.02-.66-6.02-.27-.57-.61-1.14-1.01-1.7-.79-1.12-1.84-2.23-3.15-3.3-.65-.53-1.35-1.05-2.1-1.53-.75-.49-1.54-.96-2.37-1.4-.83-.44-1.71-.86-2.62-1.26-.5-.22-1.03-.41-1.55-.61.03.02.06.04.09.07,1.22,1,2.2,2.03,2.95,3.09.37.53.69,1.06.94,1.59.9,1.87,1.08,3.78.61,5.64-.4,1.6-1.29,3.16-2.63,4.64-.45.49-.95.98-1.49,1.45-.82.71-1.75,1.39-2.79,2.04-2.77,1.73-6.31,3.24-10.55,4.39-16.94,4.62-38.61,1.88-48.39-6.12-.05-.04-.09-.08-.13-.12.32.9.78,1.8,1.41,2.69.4.56.86,1.12,1.38,1.67.52.55,1.11,1.09,1.76,1.63,6.08,4.97,16.46,8.03,27.64,8.76,14.18-3.04,27.61-6.72,40.13-10.96,1.27-1.48,2.14-3.03,2.54-4.62Z"/>
          <path class="cls-13" d="M200.2,149.02c0,3.7.39,7.35,1.14,10.95,2.08,1.26,4.5,2.39,7.21,3.35,3.4,1.2,7.24,2.14,11.38,2.74,1.18.17,2.39.32,3.62.44,2.46.24,5.01.36,7.62.36,1.31,0,2.6-.03,3.87-.09s2.52-.15,3.75-.27c1.23-.12,2.44-.27,3.62-.44.65-.1,1.28-.22,1.91-.33-.06,0-.12,0-.18,0-2.45,0-4.83-.12-7.14-.34-1.15-.11-2.29-.25-3.4-.41-3.88-.57-7.48-1.45-10.66-2.57-2.73-.96-5.15-2.11-7.19-3.39-.68-.43-1.32-.87-1.91-1.33-.89-.69-1.67-1.41-2.34-2.16-1.79-2-2.78-4.2-2.78-6.51,0-9.23,15.86-16.72,35.43-16.72.1,0,.2,0,.3,0-1.82-.32-3.71-.59-5.65-.77-1.23-.12-2.48-.21-3.75-.27s-2.56-.09-3.87-.09c-12.13,0-22.91,2.7-29.83,6.89-.75,3.61-1.14,7.26-1.14,10.96Z"/>
          <path class="cls-13" d="M573.27,130.72c1.11-.69,2.11-1.42,2.98-2.18.58-.5,1.12-1.02,1.59-1.54,1.43-1.58,2.38-3.25,2.81-4.95.5-1.99.3-4.02-.66-6.02-.27-.57-.61-1.14-1.01-1.7-.79-1.12-1.84-2.23-3.15-3.3-.65-.53-1.35-1.05-2.1-1.53-.75-.49-1.54-.96-2.37-1.4s-1.71-.86-2.62-1.26c-1.82-.79-3.79-1.49-5.87-2.1-1.79-.52-3.66-.96-5.6-1.32-1.97-.38-4.01-.68-6.08-.89-.11-.01-.21-.02-.32-.03-.77-.08-1.55-.14-2.34-.19-5.13-.35-10.43-.22-15.58.46-.75.1-1.5.21-2.24.33-1.11.18-2.22.39-3.31.63-1.09.24-2.17.5-3.23.79-2.12.58-4.08,1.24-5.86,1.97-.6.24-1.17.49-1.73.75-1.46.68-2.79,1.4-3.98,2.17.18-.08.35-.16.53-.23.42-.17.85-.34,1.28-.5,1.31-.49,2.72-.94,4.21-1.34,1.99-.54,4.04-.98,6.12-1.32.7-.11,1.4-.22,2.1-.31,4.82-.63,9.79-.76,14.59-.43.73.05,1.46.11,2.19.18.1,0,.2.02.3.03,1.94.2,3.85.48,5.7.84,1.81.35,3.57.76,5.24,1.24,1.95.56,3.79,1.22,5.5,1.96.85.37,1.67.77,2.45,1.18.78.42,1.52.85,2.22,1.31.7.46,1.36.94,1.97,1.44,1.22,1,2.2,2.03,2.95,3.09.37.53.69,1.06.94,1.59.9,1.87,1.08,3.78.61,5.64-.4,1.6-1.29,3.16-2.63,4.64-.45.49-.95.98-1.49,1.45-.82.71-1.75,1.39-2.79,2.04-2.77,1.73-6.31,3.24-10.55,4.39-2.18.59-4.44,1.06-6.75,1.42,5.03-.27,10.02-1.01,14.69-2.28,4.52-1.23,8.3-2.84,11.26-4.69Z"/>
          <path class="cls-13" d="M471.23,206.63c.42-1.02.63-2.08.63-3.17s-.22-2.14-.63-3.16c.42,1.02.63,2.08.63,3.16s-.22,2.14-.63,3.17Z"/>
          <path class="cls-13" d="M524.76,105.99c-2.09.34-4.14.78-6.12,1.32-1.49.41-2.89.85-4.21,1.34,1.31-.49,2.72-.94,4.21-1.34,1.99-.54,4.04-.98,6.12-1.32Z"/>
          <path class="cls-14" d="M514.43,108.66c-.44.16-.87.33-1.28.5"/>
          <path class="cls-13" d="M314.6,134.93c1.31.49,2.72.94,4.21,1.34.66.18,1.33.35,2.01.51-.68-.16-1.34-.33-2.01-.51-1.49-.41-2.89-.85-4.21-1.34Z"/>
          <path class="cls-14" d="M313.32,134.43c.42.17.85.34,1.28.5"/>
          <path class="cls-14" d="M322.86,137.22c-.69-.14-1.37-.28-2.04-.44"/>
          <path class="cls-14" d="M325.37,137.66c-.84-.13-1.68-.28-2.51-.44"/>
          <path class="cls-13" d="M436.44,25.94c-140.07,0-254.33,52.12-260.51,117.5-.18,1.85-.28,3.71-.28,5.58h0c0,67.98,116.76,123.08,260.79,123.08s260.79-55.1,260.79-123.08c0-1.87-.1-3.73-.28-5.58-6.18-65.38-120.44-117.5-260.51-117.5ZM436.44,268.03c-139.27,0-252.18-53.28-252.18-119.01S297.16,30,436.44,30s252.18,53.28,252.18,119.01-112.9,119.01-252.18,119.01Z"/>
          <g>
            <path class="cls-11" d="M436.44,267.53c-138.78,0-251.68-53.17-251.68-118.51S297.66,30.5,436.44,30.5s251.68,53.17,251.68,118.51-112.9,118.51-251.68,118.51ZM539,214.56c-3.43,0-6.83.22-10.12.65-3.08.41-6.06,1-8.85,1.76-2.1.57-4.09,1.24-5.92,1.99-.6.25-1.19.5-1.75.76-4.04,1.87-7.1,4.1-9.11,6.63-.44.55-.83,1.12-1.15,1.69-.33.58-.6,1.17-.81,1.75-.42,1.19-.61,2.41-.54,3.62.05.85.23,1.73.54,2.6.34.97.84,1.91,1.47,2.81.41.58.89,1.16,1.43,1.73.54.57,1.15,1.13,1.81,1.67,5.96,4.87,16.14,8.11,27.92,8.87,1.72.11,3.47.17,5.2.17,6.64,0,13.21-.83,18.99-2.41,4.47-1.22,8.3-2.81,11.4-4.75,1.12-.7,2.14-1.45,3.04-2.22.6-.51,1.15-1.05,1.64-1.59.06-.07.12-.14.18-.21l.1-.13c1.34-1.56,2.23-3.18,2.65-4.82.54-2.14.31-4.28-.69-6.36-.28-.59-.64-1.19-1.05-1.77-.83-1.18-1.92-2.32-3.24-3.4-.66-.54-1.38-1.07-2.15-1.57-.75-.49-1.57-.97-2.41-1.42-.84-.45-1.73-.88-2.65-1.28-.36-.16-.74-.3-1.12-.45l-.45-.17c-1.56-.61-2.99-1.1-4.36-1.5-1.75-.51-3.65-.96-5.64-1.34-2.02-.38-4.08-.69-6.12-.9l-.32-.03c-.78-.08-1.56-.14-2.35-.2-1.84-.13-3.71-.19-5.56-.19ZM436.44,188.79c-15.16,0-28.91,4.27-35.03,10.87-2.18,2.36-3.29,4.87-3.29,7.48s1.04,4.99,3.1,7.28c.73.82,1.6,1.61,2.57,2.37.63.49,1.33.98,2.08,1.45,2.21,1.39,4.83,2.63,7.78,3.67,3.48,1.23,7.34,2.16,11.47,2.77,1.2.18,2.43.33,3.65.44,2.51.24,5.09.37,7.67.37,1.3,0,2.61-.03,3.89-.09,1.26-.06,2.53-.15,3.78-.27,1.21-.12,2.44-.27,3.65-.44,2.36-.35,4.66-.81,6.83-1.36,1.81-.46,3.58-1.02,5.28-1.64,1.71-.63,3.31-1.33,4.74-2.06l.15-.08c.61-.32,1.12-.61,1.62-.91,3.38-2.02,5.78-4.3,7.13-6.79.2-.37.38-.75.54-1.13.12-.29.22-.58.31-.87.27-.89.41-1.79.41-2.7s-.14-1.81-.41-2.7c-.09-.29-.19-.58-.31-.87-.15-.38-.34-.76-.54-1.13-.52-.95-1.22-1.9-2.07-2.81-1.44-1.54-3.31-2.98-5.57-4.27-.78-.45-1.61-.88-2.48-1.29-.85-.4-1.77-.79-2.72-1.17-1.89-.74-3.94-1.39-6.09-1.94-3.29-.84-6.82-1.45-10.48-1.81-1.23-.12-2.5-.21-3.78-.27-1.29-.06-2.6-.09-3.89-.09ZM321.33,184.99c-5.34,0-10.51.52-15.39,1.53-13.93,2.91-22.93,9.51-22.93,16.81,0,2.54,1.04,4.99,3.1,7.28.73.81,1.59,1.61,2.57,2.37.64.5,1.34.99,2.08,1.45,2.21,1.4,4.83,2.63,7.78,3.67,3.49,1.23,7.35,2.16,11.48,2.77,1.2.18,2.42.32,3.65.44,2.51.24,5.09.36,7.67.36,1.29,0,2.6-.03,3.89-.09,1.28-.06,2.55-.15,3.78-.27,1.22-.12,2.45-.27,3.65-.44,2.36-.35,4.66-.81,6.83-1.36,1.81-.46,3.59-1.02,5.28-1.64,1.72-.64,3.32-1.33,4.74-2.06l.22-.12c.54-.28,1.05-.57,1.55-.87,2.04-1.22,3.74-2.55,5.06-3.97.85-.91,1.55-1.86,2.07-2.81.2-.37.38-.75.54-1.13.12-.29.22-.58.31-.87.27-.89.41-1.79.41-2.7s-.14-1.81-.41-2.7c-.09-.29-.19-.58-.31-.87-.15-.38-.34-.76-.54-1.13-1.43-2.62-4-5.01-7.64-7.09-.78-.44-1.61-.88-2.48-1.29-.87-.41-1.79-.8-2.72-1.17-1.89-.74-3.94-1.39-6.09-1.94-3.29-.84-6.82-1.45-10.48-1.8-1.25-.12-2.52-.21-3.78-.27-1.28-.06-2.59-.09-3.89-.09ZM593.9,150.57c-1.38,0-2.81.04-4.24.11-2.32.11-4.34.29-6.18.53-.76.1-1.51.21-2.26.33-1.12.18-2.24.4-3.33.63-1.11.24-2.2.5-3.25.79-1.58.43-3.11.92-4.53,1.45-.47.17-.93.35-1.39.54-.6.25-1.19.5-1.75.76-4.04,1.87-7.1,4.1-9.11,6.63-.44.56-.83,1.12-1.15,1.69-.33.58-.6,1.17-.81,1.75-.42,1.19-.61,2.41-.54,3.62.1,1.85.78,3.67,2.01,5.41.41.58.89,1.16,1.43,1.73.54.57,1.15,1.13,1.81,1.67,2.7,2.21,6.26,4.08,10.59,5.57,6.49,2.24,14.49,3.47,22.53,3.47,6.64,0,13.2-.83,18.99-2.41,4.47-1.22,8.3-2.81,11.4-4.75,1.12-.7,2.14-1.45,3.04-2.22.6-.51,1.15-1.05,1.64-1.59,1.49-1.64,2.47-3.38,2.92-5.16.54-2.14.31-4.28-.69-6.36-.28-.59-.64-1.19-1.05-1.77-.83-1.18-1.92-2.32-3.24-3.4-.66-.54-1.38-1.07-2.15-1.57-.75-.49-1.57-.97-2.41-1.42-.84-.45-1.73-.88-2.65-1.28-1.82-.79-3.81-1.5-5.93-2.12-1.75-.51-3.65-.96-5.64-1.34-2.02-.38-4.08-.69-6.12-.9l-.32-.03c-.78-.08-1.56-.14-2.35-.2-1.7-.12-3.47-.18-5.26-.18ZM436.44,111.89c-43.06,0-78.1,16.65-78.1,37.12s35.03,37.12,78.1,37.12,78.1-16.65,78.1-37.12-35.04-37.12-78.1-37.12ZM231.17,130.67c-11.82,0-22.79,2.54-30.09,6.96-5.38,3.26-8.23,7.2-8.23,11.39,0,2.54,1.04,4.99,3.1,7.28.73.81,1.59,1.61,2.57,2.37.64.5,1.34.99,2.08,1.45.09.06.48.28.48.28,2.14,1.3,4.6,2.44,7.3,3.39,3.49,1.23,7.35,2.16,11.47,2.77,1.18.17,2.41.32,3.65.44,2.51.24,5.09.36,7.67.36,1.29,0,2.6-.03,3.89-.09,1.28-.06,2.55-.15,3.78-.27,1.24-.12,2.46-.27,3.65-.44.47-.07.93-.15,1.39-.24l.54-.1c1.9-.33,3.5-.67,4.9-1.03,1.81-.46,3.58-1.01,5.28-1.64,1.72-.63,3.31-1.33,4.74-2.06l.22-.12c.54-.28,1.05-.57,1.55-.87,3.38-2.02,5.78-4.3,7.13-6.79.2-.37.38-.75.54-1.13.12-.29.22-.58.31-.87.27-.89.41-1.79.41-2.7s-.14-1.81-.41-2.7c-.09-.29-.19-.58-.31-.87-.15-.38-.33-.76-.54-1.13-1.43-2.62-4-5.01-7.64-7.09-.78-.44-1.61-.88-2.48-1.29-.87-.41-1.78-.8-2.72-1.17-1.89-.74-3.94-1.39-6.09-1.94-1.51-.39-3.12-.73-4.79-1.03-1.89-.33-3.81-.6-5.69-.78-1.24-.12-2.52-.21-3.78-.27-1.28-.06-2.59-.09-3.89-.09ZM543.03,101.61c-3.43,0-6.84.22-10.13.65-.76.1-1.51.21-2.26.33-1.12.18-2.25.4-3.33.63-1.1.24-2.2.5-3.25.79-2.1.57-4.09,1.24-5.92,1.99-.6.25-1.19.5-1.75.76-1.46.67-2.82,1.42-4.04,2.2-2.11,1.36-3.81,2.85-5.06,4.43-.44.55-.82,1.12-1.15,1.69-.33.58-.6,1.17-.81,1.75-.42,1.19-.61,2.41-.54,3.62.1,1.85.78,3.67,2.01,5.41.41.58.89,1.16,1.43,1.73.54.57,1.15,1.13,1.81,1.67,6.82,5.57,19.5,9.04,33.1,9.04,1.41,0,2.83-.04,4.22-.11,5.23-.28,10.21-1.05,14.79-2.3,4.47-1.22,8.3-2.81,11.4-4.75,1.12-.7,2.15-1.45,3.04-2.22.6-.51,1.15-1.05,1.64-1.59,1.49-1.64,2.47-3.38,2.92-5.16.54-2.14.31-4.28-.69-6.36-.29-.6-.64-1.2-1.05-1.77-.83-1.17-1.92-2.32-3.24-3.39-.66-.54-1.38-1.07-2.15-1.57-.75-.49-1.56-.97-2.41-1.42-.84-.45-1.73-.88-2.65-1.28-1.82-.79-3.82-1.51-5.93-2.12-1.75-.51-3.65-.96-5.64-1.34-2.02-.38-4.08-.69-6.12-.9l-.32-.03c-.78-.08-1.56-.14-2.35-.2-1.84-.13-3.7-.19-5.55-.19ZM328.96,101.61c-1.23.01-2.46.05-3.65.12-3.64.2-7.19.65-10.56,1.33-4,.81-7.64,1.92-10.83,3.31-.92.4-1.82.83-2.65,1.28-1.72.92-3.25,1.92-4.56,2.99-.66.54-1.27,1.1-1.81,1.67-.54.56-1.02,1.14-1.43,1.73-.41.58-.76,1.18-1.05,1.77-.57,1.19-.89,2.41-.96,3.63-.06,1.02.07,2.07.39,3.12.31,1.06.81,2.09,1.47,3.07l.06.09c.3.43.58.79.89,1.15,2.01,2.39,4.97,4.5,8.8,6.27.56.26,1.15.51,1.75.76.45.18.91.36,1.39.54,1.43.53,2.95,1.01,4.53,1.45,1.41.38,2.87.73,4.36,1.02,1.47.29,2.98.54,4.49.74,1.7.22,3.53.38,5.76.51,1.58.09,3.15.13,4.69.13,2.05,0,4.08-.08,6.03-.23,1.21-.1,2.41-.22,3.57-.37,1.18-.15,2.35-.33,3.48-.53,2.29-.4,4.51-.91,6.59-1.52,3.2-.92,6.09-2.07,8.59-3.4.85-.45,1.66-.93,2.41-1.42.76-.5,1.48-1.03,2.15-1.56,3.63-2.97,5.44-6.36,5.24-9.81-.22-3.84-2.85-7.48-7.6-10.52-3.15-2.02-7.07-3.67-11.66-4.92-4.45-1.21-9.28-1.98-14.34-2.28-1.54-.09-3.11-.14-4.66-.14h-.86ZM393.49,56.47c-1.21.01-2.44.05-3.65.12-3.64.2-7.19.65-10.56,1.33-4,.81-7.64,1.92-10.82,3.31-.92.4-1.81.83-2.65,1.28-1.72.91-3.25,1.92-4.56,2.99-.66.54-1.27,1.1-1.81,1.67-.53.56-1.01,1.14-1.43,1.73-.41.58-.76,1.18-1.05,1.77-.57,1.19-.89,2.41-.96,3.64-.06,1.02.07,2.07.39,3.12.31,1.06.81,2.09,1.47,3.07l.06.09c.3.43.58.79.88,1.15,1.22,1.45,2.82,2.82,4.76,4.07,1.23.79,2.58,1.53,4.04,2.21.56.26,1.15.51,1.75.76,1.83.75,3.82,1.41,5.92,1.99,2.1.57,4.32,1.05,6.59,1.42.75.12,1.5.23,2.26.33,3.3.43,6.72.65,10.16.65,2.11,0,4.23-.08,6.32-.25,1.2-.09,2.4-.22,3.57-.37,1.18-.15,2.35-.33,3.48-.53,2.3-.41,4.52-.92,6.59-1.52,3.21-.93,6.09-2.07,8.59-3.4.85-.45,1.66-.93,2.41-1.42.76-.5,1.48-1.03,2.15-1.57,2.74-2.24,4.43-4.69,5.02-7.29,1.66-7.31-5.81-14.36-19.05-17.97-4.46-1.21-9.28-1.98-14.34-2.28-1.54-.09-3.11-.14-4.66-.14h-.86ZM538.25,46.78c-1.2.01-2.43.05-3.65.12l-.66.05c-3.45.22-6.78.66-9.9,1.29-4,.81-7.64,1.92-10.83,3.31-.92.4-1.81.83-2.65,1.28-1.71.91-3.25,1.92-4.56,2.99-.66.54-1.27,1.1-1.81,1.67-.54.56-1.02,1.14-1.43,1.73-.41.58-.76,1.18-1.05,1.77-.17.35-.3.69-.43,1.04-.31.87-.49,1.74-.53,2.6-.06,1.02.07,2.07.39,3.12.31,1.06.81,2.09,1.47,3.07l.06.09c.3.43.58.79.88,1.15,2.01,2.39,4.97,4.5,8.8,6.27.56.26,1.15.51,1.75.76.45.18.91.36,1.39.54,1.43.53,2.95,1.01,4.53,1.45,2.1.57,4.32,1.05,6.59,1.42.75.12,1.5.23,2.26.33,3.3.43,6.72.65,10.16.65,2.11,0,4.23-.08,6.32-.25,1.2-.09,2.4-.22,3.57-.37,1.18-.15,2.35-.33,3.48-.53,2.29-.4,4.51-.91,6.59-1.51,1.46-.42,2.91-.91,4.3-1.45,1.55-.6,2.99-1.26,4.28-1.94.85-.45,1.66-.93,2.41-1.42.76-.5,1.49-1.03,2.15-1.57,3.15-2.57,4.95-5.51,5.22-8.5.24-2.67-.76-5.39-2.87-7.85-3.25-3.79-8.92-6.87-16.37-8.9-4.45-1.21-9.28-1.98-14.34-2.28-1.54-.09-3.11-.14-4.66-.14h-.86Z"/>
            <path class="cls-3" d="M436.44,31c138.5,0,251.18,52.94,251.18,118.01s-112.68,118.01-251.18,118.01-251.18-52.94-251.18-118.01S297.94,31,436.44,31M539.03,83.97c2.12,0,4.26-.08,6.36-.25,1.2-.1,2.41-.22,3.59-.37,1.18-.15,2.36-.33,3.5-.53,2.31-.41,4.54-.92,6.64-1.53,1.48-.43,2.94-.92,4.35-1.47,1.57-.61,3.03-1.27,4.34-1.97.86-.46,1.69-.95,2.45-1.45.78-.51,1.52-1.05,2.19-1.6,3.26-2.66,5.12-5.72,5.4-8.84.25-2.81-.79-5.65-2.99-8.22-3.32-3.87-9.07-7-16.62-9.06-4.49-1.22-9.35-1.99-14.44-2.29-1.55-.09-3.13-.14-4.7-.14-.29,0-.57,0-.86,0-1.22.01-2.46.05-3.68.12-.13,0-.26.02-.39.03l-.28.02c-3.47.22-6.82.66-9.97,1.3-4.03.82-7.71,1.94-10.93,3.34-.94.41-1.84.84-2.69,1.3-1.74.93-3.3,1.95-4.64,3.04-.68.55-1.3,1.13-1.86,1.71-.55.58-1.05,1.18-1.47,1.78-.43.6-.79,1.22-1.09,1.85-.16.33-.3.69-.45,1.09-.32.91-.51,1.83-.56,2.74-.06,1.08.08,2.18.41,3.29.33,1.1.84,2.18,1.53,3.21l.08.11.03.05c.25.36.53.73.87,1.13,2.06,2.45,5.08,4.6,8.97,6.4.57.26,1.17.52,1.77.77.46.19.92.37,1.4.55,1.44.53,2.98,1.03,4.58,1.46,2.12.58,4.35,1.06,6.64,1.43.74.12,1.51.23,2.27.34,3.32.44,6.76.66,10.22.66M394.27,93.66c2.12,0,4.26-.08,6.36-.25,1.21-.1,2.42-.22,3.59-.37,1.18-.15,2.36-.33,3.5-.53,2.31-.41,4.54-.92,6.64-1.53,3.24-.94,6.16-2.09,8.68-3.43.86-.46,1.68-.94,2.45-1.45.78-.51,1.52-1.05,2.19-1.6,2.83-2.31,4.57-4.86,5.19-7.56,1.73-7.59-5.89-14.88-19.4-18.56-4.49-1.22-9.35-1.99-14.44-2.29-1.55-.09-3.13-.14-4.69-.14-.29,0-.58,0-.86,0-1.22.01-2.46.05-3.68.12-3.66.21-7.24.66-10.63,1.34-4.03.82-7.71,1.94-10.93,3.34-.94.41-1.84.84-2.69,1.3-1.75.93-3.31,1.95-4.64,3.04-.68.55-1.3,1.13-1.86,1.71-.55.58-1.05,1.18-1.47,1.78-.43.6-.79,1.22-1.09,1.85-.6,1.25-.94,2.53-1.01,3.82-.06,1.08.08,2.18.41,3.29.33,1.1.84,2.18,1.53,3.21l.07.1.04.05c.25.35.53.72.87,1.13,1.25,1.49,2.89,2.89,4.87,4.16,1.25.8,2.63,1.56,4.1,2.24.57.26,1.17.52,1.77.77,1.84.75,3.85,1.43,5.98,2,2.12.58,4.35,1.06,6.64,1.43.75.12,1.52.24,2.27.34,3.32.44,6.76.66,10.22.66M330.03,138.79c2.06,0,4.11-.08,6.07-.23,1.21-.1,2.41-.22,3.59-.37,1.19-.15,2.36-.33,3.5-.53,2.31-.41,4.55-.92,6.64-1.53,3.24-.94,6.16-2.09,8.68-3.43.86-.46,1.69-.94,2.45-1.45.78-.51,1.52-1.05,2.19-1.6,3.76-3.07,5.63-6.6,5.42-10.22-.23-4.01-2.94-7.78-7.83-10.91-3.19-2.04-7.16-3.72-11.8-4.98-4.49-1.22-9.35-1.99-14.44-2.29-1.55-.09-3.13-.14-4.7-.14-.29,0-.57,0-.86,0-1.22.01-2.46.05-3.68.12-3.66.21-7.24.66-10.63,1.34-4.03.82-7.71,1.94-10.93,3.34-.93.41-1.84.84-2.69,1.3-1.74.93-3.31,1.95-4.64,3.04-.68.55-1.3,1.13-1.86,1.71-.55.58-1.05,1.18-1.47,1.78-.43.6-.79,1.22-1.09,1.85-.6,1.25-.94,2.53-1.01,3.82-.06,1.08.08,2.18.41,3.29.33,1.1.84,2.18,1.53,3.2l.08.11.03.05c.25.36.53.73.87,1.13,2.06,2.45,5.08,4.6,8.97,6.4.57.26,1.17.52,1.77.77.46.19.92.37,1.4.55,1.44.53,2.98,1.02,4.57,1.46,1.41.39,2.89.73,4.39,1.03,1.47.29,2.99.54,4.52.74,1.72.23,3.56.39,5.8.51,1.58.09,3.17.13,4.71.13M543.13,138.8c1.41,0,2.84-.04,4.25-.11,5.27-.28,10.28-1.06,14.9-2.31,4.52-1.23,8.39-2.85,11.53-4.8,1.14-.72,2.19-1.48,3.11-2.27.61-.53,1.18-1.07,1.68-1.63,1.55-1.7,2.57-3.51,3.04-5.38.57-2.25.33-4.51-.72-6.7-.3-.62-.67-1.24-1.09-1.85-.86-1.21-1.98-2.39-3.33-3.49-.67-.55-1.41-1.09-2.19-1.6-.77-.5-1.59-.99-2.45-1.45-.85-.45-1.75-.89-2.69-1.3-1.84-.8-3.86-1.52-5.99-2.14-1.77-.51-3.68-.96-5.69-1.35-2.03-.39-4.1-.69-6.17-.91l-.2-.02h-.13c-.73-.08-1.51-.15-2.37-.21-1.85-.13-3.73-.19-5.59-.19-3.45,0-6.88.22-10.19.66-.76.1-1.52.21-2.27.34-1.13.19-2.26.4-3.36.64-1.11.24-2.22.51-3.28.8-2.12.58-4.13,1.25-5.98,2-.6.25-1.2.5-1.77.77-1.48.68-2.86,1.44-4.1,2.24-2.16,1.39-3.9,2.91-5.19,4.54-.45.57-.85,1.16-1.19,1.76-.34.6-.62,1.22-.84,1.83-.45,1.26-.64,2.54-.57,3.82.11,1.94.81,3.85,2.1,5.67.43.6.92,1.2,1.47,1.78.55.58,1.18,1.16,1.86,1.71,6.9,5.64,19.71,9.15,33.41,9.15M436.44,186.64c20.87,0,40.51-3.84,55.3-10.82,15.03-7.09,23.3-16.61,23.3-26.8s-8.28-19.71-23.3-26.8c-14.79-6.98-34.43-10.82-55.3-10.82s-40.51,3.84-55.3,10.82c-15.03,7.09-23.3,16.61-23.3,26.8s8.28,19.71,23.3,26.8c14.79,6.98,34.43,10.82,55.3,10.82M231.17,167.86c1.31,0,2.62-.03,3.91-.09,1.27-.06,2.55-.15,3.8-.27,1.23-.12,2.47-.27,3.67-.45.47-.07.93-.15,1.38-.23l.56-.1c1.91-.34,3.53-.67,4.94-1.04,1.82-.47,3.61-1.02,5.33-1.66,1.74-.64,3.35-1.34,4.79-2.09l.14-.08.08-.04c.5-.26,1.02-.55,1.57-.88,3.46-2.06,5.92-4.41,7.32-6.98.21-.39.4-.79.56-1.18.12-.3.23-.61.32-.91.28-.93.43-1.89.43-2.84s-.14-1.91-.43-2.84c-.09-.31-.2-.61-.32-.91-.16-.4-.35-.8-.56-1.18-1.47-2.71-4.11-5.16-7.83-7.28-.79-.45-1.63-.89-2.51-1.3-.87-.41-1.8-.81-2.75-1.18-1.91-.74-3.98-1.4-6.14-1.96-1.51-.39-3.14-.74-4.82-1.03-1.9-.34-3.82-.6-5.73-.78-1.25-.12-2.53-.21-3.8-.27-1.29-.06-2.61-.09-3.91-.09-11.91,0-22.97,2.56-30.35,7.03-5.54,3.35-8.47,7.44-8.47,11.82,0,2.66,1.09,5.23,3.23,7.61.75.84,1.64,1.66,2.63,2.43.65.51,1.36,1,2.12,1.48.1.06.2.12.3.18.06.04.13.07.19.11,2.17,1.31,4.66,2.47,7.39,3.44,3.51,1.24,7.41,2.18,11.57,2.79,1.2.18,2.44.33,3.67.45,2.52.24,5.12.37,7.72.37M593.72,187.75c6.68,0,13.29-.84,19.12-2.43,4.52-1.23,8.39-2.85,11.53-4.8,1.14-.71,2.19-1.48,3.11-2.27.61-.53,1.18-1.08,1.68-1.63,1.55-1.7,2.57-3.51,3.04-5.38.57-2.25.32-4.51-.72-6.7-.3-.62-.66-1.24-1.09-1.85-.86-1.21-1.98-2.39-3.33-3.49-.67-.55-1.41-1.09-2.19-1.6-.77-.5-1.59-.99-2.45-1.45-.85-.45-1.75-.89-2.69-1.3-1.84-.8-3.86-1.52-5.99-2.14-1.77-.51-3.68-.96-5.69-1.35-2.03-.39-4.1-.69-6.17-.91l-.18-.02h-.14c-.73-.09-1.51-.15-2.37-.21-1.71-.12-3.49-.18-5.29-.18-1.39,0-2.83.04-4.26.11-2.33.11-4.36.29-6.22.53-.76.1-1.53.21-2.27.34-1.13.19-2.26.4-3.36.64-1.11.24-2.21.51-3.28.8-1.59.43-3.13.93-4.58,1.46-.48.18-.94.36-1.4.54-.6.25-1.2.51-1.77.77-4.11,1.9-7.24,4.18-9.29,6.78-.45.57-.85,1.16-1.19,1.76-.34.6-.62,1.22-.84,1.83-.45,1.26-.64,2.54-.57,3.82.11,1.94.81,3.85,2.1,5.67.43.6.92,1.2,1.47,1.78.55.58,1.18,1.16,1.86,1.71,2.74,2.24,6.36,4.15,10.74,5.66,6.54,2.25,14.6,3.49,22.69,3.49M321.33,222.19c1.3,0,2.62-.03,3.91-.09,1.27-.06,2.55-.15,3.8-.27,1.23-.12,2.47-.27,3.67-.45,2.38-.35,4.69-.81,6.88-1.37,1.83-.47,3.62-1.03,5.33-1.66,1.74-.64,3.35-1.34,4.79-2.09l.13-.07.09-.05c.51-.27,1.02-.56,1.57-.88,2.08-1.24,3.82-2.61,5.17-4.06.88-.94,1.6-1.92,2.14-2.92.21-.39.4-.79.56-1.18.12-.3.23-.61.32-.91.28-.93.43-1.89.43-2.84s-.14-1.91-.43-2.84c-.09-.3-.2-.61-.32-.91-.16-.4-.35-.79-.56-1.18-1.47-2.71-4.11-5.16-7.83-7.28-.79-.45-1.64-.89-2.51-1.3-.87-.41-1.8-.81-2.75-1.18-1.91-.74-3.98-1.4-6.14-1.96-3.32-.85-6.87-1.46-10.56-1.82-1.25-.12-2.53-.21-3.8-.27-1.29-.06-2.61-.09-3.91-.09-5.37,0-10.58.52-15.49,1.54-14.17,2.96-23.33,9.75-23.33,17.3,0,2.66,1.09,5.23,3.23,7.61.75.84,1.64,1.66,2.63,2.43.65.51,1.37,1.01,2.12,1.48,2.24,1.42,4.89,2.67,7.88,3.72,3.51,1.24,7.41,2.18,11.57,2.79,1.2.18,2.44.33,3.67.45,2.52.24,5.12.37,7.72.37M436.44,225.99c1.3,0,2.62-.03,3.91-.09,1.27-.06,2.55-.15,3.8-.27,1.23-.12,2.47-.27,3.67-.45,2.38-.35,4.69-.81,6.88-1.37,1.83-.47,3.62-1.02,5.33-1.66,1.74-.64,3.35-1.34,4.79-2.09l.13-.07.09-.05c.51-.27,1.02-.56,1.57-.88,3.46-2.06,5.92-4.41,7.32-6.98.21-.39.4-.79.56-1.18.12-.3.23-.61.32-.91.28-.93.43-1.89.43-2.84s-.14-1.91-.43-2.84c-.09-.3-.2-.61-.32-.91-.16-.4-.35-.79-.56-1.18-.54-.99-1.26-1.97-2.14-2.92-1.47-1.58-3.39-3.05-5.69-4.37-.79-.45-1.64-.89-2.51-1.3-.87-.41-1.8-.81-2.75-1.18-1.91-.74-3.98-1.4-6.14-1.96-3.32-.85-6.87-1.46-10.56-1.82-1.25-.12-2.53-.21-3.8-.27-1.29-.06-2.61-.09-3.91-.09-15.29,0-29.19,4.33-35.39,11.03-2.27,2.45-3.42,5.08-3.42,7.82s1.09,5.23,3.23,7.61c.75.84,1.64,1.66,2.63,2.43.65.51,1.37,1.01,2.12,1.48,2.24,1.42,4.89,2.67,7.88,3.72,3.51,1.24,7.41,2.18,11.57,2.79,1.21.18,2.44.33,3.67.45,2.52.24,5.12.37,7.72.37M539.12,251.76c6.69,0,13.3-.84,19.12-2.43,4.52-1.23,8.39-2.85,11.53-4.8,1.14-.71,2.19-1.48,3.11-2.27.61-.53,1.18-1.08,1.68-1.63.07-.08.14-.16.2-.24.03-.04.06-.07.09-.11,1.39-1.62,2.32-3.31,2.75-5.03.57-2.25.32-4.51-.72-6.7-.3-.62-.66-1.24-1.09-1.85-.86-1.21-1.98-2.39-3.33-3.49-.67-.55-1.41-1.09-2.19-1.6-.77-.5-1.59-.99-2.45-1.45-.85-.45-1.75-.89-2.69-1.3-.36-.16-.75-.3-1.13-.45l-.46-.18c-1.58-.62-3.02-1.11-4.41-1.51-1.77-.51-3.68-.96-5.69-1.35-2.03-.39-4.1-.69-6.17-.91l-.18-.02h-.14c-.73-.09-1.51-.15-2.37-.21-1.85-.13-3.73-.19-5.59-.19-3.45,0-6.88.22-10.19.66-3.1.41-6.1,1-8.91,1.77-2.12.58-4.13,1.25-5.98,2-.61.25-1.2.51-1.77.77-4.11,1.9-7.24,4.18-9.29,6.78-.45.57-.85,1.16-1.19,1.76-.34.6-.62,1.22-.84,1.83-.45,1.26-.64,2.54-.57,3.81.05.9.24,1.82.56,2.74.36,1.01.87,2,1.53,2.93.43.6.92,1.2,1.47,1.78.55.58,1.18,1.16,1.86,1.71,6.04,4.94,16.32,8.21,28.21,8.98,1.73.11,3.49.17,5.23.17M436.44,30c-139.27,0-252.18,53.28-252.18,119.01s112.9,119.01,252.18,119.01,252.18-53.28,252.18-119.01-112.9-119.01-252.18-119.01h0ZM539.03,82.97c-3.37,0-6.77-.21-10.09-.65-.75-.1-1.5-.21-2.24-.33-2.23-.37-4.42-.83-6.54-1.41-1.59-.43-3.09-.91-4.49-1.43-.47-.17-.92-.35-1.37-.53-.6-.24-1.17-.49-1.73-.75-3.81-1.76-6.71-3.86-8.63-6.14-.29-.35-.57-.7-.81-1.05-.03-.05-.07-.1-.1-.15-.64-.96-1.11-1.94-1.4-2.93-.29-.97-.42-1.96-.37-2.95.05-.82.22-1.64.5-2.46.12-.33.25-.66.41-.99.27-.57.61-1.14,1-1.7.4-.56.86-1.12,1.38-1.67.52-.55,1.11-1.09,1.76-1.63,1.31-1.07,2.81-2.05,4.48-2.93.83-.44,1.71-.86,2.62-1.26,3.19-1.39,6.83-2.49,10.72-3.28,3.14-.64,6.45-1.06,9.83-1.28.22-.01.44-.04.66-.05,1.2-.07,2.42-.11,3.63-.12.28,0,.56,0,.85,0,1.54,0,3.09.04,4.64.14,4.88.29,9.71,1.03,14.23,2.26,7.59,2.07,13.07,5.19,16.12,8.74,4.23,4.92,3.78,10.68-2.28,15.64-.65.53-1.35,1.05-2.1,1.53-.75.49-1.54.96-2.37,1.4-1.31.7-2.73,1.34-4.23,1.92-1.36.53-2.78,1.01-4.26,1.44-2.08.6-4.27,1.1-6.54,1.5-1.13.2-2.29.37-3.46.52s-2.35.27-3.55.36c-2.07.16-4.17.25-6.28.25h0ZM394.27,92.66c-3.37,0-6.77-.21-10.09-.65-.75-.1-1.5-.21-2.24-.33-2.23-.37-4.42-.84-6.54-1.41-2.12-.58-4.08-1.24-5.86-1.97-.6-.24-1.17-.49-1.73-.75-1.46-.68-2.79-1.4-3.98-2.17-1.91-1.23-3.47-2.57-4.65-3.97-.29-.35-.57-.7-.81-1.05-.03-.05-.07-.1-.1-.15-.64-.96-1.11-1.94-1.4-2.93-.29-.97-.42-1.96-.37-2.95.06-1.15.36-2.31.91-3.45.27-.57.61-1.14,1.01-1.7.4-.56.86-1.12,1.38-1.67.52-.55,1.11-1.09,1.76-1.63,1.31-1.07,2.81-2.05,4.48-2.93.83-.44,1.71-.86,2.62-1.26,3.19-1.39,6.83-2.49,10.72-3.28,3.34-.68,6.88-1.12,10.49-1.33,1.2-.07,2.42-.11,3.63-.12.28,0,.57,0,.85,0,1.54,0,3.09.04,4.63.14,4.88.29,9.71,1.03,14.23,2.26,13.38,3.64,20.24,10.56,18.69,17.37-.55,2.4-2.13,4.78-4.85,7.01-.65.53-1.35,1.05-2.1,1.53-.75.49-1.54.96-2.37,1.4-2.5,1.33-5.37,2.45-8.49,3.36-2.08.6-4.27,1.1-6.54,1.5-1.13.2-2.29.37-3.46.52-1.17.15-2.35.27-3.55.36-2.07.16-4.17.25-6.28.25h0ZM330.03,137.79c-1.55,0-3.11-.04-4.66-.13-1.92-.11-3.83-.26-5.72-.5-1.5-.2-2.99-.44-4.46-.73-1.47-.29-2.91-.63-4.32-1.01-1.59-.43-3.09-.91-4.49-1.43-.47-.17-.92-.35-1.37-.53-.6-.24-1.17-.49-1.73-.75-3.81-1.76-6.71-3.86-8.63-6.14-.29-.35-.57-.7-.81-1.05-.03-.05-.07-.1-.1-.15-.64-.96-1.11-1.94-1.4-2.93-.29-.97-.42-1.96-.37-2.95.06-1.15.36-2.31.91-3.45.27-.57.61-1.14,1-1.7.4-.56.86-1.12,1.38-1.67.52-.55,1.11-1.09,1.76-1.63,1.31-1.07,2.81-2.05,4.48-2.93.83-.44,1.71-.86,2.62-1.26,3.19-1.39,6.83-2.49,10.72-3.28,3.34-.68,6.88-1.12,10.49-1.33,1.2-.07,2.42-.11,3.63-.12.28,0,.56,0,.85,0,1.54,0,3.09.04,4.64.14,4.88.29,9.71,1.03,14.23,2.26,4.66,1.27,8.53,2.94,11.53,4.86,8.64,5.54,10.07,13.18,2.32,19.52-.65.53-1.35,1.05-2.1,1.53-.75.49-1.54.96-2.37,1.4-2.5,1.33-5.37,2.45-8.49,3.36-2.08.6-4.27,1.1-6.54,1.5-1.13.2-2.29.37-3.46.52-1.17.15-2.35.27-3.55.36-1.97.16-3.98.23-5.99.23h0ZM543.13,137.8c-13.07,0-25.78-3.2-32.78-8.92-.65-.53-1.24-1.08-1.76-1.63-.52-.55-.98-1.11-1.38-1.67-1.19-1.69-1.82-3.42-1.91-5.15-.06-1.15.11-2.3.51-3.42.2-.56.46-1.12.77-1.67.31-.55.68-1.1,1.11-1.63,1.21-1.53,2.87-2.98,4.94-4.32,1.19-.77,2.52-1.49,3.98-2.17.56-.26,1.13-.51,1.73-.75,1.79-.73,3.74-1.39,5.86-1.97,1.06-.29,2.14-.55,3.23-.79,1.09-.24,2.2-.44,3.31-.63.74-.12,1.49-.23,2.24-.33,3.32-.44,6.7-.65,10.06-.65,1.85,0,3.7.06,5.52.19.78.05,1.56.12,2.34.19.11.01.21.02.32.03,2.08.22,4.11.52,6.08.89,1.93.37,3.81.81,5.6,1.32,2.08.6,4.05,1.3,5.87,2.1.91.4,1.79.82,2.62,1.26.83.44,1.63.91,2.37,1.4s1.45,1,2.1,1.53c1.31,1.07,2.35,2.17,3.15,3.3.4.56.73,1.13,1.01,1.7.96,2,1.16,4.03.66,6.02-.43,1.7-1.38,3.37-2.81,4.95-.48.53-1.01,1.04-1.59,1.54-.88.76-1.87,1.48-2.98,2.18-2.96,1.85-6.74,3.46-11.26,4.69-4.66,1.27-9.66,2.01-14.69,2.28-1.4.07-2.8.11-4.19.11h0ZM436.44,185.64c-42.86,0-77.6-16.4-77.6-36.62s34.74-36.62,77.6-36.62,77.6,16.4,77.6,36.62-34.74,36.62-77.6,36.62h0ZM231.17,166.86c-2.61,0-5.16-.12-7.62-.36-1.23-.12-2.44-.27-3.62-.44-4.14-.61-7.98-1.54-11.38-2.74-2.71-.96-5.13-2.09-7.21-3.35-.15-.09-.32-.18-.47-.28-.73-.46-1.41-.93-2.04-1.42-.95-.74-1.79-1.51-2.5-2.31-1.91-2.14-2.97-4.48-2.97-6.95,0-4.13,2.99-7.94,7.98-10.96,6.92-4.19,17.71-6.89,29.83-6.89,1.31,0,2.6.03,3.87.09s2.52.15,3.75.27c1.94.19,3.83.45,5.65.77,1.64.29,3.23.63,4.75,1.02,2.14.55,4.16,1.19,6.03,1.92.93.36,1.83.75,2.69,1.15s1.67.83,2.44,1.27c3.47,1.98,6.05,4.33,7.45,6.89.19.36.37.72.51,1.08.11.27.21.55.29.83.25.83.38,1.69.38,2.55s-.13,1.72-.38,2.55c-.08.28-.18.55-.29.83-.15.36-.32.73-.51,1.08-1.33,2.44-3.74,4.68-6.95,6.6-.49.29-1,.58-1.52.86-.07.04-.14.08-.22.12-1.43.74-3,1.42-4.68,2.04-1.64.61-3.39,1.15-5.23,1.62-1.55.4-3.19.73-4.87,1.02-.64.11-1.26.23-1.91.33-1.18.17-2.39.32-3.62.44-1.23.12-2.48.21-3.75.27s-2.56.09-3.87.09h0ZM593.72,186.75c-8,0-15.86-1.2-22.36-3.44-4.13-1.42-7.72-3.26-10.44-5.49-.65-.53-1.24-1.08-1.76-1.63-.52-.55-.98-1.11-1.38-1.67-1.19-1.69-1.82-3.42-1.91-5.15-.06-1.15.11-2.3.51-3.42.2-.56.46-1.12.77-1.67.31-.55.68-1.1,1.11-1.63,1.91-2.41,4.92-4.63,8.93-6.49.56-.26,1.13-.51,1.73-.75.45-.18.9-.36,1.37-.53,1.4-.52,2.9-1,4.49-1.43,1.06-.29,2.14-.55,3.23-.79,1.09-.24,2.2-.44,3.31-.63.74-.12,1.49-.23,2.24-.33,2.03-.27,4.08-.43,6.14-.53,1.41-.07,2.81-.11,4.22-.11,1.75,0,3.5.06,5.22.18.78.05,1.56.12,2.34.19.11.01.21.02.32.03,2.08.22,4.11.52,6.08.89,1.93.37,3.81.81,5.6,1.32,2.08.6,4.05,1.3,5.87,2.1.91.4,1.79.82,2.62,1.26s1.63.91,2.37,1.4c.75.49,1.45,1,2.1,1.53,1.31,1.07,2.35,2.17,3.15,3.3.4.56.73,1.13,1.01,1.7.96,2,1.16,4.04.66,6.02-.43,1.7-1.38,3.37-2.81,4.95-.48.53-1.01,1.04-1.59,1.54-.88.76-1.87,1.48-2.98,2.18-2.96,1.85-6.74,3.46-11.26,4.69-5.95,1.62-12.45,2.39-18.86,2.39h0ZM321.33,221.19c-2.61,0-5.16-.12-7.62-.36-1.23-.12-2.44-.27-3.62-.44-4.14-.61-7.98-1.54-11.38-2.74-2.91-1.03-5.5-2.25-7.68-3.62-.73-.46-1.41-.93-2.04-1.42-.95-.74-1.79-1.51-2.5-2.31-1.91-2.14-2.97-4.48-2.97-6.95,0-7.29,9.26-13.55,22.53-16.32,4.68-.98,9.84-1.52,15.28-1.52,1.31,0,2.6.03,3.87.09,1.27.06,2.52.15,3.75.27,3.69.36,7.19.97,10.4,1.79,2.14.55,4.16,1.19,6.03,1.92.93.36,1.83.75,2.69,1.15.86.4,1.67.83,2.44,1.27,3.47,1.98,6.05,4.33,7.45,6.89.19.36.37.72.51,1.08.11.27.21.55.29.83.25.83.38,1.69.38,2.55s-.13,1.72-.38,2.55c-.08.28-.18.55-.29.83-.15.36-.32.73-.51,1.08-.51.94-1.18,1.84-2,2.71-1.3,1.4-2.97,2.7-4.96,3.88-.49.29-1,.58-1.52.86-.07.04-.14.08-.22.12-1.43.74-3,1.42-4.68,2.04-1.64.61-3.39,1.15-5.23,1.62-2.14.55-4.41,1-6.78,1.35-1.18.17-2.39.32-3.62.44s-2.48.21-3.75.27c-1.27.06-2.56.09-3.87.09h0ZM436.44,224.99c-2.61,0-5.16-.12-7.62-.36-1.23-.12-2.44-.27-3.62-.44-4.14-.61-7.98-1.54-11.38-2.74-2.91-1.03-5.5-2.25-7.68-3.62-.73-.46-1.41-.93-2.04-1.42-.95-.74-1.79-1.51-2.5-2.31-1.91-2.14-2.97-4.48-2.97-6.95s1.13-4.95,3.16-7.14c5.84-6.3,19.16-10.71,34.66-10.71,1.31,0,2.6.03,3.87.09,1.27.06,2.52.15,3.75.27,3.69.36,7.19.97,10.4,1.79,2.14.55,4.16,1.19,6.03,1.92.93.36,1.83.75,2.69,1.15.86.4,1.67.83,2.44,1.27,2.2,1.26,4.04,2.66,5.45,4.18.81.87,1.48,1.78,1.99,2.71.19.36.37.72.51,1.08.11.27.21.55.29.83.25.83.38,1.69.38,2.55s-.13,1.72-.38,2.55c-.08.28-.18.55-.29.83-.15.36-.32.73-.51,1.08-1.33,2.44-3.74,4.68-6.95,6.6-.49.29-1,.58-1.52.86-.07.04-.14.08-.22.12-1.43.74-3,1.42-4.68,2.04-1.64.61-3.39,1.15-5.23,1.62-2.14.55-4.41,1-6.78,1.35-1.18.17-2.39.32-3.62.44s-2.48.21-3.75.27c-1.27.06-2.56.09-3.87.09h0ZM539.12,250.76c-1.73,0-3.46-.06-5.16-.17-11.18-.72-21.56-3.79-27.64-8.76-.65-.53-1.24-1.08-1.76-1.63-.52-.55-.98-1.11-1.38-1.67-.63-.89-1.09-1.78-1.41-2.69-.29-.82-.46-1.64-.51-2.46-.06-1.15.11-2.3.51-3.42.2-.56.46-1.12.77-1.67.31-.55.68-1.1,1.11-1.63,1.91-2.41,4.92-4.63,8.93-6.49.56-.26,1.13-.51,1.73-.75,1.79-.73,3.74-1.39,5.86-1.97,2.83-.77,5.78-1.35,8.78-1.74,3.32-.44,6.7-.65,10.06-.65,1.85,0,3.7.06,5.52.19.78.05,1.56.12,2.34.19.11.01.21.02.32.03,2.08.22,4.11.52,6.08.89,1.93.37,3.81.81,5.6,1.32,1.51.44,2.94.94,4.32,1.48.52.2,1.05.4,1.55.61.91.4,1.79.82,2.62,1.26s1.63.91,2.37,1.4c.75.49,1.45,1,2.1,1.53,1.31,1.07,2.35,2.17,3.15,3.3.4.56.73,1.13,1.01,1.7.96,2,1.16,4.03.66,6.02-.4,1.59-1.27,3.14-2.54,4.62-.09.11-.17.22-.27.33-.48.53-1.01,1.04-1.59,1.54-.88.76-1.87,1.48-2.98,2.18-2.96,1.85-6.74,3.46-11.26,4.69-5.95,1.62-12.45,2.39-18.86,2.39h0Z"/>
          </g>
          <path class="cls-5" d="M514.04,149.02c0-20.23-34.74-36.62-77.6-36.62s-77.6,16.4-77.6,36.62,34.74,36.62,77.6,36.62,77.6-16.4,77.6-36.62ZM436.44,184.02c-40.96,0-74.16-15.67-74.16-35s33.2-35,74.16-35,74.16,15.67,74.16,35-33.2,35-74.16,35Z"/>
          <path class="cls-13" d="M436.44,114.02c-40.96,0-74.16,15.67-74.16,35s33.2,35,74.16,35,74.16-15.67,74.16-35-33.2-35-74.16-35ZM469.26,164.37s.06-.03.09-.05c-.03.01-.06.03-.09.05Z"/>
          <path class="cls-1" d="M469.26,164.37s.06-.03.09-.05"/>
          <path class="cls-13" d="M268.61,151.57c.25-.83.38-1.69.38-2.55s-.13-1.72-.38-2.55c.25.83.38,1.69.38,2.55s-.13,1.72-.38,2.55Z"/>
          <path class="cls-14" d="M268.31,145.64c.11.27.21.55.29.83"/>
          <path class="cls-14" d="M268.31,152.4c.11-.27.21-.55.29-.83"/>
          <path class="cls-13" d="M528.94,215.71c-3,.4-5.95.97-8.78,1.74-2.12.58-4.08,1.24-5.86,1.97,1.79-.73,3.74-1.39,5.86-1.97,2.83-.77,5.78-1.35,8.78-1.74Z"/>
          <path class="cls-13" d="M515.67,79.15c1.4.52,2.9,1,4.49,1.43,2.12.58,4.31,1.05,6.54,1.41-2.23-.37-4.42-.83-6.54-1.41-1.59-.43-3.09-.91-4.49-1.43Z"/>
          <path class="cls-14" d="M514.3,78.61c.45.18.9.36,1.37.53"/>
          <path class="cls-13" d="M358.77,205.89c.25-.83.38-1.69.38-2.55s-.13-1.72-.38-2.55c.25.83.38,1.69.38,2.55s-.13,1.72-.38,2.55Z"/>
          <path class="cls-14" d="M358.48,199.96c.11.27.21.55.29.83"/>
          <path class="cls-14" d="M358.48,206.72c.11-.27.21-.55.29-.83"/>
          <path class="cls-13" d="M577.99,152.66c-1.09.24-2.17.5-3.23.79-1.59.43-3.09.91-4.49,1.43,1.4-.52,2.9-1,4.49-1.43,1.06-.29,2.14-.55,3.23-.79Z"/>
          <path class="cls-14" d="M581.3,152.03c-1.11.18-2.22.39-3.31.63"/>
          <path class="cls-14" d="M568.9,155.41c.45-.18.9-.36,1.37-.53"/>
          <path class="cls-13" d="M369.53,88.3c1.79.73,3.74,1.39,5.86,1.97,2.12.58,4.31,1.05,6.54,1.41-2.23-.37-4.42-.84-6.54-1.41-2.12-.58-4.08-1.24-5.86-1.97Z"/>
          <path class="cls-14" d="M384.18,92.01c-.75-.1-1.5-.21-2.24-.33"/>
          <path class="cls-13" d="M473.87,209.69c.25-.83.38-1.69.38-2.55s-.13-1.72-.38-2.55c.25.83.38,1.69.38,2.55s-.13,1.72-.38,2.55Z"/>
          <path class="cls-14" d="M473.58,203.76c.11.27.21.55.29.83"/>
          <path class="cls-14" d="M473.58,210.52c.11-.27.21-.55.29-.83"/>
          <path class="cls-13" d="M527.41,103.71c-1.09.24-2.17.5-3.23.79-2.12.58-4.08,1.24-5.86,1.97,1.79-.73,3.74-1.39,5.86-1.97,1.06-.29,2.14-.55,3.23-.79Z"/>
          <path class="cls-14" d="M530.72,103.09c-1.11.18-2.22.39-3.31.63"/>
          <path class="cls-13" d="M306.38,133.98c1.4.52,2.9,1,4.49,1.43,1.41.39,2.86.72,4.32,1.01-1.47-.29-2.91-.63-4.32-1.01-1.59-.43-3.09-.91-4.49-1.43Z"/>
          <path class="cls-14" d="M306.38,133.98c-.47-.17-.92-.35-1.37-.53"/>
          <path class="cls-14" d="M315.19,136.42c1.47.29,2.95.53,4.46.73"/>
        </g>
      </g>
      <g>
        <g>
          <path class="cls-6" d="M483.47,120.14c-2.23-1.03-4.67-2.01-7.27-2.91l-1.03-.36-2.15-9c-.03-.3-.08-.6-.15-.9-1.43-.12-2.8-.39-4.02-.8l-1.08-.37-1.34-6.3c-.79-.5-1.64-.98-2.54-1.44-.4-.2-.82-.4-1.25-.6-.79-.36-1.52-.67-2.24-.95-.79-.31-1.63-.61-2.49-.89h-.07c-1.6.57-3.55.91-5.54.95-.45,0-.89,0-1.34-.02-.92-.04-1.83-.15-2.69-.31-.67-.13-1.3-.29-1.89-.48-.4-.13-.77-.27-1.12-.43-.37-.16-.71-.33-1.02-.51-.33-.19-.63-.4-.91-.61-.14-.11-.28-.23-.41-.35-.27-.25-.51-.52-.71-.8-.11-.15-.2-.3-.29-.45-1.98-.15-4-.22-6.01-.22h-.07c-1.99,0-3.99.08-5.96.22-.05.09-.11.19-.17.29l-.11.16s-.01.02-.02.03l-.02.02c-.11.15-.24.3-.37.45l-.1.11c-.14.14-.26.25-.38.36l-.15.13c-.14.11-.3.24-.47.35-.21.15-.41.27-.61.38l-.13.07c-.18.1-.33.17-.49.25l-.18.09c-.2.09-.4.17-.61.26-.27.1-.51.18-.75.26l-.13.04c-.26.08-.45.13-.64.18l-.23.06c-.24.06-.5.12-.78.17-.87.17-1.77.27-2.69.31-2.45.11-4.92-.23-6.89-.95h-.05c-.4.14-.8.28-1.19.42l-.58.21c-.23.08-.46.17-.68.25l-.63.25c-.2.08-.39.16-.58.24l-.69.31c-.16.07-.32.14-.47.21-.17.08-.3.14-.43.21l-.67.32c-.19.1-.37.19-.55.29l-.51.27c-.18.1-.35.2-.52.3l-.47.27c-.19.11-.37.22-.55.34l-1.34,6.31-1.41.48c-.18.06-.4.12-.62.17l-.2.05c-.19.05-.36.09-.54.12l-.23.05c-.23.04-.46.09-.69.12h-.09c-.24.05-.48.08-.73.11l-.15.02c-.17.02-.31.03-.44.04-.02.1-.05.2-.06.29l-.15,1.78h-.28s-1.9,7.87-1.9,7.87l-1.03.36c-2.58.9-4.99,1.86-7.18,2.87-11.66,5.4-18.34,12.41-18.81,19.76l-.04.7v7.37c.01.91.13,1.87.35,2.84l.03.12c.09.36.22.83.39,1.31l.1.26c.15.4.31.8.49,1.19l.17.35c.18.38.39.75.6,1.12l.21.36c.24.39.5.77.77,1.16l.22.31c.35.48.73.95,1.12,1.4l.08.09c.4.45.87.95,1.36,1.44l.21.19c.42.41.86.81,1.32,1.21.1.08.2.17.31.25l.23.19c.38.32.77.63,1.18.95.18.14.37.28.56.42l.12.09c.39.29.8.58,1.23.86.25.17.51.34.78.52.43.28.89.56,1.34.84l.21.13c.2.12.41.25.62.37.51.3,1.05.58,1.58.87l.3.16c.15.08.3.17.46.25.81.42,1.65.83,2.52,1.24,2.41,1.11,5,2.14,7.72,3.07,1.79.61,3.67,1.18,5.57,1.7,3.77,1.03,7.78,1.89,11.93,2.56,2.04.33,4.14.62,6.26.86,1.05.12,2.11.23,3.18.32,4.23.38,8.57.57,12.91.57,18.02,0,34.91-3.22,47.57-9.08.87-.4,1.71-.82,2.52-1.24.15-.08.29-.16.44-.23l.33-.18c.54-.29,1.07-.58,1.58-.87.26-.15.5-.3.75-.45.54-.32.99-.6,1.42-.88.26-.17.52-.34.78-.51.42-.29.83-.58,1.23-.87l.12-.09c.19-.14.38-.28.56-.42.41-.31.8-.63,1.18-.95l.22-.18c.1-.09.21-.17.31-.26.46-.4.9-.8,1.31-1.2l.16-.15c.55-.54,1.02-1.04,1.45-1.53.43-.5.81-.97,1.16-1.45l.22-.31c.27-.38.53-.77.77-1.16l.21-.36c.22-.38.42-.75.61-1.13l.16-.34c.18-.39.34-.79.49-1.19l.1-.26c.17-.5.3-.95.41-1.4l.03-.13c.2-.89.32-1.84.32-2.75v-7.57s-.04-.5-.04-.5c-.47-7.35-7.15-14.37-18.81-19.76Z"/>
          <path class="cls-3" d="M506.05,137.77c-1.43-8.16-8.77-15.65-20.9-21.26-2.05-.95-4.27-1.85-6.61-2.69l-1.53-6.2s0-.08,0-.11c-.09-.95-.32-1.9-.67-2.83l-.12-.31-1.15-1.31-.87-.02c-1.03-.02-2.07-.14-3-.36l-1.1-5.17-.83-.93-.23-.15c-1.03-.68-2.15-1.33-3.35-1.93-.45-.23-.91-.45-1.46-.7-.79-.36-1.6-.7-2.38-1.01-.9-.35-1.85-.69-2.83-1.01l-1.61-.32-.56.24c-1.25.53-2.9.84-4.65.88-.36,0-.72,0-1.08-.01-.73-.03-1.45-.12-2.12-.25-.5-.1-.98-.22-1.4-.36-.27-.09-.52-.18-.76-.29-.22-.1-.42-.2-.6-.31-.16-.09-.31-.19-.44-.3-.05-.04-.11-.09-.15-.13-.07-.07-.14-.14-.19-.21l-.06-.1-.14-1.5-2.23-.42-.23-.03c-2.29-.19-4.6-.3-6.96-.28-2.28,0-4.59.1-6.85.28l-2.45.46-.14,1.5-.12.17s-.04.04-.07.07c-.04.04-.07.07-.18.16-.07.06-.14.11-.23.18-.09.06-.19.12-.29.17l-.11.06c-.08.04-.17.09-.28.14l-.1.05c-.13.06-.26.11-.33.14l-.09.04c-.16.06-.32.11-.49.17l-.15.05c-.13.04-.26.08-.43.12l-.15.04c-.19.05-.39.09-.6.13-.68.13-1.39.21-2.12.25-2.09.09-4.23-.23-5.73-.87l-.56-.24-1.38.26-.21.06c-.48.15-.95.31-1.41.48l-.61.23c-.25.09-.51.19-.76.28l-.66.27c-.22.09-.45.18-.67.27l-.73.32c-.19.08-.37.16-.49.22l-.14.06c-.15.07-.29.14-.44.21l-.71.35c-.22.11-.42.22-.71.37l-.47.25c-.21.11-.41.23-.62.35l-.25.14c-.1.05-.19.11-.27.16-.37.22-.73.45-1.09.68l-.24.17-.82.91-1.1,5.18c-.06.01-.11.02-.16.04l-.19.04c-.19.04-.38.07-.52.09l-.15.02c-.17.02-.34.05-.49.06l-.21.02c-.15.01-.3.03-.54.04h-.1c-.21.02-.43.03-.64.03l-.87.02-1.15,1.29-.13.34c-.05.13-.09.26-.14.39l-.18.57c-.08.27-.14.53-.19.8l-1.79,7.42c-2.32.83-4.5,1.73-6.51,2.66-12.13,5.61-19.47,13.11-20.9,21.26h-.28v12.21h.14c.08.58.18,1.17.32,1.77.13.58.31,1.18.52,1.79l.12.33c.18.5.39,1,.61,1.5.07.14.13.28.2.43.23.46.47.92.78,1.45.07.12.14.25.22.37.28.47.6.93.92,1.39l.08.11c.06.09.12.18.19.26.41.56.85,1.11,1.28,1.6l.08.09c.49.57,1.03,1.14,1.61,1.71l.23.21c.47.46.96.91,1.48,1.36.13.11.26.22.39.33l.2.16c.42.35.86.7,1.31,1.05.2.16.42.31.63.46l.12.09c.43.32.88.63,1.34.95.28.19.56.37.85.56.47.3.96.61,1.46.91l.2.12c.23.14.45.27.68.41.55.32,1.12.63,1.7.94l.27.15c.18.1.36.2.54.29.86.45,1.75.88,2.68,1.31,2.53,1.17,5.27,2.26,8.12,3.23,1.87.63,3.82,1.23,5.8,1.77,3.9,1.07,8.06,1.96,12.35,2.65,2.1.34,4.27.64,6.45.88,1.09.12,2.18.23,3.27.33,4.35.39,8.81.59,13.26.59,18.59,0,36.08-3.35,49.25-9.45.93-.43,1.82-.87,2.68-1.31.18-.09.35-.18.52-.28l.3-.16c.58-.31,1.15-.62,1.7-.94.28-.16.55-.33.88-.53.5-.3.99-.6,1.46-.91.29-.19.57-.37.85-.56.46-.31.91-.63,1.35-.95l.12-.09c.21-.15.42-.31.63-.47.45-.35.89-.7,1.32-1.05l.19-.16c.13-.11.27-.22.4-.33.52-.45,1.01-.9,1.55-1.42l.17-.16c.57-.56,1.11-1.13,1.58-1.68l.07-.08c.45-.52.9-1.08,1.31-1.64.07-.09.13-.18.19-.26l.07-.11c.33-.46.64-.92.92-1.39.07-.12.14-.24.21-.36l.05-.09c.27-.46.51-.92.74-1.38.07-.14.14-.29.21-.43.23-.5.43-.99.64-1.57.03-.09.07-.17.09-.25.21-.62.38-1.21.5-1.71l.03-.13c.13-.58.24-1.15.31-1.72h.14v-12.21h-.28ZM502.32,147.97c0,.91-.12,1.87-.32,2.75l-.03.13c-.1.44-.23.9-.41,1.4l-.1.26c-.14.4-.31.79-.49,1.19l-.16.34c-.18.38-.39.75-.61,1.13l-.21.36c-.24.39-.5.77-.77,1.16l-.22.31c-.35.48-.73.95-1.16,1.45-.43.49-.9.99-1.45,1.53l-.16.15c-.42.4-.85.81-1.31,1.2-.1.09-.21.17-.31.26l-.22.18c-.38.32-.78.63-1.18.95-.18.14-.37.28-.56.42l-.12.09c-.4.29-.81.58-1.23.87-.26.17-.51.34-.78.51-.44.28-.89.56-1.42.88-.25.15-.49.3-.75.45-.51.3-1.05.59-1.58.87l-.33.18c-.14.08-.29.16-.44.23-.81.42-1.65.83-2.52,1.24-12.65,5.85-29.54,9.08-47.57,9.08-4.33,0-8.67-.19-12.91-.57-1.06-.09-2.12-.2-3.18-.32-2.11-.24-4.22-.53-6.26-.86-4.15-.67-8.16-1.53-11.93-2.56-1.9-.52-3.78-1.09-5.57-1.7-2.72-.92-5.32-1.96-7.72-3.07-.87-.41-1.71-.82-2.52-1.24-.16-.08-.31-.17-.46-.25l-.3-.16c-.54-.29-1.07-.58-1.58-.87-.21-.12-.41-.24-.62-.37l-.21-.13c-.46-.28-.91-.56-1.34-.84-.27-.17-.53-.35-.78-.52-.42-.29-.83-.58-1.23-.86l-.12-.09c-.19-.14-.38-.28-.56-.42-.41-.31-.8-.63-1.18-.95l-.23-.19c-.1-.08-.21-.17-.31-.25-.46-.4-.9-.8-1.32-1.21l-.21-.19c-.5-.49-.96-.99-1.36-1.44l-.08-.09c-.39-.45-.77-.92-1.12-1.4l-.22-.31c-.27-.38-.53-.77-.77-1.16l-.21-.36c-.22-.37-.42-.75-.6-1.12l-.17-.35c-.18-.39-.34-.79-.49-1.19l-.1-.26c-.17-.48-.3-.95-.39-1.31l-.03-.12c-.22-.97-.34-1.93-.35-2.84v-.54s0-6.83,0-6.83l.04-.7c.47-7.35,7.15-14.37,18.81-19.76,2.18-1.01,4.6-1.98,7.18-2.87l1.03-.36,1.9-7.86h.28s.15-1.78.15-1.78c.02-.1.04-.2.06-.29.13,0,.27-.02.44-.04l.15-.02c.25-.03.49-.06.73-.09h.09c.23-.05.46-.09.69-.14l.23-.05c.18-.04.35-.08.54-.12l.2-.05c.22-.06.44-.12.62-.17l1.41-.48,1.34-6.31c.18-.11.36-.23.55-.34l.47-.27c.17-.1.34-.2.52-.3l.51-.27c.18-.1.36-.19.55-.29l.67-.32c.13-.06.26-.13.43-.21.16-.07.31-.14.47-.21l.69-.31c.19-.08.39-.16.58-.24l.63-.25c.22-.09.45-.17.68-.25l.58-.21c.39-.14.79-.28,1.19-.41h.05c1.97.71,4.44,1.05,6.89.94.92-.04,1.83-.15,2.69-.31.27-.05.53-.11.78-.17l.23-.06c.19-.05.38-.1.64-.18l.13-.04c.24-.08.47-.16.75-.26.21-.08.41-.17.61-.26l.18-.09c.16-.08.31-.15.49-.25l.13-.07c.2-.11.39-.23.61-.38.17-.12.33-.24.47-.35l.15-.13c.13-.11.24-.22.38-.36l.1-.11c.14-.15.26-.3.37-.45l.02-.02s.01-.02.02-.03l.11-.16c.06-.1.12-.19.17-.29,1.97-.15,3.98-.22,5.96-.22h.07c2,0,4.02.07,6.01.22.08.15.18.3.29.45.2.28.44.55.71.8.13.12.26.24.41.35.28.22.58.42.91.61.31.18.65.35,1.02.51.35.15.72.3,1.12.43.58.19,1.22.35,1.89.48.87.17,1.77.27,2.69.31.45.02.89.02,1.34.02,2-.04,3.94-.38,5.54-.97h.07c.86.3,1.7.6,2.49.9.72.28,1.45.59,2.24.95.43.2.85.4,1.25.6.9.46,1.75.94,2.54,1.44l1.34,6.3,1.08.37c1.22.41,2.59.68,4.02.8.07.3.13.61.15.9l2.15,9,1.03.36c2.6.9,5.04,1.88,7.27,2.91,11.66,5.4,18.34,12.41,18.81,19.76l.04.5v7.57Z"/>
        </g>
        <g>
          <path class="cls-6" d="M502.6,154.92c-.2.42-.43.84-.67,1.25.24-.42.47-.83.67-1.25Z"/>
          <path class="cls-6" d="M503.34,153.19c-.16.45-.35.89-.55,1.34.2-.44.39-.89.55-1.34Z"/>
          <path class="cls-6" d="M503.91,151.3c-.12.53-.28,1.06-.46,1.59.18-.53.34-1.06.46-1.59Z"/>
          <path class="cls-6" d="M501.7,156.57c-.26.43-.55.85-.85,1.27.3-.42.59-.85.85-1.27Z"/>
          <path class="cls-6" d="M377.39,164.31c-.43-.33-.85-.66-1.25-1,.4.34.82.67,1.25,1Z"/>
          <path class="cls-6" d="M379.39,165.74c-.44-.3-.87-.6-1.29-.9.42.3.84.61,1.29.9Z"/>
          <path class="cls-6" d="M372.41,159.7c-.43-.5-.84-1.01-1.21-1.52.38.51.78,1.01,1.21,1.52Z"/>
          <path class="cls-6" d="M375.58,162.84c-.49-.42-.95-.85-1.4-1.28.44.43.91.86,1.4,1.28Z"/>
          <path class="cls-6" d="M369.88,156.17c-.24-.42-.47-.83-.67-1.25.21.42.43.84.67,1.25Z"/>
          <path class="cls-6" d="M373.96,161.35c-.53-.52-1.03-1.05-1.5-1.59.47.53.96,1.06,1.5,1.59Z"/>
          <path class="cls-6" d="M370.96,157.84c-.3-.42-.59-.85-.85-1.27.26.43.55.85.85,1.27Z"/>
          <path class="cls-6" d="M435.9,179.53c17.53,0,35.06-3.09,48.41-9.26.9-.42,1.76-.84,2.6-1.28-.84.43-1.7.86-2.6,1.28-13.35,6.17-30.88,9.26-48.41,9.26Z"/>
          <path class="cls-16" d="M504.28,139.77c-.5-7.79-7.14-15.51-19.97-21.45-2.36-1.09-4.86-2.08-7.46-2.98l4.95,20.11c.02.08.04.16.06.24l.15.6h-.05c.04.22.09.44.11.66.03.31.05.61.05.92,0,1.23-.22,2.47-.69,3.71l-.02.02h0s-.34.39-.34.39h0c-.28,0-.56.02-.84.03-.08,0-.16.01-.25.02-.21.01-.41.03-.61.05-.08,0-.16.02-.24.02-.26.03-.52.06-.78.1-.01,0-.02,0-.03,0-.27.04-.53.09-.78.14-.08.01-.15.03-.22.05-.19.04-.37.08-.56.13-.07.02-.15.04-.22.06-.23.06-.45.12-.67.19-.02,0-.03,0-.05.02-.23.07-.45.15-.67.23-.06.02-.12.05-.19.07-.16.06-.31.13-.46.2-.06.03-.12.06-.18.08-.19.09-.37.18-.54.28-.01,0-.03.01-.04.02-.18.1-.35.21-.52.32-.05.03-.09.07-.14.1,0,0-.01,0-.02.01l1.06,5.66s0,0,0,0h0s-.34.38-.34.38l-.03.03c-.39.26-.79.51-1.2.75-.14.08-.28.16-.42.24-.28.16-.56.33-.84.48-.17.09-.35.18-.52.28-.26.14-.52.28-.8.42-.2.1-.4.19-.6.29-.25.12-.49.24-.75.36-.01,0-.02,0-.03.01-.28.13-.56.25-.85.38-.2.09-.4.18-.6.27-.3.13-.61.25-.92.37-.2.08-.39.16-.59.24-.35.13-.7.26-1.05.39-.17.06-.33.12-.5.19-.53.19-1.06.37-1.6.54h-.06s-.83.17-.83.17c-.35-.15-.72-.28-1.1-.41-1.16-.37-2.48-.62-3.86-.75-1.38-.12-2.83-.11-4.26.06-.48.06-.95.13-1.41.22-.28.05-.55.11-.82.18-.08.02-.15.04-.23.06-.19.05-.38.1-.57.16-.07.02-.14.04-.21.06-.24.08-.48.16-.7.24-.02,0-.03.01-.05.02-.21.08-.4.16-.59.25-.06.03-.12.06-.18.09-.15.07-.29.14-.42.21-.05.03-.11.06-.16.09-.18.1-.35.2-.51.31-.01,0-.02.02-.03.02-.15.1-.28.2-.41.31-.04.03-.08.07-.12.1-.1.08-.19.17-.27.26-.03.03-.07.07-.1.1-.11.12-.21.24-.3.36,0,0,0,0,0,.01-.08.12-.16.24-.22.36-.02.04-.04.08-.05.11-.04.09-.08.19-.11.28-.01.04-.03.08-.04.11-.04.13-.06.26-.07.39h0s-.28.05-.28.05v.03s-.17,0-.17,0l-.37.07h-.06c-1.3.12-2.61.2-3.92.25-.66.03-1.32.05-1.98.06-3.31.07-6.67-.03-10.01-.3h-.07s-.83-.17-.83-.17h0c-.02-.22-.07-.44-.16-.65-.08-.21-.2-.42-.35-.63-.07-.1-.16-.2-.24-.3-.36-.4-.83-.78-1.42-1.12-.29-.17-.61-.33-.96-.48-.86-.38-1.89-.69-3.05-.92-.47-.09-.94-.16-1.41-.22-1.9-.22-3.84-.17-5.62.11-1.33.21-2.56.54-3.61.99h0s0,0,0,0l-.52-.1-.31-.06h-.02s-.05-.01-.05-.01c-1.11-.36-2.18-.74-3.21-1.14-.51-.2-1.02-.4-1.51-.61-.41-.17-.8-.35-1.19-.53-.02,0-.04-.02-.05-.02,0,0-.01,0-.02,0-.53-.24-1.05-.49-1.56-.75-.45-.23-.88-.46-1.31-.69-.85-.47-1.65-.95-2.41-1.45l-.02-.03-.34-.38h0s1.07-5.64,1.07-5.64c-1.79-1.29-4.82-2.08-8.04-2.14h0l-.34-.38h-.01s-.01-.03-.01-.03c-.51-1.35-.75-2.73-.69-4.12.02-.46.07-.93.16-1.39.06-.34.15-.68.25-1.02l4.76-19.69c-2.56.89-5.03,1.87-7.36,2.95-12.83,5.93-19.47,13.66-19.97,21.45h-.05v8.21h0c0,1.09.15,2.19.4,3.27-.53-2.31-.51-4.65.05-6.96,1.68,6.88,8.19,13.55,19.57,18.82,26.69,12.35,70.12,12.35,96.81,0,11.38-5.26,17.89-11.94,19.57-18.82.56,2.31.58,4.65.05,6.96.25-1.09.39-2.18.4-3.27h0v-8.21h-.05Z"/>
          <path class="cls-6" d="M368.36,152.89c-.18-.53-.34-1.06-.46-1.59.12.53.28,1.06.46,1.59Z"/>
          <path class="cls-6" d="M384.9,168.99c.84.43,1.7.86,2.6,1.28,2.5,1.16,5.15,2.21,7.92,3.15-2.77-.94-5.42-1.99-7.92-3.15-.9-.42-1.76-.84-2.6-1.28Z"/>
          <path class="cls-6" d="M369.02,154.53c-.2-.44-.39-.89-.55-1.34.16.45.35.89.55,1.34Z"/>
          <path class="cls-6" d="M491.6,166.28c-.45.29-.92.58-1.4.87.48-.29.95-.58,1.4-.87Z"/>
          <path class="cls-6" d="M495.67,163.31c-.4.34-.82.67-1.25,1,.43-.33.85-.66,1.25-1Z"/>
          <path class="cls-6" d="M493.7,164.84c-.42.3-.85.61-1.29.9.44-.3.87-.6,1.29-.9Z"/>
          <path class="cls-6" d="M500.61,158.19c-.38.51-.78,1.02-1.22,1.52.44-.5.84-1.01,1.22-1.52Z"/>
          <path class="cls-6" d="M497.62,161.56c-.44.43-.91.86-1.4,1.28.49-.42.95-.85,1.4-1.28Z"/>
          <path class="cls-6" d="M381.61,167.15c-.48-.29-.95-.58-1.4-.87.45.29.92.58,1.4.87Z"/>
          <path class="cls-6" d="M489.34,167.66c-.53.31-1.08.61-1.64.91.56-.3,1.11-.6,1.64-.91Z"/>
          <path class="cls-6" d="M499.35,159.76c-.47.53-.96,1.06-1.5,1.59.53-.52,1.03-1.05,1.5-1.59Z"/>
          <path class="cls-6" d="M401.11,175.15c-1.94-.53-3.84-1.11-5.69-1.74,1.85.63,3.74,1.21,5.69,1.74Z"/>
          <path class="cls-6" d="M384.11,168.57c-.56-.3-1.11-.6-1.64-.91.53.31,1.08.61,1.64.91Z"/>
          <path class="cls-7" d="M503.88,144.3c-1.68,6.88-8.19,13.55-19.57,18.82-26.69,12.35-70.12,12.35-96.81,0-11.38-5.26-17.89-11.94-19.57-18.82-.56,2.31-.58,4.65-.05,6.96,0,.01,0,.03.01.04.12.53.28,1.06.46,1.59.03.1.07.2.11.3.16.45.35.89.55,1.34.06.13.12.26.19.39.2.42.43.84.67,1.25.08.13.15.27.24.4.26.43.55.85.85,1.27.08.11.15.23.24.34.38.51.78,1.01,1.21,1.52.02.02.03.04.05.06.47.53.96,1.06,1.5,1.59.07.07.15.14.23.21.44.43.91.86,1.4,1.28.18.16.37.31.56.46.4.34.82.67,1.25,1,.23.18.48.35.72.53.42.3.84.61,1.29.9.27.18.54.36.81.54.45.29.92.58,1.4.87.28.17.56.34.86.51.53.31,1.08.61,1.64.91.26.14.52.28.79.42.84.43,1.7.86,2.6,1.28,2.5,1.16,5.15,2.21,7.92,3.15,1.85.63,3.74,1.21,5.69,1.74,3.89,1.06,7.96,1.93,12.14,2.6,2.09.34,4.21.63,6.35.87,1.07.12,2.15.23,3.22.33,4.32.39,8.7.58,13.08.58,17.53,0,35.06-3.09,48.41-9.26.9-.42,1.76-.84,2.6-1.28.27-.14.52-.28.79-.42.56-.3,1.11-.6,1.64-.91.29-.17.57-.34.86-.51.48-.29.95-.58,1.4-.87.28-.18.55-.36.81-.54.44-.3.87-.6,1.29-.9.24-.18.48-.35.72-.53.43-.33.85-.66,1.25-1,.19-.16.38-.31.56-.46.49-.42.95-.85,1.4-1.28.07-.07.16-.14.23-.21.53-.52,1.03-1.05,1.5-1.59.02-.02.03-.04.05-.06.43-.5.84-1.01,1.22-1.52.08-.11.16-.23.24-.34.3-.42.59-.85.85-1.27.08-.13.16-.27.24-.4.24-.42.47-.83.67-1.25.06-.13.13-.26.19-.39.2-.44.39-.89.55-1.34.04-.1.08-.2.11-.3.18-.53.34-1.06.46-1.59,0-.02,0-.03.01-.05.53-2.31.51-4.65-.05-6.96Z"/>
          <path class="cls-10" d="M402.85,104.08c.13-.05.27-.11.39-.17.05-.02.11-.05.16-.07.16-.07.31-.15.46-.23.01,0,.02-.01.03-.02.16-.09.3-.18.44-.27.04-.03.08-.06.12-.08.1-.07.2-.15.29-.22.04-.03.07-.06.11-.09.12-.1.23-.21.33-.32.65-.73.8-1.5.5-2.22-.15-.36-.4-.71-.76-1.04s-.81-.63-1.35-.91l-1.24,5.84c.12-.04.25-.08.36-.13.05-.02.11-.04.16-.06Z"/>
          <path class="cls-10" d="M466.64,102.61c.62.69,1.63,1.25,2.84,1.66l-1.24-5.83c-.54.27-1,.58-1.35.91-1.06.98-1.24,2.17-.26,3.26Z"/>
          <path class="cls-17" d="M474.47,111.61l-.02.02h0s-.29.33-.29.33h0c-.24,0-.48.02-.72.03-.07,0-.14,0-.21.01-.17.01-.35.03-.52.04-.07,0-.14.01-.21.02-.22.02-.44.05-.66.09,0,0-.02,0-.03,0-.22.03-.45.07-.66.12-.06.01-.13.03-.19.04-.16.03-.32.07-.47.11-.06.02-.13.03-.19.05-.19.05-.38.1-.56.16-.01,0-.03,0-.04.01-.2.06-.39.13-.57.2-.05.02-.11.04-.16.06-.13.05-.27.11-.39.17-.05.02-.1.05-.16.07-.16.07-.31.15-.46.23-.01,0-.02.01-.03.02-.16.09-.3.18-.44.27-.04.03-.08.06-.12.08-.1.07-.2.15-.29.22-.04.03-.07.06-.11.09-.12.1-.23.21-.33.32-.82.91-.83,1.89-.2,2.76.25.35.61.68,1.06.98.23.15.48.3.75.43h0s-.33.36-.33.36c-.32.21-.66.42-1,.63-.11.07-.24.13-.35.2-.24.14-.47.28-.71.41-.14.08-.3.16-.44.23-.22.12-.44.24-.67.35-.17.08-.34.16-.51.25-.21.1-.42.21-.63.31,0,0-.02,0-.03.01-.23.11-.48.21-.72.32-.17.07-.34.15-.51.22-.25.11-.52.21-.78.31-.17.07-.33.14-.5.2-.29.11-.59.22-.89.33-.14.05-.28.11-.42.16-.45.16-.9.31-1.36.46h-.05s-.7.14-.7.14c-.29-.13-.61-.24-.94-.35-.98-.31-2.1-.53-3.27-.63s-2.4-.09-3.61.05c-.4.05-.8.11-1.2.18-.24.05-.47.1-.69.15-.07.02-.13.03-.2.05-.16.04-.32.09-.48.13-.06.02-.12.04-.18.05-.2.06-.4.13-.59.2-.01,0-.03.01-.04.02-.17.07-.34.14-.5.21-.05.02-.1.05-.15.07-.12.06-.24.12-.36.18-.05.02-.09.05-.14.07-.15.09-.29.17-.43.26,0,0-.02.01-.03.02-.12.08-.24.17-.35.26-.04.03-.07.06-.1.09-.08.07-.16.14-.23.22-.03.03-.06.06-.09.09-.09.1-.18.2-.25.31,0,0,0,0,0,.01-.07.1-.13.2-.19.3-.02.03-.03.06-.05.1-.04.08-.07.16-.1.24-.01.03-.02.06-.03.1-.03.11-.05.22-.06.33h0s-.7.13-.7.13h-.05c-1.1.1-2.21.17-3.32.21-.56.02-1.12.04-1.68.05-2.81.06-5.65-.02-8.48-.25h-.06s-.7-.15-.7-.15h0c-.02-.19-.06-.37-.13-.55-.07-.18-.17-.36-.3-.53-.06-.09-.13-.17-.21-.26-.3-.34-.7-.66-1.2-.95-.25-.14-.52-.28-.81-.41-.73-.32-1.6-.59-2.59-.78-.4-.08-.79-.14-1.2-.18-1.61-.19-3.26-.14-4.76.09-1.13.18-2.17.46-3.05.84h0s0,0,0,0l-.44-.08-.26-.05h-.02s-.05-.01-.05-.01c-.94-.31-1.85-.63-2.72-.97-.43-.17-.86-.34-1.28-.52-.34-.15-.68-.3-1.01-.45-.01,0-.03-.01-.05-.02,0,0,0,0-.01,0-.45-.21-.89-.42-1.32-.63-.38-.19-.75-.39-1.11-.59-.72-.4-1.4-.81-2.04-1.23l-.02-.02-.29-.32-.42,2.58-4.29,22.63c-2.05-1.72-8.45-2.15-8.45-2.15l.34.38h0c3.22.06,6.25.84,8.04,2.14l-1.07,5.64h0s.34.38.34.38l.02.03c.76.5,1.56.98,2.41,1.45.42.23.86.47,1.31.69.5.26,1.03.5,1.56.75,0,0,.01,0,.02,0,.02,0,.04.02.05.02.39.18.78.36,1.19.53.49.21.99.41,1.51.61,1.03.4,2.1.78,3.21,1.14h.05s.02.01.02.01l.31.06.52.1h0s0,0,0,0c1.05-.45,2.28-.78,3.61-.99,1.77-.28,3.72-.33,5.62-.11.48.05.95.13,1.41.22,1.17.22,2.19.54,3.05.92.35.15.67.31.96.48.58.34,1.06.72,1.42,1.12.09.1.17.2.24.3.15.21.26.42.35.63.08.21.14.43.16.65h0s0,0,0,0l.83.16h.07c3.34.29,6.7.38,10.01.31.66-.01,1.32-.03,1.98-.06,1.32-.05,2.63-.13,3.92-.24h.06s.37-.08.37-.08h.17s0-.03,0-.03l.28-.05h0s-1.21-28.12-1.21-28.12l-.14-4.23c1.87-4.33,9.28-3.64,9.28-3.64,0,0,5.29,30.55-1.42,31.34-6.71.79-6.51,4.65-6.51,4.65.01-.13.04-.26.07-.39.01-.04.02-.08.04-.11.03-.1.07-.19.11-.28.02-.04.03-.08.05-.11.06-.12.13-.24.22-.36,0,0,0,0,0-.01.09-.12.19-.24.3-.36.03-.03.07-.07.1-.1.09-.09.18-.17.27-.26.04-.03.08-.07.12-.1.13-.1.26-.21.41-.31.01,0,.02-.02.03-.02.16-.11.33-.21.51-.31.05-.03.11-.06.16-.09.13-.07.27-.14.42-.21.06-.03.12-.06.18-.09.19-.09.39-.17.59-.25.02,0,.03-.01.05-.02.22-.08.46-.16.7-.24.07-.02.14-.04.21-.06.18-.06.37-.11.57-.16.08-.02.15-.04.23-.06.27-.06.54-.13.82-.18.47-.09.94-.16,1.41-.22,1.43-.17,2.88-.18,4.26-.06,1.38.12,2.7.38,3.86.75.39.12.76.26,1.1.41l.83-.16h.06c.54-.19,1.08-.37,1.6-.55.17-.06.33-.12.5-.19.35-.13.71-.26,1.05-.39.2-.08.39-.16.59-.24.31-.12.62-.24.92-.37.2-.09.4-.18.6-.27.28-.12.57-.25.85-.38.01,0,.02,0,.03-.01.25-.12.5-.24.75-.36.2-.1.4-.19.6-.29.27-.14.53-.28.8-.42.17-.09.35-.18.52-.28.29-.16.56-.32.84-.48.14-.08.28-.16.42-.24.41-.25.81-.5,1.2-.75l.03-.03.34-.38h0s0,0,0,0l-1.06-5.66s.01,0,.02-.01c.05-.03.09-.07.14-.1.16-.11.34-.22.52-.32.01,0,.03-.01.04-.02.17-.1.35-.19.54-.28.06-.03.12-.06.18-.08.15-.07.31-.13.46-.2.06-.02.12-.05.19-.07.22-.08.44-.16.67-.23.02,0,.03-.01.05-.02.22-.07.44-.13.67-.19.07-.02.15-.04.22-.06.18-.04.37-.09.56-.13.07-.02.15-.03.22-.05.26-.05.52-.1.78-.14.01,0,.02,0,.03,0,.26-.04.52-.07.78-.1.08,0,.16-.02.24-.02.2-.02.41-.04.61-.05.08,0,.16-.01.25-.02.28-.02.56-.03.84-.03h0s.34-.38.34-.38h0s.02-.03.02-.03c.47-1.24.7-2.48.69-3.71,0-.31-.02-.61-.05-.92-.02-.22-.07-.44-.11-.66h.05l-.15-.6c-.02-.08-.04-.16-.06-.24l-4.95-20.11-1.83-7.44c.01.19.03.38.03.57,0,1.04-.19,2.09-.59,3.14ZM420.79,154.31c-.1-.04-.21-.07-.31-.1-4.26-1.28-10.35,1.05-10.35,1.05l3.79-31.42c7.18-2.45,11.37-.08,11.37-.08,0,0-.24,32.05-4.5,30.55ZM480.71,141.6c-2.91-.36-7.16,1.55-7.8,1.85l-1.21-6.48-3.14-18.26-.11-.49c-.87-.25-1.99-.83-2.02-2.23-.08-3.39,7.66-3.67,7.66-3.67l6.63,29.29Z"/>
          <path class="cls-10" d="M389.85,136.09c-.09.46-.14.93-.16,1.39-.06,1.39.18,2.77.69,4.12h.01s.01.03.01.03l7.02-29.55c3.63.08,7.11,1.89,7.11,1.89l-.97,4.59c1.09-.55,1.82-1.22,2.11-1.95.29-.72.15-1.49-.5-2.22-1.31-1.46-4.3-2.36-7.51-2.42h0l-.29-.32h-.01s-.01-.02-.01-.02c-.41-1.07-.51-3.89-.46-4.56h-.02l-2.01,8.31-4.76,19.69c-.1.34-.18.68-.25,1.02Z"/>
          <path class="cls-6" d="M397.35,111.62h.01s.01.02.01.02l.29.32h0c3.21.06,6.2.96,7.51,2.42.65.73.8,1.5.5,2.22-.29.72-1.02,1.4-2.11,1.95l.97-4.59s-3.47-1.82-7.11-1.89l-7.02,29.55s6.4.43,8.45,2.15l4.29-22.63.42-2.58.29.32.02.02c.64.42,1.32.83,2.04,1.23.36.2.73.39,1.11.59.43.22.87.43,1.32.63,0,0,0,0,.01,0,.02,0,.03.01.05.02.33.15.66.3,1.01.45.42.18.84.35,1.28.52.87.34,1.78.66,2.72.97h.05s.02.01.02.01l.26.05.44.08h0s0,0,0,0c.89-.38,1.93-.66,3.05-.84,1.5-.23,3.15-.28,4.76-.09.4.05.8.11,1.2.18.99.19,1.86.45,2.59.78.29.13.56.27.81.41.5.29.9.61,1.2.95.08.08.14.17.21.26.12.17.22.35.3.53.07.18.12.36.13.55h0s0,0,0,0l.7.13h.06c2.83.24,5.67.32,8.48.26.56-.01,1.12-.03,1.68-.05,1.12-.05,2.22-.11,3.32-.2h.05s.7-.14.7-.14h0c.01-.11.03-.22.06-.33,0-.03.02-.06.03-.1.03-.08.06-.16.1-.24.01-.03.03-.06.05-.1.05-.1.11-.2.19-.3,0,0,0,0,0-.01.07-.1.16-.21.25-.31.03-.03.06-.06.09-.09.07-.07.15-.15.23-.22.03-.03.07-.06.1-.09.11-.09.22-.18.35-.26,0,0,.02-.01.03-.02.13-.09.28-.18.43-.26.04-.03.09-.05.14-.07.11-.06.23-.12.36-.18.05-.02.1-.05.15-.07.16-.07.33-.14.5-.21.01,0,.03-.01.04-.02.19-.07.39-.14.59-.2.06-.02.12-.04.18-.05.16-.05.32-.09.48-.13.06-.02.13-.03.2-.05.22-.05.45-.11.69-.15.4-.08.8-.14,1.2-.18,1.21-.14,2.44-.15,3.61-.05s2.29.32,3.27.63c.33.1.64.22.94.35l.7-.13h.05c.46-.16.91-.31,1.36-.47.14-.05.28-.11.42-.16.3-.11.6-.22.89-.33.17-.07.33-.13.5-.2.26-.1.52-.21.78-.31.17-.07.34-.15.51-.22.24-.11.48-.21.72-.32,0,0,.02,0,.03-.01.21-.1.42-.2.63-.31.17-.08.34-.16.51-.25.23-.12.45-.24.67-.35.15-.08.3-.15.44-.23.24-.13.48-.27.71-.41.12-.07.24-.13.35-.2.34-.21.68-.42,1-.63l.33-.36h0c-.27-.14-.52-.28-.75-.43-.45-.3-.81-.63-1.06-.98-.63-.87-.62-1.84.2-2.76.1-.11.21-.22.33-.32.03-.03.07-.06.11-.09.09-.08.19-.15.29-.22.04-.03.08-.06.12-.08.14-.09.29-.19.44-.27.01,0,.02-.01.03-.02.15-.08.3-.16.46-.23.05-.02.1-.05.16-.07.13-.06.26-.11.39-.17.05-.02.1-.04.16-.06.18-.07.37-.14.57-.2.01,0,.03,0,.04-.01.18-.06.37-.11.56-.16.06-.02.13-.03.19-.05.15-.04.31-.07.47-.11.06-.01.13-.03.19-.04.22-.04.44-.08.66-.12,0,0,.02,0,.03,0,.22-.03.44-.06.66-.09.07,0,.14-.01.21-.02.17-.02.34-.03.52-.04.07,0,.14-.01.21-.01.24-.01.48-.02.72-.03h0s.29-.32.29-.32h0s.02-.03.02-.03c.4-1.05.59-2.1.59-3.14,0-.19-.02-.38-.03-.57,0-.07,0-.14-.01-.21-.08-.78-.26-1.55-.55-2.31h0s0-.02,0-.02l-.29-.32c-1.69-.03-3.31-.3-4.66-.76-1.22-.41-2.22-.97-2.84-1.66-.98-1.1-.81-2.28.26-3.26.35-.33.81-.63,1.35-.91h0s0,0,0,0l-.29-.32-.02-.02c-.96-.63-2.01-1.24-3.15-1.82-.43-.22-.87-.43-1.32-.63-.02-.01-.04-.02-.07-.03-.73-.33-1.49-.66-2.28-.97-.87-.34-1.78-.66-2.72-.97h-.06s-.35-.08-.35-.08l-.35-.07h0c-1.48.63-3.39,1-5.39,1.04-.4,0-.8,0-1.21-.01-.81-.04-1.62-.13-2.41-.28-.59-.11-1.14-.25-1.64-.42-.34-.11-.65-.23-.94-.36-.29-.13-.56-.27-.81-.41-.25-.14-.47-.3-.67-.46-.1-.08-.19-.16-.28-.24-.18-.16-.33-.33-.45-.51-.06-.09-.12-.18-.17-.26-.15-.27-.24-.54-.26-.82l-.7-.13h-.06c-2.27-.2-4.54-.28-6.79-.28-2.25,0-4.49.09-6.69.27h-.05s-.7.14-.7.14h0c-.01.11-.03.22-.06.33,0,.03-.02.06-.03.1-.03.08-.06.16-.09.24-.02.03-.03.06-.05.1-.05.1-.11.21-.19.31,0,0,0,0,0,.01-.07.1-.16.21-.25.31-.03.03-.06.06-.09.09-.07.07-.15.15-.23.22-.03.03-.07.06-.1.09-.11.09-.22.18-.35.26,0,0-.02.01-.03.02-.13.09-.28.18-.43.26-.04.02-.09.05-.13.07-.11.06-.23.12-.36.18-.05.02-.1.05-.15.07-.16.07-.33.14-.5.21-.01,0-.03.01-.04.02-.19.07-.39.14-.59.2-.06.02-.12.04-.18.05-.16.05-.32.09-.48.13-.06.02-.13.03-.19.05-.22.05-.45.11-.69.15-.79.15-1.6.24-2.41.28-2.43.11-4.83-.27-6.6-1.02l-.7.13h-.05c-.46.16-.91.31-1.36.47-.15.05-.29.11-.44.16-.29.11-.59.21-.88.33-.17.07-.34.14-.51.21-.26.1-.51.2-.77.31-.18.08-.35.15-.52.23-.24.1-.47.21-.7.31,0,0-.02,0-.03.01-.22.1-.43.21-.65.31-.16.08-.33.16-.49.24-.23.12-.45.24-.68.36-.15.08-.3.15-.44.23-.24.13-.47.27-.71.41-.12.07-.24.14-.36.21-.35.21-.68.42-1.01.64l-.03.03-.29.32c.54.27,1,.58,1.35.91s.61.68.76,1.04c.29.72.15,1.49-.5,2.22-.1.11-.21.22-.33.32-.03.03-.07.06-.11.09-.09.08-.19.15-.29.22-.04.03-.08.06-.12.08-.14.09-.29.19-.44.27-.01,0-.02.01-.03.02-.15.08-.3.16-.46.23-.05.02-.1.05-.16.07-.13.06-.26.11-.39.17-.05.02-.1.04-.16.06-.12.04-.24.08-.36.13-.07.02-.14.05-.21.07-.01,0-.03,0-.04.01-.18.06-.37.11-.56.16-.06.02-.13.03-.19.05-.15.04-.31.07-.47.11-.06.01-.13.03-.19.04-.22.04-.44.08-.66.12,0,0-.02,0-.02,0-.22.03-.44.06-.66.09-.07,0-.14.01-.21.02-.17.02-.35.03-.52.04-.07,0-.14.01-.21.01-.24.01-.48.02-.72.03l-.15.16-.15.16-.03.03c-.2.52-.35,1.05-.44,1.57,0,.02,0,.06-.01.1-.05.67.05,3.49.46,4.56ZM412.7,104.49c.22-.35.48-.69.78-1.03.15-.17.31-.34.47-.5.5-.5,1.08-.98,1.75-1.45.89-.62,1.93-1.21,3.11-1.76,1.48-.69,3.1-1.26,4.83-1.73.34-.09.69-.18,1.05-.27,1.06-.26,2.15-.48,3.26-.66.74-.12,1.49-.22,2.25-.31,1.14-.13,2.29-.22,3.45-.27,1.16-.05,2.33-.06,3.49-.04.78.02,1.55.05,2.32.1,5,.33,9.82,1.39,13.67,3.17,3.85,1.78,6.14,4.01,6.86,6.33.35,1.14.32,2.3-.08,3.43-.79,2.24-3.04,4.39-6.78,6.12-5.33,2.47-12.52,3.55-19.48,3.24-5.41-.24-10.69-1.32-14.83-3.24-3.74-1.73-5.99-3.88-6.78-6.13-.59-1.67-.37-3.38.68-5.01Z"/>
          <path class="cls-6" d="M413.92,123.84l-3.79,31.42s6.09-2.33,10.35-1.05c.1.03.21.06.31.1,4.26,1.5,4.5-30.55,4.5-30.55,0,0-4.18-2.37-11.37.08Z"/>
          <path class="cls-6" d="M451.27,154.15c6.71-.79,1.42-31.34,1.42-31.34,0,0-7.4-.7-9.28,3.64l.14,4.23,1.21,28.12s-.2-3.86,6.51-4.65Z"/>
          <path class="cls-6" d="M466.42,115.98c.03,1.4,1.15,1.99,2.02,2.23l.11.49,3.14,18.26,1.21,6.48c.64-.3,4.89-2.22,7.8-1.85l-6.63-29.29s-7.74.28-7.66,3.67Z"/>
          <path class="cls-9" d="M418.81,115.63c4.15,1.92,9.42,3,14.83,3.24,6.96.31,14.15-.77,19.48-3.24,3.73-1.73,5.99-3.88,6.78-6.12.4-1.14.43-2.29.08-3.43-.72-2.31-3.01-4.55-6.86-6.33-3.85-1.78-8.67-2.84-13.67-3.17-.77-.05-1.54-.09-2.32-.1-1.16-.03-2.33-.01-3.49.04-1.16.05-2.31.14-3.45.27-.76.09-1.51.19-2.25.31-1.11.18-2.2.4-3.26.66-.35.09-.7.18-1.05.27-1.72.47-3.35,1.05-4.83,1.73-1.18.55-2.22,1.14-3.11,1.76-.67.47-1.25.95-1.75,1.45-.17.17-.32.33-.47.5-.3.34-.56.68-.78,1.03-1.04,1.63-1.26,3.34-.68,5.01.79,2.24,3.04,4.4,6.78,6.13ZM414.39,108.22c.21-.32.45-.64.72-.95.14-.16.28-.31.44-.47.46-.46,1-.91,1.62-1.34.82-.58,1.79-1.13,2.88-1.63,1.37-.64,2.88-1.17,4.48-1.61.32-.09.64-.17.97-.25.98-.24,1.99-.44,3.02-.61.69-.11,1.38-.21,2.09-.29,1.05-.12,2.12-.2,3.2-.25,1.08-.05,2.16-.06,3.24-.04.72.02,1.44.05,2.15.1,4.64.31,9.11,1.29,12.68,2.94,3.47,1.6,5.55,3.6,6.29,5.68-.73,2.08-2.82,4.07-6.29,5.67-4.94,2.29-11.61,3.29-18.07,3-5.02-.22-9.91-1.22-13.75-3-3.47-1.6-5.56-3.6-6.29-5.68.15-.43.36-.86.63-1.28Z"/>
          <path class="cls-6" d="M420.05,115.18c3.84,1.78,8.73,2.78,13.75,3,6.45.29,13.12-.71,18.07-3,3.46-1.6,5.55-3.6,6.29-5.67-.73-2.08-2.82-4.08-6.29-5.68-3.57-1.65-8.04-2.63-12.68-2.94-.71-.05-1.43-.08-2.15-.1-1.08-.02-2.16-.01-3.24.04-1.08.05-2.15.13-3.2.25-.7.08-1.4.17-2.09.29-1.03.17-2.04.37-3.02.61-.33.08-.65.16-.97.25-1.6.44-3.1.97-4.48,1.61-1.1.51-2.06,1.06-2.88,1.63-.62.43-1.16.88-1.62,1.34-.15.15-.3.31-.44.47-.27.31-.51.63-.72.95-.27.42-.47.85-.63,1.28.73,2.08,2.82,4.08,6.29,5.68Z"/>
        </g>
      </g>
    </g>
  </g>
</svg>