<?xml version="1.0" encoding="UTF-8"?>
<svg id="Layer_2" data-name="Layer 2" xmlns="http://www.w3.org/2000/svg" viewBox="0 0 138.91 138.91">
  <defs>
    <style>
      .cls-1 {
        fill: #000;
      }

      .cls-1, .cls-2, .cls-3 {
        stroke-width: 0px;
      }

      .cls-2 {
        fill: #c1272d;
      }

      .cls-3 {
        fill: red;
      }
    </style>
  </defs>
  <g id="Layer_1-2" data-name="Layer 1">
    <g>
      <g>
        <circle class="cls-3" cx="69.46" cy="69.46" r="69.46"/>
        <path class="cls-1" d="M69.46,1c37.75,0,68.46,30.71,68.46,68.46s-30.71,68.46-68.46,68.46S1,107.2,1,69.46C1,31.71,31.71,1,69.46,1M69.46,0C31.1,0,0,31.1,0,69.46c0,38.36,31.1,69.46,69.46,69.46,38.36,0,69.46-31.1,69.46-69.46C138.91,31.1,107.81,0,69.46,0h0Z"/>
      </g>
      <g>
        <circle class="cls-2" cx="69.46" cy="69.46" r="66.52"/>
        <path class="cls-1" d="M69.46,3.93c36.13,0,65.52,29.39,65.52,65.52,0,36.13-29.39,65.52-65.52,65.52-36.13,0-65.52-29.39-65.52-65.52,0-36.13,29.39-65.52,65.52-65.52M69.46,2.93c-36.74,0-66.52,29.78-66.52,66.52s29.78,66.52,66.52,66.52,66.52-29.78,66.52-66.52S106.19,2.93,69.46,2.93h0Z"/>
      </g>
      <g>
        <path class="cls-2" d="M47.92,105.35c-.08.02-.16.05-.24.07.08-.02.16-.05.24-.07Z"/>
        <path class="cls-2" d="M47.09,105.62c-.08.03-.15.06-.23.09.08-.03.15-.06.23-.09Z"/>
        <path class="cls-2" d="M48.74,105.16s-.04,0-.06.01c.02,0,.04,0,.06-.01Z"/>
        <path class="cls-2" d="M49.82,105.02c-.08,0-.16.01-.25.02.08,0,.16-.01.25-.02Z"/>
        <path class="cls-2" d="M52.68,105.21c-.08-.02-.16-.04-.25-.05.08.02.16.03.25.05Z"/>
        <path class="cls-2" d="M51.57,105.03s-.04,0-.06,0c.02,0,.04,0,.06,0Z"/>
        <path class="cls-2" d="M46.09,106.05s-.02.01-.03.02c0,0,.02-.01.03-.02Z"/>
        <polygon class="cls-2" points="43.78 31.26 43.37 31.44 43.78 31.26 43.78 31.26"/>
        <path class="cls-2" d="M33.15,92.18c.36-.86.6-1.78.71-2.71-.11.94-.35,1.85-.71,2.71Z"/>
        <path class="cls-2" d="M44.43,31.81c.07.05.13.1.2.15-.07-.05-.13-.1-.2-.15Z"/>
        <path class="cls-2" d="M45.36,106.46c-.07.04-.14.09-.21.14.07-.05.14-.09.21-.14Z"/>
        <path class="cls-2" d="M45.15,32.31c.07.05.14.09.21.13-.07-.04-.14-.09-.21-.13Z"/>
        <path class="cls-2" d="M33.86,89.46c.05-.47.08-.94.06-1.42.01.48,0,.95-.06,1.42Z"/>
        <path class="cls-2" d="M44.63,106.95c-.07.05-.13.1-.2.15.07-.05.13-.1.2-.15Z"/>
        <path class="cls-2" d="M53.57,105.44c-.08-.03-.17-.05-.25-.07.08.02.17.05.25.07Z"/>
        <path class="cls-2" d="M32.15,94.02c.27-.39.51-.79.71-1.21-.21.42-.45.82-.71,1.21Z"/>
        <polygon class="cls-2" points="43.78 107.65 43.78 107.65 42.96 107.3 43.78 107.65"/>
        <path class="cls-2" d="M91.24,105.43c-.08-.02-.16-.05-.24-.07.08.02.16.05.24.07Z"/>
        <path class="cls-2" d="M87.41,105.03s-.04,0-.06,0c.02,0,.04,0,.06,0Z"/>
        <path class="cls-2" d="M92.05,105.71c-.08-.03-.15-.06-.23-.09.08.03.15.06.23.09Z"/>
        <path class="cls-2" d="M89.34,105.04c-.08,0-.16-.01-.25-.02.08,0,.16.01.25.02Z"/>
        <path class="cls-2" d="M90.23,105.17s-.04,0-.06-.01c.02,0,.04,0,.06.01Z"/>
        <path class="cls-2" d="M60.45,113.21c-.25-1.39-.8-2.71-1.59-3.87.79,1.16,1.34,2.48,1.59,3.87Z"/>
        <path class="cls-2" d="M46.07,32.84s.02,0,.03.01c0,0-.02,0-.03-.01Z"/>
        <path class="cls-2" d="M93.76,106.6c-.07-.05-.14-.09-.21-.14.07.04.14.09.21.14Z"/>
        <path class="cls-2" d="M92.85,106.07s-.02-.01-.03-.02c.01,0,.02.01.03.02Z"/>
        <path class="cls-2" d="M94.48,107.1c-.07-.05-.13-.1-.2-.15.07.05.13.1.2.15Z"/>
        <path class="cls-2" d="M69.43,115.68c-.39,0-.78-.02-1.17-.03.39.01.78.03,1.17.03Z"/>
        <path class="cls-2" d="M86.48,105.16c-.08.02-.16.03-.25.05.08-.02.16-.04.25-.05Z"/>
        <path class="cls-2" d="M71.42,115.64c-.29.01-.58.01-.87.02.29,0,.58,0,.87-.02Z"/>
        <path class="cls-2" d="M65.43,115.5c-.45-.04-.9-.09-1.34-.15.45.05.89.11,1.34.15Z"/>
        <path class="cls-2" d="M67.43,115.63c-.41-.02-.81-.05-1.22-.08.41.03.81.06,1.22.08Z"/>
        <path class="cls-2" d="M73.41,115.51c-.26.02-.53.03-.79.05.26-.02.53-.03.79-.05Z"/>
        <path class="cls-2" d="M85.59,105.37c-.08.02-.17.05-.25.07.08-.03.17-.05.25-.07Z"/>
        <path class="cls-2" d="M75.41,115.29c-.22.03-.44.05-.66.07.22-.03.44-.04.66-.07Z"/>
        <path class="cls-2" d="M87.34,33.88s.04,0,.06,0c-.02,0-.04,0-.06,0Z"/>
        <path class="cls-2" d="M60.6,24.3c-.04.95-.21,1.88-.51,2.76.3-.89.47-1.82.51-2.76h0Z"/>
        <path class="cls-2" d="M46.86,33.2c.08.03.15.06.23.09-.08-.03-.16-.06-.23-.09Z"/>
        <path class="cls-2" d="M104.99,50.86c.01.48.06.95.14,1.43-.08-.48-.13-.96-.14-1.43Z"/>
        <path class="cls-2" d="M102.19,102.09c1.88-1.89,3.58-3.92,5.09-6.08v-.03s0,.03,0,.03c-1.51,2.16-3.21,4.19-5.09,6.08Z"/>
        <polygon class="cls-2" points="95.13 107.65 95.13 107.65 95.95 107.3 95.98 107.29 95.95 107.3 95.13 107.65"/>
        <path class="cls-2" d="M103.99,77.77c-.35.17-.69.37-1.02.6-.65.45-1.24.98-1.75,1.61-.51.62-.94,1.33-1.26,2.12-.81,1.96-.83,4.05-.2,5.91.38,1.12.99,2.15,1.79,3.03l3.81,2.56c-1.57-2.89-1.82-6.38-.53-9.48,1.29-3.1,3.93-5.39,7.08-6.33l-4.5-.88c-1.19.05-2.36.35-3.41.87Z"/>
        <path class="cls-2" d="M88.47,33.92c-.09,0-.17,0-.26,0,.03,0,.07,0,.1,0,.05,0,.1,0,.15,0Z"/>
        <polygon class="cls-2" points="95.95 31.61 95.13 31.26 95.13 31.26 95.95 31.61"/>
        <path class="cls-2" d="M88.31,34.93c-1.45,0-2.86-.28-4.21-.84-3.1-1.29-5.39-3.93-6.33-7.08l-.88,4.5c.13,3.18,2.06,6.15,5.19,7.45,1.05.44,2.14.64,3.21.64,2.12,0,4.17-.81,5.73-2.24h0l2.53-3.77c-1.6.87-3.4,1.33-5.25,1.33Z"/>
        <path class="cls-2" d="M54.81,34.09c-1.35.56-2.76.84-4.21.84-1.85,0-3.65-.47-5.25-1.33l2.53,3.77c1.56,1.43,3.61,2.24,5.73,2.24,1.07,0,2.16-.21,3.21-.64,3.13-1.3,5.06-4.27,5.19-7.45l-.88-4.5c-.93,3.15-3.22,5.79-6.33,7.08Z"/>
        <path class="cls-2" d="M114.99,61.51c.23,1.34.41,2.68.52,4.01-.11-1.34-.29-2.68-.52-4.01l-.03-.08-.17-.41.17.41.03.08Z"/>
        <path class="cls-2" d="M88.21,104.99c.09,0,.17,0,.26,0-.05,0-.1,0-.15,0-.03,0-.07,0-.1,0Z"/>
        <polygon class="cls-2" points="61.43 23.96 61.51 23.92 61.43 23.96 60.6 24.3 60.6 24.3 61.43 23.96"/>
        <path class="cls-2" d="M50.7,33.92c-.09,0-.17,0-.26,0,.05,0,.1,0,.16,0,.03,0,.07,0,.1,0Z"/>
        <path class="cls-2" d="M34.09,84.1c1.29,3.1,1.03,6.59-.53,9.48l3.81-2.56c1.08-1.17,1.8-2.62,2.09-4.17.29-1.55.15-3.2-.5-4.77-1.3-3.13-4.27-5.06-7.45-5.19l-4.5.88c3.15.93,5.79,3.22,7.08,6.33Z"/>
        <path class="cls-2" d="M23.92,77.4c-.23-1.34-.41-2.68-.52-4.01.11,1.34.29,2.68.52,4.01l.03.08.13.31-.13-.31-.03-.08Z"/>
        <path class="cls-2" d="M23.28,67.39c-.03.75-.04,1.5-.04,2.25,0,0,0,0,0,0,0-.75,0-1.5.04-2.24Z"/>
        <path class="cls-2" d="M23.24,69.74c0,.55,0,1.1.03,1.65-.02-.55-.03-1.1-.03-1.65,0,0,0,0,0,0Z"/>
        <path class="cls-2" d="M45.35,105.32c1.6-.87,3.4-1.33,5.25-1.33,1.45,0,2.86.28,4.21.84,3.1,1.29,5.39,3.93,6.33,7.08l.19-.95.7-3.55h0c-.13-3.18-2.06-6.15-5.19-7.45-1.05-.44-2.14-.64-3.21-.64-2.12,0-4.17.81-5.73,2.24h0l-.58.86-1.95,2.9Z"/>
        <path class="cls-2" d="M101.55,47.88c-2.16,2.34-2.89,5.81-1.6,8.94.81,1.96,2.28,3.45,4.04,4.32.7.35,1.46.6,2.23.74.39.07.78.12,1.18.13l4.5-.88c-3.15-.93-5.79-3.22-7.08-6.33-1.29-3.1-1.03-6.59.53-9.48l-3.81,2.56Z"/>
        <path class="cls-2" d="M61.43,114.96l-.83-.34.83.34.06.02c.65.11,1.31.22,1.97.3-.66-.09-1.31-.19-1.97-.3l-.06-.02Z"/>
        <path class="cls-2" d="M91.03,101.55c-1.56-1.43-3.61-2.24-5.73-2.24-1.07,0-2.16.21-3.21.64-3.13,1.3-5.06,4.27-5.19,7.45l.61,3.1.27,1.4c.93-3.15,3.22-5.79,6.33-7.08,1.35-.56,2.76-.84,4.21-.84,1.85,0,3.65.47,5.25,1.33l-2.53-3.77Z"/>
        <path class="cls-2" d="M32.49,83.16c.25.42.48.86.67,1.33.48,1.17.73,2.37.76,3.56-.03-1.19-.28-2.39-.76-3.56-.19-.47-.42-.91-.67-1.33Z"/>
        <path class="cls-2" d="M50.44,104.99c.09,0,.17,0,.26,0-.03,0-.07,0-.1,0-.05,0-.1,0-.16,0Z"/>
        <path class="cls-2" d="M39.67,34.11c-3.08,2.59-5.77,5.56-8.04,8.79v.03s0-.03,0-.03c2.27-3.24,4.96-6.2,8.04-8.79Z"/>
        <path class="cls-2" d="M31.51,62.02c1.59-.07,3.13-.58,4.43-1.47.65-.45,1.24-.98,1.75-1.61.51-.62.94-1.33,1.26-2.12.16-.39.29-.79.39-1.19.4-1.6.31-3.23-.19-4.72-.38-1.12-.99-2.15-1.79-3.03l-3.81-2.56c1.57,2.89,1.82,6.38.53,9.48-1.29,3.1-3.93,5.39-7.08,6.33l4.5.88h0Z"/>
        <path class="cls-2" d="M58.85,29.57c.53-.78.95-1.62,1.24-2.51-.3.89-.71,1.73-1.24,2.51Z"/>
        <path class="cls-2" d="M85.34,33.47c.08.03.17.05.25.07-.08-.02-.17-.05-.25-.07Z"/>
        <path class="cls-2" d="M52.43,33.75c.08-.02.17-.03.25-.05-.08.02-.17.04-.25.05Z"/>
        <path class="cls-2" d="M53.32,33.54c.08-.02.17-.05.25-.07-.08.03-.17.05-.25.07Z"/>
        <path class="cls-2" d="M105.05,49.45c-.05.47-.08.94-.06,1.42-.01-.48,0-.95.06-1.42Z"/>
        <path class="cls-2" d="M51.5,33.88s.04,0,.06,0c-.02,0-.04,0-.06,0Z"/>
        <path class="cls-2" d="M75.46,23.63c.66.09,1.31.19,1.97.3-.65-.11-1.31-.22-1.97-.3Z"/>
        <path class="cls-2" d="M49.57,33.87c.08,0,.16.01.25.02-.08,0-.16-.01-.25-.02Z"/>
        <path class="cls-2" d="M69.48,23.23c.38,0,.77.02,1.15.03-.38,0-.76-.02-1.15-.03Z"/>
        <path class="cls-2" d="M71.48,23.28c.4.02.8.05,1.2.08-.4-.03-.8-.06-1.2-.08Z"/>
        <path class="cls-2" d="M65.5,23.4c.26-.02.52-.03.79-.05-.26.02-.52.03-.79.05Z"/>
        <path class="cls-2" d="M73.48,23.41c.44.04.88.09,1.32.14-.44-.05-.88-.11-1.32-.14Z"/>
        <path class="cls-2" d="M67.49,23.28c.28-.01.56-.01.83-.02-.28,0-.56,0-.83.02Z"/>
        <path class="cls-2" d="M63.5,23.62c.23-.03.45-.05.68-.07-.23.03-.45.04-.68.07Z"/>
        <path class="cls-2" d="M48.68,33.74s.04,0,.06.01c-.02,0-.04,0-.06-.01Z"/>
        <path class="cls-2" d="M90.17,33.75s.04,0,.06-.01c-.02,0-.04,0-.06.01Z"/>
        <path class="cls-2" d="M90.99,33.56c.08-.02.16-.05.24-.07-.08.02-.16.05-.24.07Z"/>
        <path class="cls-2" d="M47.67,33.49c.08.02.16.05.24.07-.08-.02-.16-.05-.24-.07Z"/>
        <path class="cls-2" d="M105.31,48.06c-.12.45-.21.92-.26,1.38.05-.47.14-.93.26-1.38Z"/>
        <path class="cls-2" d="M92.82,32.86s.02,0,.02-.01c0,0-.02,0-.02.01Z"/>
        <path class="cls-2" d="M93.55,32.45c.07-.04.14-.09.21-.14-.07.05-.14.09-.21.14Z"/>
        <path class="cls-2" d="M94.28,31.96c.07-.05.14-.1.2-.15-.07.05-.13.1-.2.15Z"/>
        <path class="cls-2" d="M91.82,33.29c.08-.03.15-.06.23-.09-.08.03-.15.06-.23.09Z"/>
        <path class="cls-2" d="M89.1,33.89c.08,0,.16-.01.24-.02-.08,0-.16.01-.24.02Z"/>
        <path class="cls-2" d="M86.23,33.7c.08.02.17.04.25.05-.08-.02-.17-.03-.25-.05Z"/>
        <path class="cls-1" d="M115.67,69.28s0-.07,0-.11c0-1.21-.06-2.43-.16-3.65-.11-1.34-.29-2.68-.52-4.01l-.03-.08-.17-.41-.17-.41h0s0,0,0,0c-2.37-.1-4.63-1.03-6.38-2.63-.35-.32-.68-.67-.98-1.04-.61-.74-1.12-1.58-1.5-2.52-.29-.7-.49-1.41-.62-2.13-.08-.48-.13-.96-.14-1.43-.01-.48,0-.95.06-1.42.05-.47.14-.93.26-1.38.06-.23.13-.45.2-.67.15-.44.33-.88.54-1.29.1-.21.22-.41.34-.62.36-.61.78-1.17,1.26-1.7l-.34-.83-.03-.07c-1.56-2.22-3.3-4.28-5.18-6.16-1.89-1.88-3.92-3.58-6.08-5.09l-.06-.02-.83-.34h0s0,0,0,0h0l-4.67,6.95.57-.85h0c-1.56,1.43-3.61,2.24-5.73,2.24-1.07,0-2.16-.21-3.21-.64-3.13-1.3-5.06-4.27-5.19-7.45l.88-4.5c.93,3.15,3.22,5.79,6.33,7.08,1.35.56,2.76.84,4.21.84,1.85,0,3.65-.47,5.25-1.33l1.57-2.33h0c-.21.19-.43.37-.65.54-.07.05-.13.1-.2.15-.17.12-.34.24-.51.35-.07.05-.14.09-.21.14-.23.14-.47.28-.71.4,0,0-.02,0-.02.01-.25.13-.51.24-.77.34-.08.03-.15.06-.23.09-.19.07-.39.14-.59.2-.08.02-.16.05-.24.07-.25.07-.51.13-.76.18-.02,0-.04,0-.06.01-.28.05-.55.09-.83.12-.08,0-.16.01-.24.02-.21.02-.42.03-.63.03-.05,0-.1,0-.15,0-.03,0-.07,0-.1,0-.27,0-.53-.01-.8-.04-.02,0-.04,0-.06,0-.29-.03-.57-.07-.86-.13-.08-.02-.17-.03-.25-.05-.21-.05-.43-.1-.64-.16-.08-.02-.17-.05-.25-.07-.29-.09-.57-.19-.85-.3-.93-.39-1.78-.9-2.52-1.5-2.23-1.82-3.55-4.52-3.66-7.36l-.83-.34-.06-.02c-.65-.11-1.31-.22-1.97-.3-.22-.03-.44-.05-.66-.07-.44-.05-.88-.11-1.32-.14-.26-.02-.53-.03-.8-.05-.4-.03-.8-.06-1.2-.08-.28-.01-.57-.01-.85-.02-.38-.01-.76-.02-1.15-.03-.02,0-.03,0-.05,0-.37,0-.74.01-1.11.02-.28,0-.56,0-.83.02-.4.02-.81.05-1.21.08-.26.02-.52.03-.79.05-.44.04-.88.09-1.32.14-.23.03-.45.04-.68.07-.67.09-1.33.19-2,.31l-.08.03-.83.34.44-.1c.68-.16,1.37-.3,2.06-.41-.69.12-1.37.26-2.06.41l-.44.1,1.61,8.22-.2-1.01c-.13,3.18-2.06,6.15-5.19,7.45-1.05.44-2.14.64-3.21.64-2.12,0-4.17-.81-5.73-2.24l-2.53-3.77c1.6.87,3.4,1.33,5.25,1.33,1.45,0,2.86-.28,4.21-.84,3.1-1.29,5.39-3.93,6.33-7.08l-.53-2.71c-.04.95-.21,1.88-.51,2.76-.3.89-.71,1.73-1.24,2.51-1.06,1.55-2.56,2.82-4.43,3.59-.28.12-.57.22-.85.3-.08.03-.17.05-.25.07-.21.06-.43.11-.64.16-.08.02-.16.04-.25.05-.29.05-.57.1-.86.13-.02,0-.04,0-.06,0-.27.02-.54.04-.8.04-.03,0-.07,0-.1,0-.05,0-.1,0-.16,0-.21,0-.42-.01-.63-.03-.08,0-.16-.01-.25-.02-.28-.03-.56-.07-.83-.12-.02,0-.04,0-.06-.01-.26-.05-.51-.11-.76-.18-.08-.02-.16-.05-.24-.07-.2-.06-.39-.13-.59-.2-.08-.03-.16-.06-.23-.09-.26-.1-.52-.22-.77-.34,0,0-.02,0-.03-.01-.24-.12-.48-.26-.71-.4-.07-.04-.14-.09-.21-.13-.17-.11-.35-.23-.51-.35-.07-.05-.13-.1-.2-.15-.22-.17-.44-.35-.65-.54l-.73.46c-1.75,1.12-3.4,2.38-4.94,3.76,1.53-1.39,3.18-2.65,4.93-3.76l.73-.46h0l-.41.17-.41.17-.07.03c-1.11.78-2.18,1.6-3.21,2.47-3.08,2.59-5.77,5.56-8.04,8.79v.03s-.02.03-.02.03l-.34.83h0s0,0,0,0c2.57,2.79,3.44,6.91,1.9,10.64-.77,1.87-2.04,3.37-3.59,4.43-1.55,1.06-3.38,1.67-5.27,1.75l2.71.53c3.15-.93,5.79-3.22,7.08-6.33,1.29-3.1,1.03-6.59-.53-9.48l3.81,2.56c.81.88,1.42,1.91,1.79,3.03.5,1.49.59,3.12.19,4.72-.1.4-.23.8-.39,1.19-.32.78-.75,1.49-1.26,2.12-.51.62-1.1,1.16-1.75,1.61-1.3.89-2.84,1.4-4.43,1.47h0l1.01.2-.03.1.03-.1-8.22-1.61h0s0,0,0,0l-.34.83-.02.06c-.23,1.3-.4,2.61-.52,3.92-.06.66-.1,1.32-.13,1.98-.03.75-.04,1.49-.04,2.24,0,0,0,0,0,0,0,0,0,.02,0,.02,0,.03,0,.05,0,.08,0,0,0,0,0,0,0,.55,0,1.1.03,1.65.03.67.07,1.34.13,2,.11,1.34.29,2.68.52,4.01l.03.08.13.31.22.52h0s8.22-1.61,8.22-1.61l-1.01.2c3.18.13,6.15,2.06,7.45,5.19.65,1.57.79,3.22.5,4.77-.29,1.55-1.02,3-2.09,4.17l-3.81,2.56c1.57-2.89,1.82-6.38.53-9.48-1.29-3.1-3.93-5.39-7.08-6.33l-2.71.53c1.42.06,2.8.42,4.06,1.04,1.68.83,3.13,2.13,4.14,3.81.25.42.48.86.67,1.33.48,1.17.73,2.37.76,3.56.01.48,0,.95-.06,1.42-.11.94-.35,1.85-.71,2.71-.09.22-.19.43-.29.64-.21.42-.45.82-.71,1.21s-.56.76-.88,1.1h0s0,0,0,0l.34.83.03.07c1.95,2.78,4.18,5.3,6.62,7.53.49.45.99.88,1.5,1.31,1.01.85,2.06,1.65,3.14,2.41l.06.02.83.34h0l-.38-.24.38.24h0c.21-.19.43-.37.65-.54.07-.05.13-.1.2-.15.17-.12.34-.24.51-.35.07-.05.14-.09.21-.14.23-.14.46-.27.7-.4,0,0,.02-.01.03-.02.25-.13.51-.24.77-.34.08-.03.15-.06.23-.09.19-.07.39-.14.59-.2.08-.02.16-.05.24-.07.25-.07.5-.13.76-.18.02,0,.04,0,.06-.01.28-.05.55-.09.83-.12.08,0,.16-.01.25-.02.21-.02.42-.03.62-.03.05,0,.1,0,.16,0,.03,0,.07,0,.1,0,.27,0,.53.01.8.04.02,0,.04,0,.06,0,.29.03.57.07.86.13.08.02.16.03.25.05.21.05.43.1.64.16.08.02.17.05.25.07.29.09.57.19.85.3.47.19.91.42,1.33.67,1.26.76,2.31,1.76,3.1,2.92.79,1.16,1.34,2.48,1.59,3.87.08.46.14.93.16,1.4l.83.34.06.02c.65.11,1.31.22,1.97.3.21.03.42.05.64.07.45.05.89.11,1.34.15.26.02.52.03.78.05.41.03.81.06,1.22.08.28.01.55.01.83.02.39.01.78.03,1.17.03.01,0,.03,0,.04,0,.36,0,.72-.01,1.08-.02.29,0,.58,0,.87-.02.4-.02.8-.05,1.2-.08.26-.02.53-.03.79-.05.45-.04.89-.09,1.34-.14.22-.03.44-.04.66-.07.67-.09,1.33-.19,2-.31l.08-.03.83-.34h0c.02-.47.07-.94.16-1.4.17-.92.47-1.82.88-2.66,1.04-2.1,2.81-3.84,5.14-4.8.28-.12.57-.22.85-.3.08-.03.17-.05.25-.07.21-.06.43-.11.64-.16.08-.02.16-.04.25-.05.29-.05.57-.1.86-.13.02,0,.04,0,.06,0,.27-.02.54-.04.8-.04.03,0,.07,0,.1,0,.05,0,.1,0,.15,0,.21,0,.42.01.63.03.08,0,.16.01.25.02.28.03.56.07.83.12.02,0,.04,0,.06.01.26.05.51.11.76.18.08.02.16.05.24.07.2.06.39.13.59.2.08.03.15.06.23.09.26.1.52.22.77.34.01,0,.02.01.03.02.24.12.47.25.7.4.07.04.14.09.21.14.17.11.35.23.51.35.07.05.13.1.2.15.22.17.44.35.65.54h0s0,0,0,0h0s.83-.34.83-.34h.02s.05-.03.05-.03c2.22-1.56,4.28-3.3,6.16-5.18,1.88-1.89,3.58-3.92,5.09-6.08v-.03s.02-.03.02-.03l.34-.83h0s0,0,0,0c-2.57-2.79-3.44-6.91-1.9-10.64,1.16-2.8,3.44-4.79,6.1-5.67.89-.3,1.82-.47,2.76-.51h0l-2.71-.53c-3.15.93-5.79,3.22-7.08,6.33-1.29,3.1-1.03,6.59.53,9.48l-3.81-2.56c-.81-.88-1.42-1.91-1.79-3.03-.63-1.86-.61-3.95.2-5.91.32-.78.75-1.49,1.26-2.12.51-.62,1.1-1.16,1.75-1.61.33-.22.67-.42,1.02-.6,1.06-.52,2.22-.83,3.41-.87l-1.01-.2,8.22,1.61h0s.34-.83.34-.83l.02-.06c.34-1.95.56-3.92.65-5.91.03-.75.04-1.49.04-2.24ZM107.63,62.99l6.23-1.22c1.09,5.04,1.09,10.33,0,15.37l-6.22-1.22c1.01-4.25,1.01-8.68,0-12.93ZM104.82,54.81c1.29,3.1,3.93,5.39,7.08,6.33l-4.5.88c-.4-.02-.79-.06-1.18-.13-.78-.14-1.53-.39-2.23-.74-1.76-.87-3.23-2.36-4.04-4.32-1.3-3.13-.56-6.6,1.6-8.94l3.81-2.56c-1.57,2.89-1.82,6.38-.53,9.48ZM91.88,37.89l3.54-5.27c4.33,2.79,8.08,6.54,10.86,10.87l-5.26,3.54c-2.29-3.72-5.42-6.85-9.14-9.14ZM70.51,23.27c.29,0,.58,0,.87.02-.29-.02-.58-.02-.87-.02ZM72.61,23.39c.27.02.54.04.81.07-.27-.03-.54-.04-.81-.07ZM74.77,23.63c.23.03.46.06.69.09-.23-.04-.46-.06-.69-.09ZM69.35,23.24c-.4,0-.79.02-1.19.03.4-.01.79-.03,1.19-.03ZM65.17,23.48c-.46.05-.91.13-1.36.19.45-.07.91-.14,1.36-.19ZM67.26,23.3c-.41.02-.82.07-1.24.11.41-.04.82-.08,1.24-.11ZM69.44,24.24c2.58,0,5.17.28,7.7.83l-1.22,6.22c-2.12-.5-4.29-.76-6.46-.76s-4.35.25-6.46.76l-1.22-6.23c2.52-.54,5.09-.82,7.67-.82ZM69.46,31.53c.34,0,.68.02,1.02.03-.35-.01-.69-.03-1.04-.03,0,0,.02,0,.02,0ZM68.35,31.57c-.25.01-.49,0-.74.03.24-.02.49-.02.74-.03ZM66.46,31.71c-.22.02-.44.04-.66.07.22-.03.44-.04.66-.07ZM37.89,47.04l-5.27-3.54c2.79-4.33,6.54-8.08,10.87-10.86l3.54,5.26c-3.72,2.29-6.85,5.42-9.14,9.14ZM31.29,75.92l-6.23,1.22c-1.09-5.04-1.09-10.34,0-15.37l6.22,1.22c-1.01,4.25-1.01,8.68,0,12.93ZM43.5,106.28c-4.33-2.79-8.08-6.54-10.86-10.87l5.26-3.54c2.29,3.72,5.42,6.85,9.14,9.14l-3.54,5.27ZM38.43,103.69c-1.55-1.37-2.98-2.87-4.28-4.48-.87-1.07-1.68-2.2-2.42-3.36l-.23-.36.23.36c.75,1.17,1.55,2.29,2.42,3.36,1.3,1.61,2.73,3.11,4.28,4.48,1.03.91,2.11,1.77,3.24,2.57-1.13-.8-2.21-1.65-3.24-2.57ZM62.99,107.63c2.12.5,4.29.76,6.46.76s4.35-.25,6.46-.76l1.22,6.23c-2.52.54-5.09.82-7.67.82s-5.17-.28-7.7-.83l1.22-6.22ZM69.46,107.38c-.34,0-.69-.02-1.03-.03.35.01.7.03,1.06.03,0,0-.02,0-.03,0ZM70.53,107.35c.26-.01.52,0,.77-.03-.26.02-.52.02-.77.03ZM72.44,107.2c.22-.02.45-.04.67-.07-.22.03-.45.04-.67.07ZM68.4,115.64c-.29,0-.58,0-.87-.02.29.02.58.02.87.02ZM66.3,115.52c-.27-.02-.54-.04-.81-.07.27.03.54.04.81.07ZM64.14,115.28c-.23-.03-.46-.06-.68-.09.23.04.46.06.68.09ZM69.56,115.67c.4,0,.79-.02,1.19-.03-.4.01-.79.03-1.19.03ZM75.81,115.13c.68-.12,1.36-.25,2.04-.41-.68.16-1.36.29-2.04.41ZM71.65,115.61c.41-.02.82-.07,1.23-.11-.41.04-.82.08-1.23.11ZM73.74,115.43c.45-.05.9-.12,1.36-.19-.45.07-.9.14-1.36.19ZM84.1,104.82c-3.1,1.29-5.39,3.93-6.33,7.08l-.27-1.4-.81-4.11h0l.2,1.01c.13-3.18,2.06-6.15,5.19-7.45,1.05-.44,2.14-.64,3.21-.64,2.12,0,4.17.81,5.73,2.24l2.53,3.77c-1.6-.87-3.4-1.33-5.25-1.33-1.45,0-2.86.28-4.21.84ZM106.28,95.42c-2.79,4.33-6.54,8.08-10.87,10.86l-3.54-5.26c3.72-2.29,6.85-5.42,9.14-9.14l5.27,3.54ZM102.28,101.99s.06-.06.09-.1c-.03.03-.06.06-.09.1ZM99.03,81.7c-1.3,3.13-.78,6.73,1.28,9.39-.19.31-.37.62-.56.92-.2.3-.41.59-.62.88-1.81,2.3-3.87,4.37-6.16,6.18-.6.44-1.23.85-1.87,1.23-1.66-1.29-3.68-1.99-5.79-1.99-1.24,0-2.45.24-3.6.72-3.13,1.3-5.31,4.21-5.73,7.54-.35.09-.7.18-1.06.26-.17.04-.34.06-.51.09-.33.06-.66.12-.99.17-1.31.14-2.63.22-3.94.22s-2.67-.08-4-.22c.13.02.27.05.4.07-.43-.06-.85-.14-1.28-.21-.17-.03-.34-.05-.51-.09-.58-.12-1.15-.25-1.72-.41.19.05.39.09.58.14-.42-3.34-2.6-6.24-5.73-7.54-1.15-.48-2.36-.72-3.6-.72-2.11,0-4.14.71-5.79,1.99.21.13.42.27.64.39l-.57.85h0c1.56-1.43,3.61-2.24,5.73-2.24,1.07,0,2.16.21,3.21.64,3.13,1.3,5.06,4.27,5.19,7.45h0l.2-1.01h0l-.89,4.56-.19.95c-.93-3.15-3.22-5.8-6.33-7.08-1.35-.56-2.76-.84-4.21-.84-1.85,0-3.65.47-5.25,1.33l1.95-2.9,1.15-1.72c-1.06-.6-2.08-1.27-3.05-2,.2.15.41.29.61.43-2.3-1.81-4.37-3.87-6.18-6.16-.44-.6-.85-1.23-1.23-1.87,2.06-2.66,2.57-6.26,1.28-9.39-1.3-3.13-4.21-5.31-7.54-5.73-.21-.85-.39-1.7-.51-2.56-.28-2.64-.28-5.29,0-7.93.13-.86.3-1.7.51-2.55,3.34-.42,6.24-2.6,7.54-5.73,1.3-3.13.78-6.73-1.28-9.39-.13.21-.27.42-.39.64h0c.6-1.06,1.27-2.08,2-3.05.73-.97,1.53-1.88,2.38-2.74-.85.86-1.65,1.77-2.38,2.74-.15.2-.29.41-.43.61,1.81-2.3,3.87-4.37,6.16-6.18.6-.44,1.23-.85,1.87-1.23,1.66,1.29,3.68,1.99,5.79,1.99,1.24,0,2.45-.24,3.6-.72,3.13-1.3,5.31-4.2,5.73-7.54.35-.09.7-.18,1.06-.26.17-.04.35-.06.53-.09.32-.06.65-.12.97-.17,1.31-.14,2.63-.22,3.94-.22,1.33,0,2.67.08,4,.22-.13-.02-.27-.05-.4-.07.43.06.86.14,1.29.22.17.03.33.05.5.08.59.12,1.19.26,1.77.42l.1.03h0l-.1-.03c-.21-.06-.42-.1-.63-.15.42,3.34,2.6,6.24,5.73,7.54,1.15.48,2.36.72,3.6.72,2.11,0,4.14-.71,5.79-1.99.61.37,1.21.76,1.79,1.18,2.3,1.81,4.37,3.87,6.19,6.17-.15-.21-.29-.42-.44-.62-.74-.96-1.54-1.87-2.39-2.73.86.85,1.66,1.77,2.39,2.73s1.41,1.98,2.01,3.04l.05.09-.05-.09c-.11-.19-.23-.37-.34-.55-2.06,2.66-2.57,6.26-1.28,9.39,1.3,3.13,4.2,5.31,7.54,5.73.21.85.39,1.7.51,2.56.28,2.64.28,5.29,0,7.93-.13.86-.3,1.7-.51,2.55-3.34.42-6.24,2.6-7.54,5.73ZM67.67,107.32c-.38-.02-.75-.07-1.13-.11.38.04.75.09,1.13.11ZM71.24,31.59c.38.02.76.07,1.13.11-.38-.04-.75-.09-1.13-.11Z"/>
        <path class="cls-2" d="M107.08,73.42c.28-2.64.28-5.29,0-7.93-.13-.86-.3-1.71-.51-2.56-3.34-.42-6.24-2.6-7.54-5.73-1.3-3.13-.78-6.73,1.28-9.39-.39-.64-.8-1.26-1.23-1.87-1.82-2.29-3.88-4.35-6.19-6.17-.58-.42-1.18-.81-1.79-1.18-1.66,1.29-3.68,1.99-5.79,1.99-1.24,0-2.45-.24-3.6-.72-3.13-1.3-5.31-4.21-5.73-7.54-.38-.09-.76-.19-1.14-.27-.17-.03-.33-.05-.5-.08-.3-.05-.59-.11-.89-.15-1.33-.14-2.67-.22-4-.22-1.31,0-2.63.08-3.94.22-.32.05-.65.11-.97.17-.18.03-.35.05-.53.09-.35.07-.7.17-1.06.26-.42,3.34-2.6,6.24-5.73,7.54-1.15.48-2.36.72-3.6.72-2.11,0-4.14-.71-5.79-1.99-.64.39-1.26.8-1.87,1.23-2.29,1.81-4.35,3.88-6.16,6.18-.42.58-.81,1.18-1.18,1.8,2.06,2.66,2.57,6.26,1.28,9.39-1.3,3.13-4.21,5.31-7.54,5.73-.21.84-.38,1.69-.51,2.55-.28,2.64-.28,5.29,0,7.93.13.86.3,1.71.51,2.56,3.34.42,6.24,2.6,7.54,5.73,1.3,3.13.78,6.73-1.28,9.39.39.64.8,1.26,1.23,1.87,1.81,2.29,3.88,4.35,6.18,6.16.58.42,1.18.81,1.79,1.18,1.66-1.29,3.68-1.99,5.79-1.99,1.24,0,2.45.24,3.6.72,3.13,1.3,5.31,4.21,5.73,7.54.38.09.76.19,1.14.27.17.03.34.06.51.09.29.05.58.1.87.15,1.33.14,2.67.22,4,.22s2.63-.08,3.94-.22c.33-.05.66-.11.99-.17.17-.03.34-.05.51-.09.35-.07.7-.17,1.06-.26.42-3.34,2.6-6.24,5.73-7.54,1.15-.48,2.36-.72,3.6-.72,2.11,0,4.14.71,5.79,1.99.64-.39,1.26-.8,1.87-1.23,2.29-1.81,4.35-3.88,6.16-6.18.21-.29.42-.58.62-.88.2-.3.38-.61.56-.92-2.06-2.66-2.57-6.26-1.28-9.39,1.3-3.13,4.21-5.31,7.54-5.73.21-.84.38-1.69.51-2.55ZM88.9,83.97c-4.43,5.92-11.49,9.75-19.44,9.75-7.54,0-14.27-3.44-18.72-8.83-3.46-4.19-5.54-9.57-5.54-15.44,0-9.21,5.13-17.23,12.7-21.34.69-.37,1.4-.71,2.12-1.02.36-.15.73-.3,1.1-.43,1.11-.41,2.27-.74,3.45-.98,1.58-.32,3.22-.49,4.89-.49h0c2.09,0,4.13.27,6.06.76.39.1.77.21,1.15.33,1.14.35,2.24.79,3.3,1.3.71.34,1.4.71,2.06,1.12,1,.61,1.95,1.29,2.85,2.03.9.74,1.74,1.55,2.53,2.41.52.57,1.02,1.17,1.48,1.8,3.03,4.05,4.82,9.07,4.82,14.52,0,5.44-1.79,10.47-4.82,14.52Z"/>
        <path class="cls-3" d="M61.11,46.66c1.11-.41,2.27-.74,3.45-.98-1.18.24-2.34.57-3.45.98Z"/>
        <path class="cls-3" d="M57.89,48.12c.69-.37,1.4-.71,2.12-1.02-.73.31-1.43.65-2.12,1.02Z"/>
        <path class="cls-3" d="M69.46,45.19c-1.68,0-3.31.17-4.89.49,1.58-.32,3.22-.49,4.89-.49h0Z"/>
        <path class="cls-3" d="M46.19,69.46c0,12.83,10.44,23.27,23.27,23.27,12.83,0,23.27-10.44,23.27-23.27s-10.44-23.27-23.27-23.27c-12.83,0-23.27,10.44-23.27,23.27ZM90.81,69.46c0,4.42-1.34,8.53-3.65,11.94-1.54,2.27-3.5,4.23-5.77,5.77-.57.38-1.16.74-1.76,1.07-1.21.66-2.49,1.2-3.83,1.62-.67.21-1.35.38-2.05.53-1.39.28-2.83.43-4.3.43h0c-1.47,0-2.91-.15-4.3-.43-2.09-.43-4.06-1.16-5.88-2.14-6.66-3.62-11.18-10.67-11.18-18.78,0-8.11,4.52-15.16,11.18-18.78,1.82-.99,3.79-1.72,5.88-2.14,1.39-.28,2.83-.43,4.3-.43h0c1.47,0,2.91.15,4.3.43.7.14,1.38.32,2.05.53,1.34.42,2.62.96,3.83,1.62.61.33,1.19.69,1.76,1.07,2.27,1.54,4.23,3.5,5.77,5.77,2.3,3.41,3.65,7.52,3.65,11.94Z"/>
        <path class="cls-1" d="M87.42,53.14c-.78-.86-1.63-1.67-2.53-2.41-.9-.74-1.85-1.42-2.85-2.03-.67-.41-1.36-.78-2.06-1.12-1.06-.51-2.16-.95-3.3-1.3-.38-.12-.76-.23-1.15-.33-1.94-.5-3.97-.76-6.06-.76h0c-1.68,0-3.31.17-4.89.49-1.18.24-2.34.57-3.45.98-.37.14-.74.28-1.1.43-.73.31-1.43.65-2.12,1.02-7.56,4.11-12.7,12.12-12.7,21.34,0,5.86,2.08,11.24,5.54,15.44,4.45,5.39,11.19,8.83,18.72,8.83,7.96,0,15.02-3.83,19.44-9.75,3.03-4.05,4.82-9.07,4.82-14.52s-1.79-10.47-4.82-14.52c-.47-.62-.96-1.22-1.48-1.8ZM92.72,69.46c0,12.83-10.44,23.27-23.27,23.27-12.83,0-23.27-10.44-23.27-23.27,0-12.83,10.44-23.27,23.27-23.27,12.83,0,23.27,10.44,23.27,23.27Z"/>
        <path class="cls-2" d="M69.46,48.1c-1.47,0-2.91.15-4.3.43,1.39-.28,2.83-.43,4.3-.43h0Z"/>
        <path class="cls-2" d="M69.46,90.81h0c-1.47,0-2.91-.15-4.3-.43,1.39.28,2.83.43,4.3.43Z"/>
        <path class="cls-2" d="M69.46,49.1c-11.23,0-20.36,9.13-20.36,20.36,0,11.23,9.13,20.36,20.36,20.36s20.36-9.13,20.36-20.36c0-11.23-9.13-20.36-20.36-20.36Z"/>
        <path class="cls-1" d="M81.4,51.74c-.57-.38-1.16-.74-1.76-1.07-1.21-.66-2.49-1.2-3.83-1.62-.67-.21-1.35-.38-2.05-.53-1.39-.28-2.83-.43-4.3-.43h0c-1.47,0-2.91.15-4.3.43-2.09.43-4.06,1.16-5.88,2.14-6.66,3.62-11.18,10.67-11.18,18.78,0,8.11,4.52,15.16,11.18,18.78,1.82.99,3.79,1.72,5.88,2.14,1.39.28,2.83.43,4.3.43h0c1.47,0,2.91-.15,4.3-.43.7-.14,1.38-.32,2.05-.53,1.34-.42,2.62-.96,3.83-1.62.61-.33,1.19-.69,1.76-1.07,2.27-1.54,4.23-3.5,5.77-5.77,2.3-3.41,3.65-7.52,3.65-11.94,0-4.42-1.34-8.53-3.65-11.94-1.54-2.27-3.5-4.23-5.77-5.77ZM89.81,69.46c0,11.23-9.13,20.36-20.36,20.36s-20.36-9.13-20.36-20.36c0-11.23,9.13-20.36,20.36-20.36,11.23,0,20.36,9.13,20.36,20.36Z"/>
        <path class="cls-3" d="M69.35,23.24c-.4,0-.79.02-1.19.03.4-.01.79-.03,1.19-.03Z"/>
        <path class="cls-3" d="M63.81,23.68c.45-.07.91-.14,1.36-.19-.46.05-.91.13-1.36.19Z"/>
        <path class="cls-3" d="M71.38,23.29c-.29-.02-.58-.02-.87-.02.29,0,.58,0,.87.02Z"/>
        <path class="cls-3" d="M75.45,23.73c-.23-.04-.46-.06-.69-.09.23.03.46.06.69.09Z"/>
        <path class="cls-3" d="M73.42,23.45c-.27-.03-.54-.04-.81-.07.27.02.54.04.81.07Z"/>
        <path class="cls-3" d="M66.02,23.41c.41-.04.82-.08,1.24-.11-.41.02-.82.07-1.24.11Z"/>
        <path class="cls-3" d="M61.13,27.01l.88,4.5.2,1.01-1.61-8.22.44-.1c.68-.16,1.37-.3,2.06-.41-.69.12-1.37.26-2.06.41l-.44.1h0s0,0,0,0l.53,2.71Z"/>
        <path class="cls-3" d="M73.04,31.77c.13.02.27.05.4.07.3.04.59.1.89.15-.43-.08-.86-.16-1.29-.22Z"/>
        <path class="cls-3" d="M64,32.09c.17-.04.35-.06.53-.09-.18.03-.35.05-.53.09Z"/>
        <path class="cls-3" d="M62.99,31.29c2.12-.5,4.29-.76,6.46-.76s4.35.25,6.46.76l1.22-6.22c-2.53-.55-5.11-.83-7.7-.83s-5.15.28-7.67.82l1.22,6.23Z"/>
        <path class="cls-3" d="M65.8,31.78c.22-.03.44-.04.66-.07-.22.02-.44.04-.66.07Z"/>
        <path class="cls-3" d="M67.61,31.59c.24-.02.49-.02.74-.03-.25.01-.49,0-.74.03Z"/>
        <path class="cls-3" d="M72.37,31.7c-.38-.04-.75-.09-1.13-.11.38.03.76.07,1.13.11Z"/>
        <path class="cls-3" d="M69.46,31.53s-.02,0-.02,0c.35,0,.69.02,1.04.03-.34-.01-.68-.03-1.02-.03Z"/>
        <path class="cls-3" d="M76.6,32.49l.1.03h0l-.1-.03c-.59-.16-1.18-.3-1.77-.42.38.08.76.18,1.14.27.21.05.42.09.63.15Z"/>
        <path class="cls-3" d="M43.06,31.73c-1.75,1.12-3.4,2.38-4.93,3.76,1.53-1.39,3.18-2.65,4.94-3.76l.73-.46-.73.46Z"/>
        <path class="cls-3" d="M43.5,32.63c-4.33,2.79-8.08,6.53-10.87,10.86l5.27,3.54c2.29-3.72,5.42-6.85,9.14-9.14l-3.54-5.26Z"/>
        <path class="cls-3" d="M40.22,45.41c.73-.97,1.53-1.88,2.38-2.74-.85.86-1.65,1.77-2.38,2.74Z"/>
        <path class="cls-3" d="M40.22,45.41c-.73.97-1.4,1.98-2,3.05h0c.12-.22.26-.42.39-.64.37-.62.77-1.22,1.18-1.8.14-.2.28-.41.43-.61Z"/>
        <polygon class="cls-3" points="32.52 62.21 32.49 62.31 32.52 62.21 31.51 62.02 27.01 61.13 24.3 60.6 24.3 60.6 32.52 62.21"/>
        <polygon class="cls-3" points="27.01 77.78 31.51 76.89 32.52 76.7 24.3 78.31 24.3 78.31 24.3 78.31 27.01 77.78"/>
        <path class="cls-3" d="M25.06,61.77c-1.09,5.03-1.09,10.33,0,15.37l6.23-1.22c-1.01-4.25-1.01-8.68,0-12.93l-6.22-1.22Z"/>
        <polygon class="cls-3" points="43.4 107.41 43.78 107.65 43.78 107.65 43.78 107.65 43.4 107.41"/>
        <path class="cls-3" d="M31.5,95.49l.23.36c.75,1.17,1.55,2.29,2.42,3.36-.87-1.07-1.68-2.2-2.42-3.36l-.23-.36Z"/>
        <path class="cls-3" d="M41.67,106.26c-1.13-.8-2.21-1.65-3.24-2.57,1.03.91,2.11,1.77,3.24,2.57Z"/>
        <path class="cls-3" d="M34.15,99.22c1.3,1.61,2.73,3.11,4.28,4.48-1.55-1.37-2.98-2.87-4.28-4.48Z"/>
        <path class="cls-3" d="M37.89,91.88l-5.26,3.54c2.79,4.33,6.53,8.08,10.86,10.87l3.54-5.27c-3.72-2.29-6.85-5.42-9.14-9.14Z"/>
        <path class="cls-3" d="M45.41,98.69c.97.73,1.98,1.4,3.05,2l-1.15,1.72.58-.86.57-.85c-.22-.12-.43-.26-.64-.39-.61-.37-1.21-.76-1.79-1.18-.2-.15-.41-.28-.61-.43Z"/>
        <path class="cls-3" d="M69.47,114.67c2.58,0,5.15-.28,7.67-.82l-1.22-6.23c-2.12.5-4.29.76-6.46.76s-4.35-.25-6.46-.76l-1.22,6.22c2.53.55,5.11.83,7.7.83Z"/>
        <polygon class="cls-3" points="62.21 106.39 62.21 106.39 62.02 107.4 61.32 110.95 62.21 106.39"/>
        <path class="cls-3" d="M75.09,115.23c-.45.07-.9.14-1.36.19.45-.05.9-.12,1.36-.19Z"/>
        <path class="cls-3" d="M65.49,115.46c.27.03.54.04.81.07-.27-.02-.54-.04-.81-.07Z"/>
        <path class="cls-3" d="M63.46,115.18c.23.04.46.06.68.09-.23-.03-.46-.06-.68-.09Z"/>
        <path class="cls-3" d="M67.53,115.62c.29.02.58.02.87.02-.29,0-.58,0-.87-.02Z"/>
        <path class="cls-3" d="M72.89,115.5c-.41.04-.82.08-1.23.11.41-.02.82-.07,1.23-.11Z"/>
        <path class="cls-3" d="M75.81,115.13c.68-.12,1.36-.25,2.04-.41-.68.16-1.36.29-2.04.41Z"/>
        <path class="cls-3" d="M69.56,115.67c.4,0,.79-.02,1.19-.03-.4.01-.79.03-1.19.03Z"/>
        <path class="cls-3" d="M65.87,107.14c-.13-.02-.27-.05-.4-.07-.29-.04-.58-.09-.87-.15.42.08.85.16,1.28.21Z"/>
        <path class="cls-3" d="M74.91,106.82c-.17.04-.34.06-.51.09.17-.03.34-.05.51-.09Z"/>
        <path class="cls-3" d="M69.46,107.38s.02,0,.03,0c-.35,0-.7-.02-1.06-.03.34.01.69.03,1.03.03Z"/>
        <path class="cls-3" d="M73.11,107.13c-.22.03-.45.04-.67.07.22-.02.45-.04.67-.07Z"/>
        <path class="cls-3" d="M62.36,106.43c.57.16,1.14.29,1.72.41-.38-.08-.76-.18-1.14-.27-.19-.05-.39-.09-.58-.14Z"/>
        <path class="cls-3" d="M66.54,107.21c.38.04.75.09,1.13.11-.38-.02-.75-.07-1.13-.11Z"/>
        <polygon class="cls-3" points="76.7 106.39 76.7 106.39 77.5 110.5 76.89 107.4 76.7 106.39"/>
        <path class="cls-3" d="M71.3,107.32c-.26.02-.52.02-.77.03.26-.01.52,0,.77-.03Z"/>
        <path class="cls-3" d="M102.28,101.99s.06-.06.09-.1c-.03.03-.06.06-.09.1Z"/>
        <path class="cls-3" d="M91.88,101.02l3.54,5.26c4.33-2.79,8.08-6.53,10.87-10.86l-5.27-3.54c-2.29,3.72-5.42,6.85-9.14,9.14Z"/>
        <polygon class="cls-3" points="106.39 76.7 107.4 76.89 111.9 77.78 114.61 78.31 114.61 78.31 114.61 78.31 106.39 76.7"/>
        <path class="cls-3" d="M113.85,77.14c1.09-5.03,1.09-10.33,0-15.37l-6.23,1.22c1.01,4.25,1.01,8.68,0,12.93l6.22,1.22Z"/>
        <polygon class="cls-3" points="93.56 33.59 91.03 37.36 90.45 38.22 95.13 31.26 95.13 31.26 95.13 31.26 93.56 33.59"/>
        <path class="cls-3" d="M106.28,43.5c-2.79-4.33-6.53-8.08-10.86-10.87l-3.54,5.27c3.72,2.29,6.85,5.42,9.14,9.14l5.26-3.54Z"/>
        <path class="cls-3" d="M100.64,48.37l.05.09-.05-.09c-.6-1.06-1.28-2.08-2.01-3.04.15.2.29.41.44.62.44.6.85,1.23,1.23,1.87.11.18.23.36.34.55Z"/>
        <path class="cls-3" d="M98.63,45.33c-.74-.96-1.54-1.87-2.39-2.73.86.85,1.66,1.77,2.39,2.73Z"/>
      </g>
    </g>
  </g>
</svg>