<?xml version="1.0" encoding="UTF-8"?>
<svg id="Layer_2" data-name="Layer 2" xmlns="http://www.w3.org/2000/svg" viewBox="0 0 521.58 521.58">
  <defs>
    <style>
      .cls-1 {
        fill: #fcee21;
        stroke: #000;
        stroke-miterlimit: 10;
      }

      .cls-2 {
        fill: #000;
      }

      .cls-2, .cls-3, .cls-4, .cls-5, .cls-6 {
        stroke-width: 0px;
      }

      .cls-3 {
        fill: #e0e6e2;
      }

      .cls-4 {
        fill: none;
        stroke: red;
        stroke-linecap: round;
        stroke-linejoin: round;
      }

      .cls-5 {
        fill: #77272d;
      }

      .cls-6 {
        fill: #006837;
      }
    </style>
  </defs>
  <g id="Layer_1-2" data-name="Layer 1">
    <g>
      <path class="cls-5" d="M260.79,521.58C116.76,521.58,0,404.82,0,260.79S116.76,0,260.79,0s260.79,116.76,260.79,260.79-116.76,260.79-260.79,260.79Z"/>
      <path class="cls-6" d="M260.79,0C116.76,0,0,116.76,0,260.79s116.76,260.79,260.79,260.79,260.79-116.76,260.79-260.79S404.82,0,260.79,0ZM260.79,512.97c-139.27,0-252.18-112.9-252.18-252.18S121.52,8.61,260.79,8.61s252.18,112.9,252.18,252.18-112.9,252.18-252.18,252.18Z"/>
      <path class="cls-1" d="M260.79,8.61C121.52,8.61,8.61,121.52,8.61,260.79s112.9,252.18,252.18,252.18,252.18-112.9,252.18-252.18S400.06,8.61,260.79,8.61ZM183.19,260.79c0-42.86,34.74-77.6,77.6-77.6s77.6,34.74,77.6,77.6-34.74,77.6-77.6,77.6-77.6-34.74-77.6-77.6Z"/>
      <path class="cls-3" d="M338.39,260.79c0-42.86-34.74-77.6-77.6-77.6s-77.6,34.74-77.6,77.6,34.74,77.6,77.6,77.6,77.6-34.74,77.6-77.6Z"/>
      <path class="cls-6" d="M334.95,260.79c0-40.96-33.2-74.16-74.16-74.16s-74.16,33.2-74.16,74.16,33.2,74.16,74.16,74.16,74.16-33.2,74.16-74.16Z"/>
      <path class="cls-2" d="M293.62,293.32s.06-.06.09-.1c-.03.03-.06.06-.09.1Z"/>
      <path class="cls-4" d="M293.62,293.32s.06-.06.09-.1"/>
    </g>
  </g>
</svg>