<?xml version="1.0" encoding="UTF-8"?>
<svg id="Layer_2" data-name="Layer 2" xmlns="http://www.w3.org/2000/svg" viewBox="0 0 521.58 521.58">
  <defs>
    <style>
      .cls-1 {
        fill: #000;
      }

      .cls-1, .cls-2, .cls-3, .cls-4, .cls-5 {
        stroke-width: 0px;
      }

      .cls-2 {
        fill: #e0e6e2;
      }

      .cls-3 {
        fill: none;
        stroke: red;
        stroke-linecap: round;
        stroke-linejoin: round;
      }

      .cls-4 {
        fill: #fcee21;
      }

      .cls-5 {
        fill: #006837;
      }
    </style>
  </defs>
  <g id="Layer_1-2" data-name="Layer 1">
    <g>
      <path class="cls-5" d="M260.79,0C116.76,0,0,116.76,0,260.79s116.76,260.79,260.79,260.79,260.79-116.76,260.79-260.79S404.82,0,260.79,0ZM260.79,512.97c-139.27,0-252.18-112.9-252.18-252.18S121.52,8.61,260.79,8.61s252.18,112.9,252.18,252.18-112.9,252.18-252.18,252.18Z"/>
      <g>
        <path class="cls-4" d="M260.79,512.47c-67.23,0-130.43-26.18-177.96-73.71-47.54-47.54-73.71-110.74-73.71-177.96s26.18-130.43,73.71-177.96S193.56,9.11,260.79,9.11s130.43,26.18,177.96,73.71c47.54,47.54,73.71,110.74,73.71,177.96s-26.18,130.43-73.71,177.96c-47.54,47.54-110.74,73.71-177.96,73.71ZM363.35,400.24c-3.45,0-6.88.47-10.19,1.39-3.09.86-6.09,2.12-8.9,3.74-2.11,1.22-4.11,2.64-5.94,4.22-.6.52-1.19,1.06-1.75,1.61-3.96,3.89-7.09,8.71-9.04,13.93-.43,1.14-.8,2.32-1.12,3.5-.32,1.19-.58,2.39-.78,3.59-.41,2.43-.58,4.9-.52,7.35.1,3.77.75,7.49,1.94,11.05.4,1.21.87,2.42,1.4,3.59.53,1.18,1.13,2.36,1.79,3.49,6.83,11.82,19.55,19.16,33.22,19.16,6.69,0,13.3-1.78,19.12-5.14,4.48-2.59,8.32-5.97,11.41-10.06,1.12-1.48,2.13-3.05,3.02-4.67.59-1.07,1.13-2.19,1.61-3.32,1.45-3.39,2.41-6.96,2.85-10.62.52-4.34.29-8.69-.67-12.93-.28-1.23-.62-2.46-1.02-3.65-.81-2.44-1.89-4.83-3.19-7.08-.65-1.13-1.37-2.24-2.13-3.29-.75-1.04-1.56-2.05-2.41-3-.84-.94-1.73-1.85-2.65-2.71-1.82-1.68-3.83-3.2-5.95-4.5-1.76-1.08-3.67-2.04-5.67-2.84-2.03-.82-4.1-1.46-6.16-1.92l-.33-.07c-.74-.16-1.51-.29-2.37-.42-1.85-.27-3.73-.41-5.6-.41ZM260.79,345.63c-21.13,0-38.32,17.19-38.32,38.32,0,5.17,1.01,10.19,3.01,14.92.72,1.71,1.57,3.37,2.54,4.96.64,1.04,1.33,2.07,2.06,3.06,2.21,2.95,4.83,5.57,7.78,7.78,3.5,2.62,7.38,4.6,11.53,5.89,1.21.38,2.45.69,3.67.94,2.52.52,5.12.78,7.72.78,1.31,0,2.63-.07,3.92-.2,1.27-.13,2.55-.32,3.8-.58,1.23-.25,2.46-.57,3.67-.94,2.37-.74,4.69-1.71,6.87-2.9,1.82-.99,3.6-2.16,5.3-3.49,1.72-1.34,3.31-2.82,4.74-4.38l.22-.25c.5-.55,1-1.16,1.54-1.84,3.34-4.23,5.71-8.99,7.04-14.16.2-.77.37-1.55.52-2.32.46-2.37.69-4.81.69-7.25s-.23-4.88-.69-7.25c-.15-.77-.32-1.56-.52-2.32-1.38-5.38-3.99-10.49-7.54-14.8-.78-.94-1.61-1.86-2.47-2.72-.86-.86-1.78-1.7-2.72-2.47-1.9-1.57-3.95-2.95-6.11-4.12-3.31-1.8-6.86-3.09-10.54-3.85-1.25-.25-2.53-.45-3.8-.58-1.29-.13-2.6-.2-3.92-.2ZM145.69,337.58c-21.13,0-38.32,17.19-38.32,38.32,0,5.17,1.01,10.19,3.01,14.91.72,1.7,1.57,3.37,2.54,4.96.63,1.04,1.33,2.07,2.06,3.06,2.21,2.95,4.83,5.57,7.78,7.78,3.5,2.62,7.38,4.6,11.53,5.89,1.2.37,2.44.69,3.67.94,2.52.52,5.12.78,7.72.78,1.3,0,2.62-.07,3.92-.2,1.28-.13,2.56-.33,3.8-.58,1.24-.25,2.47-.57,3.67-.94,2.37-.74,4.68-1.72,6.87-2.9,1.82-.99,3.6-2.16,5.3-3.49,1.72-1.34,3.32-2.82,4.74-4.38l.22-.25c.5-.56,1-1.16,1.54-1.84,3.34-4.23,5.71-9,7.04-14.16.2-.77.37-1.55.52-2.32.46-2.37.69-4.81.69-7.25s-.23-4.88-.69-7.25c-.15-.78-.32-1.56-.52-2.32-1.4-5.45-3.94-10.43-7.54-14.8-.78-.94-1.61-1.86-2.47-2.72s-1.78-1.69-2.72-2.47c-1.9-1.57-3.95-2.95-6.11-4.12-3.31-1.8-6.86-3.09-10.54-3.85-1.25-.26-2.53-.45-3.8-.58-1.3-.13-2.61-.2-3.92-.2ZM417.95,264.6c-3.45,0-6.88.47-10.19,1.39-.76.21-1.53.45-2.27.71-2.28.79-4.51,1.81-6.62,3.03-2.11,1.22-4.11,2.64-5.94,4.22-.6.52-1.18,1.06-1.75,1.61-3.96,3.89-7.09,8.7-9.04,13.93-.43,1.15-.81,2.33-1.12,3.5-.32,1.18-.58,2.39-.78,3.59-.41,2.43-.58,4.9-.52,7.35.1,3.77.75,7.49,1.94,11.05.41,1.21.88,2.42,1.4,3.58.53,1.18,1.13,2.36,1.79,3.49,6.83,11.82,19.55,19.17,33.22,19.17,6.69,0,13.3-1.78,19.12-5.14,4.48-2.58,8.32-5.97,11.41-10.06,1.11-1.47,2.13-3.05,3.02-4.67.59-1.08,1.13-2.19,1.61-3.32,1.45-3.39,2.41-6.97,2.85-10.63.52-4.34.29-8.69-.67-12.93-.28-1.23-.62-2.45-1.02-3.65-.81-2.44-1.89-4.83-3.19-7.08-.66-1.14-1.37-2.25-2.13-3.29-.75-1.04-1.56-2.05-2.4-3-.84-.94-1.73-1.86-2.65-2.71-1.83-1.69-3.83-3.2-5.95-4.5-1.76-1.08-3.67-2.04-5.67-2.84-2.02-.82-4.09-1.46-6.16-1.92l-.32-.07c-.73-.15-1.5-.29-2.37-.42-1.85-.27-3.73-.41-5.59-.41ZM260.79,182.69c-43.06,0-78.1,35.03-78.1,78.1s35.03,78.1,78.1,78.1,78.1-35.04,78.1-78.1-35.04-78.1-78.1-78.1ZM55.53,222.47c-21.13,0-38.32,17.19-38.32,38.32,0,5.17,1.01,10.19,3.01,14.92.72,1.7,1.57,3.37,2.54,4.95.64,1.05,1.33,2.08,2.06,3.06,2.21,2.95,4.82,5.57,7.78,7.78,3.5,2.62,7.38,4.6,11.53,5.89,1.2.37,2.44.69,3.67.94,2.52.52,5.12.78,7.72.78,1.3,0,2.62-.07,3.92-.2,1.27-.13,2.55-.32,3.8-.58,1.24-.25,2.47-.57,3.67-.94,2.37-.74,4.68-1.71,6.87-2.9,1.81-.98,3.6-2.16,5.3-3.49,1.72-1.35,3.32-2.82,4.74-4.38l.22-.25c.51-.57,1.01-1.17,1.54-1.84,3.34-4.23,5.71-9,7.04-14.16.2-.77.37-1.55.52-2.32.46-2.38.69-4.82.69-7.25s-.23-4.88-.69-7.25c-.15-.77-.32-1.55-.52-2.32-1.38-5.38-3.99-10.49-7.54-14.8-.78-.94-1.61-1.86-2.47-2.72s-1.78-1.7-2.72-2.47c-1.9-1.57-3.95-2.95-6.11-4.12-3.31-1.8-6.86-3.09-10.54-3.85-1.25-.26-2.53-.45-3.8-.58-1.29-.13-2.61-.2-3.92-.2ZM367.37,160.89c-3.45,0-6.88.47-10.19,1.39-.76.21-1.53.45-2.27.71-2.28.79-4.51,1.81-6.62,3.03-2.11,1.22-4.11,2.64-5.94,4.22-.6.52-1.19,1.06-1.75,1.61-3.96,3.89-7.09,8.7-9.04,13.93-.43,1.14-.8,2.32-1.12,3.5-.32,1.18-.58,2.39-.78,3.59-.41,2.43-.58,4.9-.52,7.35.1,3.77.75,7.48,1.94,11.05.4,1.21.88,2.42,1.4,3.59.53,1.19,1.13,2.36,1.79,3.49,6.83,11.82,19.55,19.16,33.22,19.16,6.69,0,13.3-1.78,19.12-5.14,4.48-2.59,8.32-5.97,11.41-10.07,1.12-1.48,2.13-3.05,3.02-4.67.59-1.07,1.13-2.19,1.61-3.32,1.45-3.39,2.41-6.96,2.85-10.63.52-4.34.29-8.69-.67-12.93-.28-1.23-.62-2.46-1.02-3.65-.81-2.44-1.89-4.82-3.19-7.08-.65-1.13-1.37-2.24-2.13-3.29-.75-1.04-1.56-2.05-2.41-3-.84-.94-1.73-1.85-2.65-2.71-1.82-1.69-3.83-3.2-5.95-4.5-1.76-1.08-3.67-2.04-5.67-2.84-2.02-.82-4.1-1.46-6.16-1.92l-.32-.07c-.73-.15-1.51-.29-2.37-.42-1.85-.27-3.73-.41-5.59-.41ZM154.17,160.89c-.29,0-.57,0-.86,0-1.22.03-2.46.11-3.68.26-3.66.44-7.24,1.39-10.63,2.85-4.01,1.72-7.67,4.09-10.87,7.04-.92.85-1.82,1.76-2.65,2.71-1.71,1.93-3.23,4.05-4.54,6.3-.65,1.13-1.25,2.31-1.79,3.49-.53,1.17-1,2.38-1.4,3.58-.4,1.2-.74,2.43-1.02,3.65-.55,2.42-.86,4.91-.92,7.4-.05,2.07.07,4.2.37,6.33.3,2.16.78,4.28,1.42,6.29l.1.32c.23.71.5,1.45.82,2.26,1.99,5.01,4.93,9.45,8.74,13.18.57.56,1.16,1.1,1.75,1.61,1.83,1.58,3.83,3,5.94,4.22,1.41.82,2.89,1.55,4.38,2.17,1.47.62,2.99,1.14,4.52,1.57,3.33.93,6.77,1.4,10.23,1.4,2.12,0,4.26-.18,6.36-.53,1.2-.2,2.41-.46,3.59-.78,1.18-.32,2.36-.69,3.5-1.12,2.31-.86,4.54-1.95,6.63-3.23,3.21-1.97,6.11-4.39,8.6-7.21.85-.95,1.66-1.97,2.41-3,.76-1.05,1.47-2.16,2.13-3.29,5.12-8.86,6.48-19.19,3.83-29.08s-8.99-18.15-17.85-23.27c-4.48-2.59-9.33-4.22-14.42-4.85-1.55-.19-3.13-.29-4.7-.29ZM218.69,65.23c-.29,0-.57,0-.86,0-1.22.03-2.46.11-3.68.26-3.66.44-7.24,1.39-10.63,2.85-4.01,1.72-7.67,4.09-10.87,7.04-.93.86-1.82,1.77-2.65,2.71-1.71,1.93-3.23,4.05-4.54,6.3-.65,1.13-1.25,2.31-1.79,3.49-.53,1.17-1,2.38-1.4,3.58-.4,1.19-.74,2.42-1.02,3.65-.55,2.42-.86,4.91-.92,7.4-.05,2.07.07,4.2.37,6.33.3,2.16.78,4.28,1.42,6.29l.1.31c.23.71.5,1.45.82,2.26,1.99,5.01,4.93,9.45,8.74,13.18.57.55,1.15,1.1,1.75,1.61,1.83,1.58,3.83,3,5.94,4.22,2.81,1.62,5.8,2.88,8.9,3.74,3.33.93,6.77,1.4,10.23,1.4,2.12,0,4.26-.18,6.36-.53,1.2-.2,2.41-.46,3.59-.78,1.18-.32,2.36-.69,3.5-1.12,2.31-.86,4.54-1.95,6.63-3.23,3.21-1.97,6.11-4.39,8.6-7.21.85-.95,1.66-1.96,2.41-3,.76-1.05,1.48-2.16,2.13-3.29,10.56-18.3,4.27-41.78-14.03-52.34-4.48-2.59-9.33-4.22-14.42-4.85-1.55-.19-3.13-.29-4.7-.29ZM363.46,44.7c-.29,0-.57,0-.86,0-1.22.03-2.46.11-3.68.26-3.66.44-7.24,1.39-10.63,2.85-4.01,1.72-7.67,4.09-10.87,7.04-.93.85-1.82,1.77-2.65,2.71-1.71,1.93-3.23,4.05-4.54,6.3-.65,1.13-1.25,2.31-1.79,3.49-.52,1.17-1,2.37-1.4,3.59s-.74,2.43-1.02,3.65c-.55,2.42-.86,4.91-.92,7.4-.05,2.07.07,4.2.37,6.33.3,2.16.78,4.28,1.42,6.29l.1.31c.23.72.5,1.46.82,2.26,1.99,5.01,4.93,9.45,8.74,13.18.56.55,1.15,1.1,1.75,1.61,1.83,1.58,3.83,3,5.94,4.22,2.11,1.22,4.34,2.24,6.62,3.03.75.26,1.51.5,2.27.71,3.33.93,6.77,1.4,10.23,1.4,2.12,0,4.26-.18,6.36-.53,1.21-.2,2.41-.47,3.59-.78,1.18-.32,2.36-.69,3.5-1.12,2.31-.86,4.54-1.95,6.63-3.23,3.21-1.97,6.11-4.39,8.6-7.21.85-.96,1.66-1.97,2.41-3,.76-1.05,1.48-2.16,2.13-3.29,5.12-8.86,6.48-19.19,3.83-29.08-2.65-9.89-8.99-18.15-17.85-23.27-4.48-2.59-9.33-4.22-14.42-4.85-1.55-.19-3.14-.29-4.7-.29Z"/>
        <path class="cls-1" d="M260.79,9.61c33.91,0,66.8,6.64,97.77,19.74,29.91,12.65,56.77,30.76,79.84,53.83s41.18,49.93,53.83,79.84c13.1,30.97,19.74,63.86,19.74,97.77s-6.64,66.8-19.74,97.77c-12.65,29.91-30.76,56.77-53.83,79.84-23.07,23.07-49.93,41.18-79.84,53.83-30.97,13.1-63.86,19.74-97.77,19.74s-66.8-6.64-97.77-19.74c-29.91-12.65-56.77-30.76-79.84-53.83-23.07-23.07-41.18-49.93-53.83-79.84-13.1-30.97-19.74-63.86-19.74-97.77s6.64-66.8,19.74-97.77c12.65-29.91,30.76-56.77,53.83-79.84,23.07-23.07,49.93-41.18,79.84-53.83,30.97-13.1,63.86-19.74,97.77-19.74M363.39,121.85c2.15,0,4.32-.18,6.44-.54,1.22-.2,2.44-.47,3.64-.79,1.19-.32,2.39-.7,3.55-1.13,2.33-.87,4.59-1.97,6.71-3.27,3.25-1.99,6.19-4.45,8.72-7.3.86-.97,1.68-1.99,2.44-3.04.77-1.07,1.5-2.19,2.16-3.34,5.18-8.98,6.56-19.44,3.88-29.46s-9.11-18.39-18.09-23.57c-4.54-2.62-9.45-4.27-14.61-4.91-1.57-.2-3.18-.29-4.76-.29-.29,0-.58,0-.87,0-1.24.03-2.49.12-3.73.26-3.71.44-7.33,1.41-10.76,2.88-4.07,1.74-7.77,4.14-11.01,7.13-.94.86-1.84,1.79-2.69,2.74-1.73,1.95-3.28,4.1-4.59,6.38-.66,1.15-1.27,2.34-1.81,3.54-.53,1.18-1.01,2.41-1.42,3.63-.4,1.21-.75,2.46-1.03,3.7-.55,2.45-.87,4.98-.93,7.5-.05,2.09.07,4.25.38,6.42.31,2.19.79,4.33,1.44,6.38l.06.19.04.13c.24.72.51,1.47.83,2.29,2.02,5.08,5,9.57,8.86,13.35.57.56,1.17,1.11,1.77,1.63,1.85,1.6,3.88,3.04,6.02,4.28,2.14,1.24,4.4,2.27,6.71,3.07.76.26,1.53.5,2.3.72,3.37.94,6.86,1.42,10.36,1.42M218.62,142.38c2.15,0,4.32-.18,6.44-.54,1.22-.2,2.44-.47,3.64-.79,1.19-.32,2.39-.7,3.55-1.13,2.33-.87,4.59-1.97,6.71-3.27,3.25-1.99,6.19-4.45,8.72-7.3.86-.97,1.68-1.99,2.44-3.04.77-1.07,1.5-2.19,2.16-3.34,5.18-8.98,6.56-19.44,3.88-29.46-2.68-10.02-9.11-18.39-18.09-23.57-4.54-2.62-9.45-4.27-14.61-4.91-1.57-.2-3.18-.29-4.76-.29-.29,0-.58,0-.87,0-1.24.03-2.49.12-3.73.26-3.71.44-7.33,1.41-10.76,2.88-4.07,1.74-7.77,4.14-11.01,7.13-.94.87-1.84,1.79-2.69,2.74-1.73,1.95-3.28,4.1-4.59,6.38-.66,1.15-1.27,2.34-1.81,3.54-.53,1.18-1.01,2.41-1.42,3.63-.4,1.21-.75,2.46-1.03,3.7-.55,2.45-.87,4.98-.93,7.5-.05,2.09.07,4.25.38,6.42.31,2.19.79,4.33,1.44,6.38l.06.19.04.13c.24.72.51,1.47.83,2.29,2.02,5.08,5,9.57,8.86,13.35.57.56,1.17,1.11,1.77,1.63,1.85,1.6,3.88,3.04,6.02,4.28,2.84,1.64,5.88,2.92,9.01,3.79,3.37.94,6.86,1.42,10.36,1.42M154.1,238.03c2.15,0,4.32-.18,6.44-.54,1.22-.2,2.44-.47,3.64-.79,1.19-.32,2.39-.7,3.55-1.13,2.33-.87,4.59-1.97,6.71-3.27,3.25-1.99,6.19-4.45,8.72-7.3.86-.97,1.68-1.99,2.44-3.04.77-1.07,1.5-2.19,2.16-3.34,10.7-18.54,4.33-42.32-14.21-53.03-4.54-2.62-9.45-4.27-14.61-4.91-1.57-.2-3.18-.29-4.76-.29-.29,0-.58,0-.87,0-1.24.03-2.49.12-3.73.26-3.71.44-7.33,1.41-10.76,2.88-4.07,1.74-7.77,4.14-11.01,7.13-.94.87-1.84,1.79-2.69,2.74-1.73,1.95-3.28,4.1-4.59,6.38-.66,1.15-1.27,2.34-1.81,3.54-.53,1.18-1.01,2.41-1.42,3.63-.4,1.21-.75,2.46-1.03,3.7-.55,2.45-.87,4.98-.93,7.5-.05,2.09.07,4.25.38,6.42.31,2.19.79,4.33,1.44,6.38l.06.19.04.13c.24.72.51,1.47.83,2.29,2.02,5.08,5,9.57,8.86,13.35.57.56,1.17,1.11,1.77,1.63,1.85,1.6,3.88,3.04,6.02,4.28,1.43.83,2.92,1.57,4.44,2.2,1.49.62,3.03,1.16,4.58,1.59,3.37.94,6.86,1.42,10.36,1.42M367.48,238.03c6.77,0,13.47-1.8,19.37-5.21,4.54-2.62,8.43-6.05,11.56-10.2,1.13-1.5,2.16-3.09,3.06-4.73.6-1.09,1.15-2.22,1.64-3.36,1.47-3.43,2.44-7.05,2.88-10.76.52-4.39.3-8.8-.67-13.1-.28-1.24-.63-2.49-1.03-3.7-.83-2.48-1.91-4.89-3.23-7.17-.66-1.15-1.39-2.27-2.16-3.34-.76-1.05-1.58-2.08-2.44-3.04-.85-.96-1.75-1.88-2.69-2.74-1.85-1.71-3.88-3.24-6.03-4.56-1.79-1.09-3.72-2.06-5.74-2.88-2.05-.83-4.15-1.48-6.24-1.94l-.2-.04-.13-.03c-.74-.16-1.53-.29-2.4-.42-1.87-.27-3.78-.41-5.67-.41-3.5,0-6.97.47-10.33,1.41-.77.21-1.55.46-2.3.72-2.31.8-4.57,1.84-6.71,3.07-2.14,1.23-4.16,2.67-6.02,4.28-.61.52-1.2,1.07-1.77,1.63-4.02,3.94-7.19,8.82-9.16,14.11-.43,1.16-.81,2.35-1.13,3.55-.32,1.2-.59,2.42-.79,3.64-.41,2.46-.59,4.96-.52,7.45.1,3.82.76,7.58,1.97,11.2.41,1.23.89,2.45,1.42,3.63.54,1.2,1.15,2.39,1.81,3.54,6.91,11.98,19.81,19.41,33.65,19.41M260.79,339.39c43.34,0,78.6-35.26,78.6-78.6s-35.26-78.6-78.6-78.6-78.6,35.26-78.6,78.6,35.26,78.6,78.6,78.6M55.53,299.61c1.32,0,2.66-.07,3.97-.2,1.29-.13,2.59-.33,3.85-.59,1.25-.26,2.5-.58,3.72-.96,2.4-.75,4.75-1.74,6.96-2.94,1.84-1,3.65-2.19,5.37-3.53,1.74-1.36,3.36-2.85,4.8-4.44l.13-.15.09-.1c.51-.56,1.02-1.17,1.56-1.86,3.39-4.29,5.79-9.11,7.13-14.35.2-.77.38-1.57.53-2.35.46-2.41.69-4.88.69-7.35s-.23-4.94-.69-7.35c-.15-.79-.33-1.58-.53-2.35-1.4-5.45-4.04-10.63-7.64-14.99-.79-.95-1.63-1.88-2.5-2.76-.87-.87-1.8-1.72-2.76-2.5-1.92-1.59-4-2.99-6.19-4.18-3.35-1.82-6.95-3.13-10.68-3.9-1.27-.26-2.56-.46-3.85-.59-1.31-.13-2.64-.2-3.97-.2-21.4,0-38.82,17.41-38.82,38.82,0,5.24,1.03,10.32,3.05,15.11.73,1.73,1.59,3.41,2.57,5.02.64,1.06,1.35,2.1,2.09,3.1,2.24,2.99,4.89,5.64,7.88,7.88,3.54,2.65,7.47,4.66,11.68,5.97,1.22.38,2.47.7,3.72.96,2.56.52,5.19.79,7.82.79M418.06,341.74c6.77,0,13.47-1.8,19.37-5.21,4.54-2.62,8.43-6.05,11.56-10.2,1.13-1.5,2.16-3.09,3.06-4.73.6-1.09,1.15-2.22,1.64-3.36,1.47-3.43,2.44-7.05,2.88-10.76.52-4.39.3-8.8-.67-13.1-.28-1.24-.63-2.49-1.03-3.7-.83-2.48-1.91-4.89-3.23-7.17-.66-1.15-1.39-2.27-2.16-3.34-.76-1.05-1.58-2.08-2.44-3.04-.85-.96-1.75-1.88-2.69-2.74-1.85-1.71-3.88-3.24-6.03-4.56-1.79-1.09-3.72-2.06-5.74-2.88-2.05-.83-4.15-1.48-6.24-1.94l-.2-.04-.13-.03c-.74-.16-1.53-.29-2.4-.42-1.87-.27-3.78-.41-5.67-.41-3.5,0-6.97.47-10.33,1.41-.77.21-1.55.46-2.3.72-2.31.8-4.57,1.84-6.71,3.07-2.14,1.23-4.16,2.67-6.02,4.28-.61.52-1.2,1.07-1.77,1.63-4.02,3.94-7.19,8.82-9.16,14.11-.43,1.16-.81,2.35-1.13,3.55-.32,1.19-.59,2.42-.79,3.64-.41,2.46-.59,4.96-.52,7.45.1,3.82.76,7.58,1.97,11.2.41,1.23.89,2.45,1.42,3.63.54,1.2,1.15,2.39,1.81,3.54,6.91,11.98,19.81,19.41,33.65,19.41M145.69,414.71c1.32,0,2.66-.07,3.97-.2,1.29-.13,2.59-.33,3.85-.59,1.25-.26,2.5-.58,3.72-.96,2.4-.75,4.75-1.74,6.96-2.94,1.84-1,3.65-2.19,5.37-3.53,1.74-1.36,3.36-2.85,4.8-4.44l.13-.15.09-.1c.51-.56,1.02-1.17,1.56-1.86,3.39-4.29,5.79-9.11,7.13-14.35.2-.77.38-1.57.53-2.35.46-2.41.69-4.88.69-7.35s-.23-4.94-.69-7.35c-.15-.79-.33-1.58-.53-2.35-1.4-5.45-4.04-10.63-7.64-14.99-.79-.95-1.63-1.88-2.5-2.76-.87-.87-1.8-1.72-2.76-2.5-1.92-1.59-4-2.99-6.19-4.18-3.35-1.82-6.95-3.13-10.68-3.9-1.27-.26-2.56-.46-3.85-.59-1.31-.13-2.64-.2-3.97-.2-21.4,0-38.82,17.41-38.82,38.82,0,5.24,1.03,10.32,3.05,15.11.73,1.73,1.59,3.41,2.57,5.02.64,1.06,1.35,2.1,2.09,3.1,2.24,2.99,4.89,5.64,7.88,7.88,3.54,2.65,7.47,4.66,11.68,5.97,1.22.38,2.47.7,3.72.96,2.56.52,5.19.79,7.82.79M260.79,422.76c1.32,0,2.66-.07,3.97-.2,1.29-.13,2.59-.33,3.85-.59,1.25-.26,2.5-.58,3.72-.96,2.4-.75,4.75-1.74,6.96-2.94,1.84-1,3.65-2.19,5.37-3.53,1.74-1.36,3.36-2.85,4.8-4.44l.13-.15.09-.1c.51-.56,1.02-1.17,1.56-1.86,3.39-4.29,5.79-9.11,7.13-14.35.2-.77.38-1.56.53-2.35.46-2.41.69-4.88.69-7.35s-.23-4.94-.69-7.35c-.15-.79-.33-1.58-.53-2.35-1.4-5.45-4.04-10.63-7.64-14.99-.79-.95-1.63-1.88-2.5-2.76-.88-.87-1.8-1.72-2.76-2.5-1.92-1.59-4-2.99-6.19-4.18-3.35-1.82-6.95-3.13-10.68-3.9-1.27-.26-2.56-.46-3.85-.59-1.31-.13-2.64-.2-3.97-.2-21.4,0-38.82,17.41-38.82,38.82,0,5.24,1.03,10.32,3.05,15.11.73,1.73,1.59,3.41,2.57,5.02.64,1.06,1.35,2.1,2.09,3.1,2.24,2.99,4.89,5.64,7.88,7.88,3.54,2.65,7.47,4.66,11.68,5.97,1.22.38,2.47.7,3.72.96,2.56.52,5.19.79,7.82.79M363.46,477.38c6.77,0,13.47-1.8,19.37-5.21,4.54-2.62,8.43-6.05,11.56-10.2,1.13-1.5,2.16-3.09,3.06-4.73.6-1.09,1.15-2.22,1.64-3.36,1.47-3.43,2.44-7.05,2.88-10.76.52-4.39.3-8.8-.67-13.1-.28-1.24-.63-2.49-1.03-3.7-.83-2.48-1.91-4.89-3.23-7.17-.66-1.15-1.39-2.27-2.16-3.34-.76-1.05-1.58-2.08-2.44-3.04-.85-.96-1.75-1.88-2.69-2.74-1.85-1.71-3.88-3.24-6.03-4.56-1.79-1.09-3.72-2.06-5.74-2.88-2.05-.83-4.15-1.48-6.24-1.94l-.2-.04-.13-.03c-.74-.16-1.52-.29-2.4-.42-1.87-.27-3.78-.41-5.67-.41-3.5,0-6.97.47-10.33,1.41-3.14.87-6.17,2.15-9.01,3.79-2.14,1.23-4.16,2.67-6.02,4.28-.61.52-1.2,1.07-1.77,1.63-4.02,3.94-7.19,8.82-9.16,14.11-.43,1.16-.81,2.35-1.13,3.55-.32,1.19-.59,2.42-.79,3.64-.41,2.46-.59,4.96-.52,7.45.1,3.82.76,7.58,1.97,11.2.41,1.23.89,2.45,1.42,3.63.54,1.2,1.15,2.39,1.81,3.54,6.91,11.98,19.81,19.41,33.65,19.41M260.79,8.61C121.52,8.61,8.61,121.52,8.61,260.79s112.9,252.18,252.18,252.18,252.18-112.9,252.18-252.18S400.06,8.61,260.79,8.61h0ZM363.39,120.85c-3.37,0-6.77-.45-10.09-1.38-.75-.21-1.5-.44-2.24-.7-2.23-.77-4.42-1.77-6.54-2.99-2.12-1.22-4.08-2.62-5.86-4.17-.6-.51-1.17-1.05-1.73-1.59-3.81-3.74-6.71-8.19-8.63-13.01-.29-.74-.57-1.48-.81-2.23-.03-.1-.07-.21-.1-.31-.64-2.03-1.11-4.11-1.4-6.21-.29-2.06-.42-4.15-.37-6.25.06-2.44.36-4.88.91-7.3.27-1.21.61-2.41,1.01-3.6.4-1.19.86-2.37,1.38-3.54.52-1.17,1.11-2.32,1.76-3.45,1.31-2.26,2.81-4.34,4.48-6.22.83-.94,1.71-1.83,2.62-2.67,3.19-2.94,6.83-5.28,10.72-6.95,3.34-1.43,6.88-2.38,10.49-2.81,1.2-.14,2.42-.23,3.63-.26.28,0,.56,0,.85,0,1.54,0,3.09.09,4.64.29,4.88.6,9.71,2.18,14.23,4.79,18.09,10.44,24.29,33.57,13.84,51.66-.65,1.13-1.35,2.21-2.1,3.25-.75,1.04-1.54,2.03-2.37,2.97-2.5,2.82-5.37,5.2-8.49,7.11-2.08,1.27-4.27,2.34-6.54,3.19-1.13.42-2.29.79-3.46,1.11-1.17.31-2.35.57-3.55.77-2.07.35-4.17.52-6.28.52h0ZM218.62,141.38c-3.37,0-6.77-.45-10.09-1.38-3-.84-5.95-2.06-8.78-3.69-2.12-1.22-4.08-2.62-5.86-4.17-.6-.51-1.17-1.05-1.73-1.59-3.81-3.74-6.71-8.19-8.63-13.01-.29-.74-.57-1.48-.81-2.23-.03-.1-.07-.21-.1-.31-.64-2.03-1.11-4.11-1.4-6.21-.29-2.06-.42-4.15-.37-6.25.06-2.44.36-4.88.91-7.3.27-1.21.61-2.41,1.01-3.6.4-1.19.86-2.37,1.38-3.54s1.11-2.32,1.76-3.45c1.31-2.26,2.81-4.34,4.48-6.22.83-.94,1.71-1.83,2.62-2.67,3.19-2.94,6.83-5.28,10.72-6.95,3.34-1.43,6.88-2.38,10.49-2.81,1.2-.14,2.42-.23,3.63-.26.28,0,.56,0,.85,0,1.54,0,3.09.09,4.64.29,4.88.61,9.71,2.18,14.23,4.79,18.09,10.44,24.29,33.57,13.84,51.66-.65,1.13-1.35,2.21-2.1,3.25s-1.54,2.03-2.37,2.97c-2.5,2.82-5.37,5.2-8.49,7.11-2.08,1.27-4.27,2.34-6.54,3.19-1.13.42-2.29.79-3.46,1.11s-2.35.57-3.55.77c-2.07.35-4.17.52-6.28.52h0ZM154.1,237.03c-3.37,0-6.77-.45-10.09-1.38-1.5-.42-2.99-.93-4.46-1.55-1.47-.61-2.91-1.33-4.32-2.15-2.12-1.22-4.08-2.62-5.86-4.17-.6-.51-1.17-1.05-1.73-1.59-3.81-3.74-6.71-8.19-8.63-13.01-.29-.74-.57-1.48-.81-2.23-.03-.1-.07-.21-.1-.31-.64-2.03-1.11-4.11-1.4-6.21-.29-2.06-.42-4.15-.37-6.25.06-2.44.36-4.88.91-7.3.27-1.21.61-2.41,1.01-3.6.4-1.19.86-2.37,1.38-3.54s1.11-2.32,1.76-3.45c1.31-2.26,2.81-4.34,4.48-6.22.83-.94,1.71-1.83,2.62-2.67,3.19-2.94,6.83-5.28,10.72-6.95,3.34-1.43,6.88-2.38,10.49-2.81,1.2-.14,2.42-.23,3.63-.26.28,0,.56,0,.85,0,1.54,0,3.09.09,4.64.29,4.88.61,9.71,2.18,14.23,4.79,18.09,10.44,24.28,33.57,13.84,51.66-.65,1.13-1.35,2.21-2.1,3.25-.75,1.04-1.54,2.03-2.37,2.97-2.5,2.82-5.37,5.2-8.49,7.11-2.08,1.27-4.27,2.34-6.54,3.19-1.13.42-2.29.79-3.46,1.11-1.17.31-2.35.57-3.55.77-2.07.35-4.17.52-6.28.52h0ZM367.48,237.03c-13.07,0-25.78-6.78-32.79-18.91-.65-1.13-1.24-2.28-1.76-3.45-.52-1.17-.98-2.35-1.38-3.54-1.19-3.58-1.82-7.25-1.91-10.91-.06-2.44.11-4.87.51-7.26.2-1.19.46-2.38.77-3.55.31-1.17.68-2.32,1.11-3.46,1.91-5.1,4.92-9.82,8.93-13.75.56-.55,1.13-1.08,1.73-1.59,1.79-1.54,3.74-2.94,5.86-4.17,2.12-1.22,4.31-2.22,6.54-2.99.74-.26,1.49-.49,2.24-.7,3.32-.92,6.7-1.37,10.06-1.37,1.85,0,3.7.14,5.52.4.78.11,1.56.25,2.34.41.11.02.21.04.32.07,2.08.46,4.11,1.09,6.08,1.89,1.93.78,3.81,1.71,5.6,2.81,2.08,1.27,4.05,2.76,5.87,4.44.91.84,1.79,1.73,2.62,2.67.83.94,1.63,1.93,2.37,2.97.75,1.04,1.45,2.12,2.1,3.25,1.31,2.26,2.35,4.6,3.15,6.98.4,1.19.73,2.39,1.01,3.6.96,4.23,1.16,8.55.66,12.76-.43,3.61-1.38,7.15-2.81,10.49-.48,1.11-1.01,2.21-1.59,3.27-.88,1.6-1.87,3.14-2.98,4.61-2.96,3.92-6.74,7.32-11.26,9.93-5.95,3.44-12.46,5.07-18.87,5.07h0ZM260.79,338.39c-42.86,0-77.6-34.74-77.6-77.6s34.74-77.6,77.6-77.6,77.6,34.74,77.6,77.6-34.74,77.6-77.6,77.6h0ZM55.53,298.61c-2.61,0-5.16-.26-7.62-.77-1.23-.25-2.44-.56-3.62-.93-4.14-1.29-7.98-3.27-11.38-5.81-2.91-2.18-5.5-4.77-7.68-7.68-.73-.97-1.41-1.98-2.04-3.02-.95-1.56-1.79-3.19-2.5-4.89-1.91-4.52-2.97-9.5-2.97-14.72,0-20.89,16.93-37.82,37.82-37.82,1.31,0,2.6.07,3.87.2,1.27.13,2.52.32,3.75.57,3.69.76,7.19,2.05,10.4,3.8,2.14,1.16,4.16,2.53,6.03,4.07.93.77,1.83,1.59,2.69,2.44s1.67,1.75,2.44,2.69c3.47,4.2,6.05,9.17,7.45,14.6.19.76.37,1.52.51,2.29.44,2.32.68,4.71.68,7.16s-.23,4.84-.68,7.16c-.15.77-.32,1.54-.51,2.29-1.33,5.17-3.74,9.91-6.95,13.98-.49.62-1,1.23-1.52,1.82-.07.08-.14.16-.22.24-1.43,1.57-3,3.01-4.68,4.32-1.64,1.28-3.39,2.44-5.23,3.44-2.14,1.16-4.41,2.13-6.78,2.86-1.18.37-2.39.68-3.62.93-1.23.25-2.48.44-3.75.57-1.27.13-2.56.2-3.87.2h0ZM418.06,340.74c-13.07,0-25.78-6.78-32.79-18.91-.65-1.13-1.24-2.28-1.76-3.45-.52-1.17-.98-2.35-1.38-3.54-1.19-3.58-1.82-7.25-1.91-10.91-.06-2.44.11-4.87.51-7.26.2-1.19.46-2.38.77-3.55.31-1.17.68-2.32,1.11-3.46,1.91-5.1,4.92-9.82,8.92-13.75.56-.55,1.13-1.08,1.73-1.59,1.79-1.54,3.74-2.94,5.86-4.17,2.12-1.22,4.31-2.22,6.54-2.99.74-.26,1.49-.49,2.24-.7,3.32-.92,6.7-1.37,10.06-1.37,1.85,0,3.7.14,5.52.4.78.11,1.56.25,2.34.41.11.02.21.04.32.07,2.08.46,4.11,1.09,6.08,1.89,1.93.78,3.81,1.71,5.6,2.81,2.08,1.27,4.05,2.76,5.87,4.44.91.84,1.79,1.73,2.62,2.67.83.94,1.63,1.93,2.37,2.97.75,1.04,1.45,2.12,2.1,3.25,1.31,2.26,2.35,4.6,3.15,6.98.4,1.19.73,2.39,1.01,3.6.96,4.23,1.16,8.55.66,12.76-.43,3.61-1.38,7.15-2.81,10.49-.48,1.11-1.01,2.21-1.59,3.27-.88,1.6-1.87,3.14-2.98,4.61-2.96,3.92-6.74,7.32-11.26,9.93-5.95,3.44-12.46,5.07-18.87,5.07h0ZM145.69,413.71c-2.61,0-5.16-.26-7.62-.77-1.23-.25-2.44-.56-3.62-.93-4.14-1.29-7.98-3.27-11.38-5.81-2.91-2.18-5.5-4.77-7.68-7.68-.73-.97-1.41-1.98-2.04-3.02-.95-1.56-1.79-3.19-2.5-4.89-1.91-4.52-2.97-9.5-2.97-14.72,0-20.89,16.93-37.82,37.82-37.82,1.31,0,2.6.07,3.87.2,1.27.13,2.52.32,3.75.57,3.69.76,7.19,2.05,10.4,3.8,2.14,1.16,4.16,2.53,6.03,4.07.93.77,1.83,1.59,2.69,2.44s1.67,1.75,2.44,2.69c3.47,4.2,6.05,9.17,7.45,14.6.19.76.37,1.52.51,2.29.44,2.32.68,4.71.68,7.16s-.23,4.84-.68,7.16c-.15.77-.32,1.54-.51,2.29-1.33,5.17-3.74,9.91-6.95,13.98-.49.62-1,1.23-1.52,1.82-.07.08-.14.16-.22.24-1.43,1.57-3,3.01-4.68,4.32-1.64,1.28-3.39,2.44-5.23,3.44-2.14,1.16-4.41,2.13-6.78,2.86-1.18.37-2.39.68-3.62.93-1.23.25-2.48.44-3.75.57-1.27.13-2.56.2-3.87.2h0ZM260.79,421.76c-2.61,0-5.16-.26-7.62-.77-1.23-.25-2.44-.56-3.62-.93-4.14-1.29-7.98-3.27-11.38-5.81-2.91-2.18-5.5-4.77-7.68-7.68-.73-.97-1.41-1.98-2.04-3.02-.95-1.56-1.79-3.19-2.5-4.89-1.91-4.52-2.97-9.5-2.97-14.72,0-20.89,16.93-37.82,37.82-37.82,1.31,0,2.6.07,3.87.2,1.27.13,2.52.32,3.75.57,3.69.76,7.19,2.05,10.4,3.8,2.14,1.16,4.16,2.53,6.03,4.07.93.77,1.83,1.59,2.69,2.44s1.67,1.75,2.44,2.69c3.47,4.2,6.05,9.17,7.45,14.6.19.76.37,1.52.51,2.29.44,2.32.68,4.71.68,7.16s-.23,4.84-.68,7.16c-.15.77-.32,1.54-.51,2.29-1.33,5.17-3.74,9.91-6.95,13.98-.49.62-1,1.23-1.52,1.82-.07.08-.14.16-.22.24-1.43,1.57-3,3.01-4.68,4.32-1.64,1.28-3.39,2.44-5.23,3.44-2.14,1.16-4.41,2.13-6.78,2.86-1.18.37-2.39.68-3.62.93-1.23.25-2.48.44-3.75.57-1.27.13-2.56.2-3.87.2h0ZM363.46,476.38c-13.07,0-25.78-6.78-32.79-18.91-.65-1.13-1.24-2.28-1.76-3.45-.52-1.17-.98-2.35-1.38-3.54-1.19-3.58-1.82-7.25-1.91-10.91-.06-2.44.11-4.87.51-7.26.2-1.19.46-2.38.77-3.55.31-1.17.68-2.32,1.11-3.46,1.91-5.1,4.92-9.82,8.92-13.75.56-.55,1.13-1.08,1.73-1.59,1.79-1.54,3.74-2.94,5.86-4.17,2.83-1.63,5.78-2.86,8.78-3.69,3.32-.92,6.7-1.37,10.06-1.37,1.85,0,3.7.14,5.52.4.78.11,1.56.25,2.34.41.11.02.21.04.32.07,2.08.46,4.11,1.09,6.08,1.89,1.93.78,3.81,1.71,5.6,2.81,2.08,1.27,4.05,2.76,5.87,4.44.91.84,1.79,1.73,2.62,2.67.83.94,1.63,1.93,2.37,2.97s1.45,2.12,2.1,3.25c1.31,2.26,2.35,4.6,3.15,6.98.4,1.19.73,2.39,1.01,3.6.96,4.23,1.16,8.55.66,12.76-.43,3.61-1.38,7.15-2.81,10.49-.48,1.11-1.01,2.21-1.59,3.27-.88,1.6-1.87,3.14-2.98,4.61-2.96,3.92-6.74,7.32-11.26,9.93-5.95,3.44-12.46,5.07-18.87,5.07h0Z"/>
      </g>
      <path class="cls-2" d="M338.39,260.79c0-42.86-34.74-77.6-77.6-77.6s-77.6,34.74-77.6,77.6,34.74,77.6,77.6,77.6,77.6-34.74,77.6-77.6Z"/>
      <path class="cls-5" d="M334.95,260.79c0-40.96-33.2-74.16-74.16-74.16s-74.16,33.2-74.16,74.16,33.2,74.16,74.16,74.16,74.16-33.2,74.16-74.16Z"/>
      <path class="cls-1" d="M293.62,293.32s.06-.06.09-.1c-.03.03-.06.06-.09.1Z"/>
      <path class="cls-3" d="M293.62,293.32s.06-.06.09-.1"/>
      <path class="cls-5" d="M92.67,267.95c.44-2.32.68-4.71.68-7.16s-.23-4.84-.68-7.16c.44,2.32.68,4.71.68,7.16s-.23,4.84-.68,7.16Z"/>
      <path class="cls-5" d="M92.34,260.79c0-20.3-16.52-36.82-36.82-36.82s-36.82,16.52-36.82,36.82,16.52,36.82,36.82,36.82,36.82-16.52,36.82-36.82ZM22.14,260.79c0-18.44,14.95-33.39,33.39-33.39s33.39,14.95,33.39,33.39-14.95,33.39-33.39,33.39-33.39-14.95-33.39-33.39Z"/>
      <path class="cls-1" d="M63.15,297.84c1.23-.25,2.44-.56,3.62-.93,2.37-.74,4.64-1.7,6.78-2.86,1.84-1,3.59-2.16,5.23-3.44,1.68-1.31,3.25-2.75,4.68-4.32.07-.08.14-.16.22-.24.53-.59,1.03-1.2,1.52-1.82,3.22-4.07,5.62-8.8,6.95-13.98.19-.76.37-1.52.51-2.29.44-2.32.68-4.71.68-7.16s-.23-4.84-.68-7.16c-.15-.77-.32-1.54-.51-2.29-1.4-5.44-3.98-10.4-7.45-14.6-.77-.93-1.59-1.83-2.44-2.69s-1.75-1.67-2.69-2.44c-1.87-1.54-3.89-2.91-6.03-4.07-3.22-1.75-6.71-3.04-10.4-3.8-1.23-.25-2.48-.44-3.75-.57-1.27-.13-2.56-.2-3.87-.2-20.89,0-37.82,16.93-37.82,37.82,0,5.22,1.06,10.2,2.97,14.72.72,1.7,1.56,3.33,2.5,4.89.63,1.04,1.31,2.05,2.04,3.02,2.18,2.91,4.77,5.5,7.68,7.68,3.4,2.54,7.24,4.52,11.38,5.81,1.18.37,2.39.68,3.62.93,2.46.5,5.01.77,7.62.77,1.31,0,2.6-.07,3.87-.2,1.27-.13,2.52-.32,3.75-.57ZM55.53,297.61c-20.3,0-36.82-16.52-36.82-36.82s16.52-36.82,36.82-36.82,36.82,16.52,36.82,36.82-16.52,36.82-36.82,36.82Z"/>
      <path class="cls-1" d="M88.91,260.79c0-18.44-14.95-33.39-33.39-33.39s-33.39,14.95-33.39,33.39,14.95,33.39,33.39,33.39,33.39-14.95,33.39-33.39ZM23.14,260.79c0-17.86,14.53-32.39,32.39-32.39s32.39,14.53,32.39,32.39-14.53,32.39-32.39,32.39-32.39-14.53-32.39-32.39Z"/>
      <path class="cls-5" d="M353.29,402.11c-3,.84-5.95,2.06-8.78,3.69-2.12,1.22-4.08,2.62-5.86,4.17,1.79-1.54,3.74-2.94,5.86-4.17,2.83-1.63,5.78-2.86,8.78-3.69Z"/>
      <path class="cls-5" d="M345.01,406.67c-17.58,10.15-23.63,32.71-13.48,50.29s32.71,23.63,50.29,13.48c17.58-10.15,23.63-32.71,13.48-50.29-10.15-17.58-32.71-23.63-50.29-13.48ZM380.11,467.47c-15.97,9.22-36.39,3.75-45.61-12.22s-3.75-36.39,12.22-45.61,36.39-3.75,45.61,12.22,3.75,36.39-12.22,45.61Z"/>
      <path class="cls-1" d="M399.32,426.63c-.79-2.38-1.84-4.72-3.15-6.98-.65-1.13-1.35-2.21-2.1-3.25-.75-1.04-1.54-2.03-2.37-2.97-.83-.94-1.71-1.83-2.62-2.67-1.82-1.68-3.79-3.17-5.87-4.44-1.79-1.1-3.66-2.03-5.6-2.81-1.97-.8-4.01-1.44-6.08-1.89-.11-.02-.21-.04-.32-.07-.77-.16-1.55-.3-2.34-.41-5.13-.75-10.43-.47-15.58.97-3,.84-5.95,2.06-8.78,3.69-2.12,1.22-4.08,2.62-5.86,4.17-.6.51-1.17,1.05-1.73,1.59-4.01,3.93-7.02,8.64-8.92,13.75-.42,1.13-.79,2.29-1.11,3.46-.31,1.17-.57,2.35-.77,3.55-.4,2.39-.57,4.82-.51,7.26.1,3.66.72,7.33,1.91,10.91.4,1.19.86,2.37,1.38,3.54.52,1.17,1.11,2.32,1.76,3.45,10.44,18.09,33.57,24.28,51.66,13.84,4.52-2.61,8.3-6.01,11.26-9.93,1.11-1.47,2.11-3.01,2.98-4.61.58-1.07,1.12-2.16,1.59-3.27,1.43-3.34,2.38-6.88,2.81-10.49.5-4.21.3-8.53-.66-12.76-.27-1.21-.61-2.41-1.01-3.6ZM381.83,470.44c-17.58,10.15-40.14,4.11-50.29-13.48s-4.11-40.14,13.48-50.29,40.14-4.11,50.29,13.48c10.15,17.58,4.11,40.14-13.48,50.29Z"/>
      <path class="cls-1" d="M346.73,409.64c-15.97,9.22-21.44,29.64-12.22,45.61s29.64,21.44,45.61,12.22,21.44-29.64,12.22-45.61-29.64-21.44-45.61-12.22ZM379.61,466.6c-15.47,8.93-35.31,3.61-44.24-11.85-8.93-15.47-3.61-35.31,11.85-44.24,15.47-8.93,35.31-3.61,44.24,11.85,8.93,15.47,3.61,35.31-11.85,44.24Z"/>
      <path class="cls-5" d="M338.65,111.61c1.79,1.54,3.74,2.94,5.86,4.17,2.12,1.22,4.31,2.22,6.54,2.99-2.23-.77-4.42-1.77-6.54-2.99-2.12-1.22-4.08-2.62-5.86-4.17Z"/>
      <path class="cls-5" d="M345.01,114.91c17.58,10.15,40.14,4.11,50.29-13.48,10.15-17.58,4.11-40.14-13.48-50.29-17.58-10.15-40.14-4.11-50.29,13.48-10.15,17.58-4.11,40.14,13.48,50.29ZM380.11,54.11c15.97,9.22,21.44,29.64,12.22,45.61s-29.64,21.44-45.61,12.22-21.44-29.64-12.22-45.61,29.64-21.44,45.61-12.22Z"/>
      <path class="cls-1" d="M327.53,71.1c-.4,1.19-.73,2.39-1.01,3.6-.55,2.42-.85,4.87-.91,7.3-.05,2.1.08,4.19.37,6.25.3,2.11.76,4.19,1.4,6.21.03.1.07.21.1.31.25.75.52,1.49.81,2.23,1.91,4.82,4.81,9.27,8.63,13.01.56.55,1.13,1.08,1.73,1.59,1.79,1.54,3.74,2.94,5.86,4.17,2.12,1.22,4.31,2.22,6.54,2.99.74.26,1.49.49,2.24.7,5.41,1.51,11,1.76,16.37.85,1.19-.2,2.38-.46,3.55-.77,1.17-.31,2.32-.68,3.46-1.11,2.27-.85,4.46-1.91,6.54-3.19,3.12-1.91,5.99-4.29,8.49-7.11.83-.94,1.63-1.93,2.37-2.97.75-1.04,1.45-2.12,2.1-3.25,10.44-18.09,4.25-41.22-13.84-51.66-4.52-2.61-9.36-4.18-14.23-4.79-1.83-.23-3.66-.32-5.49-.28-1.22.03-2.43.11-3.63.26-3.61.43-7.15,1.38-10.49,2.81-3.9,1.67-7.54,4.01-10.72,6.95-.91.84-1.79,1.73-2.62,2.67-1.67,1.88-3.17,3.96-4.48,6.22-.65,1.13-1.24,2.28-1.76,3.45-.52,1.17-.98,2.35-1.38,3.54ZM331.54,64.62c10.15-17.58,32.71-23.63,50.29-13.48,17.58,10.15,23.63,32.71,13.48,50.29-10.15,17.58-32.71,23.63-50.29,13.48-17.58-10.15-23.63-32.71-13.48-50.29Z"/>
      <path class="cls-1" d="M346.73,111.94c15.97,9.22,36.39,3.75,45.61-12.22s3.75-36.39-12.22-45.61-36.39-3.75-45.61,12.22-3.75,36.39,12.22,45.61ZM335.37,66.83c8.93-15.47,28.78-20.78,44.24-11.85,15.47,8.93,20.78,28.78,11.85,44.24s-28.78,20.78-44.24,11.85c-15.47-8.93-20.78-28.78-11.85-44.24Z"/>
      <path class="cls-5" d="M182.83,383.05c.44-2.32.68-4.71.68-7.16s-.23-4.84-.68-7.16c.44,2.32.68,4.71.68,7.16s-.23,4.84-.68,7.16Z"/>
      <path class="cls-5" d="M145.69,412.71c20.3,0,36.82-16.52,36.82-36.82s-16.52-36.82-36.82-36.82-36.82,16.52-36.82,36.82,16.52,36.82,36.82,36.82ZM145.69,342.51c18.44,0,33.39,14.95,33.39,33.39s-14.95,33.39-33.39,33.39-33.39-14.95-33.39-33.39,14.95-33.39,33.39-33.39Z"/>
      <path class="cls-1" d="M123.06,406.2c3.4,2.54,7.24,4.52,11.38,5.81,1.18.37,2.39.68,3.62.93,2.46.5,5.01.77,7.62.77,1.31,0,2.6-.07,3.87-.2,1.27-.13,2.52-.32,3.75-.57,1.23-.25,2.44-.56,3.62-.93,2.37-.74,4.64-1.7,6.78-2.86,1.84-1,3.59-2.16,5.23-3.44,1.68-1.31,3.25-2.75,4.68-4.32.07-.08.14-.16.22-.24.53-.59,1.03-1.2,1.52-1.82,3.22-4.07,5.62-8.8,6.95-13.98.19-.76.37-1.52.51-2.29.44-2.32.68-4.71.68-7.16s-.23-4.84-.68-7.16c-.15-.77-.32-1.54-.51-2.29-1.4-5.44-3.98-10.4-7.45-14.6-.77-.93-1.59-1.83-2.44-2.69s-1.75-1.67-2.69-2.44c-1.87-1.54-3.89-2.91-6.03-4.07-3.22-1.75-6.71-3.04-10.4-3.8-1.23-.25-2.48-.44-3.75-.57-1.27-.13-2.56-.2-3.87-.2-20.89,0-37.82,16.93-37.82,37.82,0,5.22,1.06,10.2,2.97,14.72.72,1.7,1.56,3.33,2.5,4.89.63,1.04,1.31,2.05,2.04,3.02,2.18,2.91,4.77,5.5,7.68,7.68ZM108.87,375.89c0-20.3,16.52-36.82,36.82-36.82s36.82,16.52,36.82,36.82-16.52,36.82-36.82,36.82-36.82-16.52-36.82-36.82Z"/>
      <path class="cls-1" d="M145.69,409.28c18.44,0,33.39-14.95,33.39-33.39s-14.95-33.39-33.39-33.39-33.39,14.95-33.39,33.39,14.95,33.39,33.39,33.39ZM145.69,343.51c17.86,0,32.39,14.53,32.39,32.39s-14.53,32.39-32.39,32.39-32.39-14.53-32.39-32.39,14.53-32.39,32.39-32.39Z"/>
      <path class="cls-5" d="M405.65,267.17c-2.23.77-4.42,1.77-6.54,2.99-2.12,1.22-4.08,2.62-5.86,4.17,1.79-1.54,3.74-2.94,5.86-4.17,2.12-1.22,4.31-2.22,6.54-2.99Z"/>
      <path class="cls-5" d="M436.43,334.8c17.58-10.15,23.63-32.71,13.48-50.29-10.15-17.58-32.71-23.63-50.29-13.48-17.58,10.15-23.63,32.71-13.48,50.29,10.15,17.58,32.71,23.63,50.29,13.48ZM401.33,274.01c15.97-9.22,36.39-3.75,45.61,12.22s3.75,36.39-12.22,45.61-36.39,3.75-45.61-12.22-3.75-36.39,12.22-45.61Z"/>
      <path class="cls-1" d="M382.13,314.84c.4,1.19.86,2.37,1.38,3.54.52,1.17,1.11,2.32,1.76,3.45,10.44,18.09,33.57,24.28,51.66,13.84,4.52-2.61,8.3-6.01,11.26-9.93,1.11-1.47,2.11-3.01,2.98-4.61.58-1.07,1.12-2.16,1.59-3.27,1.43-3.34,2.38-6.88,2.81-10.49.5-4.21.3-8.53-.66-12.76-.27-1.21-.61-2.41-1.01-3.6-.79-2.38-1.84-4.72-3.15-6.98-.65-1.13-1.35-2.21-2.1-3.25s-1.54-2.03-2.37-2.97c-.83-.94-1.71-1.83-2.62-2.67-1.82-1.68-3.79-3.17-5.87-4.44-1.79-1.1-3.66-2.03-5.6-2.81-1.97-.8-4.01-1.44-6.08-1.89-.11-.02-.21-.04-.32-.07-.77-.16-1.55-.3-2.34-.41-5.13-.75-10.43-.47-15.58.97-.75.21-1.5.44-2.24.7-2.23.77-4.42,1.77-6.54,2.99-2.12,1.22-4.08,2.62-5.86,4.17-.6.51-1.17,1.05-1.73,1.59-4.01,3.93-7.02,8.64-8.92,13.75-.42,1.13-.79,2.29-1.11,3.46-.31,1.17-.57,2.35-.77,3.55-.4,2.39-.57,4.82-.51,7.26.1,3.66.72,7.33,1.91,10.91ZM399.62,271.03c17.58-10.15,40.14-4.11,50.29,13.48,10.15,17.58,4.11,40.14-13.48,50.29-17.58,10.15-40.14,4.11-50.29-13.48-10.15-17.58-4.11-40.14,13.48-50.29Z"/>
      <path class="cls-1" d="M434.72,331.83c15.97-9.22,21.44-29.64,12.22-45.61s-29.64-21.44-45.61-12.22-21.44,29.64-12.22,45.61,29.64,21.44,45.61,12.22ZM401.83,274.87c15.47-8.93,35.31-3.61,44.24,11.85s3.61,35.31-11.85,44.24c-15.47,8.93-35.31,3.61-44.24-11.85s-3.61-35.31,11.85-44.24Z"/>
      <path class="cls-5" d="M193.89,132.14c1.79,1.54,3.74,2.94,5.86,4.17,2.83,1.63,5.78,2.86,8.78,3.69-3-.84-5.95-2.06-8.78-3.69-2.12-1.22-4.08-2.62-5.86-4.17Z"/>
      <path class="cls-5" d="M186.77,85.15c-10.15,17.58-4.11,40.14,13.48,50.29,17.58,10.15,40.14,4.11,50.29-13.48,10.15-17.58,4.11-40.14-13.48-50.29-17.58-10.15-40.14-4.11-50.29,13.48ZM235.35,74.64c15.97,9.22,21.44,29.64,12.22,45.61s-29.64,21.44-45.61,12.22-21.44-29.64-12.22-45.61,29.64-21.44,45.61-12.22Z"/>
      <path class="cls-1" d="M203.73,68.81c-3.9,1.67-7.54,4.01-10.72,6.95-.91.84-1.79,1.73-2.62,2.67-1.67,1.88-3.17,3.96-4.48,6.22-.65,1.13-1.24,2.28-1.76,3.45s-.98,2.35-1.38,3.54c-.4,1.19-.73,2.39-1.01,3.6-.55,2.42-.85,4.87-.91,7.3-.05,2.1.08,4.19.37,6.25.3,2.11.76,4.19,1.4,6.21.03.1.07.21.1.31.25.75.52,1.49.81,2.23,1.91,4.82,4.81,9.27,8.63,13.01.56.55,1.13,1.08,1.73,1.59,1.79,1.54,3.74,2.94,5.86,4.17,2.83,1.63,5.78,2.86,8.78,3.69,5.41,1.51,11,1.76,16.37.85,1.19-.2,2.38-.46,3.55-.77s2.32-.68,3.46-1.11c2.27-.85,4.46-1.91,6.54-3.19,3.12-1.91,5.99-4.29,8.49-7.11.83-.94,1.63-1.93,2.37-2.97s1.45-2.12,2.1-3.25c10.44-18.09,4.25-41.22-13.84-51.66-4.52-2.61-9.36-4.18-14.23-4.79-1.83-.23-3.66-.32-5.49-.28-1.22.03-2.43.11-3.63.26-3.61.43-7.15,1.38-10.49,2.81ZM237.07,71.67c17.58,10.15,23.63,32.71,13.48,50.29-10.15,17.58-32.71,23.63-50.29,13.48-17.58-10.15-23.63-32.71-13.48-50.29,10.15-17.58,32.71-23.63,50.29-13.48Z"/>
      <path class="cls-1" d="M201.96,132.47c15.97,9.22,36.39,3.75,45.61-12.22s3.75-36.39-12.22-45.61-36.39-3.75-45.61,12.22-3.75,36.39,12.22,45.61ZM234.85,75.51c15.47,8.93,20.78,28.78,11.85,44.24-8.93,15.47-28.78,20.78-44.24,11.85-15.47-8.93-20.78-28.78-11.85-44.24,8.93-15.47,28.78-20.78,44.24-11.85Z"/>
      <path class="cls-5" d="M298.61,383.95c0,2.45-.23,4.84-.68,7.16.44-2.32.68-4.71.68-7.16s-.23-4.84-.68-7.16c.44,2.32.68,4.71.68,7.16Z"/>
      <path class="cls-5" d="M260.79,347.13c-20.3,0-36.82,16.52-36.82,36.82s16.52,36.82,36.82,36.82,36.82-16.52,36.82-36.82-16.52-36.82-36.82-36.82ZM260.79,417.33c-18.44,0-33.39-14.95-33.39-33.39s14.95-33.39,33.39-33.39,33.39,14.95,33.39,33.39-14.95,33.39-33.39,33.39Z"/>
      <path class="cls-1" d="M297.93,376.79c-.15-.77-.32-1.54-.51-2.29-1.4-5.44-3.98-10.4-7.45-14.6-.77-.93-1.59-1.83-2.44-2.69s-1.75-1.67-2.69-2.44c-1.87-1.54-3.89-2.91-6.03-4.07-3.22-1.75-6.71-3.04-10.4-3.8-1.23-.25-2.48-.44-3.75-.57-1.27-.13-2.56-.2-3.87-.2-20.89,0-37.82,16.93-37.82,37.82,0,5.22,1.06,10.2,2.97,14.72.72,1.7,1.56,3.33,2.5,4.89.63,1.04,1.31,2.05,2.04,3.02,2.18,2.91,4.77,5.5,7.68,7.68,3.4,2.54,7.24,4.52,11.38,5.81,1.18.37,2.39.68,3.62.93,2.46.5,5.01.77,7.62.77,1.31,0,2.6-.07,3.87-.2,1.27-.13,2.52-.32,3.75-.57,1.23-.25,2.44-.56,3.62-.93,2.37-.74,4.64-1.7,6.78-2.86,1.84-1,3.59-2.16,5.23-3.44,1.68-1.31,3.25-2.75,4.68-4.32.07-.08.14-.16.22-.24.53-.59,1.03-1.2,1.52-1.82,3.22-4.07,5.62-8.8,6.95-13.98.19-.76.37-1.52.51-2.29.44-2.32.68-4.71.68-7.16s-.23-4.84-.68-7.16ZM260.79,420.76c-20.3,0-36.82-16.52-36.82-36.82s16.52-36.82,36.82-36.82,36.82,16.52,36.82,36.82-16.52,36.82-36.82,36.82Z"/>
      <path class="cls-1" d="M260.79,350.56c-18.44,0-33.39,14.95-33.39,33.39s14.95,33.39,33.39,33.39,33.39-14.95,33.39-33.39-14.95-33.39-33.39-33.39ZM260.79,416.33c-17.86,0-32.39-14.53-32.39-32.39s14.53-32.39,32.39-32.39,32.39,14.53,32.39,32.39-14.53,32.39-32.39,32.39Z"/>
      <path class="cls-5" d="M348.54,166.46c2.12-1.22,4.31-2.22,6.54-2.99-2.23.77-4.42,1.77-6.54,2.99-2.12,1.22-4.08,2.62-5.86,4.17,1.79-1.54,3.74-2.94,5.86-4.17Z"/>
      <path class="cls-5" d="M349.04,167.33c-17.58,10.15-23.63,32.71-13.48,50.29,10.15,17.58,32.71,23.63,50.29,13.48s23.63-32.71,13.48-50.29c-10.15-17.58-32.71-23.63-50.29-13.48ZM396.36,182.52c9.22,15.97,3.75,36.39-12.22,45.61s-36.39,3.75-45.61-12.22-3.75-36.39,12.22-45.61,36.39-3.75,45.61,12.22Z"/>
      <path class="cls-1" d="M381.64,164.17c-1.97-.8-4.01-1.44-6.08-1.89-.11-.02-.21-.04-.32-.07-.77-.16-1.55-.3-2.34-.41-5.13-.75-10.43-.47-15.58.97-.75.21-1.5.44-2.24.7-2.23.77-4.42,1.77-6.54,2.99-2.12,1.22-4.08,2.62-5.86,4.17-.6.51-1.17,1.05-1.73,1.59-4.01,3.93-7.02,8.64-8.92,13.75-.42,1.13-.79,2.29-1.11,3.46-.31,1.17-.57,2.35-.77,3.55-.4,2.39-.57,4.82-.51,7.26.09,3.66.72,7.33,1.91,10.91.4,1.19.86,2.37,1.38,3.54.52,1.17,1.11,2.32,1.76,3.45,10.44,18.09,33.57,24.28,51.66,13.84,4.52-2.61,8.3-6.01,11.26-9.93,1.11-1.47,2.11-3.01,2.98-4.61.58-1.07,1.12-2.16,1.59-3.27,1.43-3.34,2.38-6.88,2.81-10.49.5-4.21.3-8.53-.66-12.76-.27-1.21-.61-2.41-1.01-3.6-.79-2.38-1.84-4.72-3.15-6.98-.65-1.13-1.35-2.21-2.1-3.25-.75-1.04-1.54-2.03-2.37-2.97-.83-.94-1.71-1.83-2.62-2.67-1.82-1.68-3.79-3.17-5.87-4.44-1.79-1.1-3.66-2.03-5.6-2.81ZM399.33,180.8c10.15,17.58,4.11,40.14-13.48,50.29s-40.14,4.11-50.29-13.48c-10.15-17.58-4.11-40.14,13.48-50.29s40.14-4.11,50.29,13.48Z"/>
      <path class="cls-1" d="M350.75,170.3c-15.97,9.22-21.44,29.64-12.22,45.61s29.64,21.44,45.61,12.22,21.44-29.64,12.22-45.61-29.64-21.44-45.61-12.22ZM395.49,183.02c8.93,15.47,3.61,35.31-11.85,44.24-15.47,8.93-35.31,3.61-44.24-11.85s-3.61-35.31,11.85-44.24c15.47-8.93,35.31-3.61,44.24,11.85Z"/>
      <path class="cls-5" d="M129.36,227.8c1.79,1.54,3.74,2.94,5.86,4.17,1.41.82,2.86,1.53,4.32,2.15-1.47-.61-2.91-1.33-4.32-2.15-2.12-1.22-4.08-2.62-5.86-4.17Z"/>
      <path class="cls-5" d="M139.55,234.11c1.47.61,2.95,1.13,4.46,1.55-1.5-.42-2.99-.93-4.46-1.55Z"/>
      <path class="cls-5" d="M135.72,231.1c17.58,10.15,40.14,4.11,50.29-13.48,10.15-17.58,4.11-40.14-13.48-50.29s-40.14-4.11-50.29,13.48c-10.15,17.58-4.11,40.14,13.48,50.29ZM125.22,182.52c9.22-15.97,29.64-21.44,45.61-12.22,15.97,9.22,21.44,29.64,12.22,45.61s-29.64,21.44-45.61,12.22c-15.97-9.22-21.44-29.64-12.22-45.61Z"/>
      <path class="cls-1" d="M117.23,190.89c-.55,2.42-.85,4.87-.91,7.3-.05,2.1.08,4.19.37,6.25.3,2.11.76,4.19,1.4,6.21.03.1.07.21.1.31.25.75.52,1.49.81,2.23,1.91,4.82,4.81,9.27,8.63,13.01.56.55,1.13,1.08,1.73,1.59,1.79,1.54,3.74,2.94,5.86,4.17,1.41.82,2.86,1.53,4.32,2.15s2.95,1.13,4.46,1.55c5.41,1.51,11,1.76,16.37.85,1.19-.2,2.38-.46,3.55-.77,1.17-.31,2.32-.68,3.46-1.11,2.27-.85,4.46-1.91,6.54-3.19,3.12-1.91,5.99-4.29,8.49-7.11.83-.94,1.63-1.93,2.37-2.97.75-1.04,1.45-2.12,2.1-3.25,10.44-18.09,4.25-41.22-13.84-51.66-4.52-2.61-9.36-4.18-14.23-4.79-1.83-.23-3.66-.32-5.49-.28-1.22.03-2.43.11-3.63.26-3.61.43-7.15,1.38-10.49,2.81-3.9,1.67-7.54,4.01-10.72,6.95-.91.84-1.79,1.73-2.62,2.67-1.67,1.88-3.17,3.96-4.48,6.22-.65,1.13-1.24,2.28-1.76,3.45-.52,1.17-.98,2.35-1.38,3.54-.4,1.19-.73,2.39-1.01,3.6ZM122.25,180.8c10.15-17.58,32.71-23.63,50.29-13.48s23.63,32.71,13.48,50.29c-10.15,17.58-32.71,23.63-50.29,13.48s-23.63-32.71-13.48-50.29Z"/>
      <path class="cls-1" d="M137.44,228.12c15.97,9.22,36.39,3.75,45.61-12.22s3.75-36.39-12.22-45.61c-15.97-9.22-36.39-3.75-45.61,12.22s-3.75,36.39,12.22,45.61ZM126.08,183.02c8.93-15.47,28.78-20.78,44.24-11.85,15.47,8.93,20.78,28.78,11.85,44.24s-28.78,20.78-44.24,11.85c-15.47-8.93-20.78-28.78-11.85-44.24Z"/>
    </g>
  </g>
</svg>