<?xml version="1.0" encoding="UTF-8"?>
<svg id="Layer_2" data-name="Layer 2" xmlns="http://www.w3.org/2000/svg" viewBox="0 0 388.37 325">
  <defs>
    <style>
      .cls-1 {
        fill: #00a651;
      }

      .cls-1, .cls-2, .cls-3, .cls-4, .cls-5 {
        stroke-width: 0px;
      }

      .cls-2 {
        fill: #a97c50;
      }

      .cls-3 {
        fill: #8dc63f;
      }

      .cls-4 {
        fill: #e6e7e8;
      }

      .cls-5 {
        fill: #231f20;
      }
    </style>
  </defs>
  <g id="Layer_1-2" data-name="Layer 1">
    <g>
      <path class="cls-5" d="M371.85,218.7c-2.25-11.06-10.85-19.33-21.28-20.96-1.39-6.94-2.61-15.17-3.64-24.58,7.77-10.77,11.86-22.87,11.86-35.13,0-18.25-8.99-35.78-25.34-49.52-5.82-13.22-15.84-24.69-29.15-33.39.08-1.1.12-2.21.12-3.3,0-26.5-21.56-48.06-48.06-48.06-7.57,0-15.03,1.8-21.75,5.22-13.3-5.87-28.2-8.97-43.28-8.97-13.96,0-27.84,2.64-40.32,7.66-6-2.6-12.37-3.91-18.97-3.91-26.5,0-48.06,21.56-48.06,48.06,0,1.11.04,2.22.12,3.33-13.3,8.7-23.3,20.15-29.13,33.35-16.37,13.75-25.36,31.29-25.36,49.53,0,12.7,4.39,25.2,12.73,36.28-1.11,8.85-2.38,16.64-3.8,23.24-10.45,1.5-19.16,9.66-21.55,20.69-6.69,9.19-20.3,28.43-16.21,38.25,1.24,2.98,4.05,4.81,7.39,4.81.05,0,.11,0,.17,0,2.19-.05,4.32-.91,6-2.39,3.76.66,6.08,1.65,7.06,2.46,2.06,1.7,5.32,5.2,9.06,9.72.2,4.76,1.33,8.07,3.5,10.34,1.17,1.21,2.65,2,4.29,2.28,1.48.25,3.02.06,4.49-.55,2.4-.99,4.3-3.01,5.22-5.54l.87-2.4c5.52-3.41,10.33-5.99,13.06-7,1.9-.7,5.95-.45,10.36.57,1.1,1.92,2.81,3.4,4.85,4.15,3.18,1.17,6.51.38,8.7-2.06,2.88-3.22,3.56-8.55,3.08-14.74.69.6,1.38,1.2,2.09,1.79l12.44,10.44c0,1.37.11,2.74.33,4.1.33,2.13,1.36,4.88,4.11,7.34-5.74,21.8-3.3,28.39-.45,31.67,2.16,2.48,5.48,3.31,8.67,2.18,2.04-.73,3.77-2.18,4.9-4.09,4.42-.97,8.48-1.17,10.37-.44,2.71,1.05,7.48,3.69,12.97,7.17l.84,2.42c.88,2.54,2.76,4.58,5.15,5.61,1.07.46,2.19.69,3.3.69.4,0,.8-.03,1.19-.09,1.63-.25,3.13-1.02,4.32-2.23,2.2-2.23,3.37-5.53,3.63-10.29,3.8-4.47,7.1-7.93,9.18-9.61.99-.79,3.32-1.76,7.09-2.37,1.66,1.51,3.78,2.39,6,2.47,3.41.09,6.29-1.7,7.59-4.71.59-1.36.88-2.86.87-4.54.05,1.4.32,2.68.81,3.87,1.24,2.98,4.05,4.81,7.39,4.81.05,0,.11,0,.17,0,2.19-.05,4.32-.91,6-2.39,3.76.66,6.08,1.65,7.06,2.46,2.06,1.7,5.32,5.2,9.06,9.72.2,4.76,1.33,8.07,3.51,10.35,1.17,1.21,2.65,1.99,4.29,2.27,1.48.25,3.02.06,4.49-.55,2.4-1,4.3-3.02,5.22-5.54l.87-2.4c5.53-3.41,10.33-5.99,13.06-7,1.9-.7,5.95-.46,10.36.57,1.1,1.92,2.81,3.4,4.85,4.15,3.18,1.17,6.51.38,8.7-2.06,2.9-3.24,5.42-9.8-.04-31.68,2.79-2.42,3.85-5.15,4.21-7.28.2-1.17.32-2.35.36-3.54l13.65-11.47c.67-.57,1.34-1.13,1.99-1.71-.48,5.95.18,11.07,2.93,14.23,2.16,2.48,5.48,3.31,8.68,2.17,2.04-.73,3.77-2.18,4.89-4.08,4.42-.97,8.48-1.16,10.37-.44,2.71,1.04,7.48,3.69,12.97,7.17l.84,2.42c.88,2.53,2.76,4.58,5.16,5.61,1.45.62,3,.83,4.47.6,1.63-.26,3.12-1.02,4.32-2.23,2.2-2.23,3.38-5.53,3.63-10.29,3.8-4.47,7.1-7.93,9.18-9.61.99-.79,3.32-1.76,7.09-2.37,1.66,1.51,3.78,2.39,6,2.47,3.39.09,6.29-1.7,7.59-4.71,4.21-9.76-9.15-29.18-15.72-38.46Z"/>
      <g>
        <path class="cls-3" d="M26.43,255.5c2.68,2.21,6.02,5.91,8.79,9.19.49-4.96,1.64-11.21,3.41-18.64.87-3.66-1.15-7.33-4.7-8.54l-.38-.13c-2.84-.96-5.93-.16-7.87,2.05l-10.38,11.83s.06,0,.09.01c4.94.84,8.65,2.26,11.04,4.22Z"/>
        <path class="cls-3" d="M73.87,261.27l-5.85-14.45c-1.1-2.73-3.79-4.53-6.73-4.53-.06,0-.13,0-.19,0h-.19c-1.86.06-3.56.8-4.83,2.04-.76.74-1.37,1.65-1.75,2.7l-1.43,3.88-5.96,16.4c4.01-2.4,8.69-4.99,12.16-6.28,4.4-1.63,10.51-.75,14.78.24Z"/>
        <path class="cls-1" d="M49.96,177.55c-.07.53-.14,1.05-.21,1.58-.04.29-.08.58-.12.87-.09.63-.17,1.26-.26,1.89-.05.35-.1.71-.15,1.06-.08.57-.17,1.13-.25,1.7-.06.38-.12.76-.18,1.14-.08.54-.17,1.07-.25,1.61-.06.39-.13.78-.19,1.17-.09.52-.17,1.05-.26,1.57-.07.39-.13.78-.2,1.17-.09.52-.18,1.04-.28,1.55-.07.38-.14.77-.21,1.15-.1.52-.2,1.03-.3,1.55-.07.37-.14.75-.22,1.12-.11.53-.21,1.05-.32,1.57-.07.34-.14.69-.21,1.03-.12.57-.25,1.14-.37,1.7-.06.28-.12.57-.19.84-.19.84-.39,1.66-.59,2.48l-.35,1.41-1.45-.12c-8.96-.75-17.23,6.06-18.83,15.53l-.07.33-.26.59c-13.63,18.67-17.23,28.64-16.17,31.56h.07c.37,0,.77-.22,1.07-.56l13.93-15.87c.32-.36.67-.69,1.02-1.01.1-.09.21-.18.32-.26.28-.23.57-.44.88-.64.1-.07.2-.14.3-.2.39-.24.79-.45,1.21-.63.1-.04.2-.08.3-.12.33-.13.67-.25,1.01-.35.14-.04.28-.08.43-.12.36-.09.73-.16,1.1-.21.09-.01.17-.03.26-.04.39-.04.77-.07,1.16-.07.07,0,.15,0,.22,0,.09,0,.18,0,.26.01.45.02.9.07,1.35.14.06.01.12.03.19.04.48.09.96.21,1.43.37l.48.16c5.23,1.78,8.2,7.18,6.92,12.56-5.5,23.02-3.29,28.18-2.36,29.27.02,0,.04-.01.06-.02.26-.11.49-.32.65-.6.05-.09.1-.2.14-.3l10.68-29.32c1.52-4.11,5.33-6.84,9.7-6.96h.18c4.44-.1,8.52,2.55,10.18,6.65l7.83,19.34c.17.43.47.75.82.88.02,0,.04.02.06.02.92-1.16,2.93-6.26-2.59-27.1-13.21-16.48-20.63-35.5-21.4-55.3-2.11-1.86-4.1-3.81-5.95-5.82Z"/>
        <path class="cls-3" d="M361.9,255.85c2.41-1.94,6.14-3.31,11.09-4.08.03,0,.06,0,.09-.01l-10.23-11.97c-.21-.25-.45-.48-.69-.69-.07-.06-.14-.12-.22-.18-.19-.16-.39-.3-.59-.44-.07-.05-.14-.1-.21-.14-.27-.17-.55-.32-.84-.44-.05-.02-.1-.04-.15-.06-.25-.1-.5-.19-.76-.27-.09-.03-.18-.05-.27-.07-.25-.06-.5-.11-.76-.15-.07,0-.13-.02-.19-.03-.31-.04-.62-.05-.93-.05-.26,0-.51.03-.77.06-.12.01-.24.01-.36.03-.38.06-.75.15-1.13.27l-.38.12c-3.57,1.17-5.64,4.81-4.81,8.48,1.68,7.45,2.74,13.72,3.17,18.68,2.82-3.24,6.2-6.89,8.91-9.07Z"/>
        <path class="cls-3" d="M329.17,260.95c3.54,1.36,8.4,4.17,12.08,6.44l-7.13-20.37c-.22-.63-.54-1.21-.9-1.73-.04-.06-.07-.13-.12-.18-.09-.12-.2-.22-.29-.34-.13-.16-.26-.32-.41-.47-.03-.03-.06-.05-.09-.08-1.24-1.2-2.9-1.94-4.71-2.01h-.19c-2.99-.11-5.82,1.66-6.98,4.43l-6.04,14.37c2.46-.54,5.53-1.03,8.53-1.03,2.21,0,4.39.27,6.25.98Z"/>
        <path class="cls-1" d="M380.22,254.2h.06c1.09-2.95-2.39-12.96-15.76-31.77l-.15-.29-.17-.65c-1.48-9.47-9.66-16.39-18.62-15.75l-1.45.11-.33-1.42c-.19-.82-.38-1.65-.56-2.49-.06-.27-.11-.54-.17-.82-.12-.58-.24-1.16-.36-1.75-.07-.33-.13-.67-.2-1.01-.1-.53-.21-1.06-.31-1.6-.07-.37-.13-.74-.2-1.11-.09-.52-.19-1.04-.28-1.57-.07-.38-.13-.76-.19-1.15-.09-.52-.17-1.04-.26-1.56-.06-.39-.13-.78-.19-1.18-.08-.52-.16-1.05-.24-1.57-.06-.39-.12-.78-.18-1.17-.08-.54-.16-1.08-.23-1.61-.05-.39-.11-.77-.16-1.16-.08-.55-.15-1.1-.22-1.65-.05-.37-.1-.75-.15-1.12-.08-.59-.15-1.18-.22-1.77-.04-.33-.08-.67-.12-1-.09-.77-.18-1.54-.27-2.3,0-.07-.02-.14-.02-.21-2.08,2.35-4.36,4.61-6.8,6.76-.76,19.73-8.13,38.68-21.25,55.12-5.78,20.75-3.79,25.81-2.91,26.94.02,0,.04-.01.06-.02.35-.13.66-.44.83-.87l8.08-19.24c.2-.48.44-.94.71-1.38,0-.01.02-.03.02-.04.27-.43.56-.84.88-1.23.01-.02.02-.03.04-.05.32-.38.67-.74,1.04-1.07.02-.01.03-.03.05-.05.37-.33.76-.63,1.17-.9.02-.02.04-.03.07-.05.4-.27.83-.5,1.26-.71.03-.02.07-.03.1-.05.43-.2.87-.37,1.32-.51.05-.02.1-.03.15-.05.44-.13.89-.23,1.35-.31.07-.01.13-.02.2-.03.45-.06.91-.1,1.37-.1.04,0,.08,0,.11,0,.14,0,.28,0,.42,0h.18c4.37.19,8.14,2.97,9.6,7.09l10.3,29.47c.15.44.43.77.78.92.02,0,.04.02.06.02.97-1.12,3.2-6.29-1.98-29.29-1.22-5.4,1.83-10.76,7.08-12.47l.48-.16c4.11-1.34,8.58-.08,11.39,3.21l13.72,16.06c.3.34.69.56,1.06.57Z"/>
        <path class="cls-5" d="M367.56,220.79c-1.73-10.53-10.71-18.48-20.74-18.52-2-9-3.46-19.42-4.52-29.31,7.96-10.27,12.51-22.09,12.51-34.65,0-17.78-9.16-34.34-24.62-47.05-5.85-13.81-16.76-25.85-31.16-34.45.17-1.55.26-3.12.26-4.72,0-23.68-19.27-42.95-42.95-42.95-7.36,0-14.29,1.86-20.35,5.14-13.28-6.43-28.65-10.02-44.68-10.02-14.95,0-29.24,3.08-41.79,8.62-5.35-2.4-11.26-3.74-17.49-3.74-23.68,0-42.95,19.27-42.95,42.95,0,1.6.09,3.17.27,4.73-14.42,8.62-25.29,20.67-31.13,34.42-15.52,12.76-24.65,29.37-24.65,47.07,0,13.02,4.88,25.25,13.4,35.78-1.17,9.5-2.72,19.41-4.76,28.04-.05,0-.11,0-.16,0-9.97,0-18.96,7.8-20.82,18.25-16.13,22.17-17.76,31.07-16.28,34.64.54,1.3,1.71,2.01,3.25,2.01,1.33-.03,2.62-.66,3.55-1.72l.85-.97c5.33.65,9.45,1.99,11.65,3.8,3.34,2.75,8.02,8.3,10.68,11.57-.01,4.35.73,7.25,2.26,8.84.49.51,1.1.84,1.77.95.18.03.36.05.54.05.47,0,.96-.1,1.45-.31,1.22-.51,2.21-1.56,2.69-2.89l1.41-3.88c3.29-2.06,10.66-6.54,15.22-8.23,4.56-1.69,12.22.15,15.19.97l.38.95c.53,1.31,1.55,2.33,2.8,2.79,1.43.53,2.79.23,3.73-.83,2.75-3.08,2.69-11.06-.16-23.74,3.35,3.65,7,7.15,10.94,10.49h0s.33.29.33.29l9.26,7.78-.61-1.11c1.94,1.38,3.92,2.7,5.94,3.98-.24,2.03-.23,4.12.1,6.23.39,2.51,2.02,4.59,4.83,6.19-4.66,16.62-5.41,26.89-2.23,30.53.93,1.07,2.28,1.39,3.72.87,1.25-.45,2.28-1.45,2.83-2.76l.4-.95c2.97-.79,10.66-2.52,15.2-.78,4.54,1.75,11.85,6.32,15.11,8.43l1.36,3.9c.47,1.34,1.43,2.4,2.65,2.93.5.21,1,.32,1.49.32.17,0,.33-.01.5-.04.67-.1,1.28-.43,1.78-.93,1.55-1.57,2.33-4.46,2.37-8.81,2.7-3.24,7.46-8.72,10.83-11.43,2.22-1.78,6.36-3.07,11.7-3.65l.84.99c.92,1.07,2.21,1.72,3.54,1.76,1.53.08,2.72-.67,3.28-1.97.6-1.39.73-3.63-.3-7.18,2.03.07,4.06.11,6.11.11,1.49,0,2.97-.02,4.46-.06-.87,3.15-.74,5.19-.2,6.51.53,1.28,1.68,2.01,3.17,2.01h.08c1.32-.03,2.62-.66,3.56-1.72l.85-.97c5.33.65,9.45,1.99,11.65,3.8,3.33,2.75,8.02,8.3,10.68,11.57-.01,4.36.73,7.25,2.26,8.85.49.51,1.1.84,1.77.95.18.03.36.04.54.04.48,0,.96-.1,1.45-.31,1.22-.51,2.21-1.56,2.69-2.89l1.41-3.88c3.29-2.06,10.66-6.54,15.22-8.23,4.56-1.68,12.22.15,15.19.97l.39.95c.53,1.31,1.55,2.33,2.79,2.79,1.43.53,2.79.23,3.73-.83,3.22-3.6,2.6-13.88-1.84-30.56,2.84-1.56,4.49-3.62,4.91-6.13.34-2,.4-4,.22-5.93,2.41-1.5,4.76-3.06,7.06-4.7l-.61,1.11,9.26-7.78.33-.28h0c3.95-3.36,7.61-6.87,10.97-10.53-2.93,12.44-3.08,20.3-.39,23.39.93,1.06,2.29,1.38,3.72.87,1.25-.45,2.28-1.45,2.83-2.76l.4-.94c2.97-.79,10.67-2.52,15.2-.78,4.54,1.75,11.85,6.32,15.11,8.43l1.36,3.9c.47,1.34,1.43,2.41,2.65,2.93.5.22,1,.33,1.49.33.17,0,.33-.01.5-.04.67-.1,1.28-.43,1.78-.93,1.55-1.57,2.33-4.46,2.37-8.81,2.7-3.24,7.46-8.72,10.83-11.43,2.22-1.78,6.36-3.07,11.7-3.65l.84.98c.92,1.08,2.21,1.72,3.54,1.76,1.53.07,2.72-.67,3.28-1.97,1.53-3.55.02-12.47-15.83-34.85ZM172.7,52.1c0,22.43-18.25,40.67-40.67,40.67-.95,0-1.89-.04-2.83-.11-.22-.02-.45-.03-.67-.05-.92-.08-1.84-.18-2.75-.32-.07-.01-.14-.03-.2-.04-.85-.14-1.69-.31-2.52-.49-.21-.05-.42-.1-.63-.15-.87-.21-1.74-.45-2.59-.72-.11-.03-.22-.07-.32-.11-.77-.25-1.52-.52-2.27-.82-.19-.08-.39-.15-.58-.23-.82-.33-1.62-.69-2.41-1.08-.13-.06-.26-.14-.39-.2-.69-.35-1.37-.71-2.04-1.1-.17-.1-.34-.19-.51-.3-.75-.45-1.48-.91-2.2-1.4-.14-.1-.28-.2-.41-.29-.62-.44-1.23-.89-1.82-1.36-.14-.11-.29-.23-.43-.34-.67-.55-1.33-1.11-1.96-1.7-.14-.13-.27-.26-.4-.38-.55-.52-1.09-1.06-1.61-1.61-.11-.12-.23-.23-.34-.35-.59-.64-1.15-1.3-1.7-1.97-.12-.15-.24-.31-.37-.47-.48-.61-.94-1.23-1.38-1.86-.08-.11-.16-.22-.24-.34-.49-.72-.96-1.46-1.4-2.22-.1-.18-.21-.36-.31-.53-.4-.7-.78-1.41-1.14-2.13-.05-.09-.1-.18-.14-.27-.39-.8-.74-1.61-1.08-2.43-.03-.07-.05-.14-.08-.21.1.17.21.34.32.51.15.24.3.49.45.72.15.23.32.46.49.69.17.23.33.47.51.7.17.22.36.44.54.66.18.23.37.45.56.67.19.22.39.43.59.64.2.22.4.44.61.65.21.21.43.41.64.61.22.21.43.42.66.62.22.2.46.39.69.59.24.2.47.4.71.6.24.19.5.38.75.57.25.19.5.38.76.57.26.18.53.36.8.54.27.18.53.37.81.55.28.18.57.34.85.52.29.17.57.35.86.52.29.17.6.33.9.49.3.16.6.33.91.49.31.16.64.31.96.47.32.16.63.31.96.47.34.15.69.3,1.03.45.33.14.65.29.99.43.36.15.74.29,1.11.44.34.13.67.27,1.01.39.39.15.81.28,1.21.43.34.12.66.24,1.01.35.45.15.93.29,1.39.44.31.1.61.2.93.29.79.23,1.59.46,2.42.67,3.93,1.03,7.78,1.56,11.43,1.56,26.87,0,36.87-27.74,36.97-28.02l.15-.44-.19-.42c-.04-.08-4.03-8.54-10.63-17.43-6.17-8.31-16-18.78-27.77-21.52-9.52-2.21-19.3,2.9-28.28,14.79-5.04,6.68-8.52,13.75-9.96,16.9-.11.03-.23.05-.34.1-.14.06-.27.12-.4.22-.09.06-.17.13-.25.2,1.17-21.39,18.93-38.43,40.61-38.43s40.67,18.25,40.67,40.67ZM106.2,35.71c6.58-8.3,13.28-12.48,19.96-12.48,1.19,0,2.39.13,3.58.4.26.06.52.14.79.21,16.48,4.29,28.9,25.43,32.24,31.66-.35.42-.57.94-.57,1.49,0,.15.02.3.04.44.03.15.08.28.14.42.06.14.12.27.2.4.03.05.07.08.1.12-3.22,6.76-15.15,26.74-41.09,20.16-11.75-2.99-19.6-7.84-23.32-14.44-3.5-6.2-1.95-11.91-1.91-12.08.15-.35,3.81-8.7,9.83-16.29ZM132.03,95.04c23.68,0,42.95-19.27,42.95-42.95,0-15.37-8.12-28.86-20.28-36.46,11.15-4.41,23.62-6.83,36.62-6.83,14.31,0,28.05,2.98,40.1,8.35-10.9,7.8-18.02,20.55-18.02,34.94,0,23.68,19.27,42.95,42.95,42.95,20.4,0,37.51-14.3,41.86-33.4,19.84,12.42,32.23,31.79,32.23,52.97,0,36.96-37.28,67.02-83.11,67.02h-106.28c-45.83,0-83.11-30.07-83.11-67.02,0-21.04,12.31-40.48,32.23-52.96,4.36,19.1,21.47,33.39,41.86,33.39ZM290.09,64.08c-3.72,6.6-11.56,11.46-23.32,14.44-25.93,6.58-37.86-13.4-41.09-20.16.31-.4.49-.89.49-1.38,0-.15-.02-.3-.05-.44-.03-.15-.08-.3-.14-.43s-.13-.26-.2-.39c-.05-.08-.12-.15-.18-.23,3.4-6.34,16.16-28.07,33.02-31.87,18.97-4.25,32.78,27.04,33.34,28.3.07.24,1.61,5.96-1.88,12.15ZM295.98,49.36c-1.4-3.06-4.89-10.2-9.97-16.93-8.98-11.89-18.76-17.01-28.28-14.79-11.77,2.74-21.6,13.21-27.77,21.52-6.6,8.89-10.59,17.35-10.63,17.43l-.2.42.15.44c.04.11,1.46,4.08,4.65,9,.05.07.1.15.15.22.22.34.45.68.68,1.02.1.15.21.29.31.44.2.28.39.55.59.83.13.18.27.35.4.53.19.25.38.51.58.76.15.2.32.39.48.59.19.24.38.48.58.71.17.2.36.41.54.61.2.23.4.46.6.69.19.21.4.43.6.64.2.22.4.44.61.65.23.23.47.46.71.69.2.19.39.39.59.58.26.25.54.49.81.73.19.17.37.34.57.51.28.24.58.48.87.71.2.16.39.33.6.49.31.24.64.48.96.71.2.14.39.29.59.44.34.24.7.47,1.06.7.2.13.38.26.58.39.38.24.77.46,1.16.68.19.11.37.23.57.33.4.22.82.43,1.24.64.19.1.38.2.57.3.43.2.87.39,1.31.58.2.09.39.18.6.26.47.19.95.36,1.44.53.19.07.37.14.56.21.46.16.94.29,1.42.43.22.06.44.14.67.2.4.11.82.19,1.24.29.32.07.62.16.95.22.46.09.93.16,1.4.23.29.05.58.1.87.14,1.55.2,3.17.31,4.85.31,3.66,0,7.5-.52,11.43-1.56.82-.22,1.63-.44,2.42-.67.25-.07.49-.15.73-.23.53-.16,1.07-.33,1.59-.5.29-.1.57-.2.85-.3.46-.16.92-.32,1.37-.48.3-.11.58-.23.87-.34.42-.16.85-.32,1.25-.49.29-.12.57-.25.86-.37.39-.17.78-.33,1.16-.51.29-.13.56-.27.85-.41.36-.17.72-.34,1.07-.52.28-.15.55-.3.83-.45.33-.18.66-.35.98-.54.27-.16.53-.32.8-.48.31-.18.62-.37.91-.55.26-.17.51-.34.76-.51.28-.19.57-.38.85-.58.25-.18.48-.36.72-.54.26-.2.53-.39.79-.6.23-.18.45-.38.67-.56.25-.21.5-.41.73-.62.22-.19.42-.39.62-.59.23-.22.46-.43.68-.65.2-.2.39-.41.58-.61.21-.22.42-.45.62-.68.18-.21.35-.42.52-.63.19-.24.39-.47.57-.71.16-.21.31-.43.47-.64.18-.25.36-.49.52-.74.14-.22.28-.44.41-.66.12-.19.24-.37.35-.56-.03.07-.06.15-.09.22-.33.82-.69,1.63-1.07,2.42-.05.1-.1.2-.15.3-.35.71-.73,1.41-1.12,2.1-.11.18-.21.37-.32.55-.44.75-.91,1.49-1.4,2.2-.08.12-.17.24-.25.35-.44.63-.89,1.24-1.37,1.84-.13.16-.25.32-.38.48-.54.67-1.11,1.33-1.69,1.96-.11.12-.23.24-.35.37-.52.55-1.05,1.08-1.59,1.6-.14.13-.27.26-.41.39-.63.59-1.29,1.15-1.96,1.7-.15.12-.3.23-.44.35-.59.47-1.19.92-1.81,1.35-.14.1-.28.2-.42.3-.71.49-1.45.96-2.19,1.4-.17.1-.35.2-.52.3-.66.38-1.34.75-2.03,1.09-.13.07-.27.14-.4.21-.79.38-1.59.74-2.4,1.07-.19.08-.39.16-.59.23-.74.29-1.5.56-2.26.81-.11.04-.22.08-.33.11-.85.27-1.72.5-2.59.72-.21.05-.42.1-.64.15-.83.19-1.67.36-2.52.49-.07.01-.14.03-.21.04-.9.14-1.82.24-2.75.32-.22.02-.45.04-.67.05-.94.06-1.88.11-2.83.11-22.43,0-40.67-18.25-40.67-40.67s18.25-40.67,40.67-40.67,39.44,17.04,40.61,38.43c-.28-.24-.61-.41-.97-.49ZM77.3,238.67c5.52,20.84,3.51,25.94,2.59,27.1-.02,0-.04-.01-.06-.02-.35-.13-.65-.45-.82-.88l-7.83-19.34c-1.66-4.1-5.74-6.75-10.18-6.65h-.18c-4.37.13-8.18,2.86-9.7,6.97l-10.68,29.32c-.04.11-.09.21-.14.3-.16.28-.39.5-.65.6-.02,0-.04.02-.06.02-.93-1.09-3.14-6.24,2.36-29.27,1.28-5.38-1.69-10.78-6.92-12.56l-.48-.16c-.47-.16-.95-.28-1.43-.37-.06-.01-.12-.03-.19-.04-.45-.08-.9-.12-1.35-.14-.09,0-.18,0-.26-.01-.07,0-.15,0-.22,0-.39,0-.78.02-1.16.07-.09,0-.17.03-.26.04-.37.05-.74.12-1.1.21-.14.04-.28.07-.43.12-.34.1-.68.22-1.01.35-.1.04-.2.07-.3.12-.42.18-.82.4-1.21.63-.1.06-.2.13-.3.2-.3.2-.59.41-.88.64-.11.09-.21.17-.32.26-.36.31-.7.64-1.02,1.01l-13.93,15.87c-.3.34-.7.55-1.07.56h-.07c-1.06-2.93,2.54-12.89,16.17-31.56l.26-.59.07-.33c1.6-9.47,9.88-16.28,18.83-15.53l1.45.12.35-1.41c.2-.81.4-1.64.59-2.48.06-.28.12-.56.19-.84.13-.56.25-1.13.37-1.7.07-.34.14-.69.21-1.03.11-.52.22-1.04.32-1.57.07-.37.15-.74.22-1.12.1-.51.2-1.03.3-1.55.07-.38.14-.76.21-1.15.09-.52.19-1.03.28-1.55.07-.39.14-.78.2-1.17.09-.52.18-1.04.26-1.57.06-.39.13-.78.19-1.17.09-.54.17-1.07.25-1.61.06-.38.12-.76.18-1.14.09-.57.17-1.13.25-1.7.05-.35.1-.71.15-1.06.09-.63.18-1.26.26-1.89.04-.29.08-.58.12-.87.07-.53.14-1.06.21-1.58,1.85,2.01,3.83,3.95,5.95,5.82.77,19.81,8.19,38.82,21.4,55.3ZM52.89,250.91l1.43-3.88c.39-1.05.99-1.96,1.75-2.7,1.27-1.23,2.98-1.98,4.83-2.03h.19c.06,0,.13,0,.19,0,2.94,0,5.63,1.8,6.73,4.53l5.85,14.45c-4.26-.99-10.37-1.87-14.78-.24-3.47,1.28-8.15,3.88-12.16,6.28l5.96-16.4ZM25.69,239.43c1.94-2.21,5.03-3.01,7.87-2.05l.38.13c3.55,1.21,5.58,4.88,4.7,8.54-1.77,7.43-2.92,13.68-3.41,18.64-2.77-3.28-6.11-6.97-8.79-9.19-2.38-1.97-6.1-3.39-11.04-4.22-.03,0-.06,0-.09-.01l10.38-11.83ZM185.28,295.22s-.04,0-.06,0c-.37-.01-.76-.22-1.06-.57l-13.72-16.06c-2.82-3.29-7.29-4.55-11.39-3.21l-.48.16c-5.25,1.71-8.29,7.07-7.08,12.47,5.18,23,2.94,28.18,1.98,29.29-.02,0-.04-.01-.06-.02-.34-.15-.62-.48-.78-.92l-10.3-29.46c-1.46-4.13-5.23-6.91-9.6-7.08h-.18c-.14-.01-.28-.02-.42-.02-.04,0-.08,0-.11,0-.46,0-.92.04-1.37.1-.07,0-.13.02-.2.03-.46.07-.91.18-1.35.31-.05.02-.1.03-.15.05-.45.14-.89.31-1.32.51-.03.02-.07.03-.1.05-.44.21-.86.45-1.26.71-.02.01-.04.03-.07.05-.41.27-.8.57-1.17.9-.02.01-.03.03-.05.04-.37.33-.72.69-1.04,1.07-.01.01-.02.03-.04.05-.32.39-.62.8-.88,1.23,0,.01-.01.03-.02.04-.27.44-.51.9-.71,1.39l-8.08,19.23c-.18.42-.49.74-.83.87-.02,0-.04.01-.06.02-.91-1.16-2.98-6.45,3.38-28.63l.41-1.41-1.33-.61c-2.56-1.18-3.93-2.58-4.2-4.29-1.53-9.78,4.38-18.92,13.45-20.8l1.84-.38-21.69-70.44c10.96,4.03,23.1,6.3,35.89,6.3h.64c0,.1.01.2.02.3.02.28.03.56.05.86.02.35.04.72.06,1.08.02.28.03.56.05.85.04.66.08,1.33.12,2.03,0,.04,0,.08,0,.12.04.66.08,1.33.13,2.02.02.25.03.51.05.76.03.49.07.99.1,1.5.02.3.04.6.06.9.03.48.07.96.11,1.45.02.33.05.66.07.99.04.48.07.96.11,1.45.03.35.06.7.08,1.05.04.48.08.97.12,1.46.03.36.06.72.09,1.09.04.5.09,1.01.13,1.52.03.36.06.71.1,1.07.05.52.1,1.05.15,1.58.03.36.07.73.1,1.09.05.55.11,1.1.16,1.66.03.34.07.68.1,1.02.07.65.13,1.3.2,1.95.03.26.05.51.08.77.2,1.83.41,3.68.63,5.53.03.28.07.55.1.83.08.65.16,1.29.24,1.94.04.34.09.68.13,1.02.08.58.15,1.16.23,1.74.05.36.1.73.15,1.09.08.56.16,1.12.24,1.68.05.37.11.73.16,1.1.08.55.17,1.09.25,1.64.06.37.12.74.18,1.12.09.54.18,1.08.27,1.61.06.36.12.72.18,1.09.09.54.19,1.08.29,1.62.06.35.12.69.19,1.04.1.56.21,1.1.32,1.65.06.32.12.64.18.95.12.61.25,1.2.37,1.8.05.25.1.5.15.74.18.84.36,1.67.55,2.48l.33,1.42,1.46-.11c2.24-.16,4.43.15,6.48.86,6.15,2.12,11.04,7.79,12.14,14.89l.17.66.15.29c13.37,18.81,16.84,28.82,15.76,31.77ZM177.98,292.79c-3.09.48-5.71,1.2-7.83,2.14-1.27.57-2.36,1.21-3.26,1.94-2.71,2.18-6.09,5.83-8.91,9.07-.43-4.96-1.49-11.23-3.17-18.68-.83-3.67,1.24-7.31,4.81-8.48l.38-.12c.37-.12.75-.21,1.13-.27.11-.02.22-.02.34-.03.26-.03.53-.06.79-.06.31,0,.62.01.93.05.07,0,.14.02.22.03.25.04.49.08.73.14.09.02.19.05.28.08.25.07.5.16.74.26.05.02.11.04.16.06.29.13.56.28.83.44.07.04.14.09.21.14.2.13.4.28.59.43.07.06.15.12.22.18.24.21.47.44.69.69l10.23,11.97h-.09ZM127.91,300.99c-3,0-6.07.49-8.53,1.03l6.04-14.37c1.16-2.77,3.96-4.53,6.98-4.43h.19c2.97.13,5.53,2.02,6.52,4.82l7.13,20.37c-3.98-2.45-8.63-5.1-12.08-6.43-1.86-.72-4.04-.98-6.25-.98ZM275.58,271.89c-.29,1.7-1.68,3.09-4.25,4.23l-1.34.6.39,1.41c6.05,22.16,3.95,27.47,3.01,28.67-.02,0-.04-.01-.06-.02-.35-.13-.65-.45-.82-.88l-7.83-19.34c-1.66-4.1-5.77-6.76-10.18-6.65h-.18c-4.37.13-8.18,2.86-9.7,6.97l-10.68,29.32c-.16.43-.45.76-.79.91-.02,0-.04.02-.06.02-.93-1.09-3.14-6.24,2.36-29.27,1.28-5.38-1.69-10.78-6.92-12.56l-.48-.16c-.47-.16-.95-.28-1.43-.37-.06-.01-.12-.03-.18-.04-.45-.08-.91-.12-1.36-.15-.08,0-.17,0-.25-.01-.08,0-.15,0-.23,0-.39,0-.78.02-1.17.07-.08,0-.15.03-.23.04-.38.05-.76.12-1.14.22-.14.03-.27.07-.41.11-.35.1-.7.22-1.04.36-.09.04-.19.07-.28.11-.42.18-.82.4-1.22.64-.1.06-.2.13-.29.19-.3.2-.6.41-.88.64-.11.09-.21.17-.31.26-.36.31-.7.64-1.02,1.01l-13.93,15.87c-.31.35-.69.55-1.07.56h-.07c-1.06-2.93,2.53-12.89,16.17-31.56l.26-.6.07-.33c1.6-9.47,9.89-16.3,18.83-15.53l1.46.13.35-1.42c.2-.81.4-1.64.59-2.48.04-.19.08-.38.13-.57.14-.64.29-1.29.43-1.94.06-.29.12-.58.18-.88.12-.56.23-1.13.35-1.7.07-.33.13-.67.2-1.01.1-.54.21-1.07.31-1.62.07-.36.13-.73.2-1.09.1-.52.19-1.05.28-1.57.07-.38.13-.75.2-1.13.09-.52.18-1.05.26-1.57.06-.39.13-.77.19-1.16.08-.52.17-1.04.25-1.57.06-.39.12-.78.18-1.17.08-.53.16-1.06.24-1.59.06-.38.11-.77.17-1.15.08-.55.15-1.09.23-1.64.05-.37.1-.73.15-1.1.08-.57.15-1.13.22-1.7.05-.35.09-.69.14-1.04.08-.64.16-1.27.24-1.91.03-.27.07-.53.1-.8.11-.91.22-1.81.32-2.71,0-.03,0-.06.01-.09.1-.86.2-1.72.29-2.57.03-.27.06-.53.09-.8.07-.61.13-1.23.19-1.83.03-.31.06-.62.09-.93.06-.56.11-1.11.17-1.66.03-.31.06-.62.09-.93.05-.54.1-1.07.15-1.6.03-.31.06-.61.09-.92.05-.53.1-1.05.14-1.56.03-.29.05-.57.08-.85.05-.53.09-1.05.14-1.56.02-.26.04-.52.07-.78.05-.54.09-1.07.13-1.59.02-.21.03-.43.05-.64.05-.57.09-1.13.13-1.68.01-.15.02-.31.04-.46.05-.63.09-1.24.14-1.84,0-.07,0-.13.01-.2.09-1.26.17-2.45.25-3.56h.76c12.83,0,25.01-2.28,36.01-6.34l-22.76,70.66,1.83.41c9.04,2.01,14.83,11.22,13.18,20.98ZM240.43,308.33l5.96-16.4,1.43-3.88c.39-1.05.99-1.96,1.75-2.7,1.27-1.23,2.98-1.98,4.83-2.03h.19c.06,0,.13,0,.19,0,2.94,0,5.63,1.8,6.73,4.53l5.85,14.45c-4.27-.99-10.38-1.87-14.78-.24-3.47,1.28-8.15,3.88-12.16,6.28ZM210.68,292.64c-.58-.12-1.18-.24-1.8-.34-.03,0-.06,0-.09-.01l10.38-11.83c1.94-2.21,5.03-3.01,7.87-2.05l.38.13h0c3.55,1.21,5.58,4.88,4.7,8.54-1.77,7.43-2.92,13.68-3.41,18.64-2.78-3.28-6.11-6.98-8.79-9.19-2.08-1.72-5.19-3.02-9.24-3.88ZM349.82,246.24c-.83-3.67,1.24-7.31,4.81-8.48l.38-.12c.37-.12.75-.21,1.13-.27.12-.02.24-.02.36-.03.26-.03.51-.06.77-.06.31,0,.63.01.93.05.07,0,.13.02.19.03.25.04.51.09.76.15.09.02.18.05.27.07.26.08.51.16.76.27.05.02.1.04.15.06.29.13.57.28.84.44.07.04.14.09.21.14.2.13.4.28.59.44.07.06.15.12.22.18.24.21.47.44.69.69l10.23,11.97s-.06,0-.09.01c-4.95.77-8.68,2.15-11.09,4.08-2.71,2.18-6.09,5.83-8.91,9.07-.43-4.97-1.49-11.23-3.17-18.68ZM354.05,234.36l-.48.16c-5.25,1.71-8.3,7.07-7.08,12.47,5.18,23,2.94,28.18,1.98,29.29-.02,0-.04-.01-.06-.02-.34-.15-.63-.48-.78-.92l-10.3-29.47c-1.46-4.12-5.24-6.9-9.6-7.08h-.18c-.14-.01-.28-.02-.42-.02-.04,0-.08,0-.11,0-.46,0-.92.04-1.37.1-.07,0-.13.02-.2.03-.46.07-.91.18-1.35.31-.05.02-.1.03-.15.05-.45.14-.89.31-1.32.51-.03.02-.07.03-.1.05-.44.21-.86.45-1.26.71-.02.02-.04.03-.07.05-.41.27-.8.57-1.17.9-.02.01-.03.03-.05.05-.37.33-.72.69-1.04,1.07-.01.02-.02.03-.04.05-.32.39-.62.79-.88,1.23,0,.01-.02.03-.02.04-.27.44-.51.9-.71,1.38l-8.08,19.24c-.18.43-.48.74-.83.87-.02,0-.04.01-.06.02-.88-1.13-2.87-6.19,2.91-26.94,13.12-16.44,20.49-35.38,21.25-55.12,2.44-2.15,4.71-4.41,6.8-6.76,0,.07.02.14.02.21.09.77.18,1.53.27,2.3.04.33.08.67.12,1,.07.59.15,1.18.22,1.77.05.37.1.75.15,1.12.07.55.15,1.1.22,1.65.05.39.11.77.16,1.16.08.54.15,1.08.23,1.61.06.39.12.78.18,1.17.08.53.16,1.05.24,1.57.06.39.12.79.19,1.18.08.52.17,1.04.26,1.56.06.38.13.77.19,1.15.09.52.18,1.05.28,1.57.07.37.13.74.2,1.11.1.54.2,1.07.31,1.6.07.34.13.68.2,1.01.12.59.24,1.17.36,1.75.06.27.11.55.17.82.18.84.37,1.68.56,2.49l.33,1.42,1.45-.11c8.96-.64,17.15,6.28,18.62,15.75l.17.65.15.29c13.37,18.81,16.84,28.82,15.76,31.77h-.06c-.37-.01-.76-.23-1.06-.57l-13.72-16.06c-2.82-3.29-7.29-4.55-11.39-3.21ZM320.43,246.62c1.16-2.77,3.99-4.54,6.98-4.43h.19c1.81.08,3.47.82,4.71,2.02.03.03.06.05.09.08.15.15.27.31.41.47.1.11.2.22.29.34.04.06.08.12.12.18.37.53.68,1.1.9,1.73l7.13,20.37c-3.68-2.26-8.54-5.07-12.08-6.44-1.86-.72-4.04-.98-6.25-.98-3,0-6.07.49-8.53,1.03l6.04-14.37ZM332.5,177.2c-.34-10.74-2.64-21.1-6.62-30.86,5.82-9.57,9.11-20.33,9.11-31.72,0-4.96-.63-9.83-1.83-14.55,10.85,10.96,17.1,24.21,17.1,38.25s-6.6,27.91-17.76,38.89ZM62.5,146.33c-3.98,9.77-6.29,20.12-6.62,30.86-11.16-10.98-17.76-24.4-17.76-38.89s6.24-27.23,17.11-38.22c-1.2,4.72-1.84,9.58-1.84,14.53,0,11.39,3.29,22.15,9.11,31.72ZM60.38,179.96c0-10.06,1.81-19.79,5.19-29.01,5.25,7.24,12,13.67,19.92,18.98-3.59,10.63-5.54,21.97-5.54,33.73,0,1.52.05,3.05.11,4.57.02.35.03.71.05,1.06.08,1.5.19,3,.33,4.5.02.17.04.34.06.52.14,1.37.31,2.74.5,4.11.05.33.09.66.14,1,.22,1.48.47,2.95.76,4.41.05.26.11.52.16.78.26,1.3.55,2.6.87,3.9.07.29.13.58.21.86.36,1.45.76,2.89,1.18,4.32.09.3.18.6.28.9.4,1.29.81,2.58,1.26,3.86.07.21.14.42.21.63.5,1.42,1.04,2.82,1.6,4.22.05.14.1.27.16.41-17.78-18.25-27.45-40.53-27.45-63.74ZM96.74,251.95c-8.02-14.82-12.25-31.5-12.25-48.29,0-10.87,1.73-21.37,4.95-31.24,3.68,2.19,7.57,4.16,11.65,5.87l21.41,69.55c-6.32,1.96-11.15,7.01-13.32,13.25-4.37-2.82-8.53-5.87-12.44-9.13ZM172.55,261.81c-1.73-10.53-10.71-18.47-20.74-18.52-4.13-18.57-5.96-43.5-6.7-57.11h98.04c-.91,13.58-3.05,38.39-7.44,56.97-.05,0-.11,0-.16,0-9.97,0-18.96,7.8-20.82,18.25-7.7,10.58-12.09,18.13-14.42,23.53-2.03.07-4.07.12-6.12.12-2.61,0-5.21-.07-7.81-.19-2.33-5.38-6.57-12.8-13.83-23.04ZM264.94,248.07l22.5-69.85c4.02-1.7,7.86-3.63,11.49-5.8,3.22,9.87,4.95,20.37,4.95,31.24,0,16.79-4.23,33.47-12.25,48.29-4.21,3.52-8.72,6.77-13.46,9.77-2.05-6.37-6.85-11.59-13.22-13.65ZM300.71,243.28c.56-1.39,1.1-2.8,1.6-4.21.07-.21.14-.42.22-.63.44-1.28.86-2.56,1.26-3.86.09-.3.19-.6.27-.9.42-1.43.82-2.88,1.18-4.33.07-.28.14-.57.2-.85.31-1.3.6-2.6.87-3.91.05-.26.11-.51.16-.77.29-1.47.54-2.94.76-4.42.05-.33.09-.66.14-.99.19-1.37.36-2.74.5-4.11.02-.17.04-.34.06-.51.15-1.5.25-3,.33-4.5.02-.35.03-.71.05-1.06.07-1.52.11-3.05.11-4.57,0-11.77-1.95-23.1-5.54-33.73,7.92-5.31,14.67-11.74,19.92-18.98,3.38,9.22,5.19,18.95,5.19,29.01,0,23.21-9.66,45.49-27.45,63.74.06-.14.1-.28.16-.42Z"/>
        <path class="cls-1" d="M38.11,138.31c0,14.49,6.6,27.91,17.76,38.89.34-10.74,2.64-21.1,6.62-30.86-5.82-9.57-9.11-20.33-9.11-31.72,0-4.95.64-9.81,1.84-14.53-10.88,11-17.11,24.26-17.11,38.22Z"/>
        <path class="cls-1" d="M350.25,138.31c0-14.04-6.26-27.29-17.1-38.25,1.2,4.72,1.83,9.59,1.83,14.55,0,11.39-3.29,22.15-9.11,31.72,3.98,9.77,6.29,20.12,6.62,30.86,11.16-10.98,17.76-24.39,17.76-38.89Z"/>
        <path class="cls-1" d="M87.67,243.29c-.56-1.4-1.1-2.8-1.6-4.22-.07-.21-.14-.42-.21-.63-.44-1.28-.86-2.56-1.26-3.86-.09-.3-.19-.6-.28-.9-.42-1.43-.82-2.87-1.18-4.32-.07-.29-.14-.57-.21-.86-.31-1.29-.6-2.59-.87-3.9-.05-.26-.11-.52-.16-.78-.29-1.47-.54-2.94-.76-4.41-.05-.33-.1-.66-.14-1-.19-1.37-.36-2.73-.5-4.11-.02-.17-.04-.34-.06-.52-.14-1.5-.25-2.99-.33-4.5-.02-.35-.04-.71-.05-1.06-.07-1.52-.11-3.04-.11-4.57,0-11.77,1.95-23.1,5.54-33.73-7.92-5.31-14.67-11.74-19.92-18.98-3.38,9.22-5.19,18.95-5.19,29.01,0,23.21,9.66,45.49,27.45,63.74-.06-.14-.1-.27-.16-.41Z"/>
        <path class="cls-1" d="M327.99,179.96c0-10.06-1.81-19.79-5.19-29.01-5.25,7.24-12,13.67-19.92,18.98,3.59,10.63,5.54,21.97,5.54,33.73,0,1.53-.05,3.05-.11,4.57-.02.35-.03.71-.05,1.06-.08,1.5-.19,3-.33,4.5-.02.17-.04.34-.06.51-.14,1.37-.31,2.74-.5,4.11-.05.33-.09.66-.14.99-.22,1.48-.48,2.95-.76,4.42-.05.26-.11.51-.16.77-.27,1.31-.56,2.61-.87,3.91-.07.28-.13.57-.2.85-.36,1.45-.76,2.89-1.18,4.33-.09.3-.18.6-.27.9-.39,1.29-.81,2.58-1.26,3.86-.07.21-.14.42-.22.63-.5,1.42-1.04,2.82-1.6,4.21-.06.14-.1.28-.16.42,17.78-18.25,27.45-40.53,27.45-63.74Z"/>
        <path class="cls-3" d="M200.3,284.93c2.33-5.4,6.72-12.95,14.42-23.53,1.86-10.45,10.85-18.25,20.82-18.25.05,0,.11,0,.16,0,4.39-18.58,6.53-43.39,7.44-56.97h-98.04c.74,13.61,2.57,38.54,6.7,57.11,10.04.04,19.01,7.99,20.74,18.52,7.26,10.25,11.5,17.66,13.83,23.04,2.59.12,5.2.19,7.81.19,2.04,0,4.08-.04,6.12-.12Z"/>
        <path class="cls-3" d="M122.51,247.83l-21.41-69.55c-4.08-1.71-7.98-3.67-11.65-5.87-3.22,9.87-4.95,20.37-4.95,31.24,0,16.79,4.23,33.47,12.25,48.29,3.91,3.26,8.07,6.31,12.44,9.13,2.17-6.24,7-11.29,13.32-13.25Z"/>
        <path class="cls-3" d="M291.63,251.95c8.02-14.82,12.25-31.5,12.25-48.29,0-10.87-1.73-21.37-4.95-31.24-3.63,2.17-7.47,4.1-11.49,5.8l-22.5,69.85c6.38,2.07,11.17,7.28,13.22,13.65,4.74-3,9.25-6.26,13.46-9.77Z"/>
        <path class="cls-3" d="M228.72,305.71c.49-4.96,1.64-11.21,3.41-18.64.87-3.66-1.15-7.33-4.7-8.54h0s-.38-.13-.38-.13c-2.84-.96-5.93-.16-7.87,2.05l-10.38,11.83s.06,0,.09.01c.62.1,1.22.22,1.8.34,4.05.86,7.16,2.16,9.24,3.88,2.68,2.21,6.02,5.91,8.79,9.19Z"/>
        <path class="cls-3" d="M267.36,302.29l-5.85-14.45c-1.1-2.73-3.79-4.53-6.73-4.53-.06,0-.12,0-.19,0h-.19c-1.86.06-3.56.8-4.83,2.04-.76.74-1.37,1.66-1.75,2.7l-1.43,3.88-5.96,16.4c4.01-2.4,8.69-4.99,12.16-6.28,4.4-1.63,10.51-.76,14.78.24Z"/>
        <path class="cls-1" d="M262.4,250.91l-1.83-.41,22.76-70.66c-10.99,4.06-23.18,6.34-36.01,6.34h-.76c-.07,1.11-.16,2.3-.25,3.56,0,.07,0,.13-.01.2-.04.6-.09,1.21-.14,1.84-.01.15-.02.31-.04.46-.04.55-.09,1.11-.13,1.68-.02.21-.03.43-.05.64-.04.52-.09,1.05-.13,1.59-.02.26-.04.52-.07.78-.04.52-.09,1.04-.14,1.56-.02.28-.05.57-.08.85-.05.52-.09,1.04-.14,1.56-.03.3-.06.61-.09.92-.05.53-.1,1.06-.15,1.6-.03.31-.06.62-.09.93-.05.55-.11,1.1-.17,1.66-.03.31-.06.62-.09.93-.06.61-.13,1.22-.19,1.83-.03.27-.06.53-.09.8-.09.85-.19,1.71-.29,2.57,0,.03,0,.06-.01.09-.1.9-.21,1.8-.32,2.71-.03.26-.07.53-.1.8-.08.64-.16,1.27-.24,1.91-.04.35-.09.69-.14,1.04-.07.57-.15,1.13-.22,1.7-.05.37-.1.73-.15,1.1-.08.55-.15,1.09-.23,1.64-.06.38-.11.77-.17,1.15-.08.53-.16,1.06-.24,1.59-.06.39-.12.78-.18,1.17-.08.52-.16,1.05-.25,1.57-.06.39-.12.77-.19,1.16-.09.53-.17,1.05-.26,1.57-.06.38-.13.76-.2,1.13-.09.53-.19,1.05-.28,1.57-.07.36-.13.73-.2,1.09-.1.54-.21,1.08-.31,1.62-.07.34-.13.67-.2,1.01-.11.57-.23,1.13-.35,1.7-.06.29-.12.59-.18.88-.14.66-.28,1.3-.43,1.94-.04.19-.08.38-.13.57-.19.84-.39,1.66-.59,2.48l-.35,1.42-1.46-.13c-8.94-.77-17.22,6.06-18.83,15.53l-.07.33-.26.6c-13.63,18.67-17.23,28.64-16.17,31.56h.07c.37,0,.76-.21,1.07-.56l13.93-15.87c.32-.36.67-.69,1.02-1.01.1-.09.21-.17.31-.26.28-.23.58-.44.88-.64.1-.06.19-.13.29-.19.39-.24.8-.45,1.22-.64.09-.04.18-.07.28-.11.34-.14.69-.26,1.04-.36.13-.04.27-.08.41-.11.38-.09.76-.17,1.14-.22.08-.01.15-.03.23-.04.39-.04.78-.07,1.17-.07.08,0,.15,0,.23,0,.08,0,.17,0,.25.01.45.02.91.07,1.36.15.06.01.12.03.18.04.48.09.96.21,1.43.37l.48.16c5.23,1.78,8.2,7.18,6.92,12.56-5.5,23.02-3.29,28.18-2.36,29.27.02,0,.04-.01.06-.02.35-.14.64-.48.79-.91l10.68-29.32c1.52-4.11,5.33-6.84,9.7-6.96h.18c4.41-.11,8.52,2.55,10.18,6.65l7.83,19.34c.17.43.47.75.82.88.02,0,.04.02.06.02.94-1.19,3.04-6.51-3.01-28.67l-.39-1.41,1.34-.6c2.58-1.14,3.97-2.53,4.25-4.23,1.65-9.76-4.14-18.97-13.18-20.98Z"/>
        <path class="cls-3" d="M167.84,280.81c-.21-.25-.45-.48-.69-.69-.07-.06-.14-.12-.22-.18-.19-.16-.39-.3-.59-.43-.07-.05-.14-.1-.21-.14-.27-.16-.55-.31-.83-.44-.05-.02-.11-.04-.16-.06-.24-.1-.49-.19-.74-.26-.09-.03-.19-.05-.28-.08-.24-.06-.49-.11-.73-.14-.07-.01-.14-.03-.22-.03-.31-.04-.61-.05-.93-.05-.26,0-.53.03-.79.06-.11.01-.22.01-.34.03-.38.06-.75.15-1.13.27l-.38.12c-3.57,1.17-5.64,4.81-4.81,8.48,1.68,7.45,2.74,13.72,3.17,18.68,2.81-3.24,6.2-6.89,8.91-9.07.9-.73,1.99-1.37,3.26-1.94,2.12-.94,4.73-1.66,7.83-2.14h.09s-10.23-11.98-10.23-11.98Z"/>
        <path class="cls-3" d="M139.11,288.04c-.99-2.8-3.56-4.69-6.52-4.82h-.19c-3.01-.1-5.82,1.66-6.98,4.43l-6.04,14.37c2.46-.54,5.53-1.03,8.53-1.03,2.21,0,4.39.27,6.25.98,3.45,1.33,8.1,3.98,12.08,6.43l-7.13-20.37Z"/>
        <path class="cls-1" d="M169.52,263.45l-.15-.29-.17-.66c-1.11-7.1-6-12.77-12.14-14.89-2.05-.71-4.24-1.02-6.48-.86l-1.46.11-.33-1.42c-.19-.81-.37-1.64-.55-2.48-.05-.24-.1-.5-.15-.74-.13-.6-.25-1.19-.37-1.8-.06-.31-.12-.63-.18-.95-.11-.55-.21-1.1-.32-1.65-.06-.34-.13-.69-.19-1.04-.1-.54-.19-1.08-.29-1.62-.06-.36-.12-.72-.18-1.09-.09-.54-.18-1.07-.27-1.61-.06-.37-.12-.74-.18-1.12-.09-.54-.17-1.09-.25-1.64-.06-.37-.11-.73-.16-1.1-.08-.56-.16-1.12-.24-1.68-.05-.36-.1-.73-.15-1.09-.08-.58-.16-1.16-.23-1.74-.04-.34-.09-.68-.13-1.02-.08-.65-.16-1.29-.24-1.94-.03-.28-.07-.55-.1-.83-.22-1.85-.44-3.7-.63-5.53-.03-.26-.05-.51-.08-.77-.07-.65-.14-1.3-.2-1.95-.03-.34-.07-.68-.1-1.02-.06-.56-.11-1.11-.16-1.66-.04-.37-.07-.73-.1-1.09-.05-.53-.1-1.06-.15-1.58-.03-.36-.06-.72-.1-1.07-.04-.51-.09-1.02-.13-1.52-.03-.36-.06-.73-.09-1.09-.04-.49-.08-.98-.12-1.46-.03-.35-.06-.7-.08-1.05-.04-.49-.08-.97-.11-1.45-.03-.33-.05-.66-.07-.99-.04-.49-.07-.97-.11-1.45-.02-.3-.04-.6-.06-.9-.04-.51-.07-1-.1-1.5-.02-.25-.04-.51-.05-.76-.05-.69-.09-1.36-.13-2.02,0-.04,0-.08,0-.12-.04-.69-.08-1.37-.12-2.03-.02-.29-.03-.56-.05-.85-.02-.36-.04-.73-.06-1.08-.02-.29-.03-.57-.05-.86,0-.1-.01-.2-.02-.3h-.64c-12.78,0-24.93-2.26-35.89-6.3l21.69,70.44-1.84.38c-9.07,1.89-14.97,11.03-13.45,20.8.27,1.71,1.64,3.11,4.2,4.29l1.33.61-.41,1.41c-6.36,22.17-4.29,27.47-3.38,28.63.02,0,.04-.01.06-.02.35-.12.66-.45.83-.87l8.08-19.23c.2-.48.44-.94.71-1.39,0-.01.01-.03.02-.04.27-.43.56-.84.88-1.23.01-.01.02-.03.04-.05.32-.38.67-.74,1.04-1.07.02-.01.03-.03.05-.04.37-.33.76-.63,1.17-.9.02-.02.04-.03.07-.05.4-.27.83-.5,1.26-.71.03-.02.07-.03.1-.05.43-.2.87-.37,1.32-.51.05-.02.1-.03.15-.05.44-.13.89-.23,1.35-.31.07-.01.13-.02.2-.03.45-.06.91-.1,1.37-.1.04,0,.08,0,.11,0,.14,0,.28,0,.42,0h.18c4.37.19,8.14,2.97,9.6,7.09l10.3,29.46c.15.44.44.77.78.92.02,0,.04.02.06.02.97-1.12,3.2-6.29-1.98-29.29-1.22-5.4,1.83-10.76,7.08-12.47l.48-.16c4.11-1.35,8.58-.09,11.39,3.21l13.72,16.06c.3.35.69.56,1.06.57.02,0,.04,0,.06,0,1.08-2.95-2.39-12.96-15.76-31.77Z"/>
        <path class="cls-1" d="M57.94,114.61c0,36.96,37.28,67.02,83.11,67.02h106.28c45.83,0,83.11-30.07,83.11-67.02,0-21.18-12.39-40.55-32.23-52.97-4.35,19.1-21.46,33.4-41.86,33.4-23.68,0-42.95-19.27-42.95-42.95,0-14.39,7.12-27.14,18.02-34.94-12.05-5.37-25.79-8.35-40.1-8.35-13.01,0-25.47,2.42-36.62,6.83,12.17,7.59,20.28,21.09,20.28,36.46,0,23.68-19.27,42.95-42.95,42.95-20.4,0-37.51-14.3-41.86-33.39-19.92,12.48-32.23,31.93-32.23,52.96ZM185.93,174.34h0,0s0,0,0,0ZM89.52,113.75c5.52,22.7,20.83,44.15,94.82,47.41l13.31-.08c89.75-.29,96.1-26.37,101.2-47.33,1.2-4.92,1.8-9.58,2.29-13.32,1.01-7.79,1.68-12.94,6.09-13.16,2.87-.13,4.76.68,5.64,2.43,3.05,6.11-9.87,22.12-11.75,24.4-2.29,9.58-7.11,23.59-22.38,35.16-16.3,12.36-41.6,19.48-75.19,21.15-.2.01-4.78.31-7.6.31-.25,0-.48,0-.7,0-2.65.05-8.05-.29-8.28-.3-33.68-1.68-59.34-8.79-76.25-21.14-12.26-8.96-19.94-20.47-23.46-35.17-1.88-2.29-14.8-18.31-11.75-24.4.88-1.76,2.77-2.58,5.63-2.43,4.41.22,5.08,5.37,6.09,13.16.49,3.74,1.09,8.4,2.29,13.33Z"/>
        <path class="cls-1" d="M132.03,11.42c-21.67,0-39.44,17.04-40.61,38.43.08-.07.16-.14.25-.2.12-.09.26-.16.4-.22.11-.05.22-.07.34-.1,1.44-3.15,4.92-10.23,9.96-16.9,8.98-11.89,18.76-17,28.28-14.79,11.77,2.74,21.6,13.21,27.77,21.52,6.6,8.89,10.59,17.35,10.63,17.43l.19.42-.15.44c-.1.28-10.1,28.02-36.97,28.02-3.66,0-7.5-.52-11.43-1.56-.82-.22-1.63-.44-2.42-.67-.32-.09-.62-.19-.93-.29-.47-.14-.94-.29-1.39-.44-.34-.11-.67-.24-1.01-.35-.4-.14-.82-.28-1.21-.43-.34-.13-.67-.26-1.01-.39-.37-.14-.75-.29-1.11-.44-.34-.14-.66-.29-.99-.43-.34-.15-.69-.3-1.03-.45-.33-.15-.64-.31-.96-.47-.32-.16-.65-.31-.96-.47-.31-.16-.61-.33-.91-.49-.3-.16-.61-.32-.9-.49-.3-.17-.58-.35-.86-.52-.28-.17-.57-.34-.85-.52-.28-.18-.54-.36-.81-.55-.27-.18-.54-.36-.8-.54-.26-.19-.51-.38-.76-.57-.25-.19-.5-.37-.75-.57-.25-.2-.48-.4-.71-.6-.23-.2-.47-.39-.69-.59-.23-.2-.44-.41-.66-.62-.21-.2-.43-.41-.64-.61-.21-.21-.41-.43-.61-.65-.2-.21-.4-.42-.59-.64-.19-.22-.37-.45-.56-.67-.18-.22-.37-.44-.54-.66-.18-.23-.34-.46-.51-.7-.16-.23-.33-.46-.49-.69-.16-.24-.3-.48-.45-.72-.1-.17-.22-.33-.32-.51.03.07.05.14.08.21.34.82.69,1.64,1.08,2.43.04.09.09.18.14.27.36.72.74,1.43,1.14,2.13.1.18.2.36.31.53.45.75.91,1.49,1.4,2.22.08.11.16.22.24.34.44.63.9,1.25,1.38,1.86.12.16.24.31.37.47.55.68,1.11,1.33,1.7,1.97.11.12.23.24.34.35.52.55,1.06,1.09,1.61,1.61.13.13.27.26.4.38.64.59,1.29,1.16,1.96,1.7.14.12.29.23.43.34.59.47,1.2.92,1.82,1.36.14.1.27.2.41.29.72.49,1.45.96,2.2,1.4.17.1.34.2.51.3.67.38,1.35.75,2.04,1.1.13.07.26.14.39.2.79.39,1.59.74,2.41,1.08.19.08.39.15.58.23.75.29,1.5.57,2.27.82.11.04.22.08.32.11.85.27,1.72.5,2.59.72.21.05.42.1.63.15.83.19,1.67.36,2.52.49.07.01.14.03.2.04.91.14,1.82.24,2.75.32.22.02.45.04.67.05.94.06,1.88.11,2.83.11,22.43,0,40.67-18.25,40.67-40.67s-18.25-40.67-40.67-40.67Z"/>
        <path class="cls-4" d="M98.28,64.08c3.72,6.6,11.56,11.46,23.32,14.44,25.94,6.58,37.86-13.4,41.09-20.16-.03-.04-.07-.08-.1-.12-.08-.12-.15-.26-.2-.4-.06-.14-.1-.27-.14-.42-.02-.15-.04-.3-.04-.44,0-.55.21-1.07.57-1.49-3.34-6.23-15.76-27.38-32.24-31.66-.26-.07-.52-.15-.79-.21-1.19-.27-2.38-.4-3.58-.4-6.68,0-13.37,4.18-19.96,12.48-6.02,7.59-9.68,15.94-9.83,16.29-.04.17-1.59,5.88,1.91,12.08ZM126.93,27.5c12.72,0,23.06,10.35,23.06,23.06s-10.35,23.06-23.06,23.06-23.06-10.35-23.06-23.06,10.35-23.06,23.06-23.06Z"/>
        <path class="cls-2" d="M126.93,71.35c11.46,0,20.79-9.33,20.79-20.79s-9.32-20.79-20.79-20.79-20.79,9.33-20.79,20.79,9.33,20.79,20.79,20.79ZM126.62,34.77c8.34,0,15.13,6.79,15.13,15.13s-6.79,15.13-15.13,15.13-15.13-6.79-15.13-15.13,6.79-15.13,15.13-15.13Z"/>
        <path class="cls-5" d="M103.87,50.57c0,12.72,10.35,23.06,23.06,23.06s23.06-10.35,23.06-23.06-10.35-23.06-23.06-23.06-23.06,10.35-23.06,23.06ZM106.14,50.57c0-11.46,9.33-20.79,20.79-20.79s20.79,9.33,20.79,20.79-9.32,20.79-20.79,20.79-20.79-9.33-20.79-20.79Z"/>
        <path class="cls-5" d="M126.62,65.03c8.34,0,15.13-6.79,15.13-15.13s-6.79-15.13-15.13-15.13-15.13,6.79-15.13,15.13,6.79,15.13,15.13,15.13Z"/>
        <path class="cls-1" d="M256.34,11.42c-22.43,0-40.67,18.25-40.67,40.67s18.25,40.67,40.67,40.67c.95,0,1.89-.04,2.83-.11.23-.02.45-.03.67-.05.92-.08,1.84-.18,2.75-.32.07-.01.14-.03.21-.04.85-.14,1.69-.3,2.52-.49.21-.05.42-.1.64-.15.87-.21,1.74-.45,2.59-.72.11-.04.22-.08.33-.11.76-.25,1.52-.52,2.26-.81.2-.08.39-.15.59-.23.81-.33,1.62-.69,2.4-1.07.14-.07.27-.14.4-.21.69-.35,1.36-.71,2.03-1.09.17-.1.35-.2.52-.3.75-.44,1.48-.91,2.19-1.4.14-.1.28-.2.42-.3.62-.43,1.22-.88,1.81-1.35.15-.12.3-.23.44-.35.67-.55,1.32-1.11,1.96-1.7.14-.13.28-.26.41-.39.55-.52,1.08-1.05,1.59-1.6.12-.12.24-.24.35-.37.58-.64,1.15-1.29,1.69-1.96.13-.16.25-.32.38-.48.47-.6.93-1.21,1.37-1.84.08-.12.17-.23.25-.35.49-.72.95-1.45,1.4-2.2.11-.18.21-.37.32-.55.39-.69.77-1.39,1.12-2.1.05-.1.1-.2.15-.3.38-.79.74-1.6,1.07-2.42.03-.07.06-.15.09-.22-.11.19-.23.37-.35.56-.14.22-.27.44-.41.66-.17.25-.35.5-.52.74-.15.22-.31.43-.47.64-.18.24-.38.47-.57.71-.17.21-.34.42-.52.63-.2.23-.41.45-.62.68-.19.2-.38.41-.58.61-.22.22-.45.43-.68.65-.21.2-.41.39-.62.59-.24.21-.49.42-.73.62-.22.19-.44.38-.67.56-.25.2-.52.4-.79.6-.24.18-.47.36-.72.54-.28.2-.56.38-.85.58-.25.17-.5.34-.76.51-.3.19-.61.37-.91.55-.27.16-.53.32-.8.48-.32.18-.65.36-.98.54-.28.15-.55.3-.83.45-.35.18-.71.35-1.07.52-.28.14-.56.28-.85.41-.38.17-.77.34-1.16.51-.29.12-.56.25-.86.37-.41.17-.83.33-1.25.49-.29.11-.57.23-.87.34-.45.17-.91.32-1.37.48-.29.1-.56.2-.85.3-.52.17-1.05.33-1.59.5-.25.08-.48.16-.73.23-.79.23-1.6.46-2.42.67-3.93,1.03-7.78,1.56-11.43,1.56-1.68,0-3.3-.11-4.85-.31-.3-.04-.58-.1-.87-.14-.47-.07-.95-.14-1.4-.23-.32-.06-.63-.15-.95-.22-.41-.09-.83-.18-1.24-.29-.23-.06-.44-.14-.67-.2-.48-.14-.96-.27-1.42-.43-.19-.06-.37-.14-.56-.21-.48-.17-.97-.34-1.44-.53-.2-.08-.4-.18-.6-.26-.44-.19-.88-.38-1.31-.58-.2-.09-.38-.2-.57-.3-.42-.21-.84-.42-1.24-.64-.19-.11-.38-.22-.57-.33-.39-.22-.78-.45-1.16-.68-.2-.12-.39-.26-.58-.39-.35-.23-.71-.46-1.06-.7-.2-.14-.39-.29-.59-.44-.32-.24-.65-.47-.96-.71-.2-.16-.4-.33-.6-.49-.29-.24-.59-.47-.87-.71-.2-.17-.38-.34-.57-.51-.27-.24-.55-.48-.81-.73-.2-.19-.4-.39-.59-.58-.24-.23-.48-.46-.71-.69-.21-.22-.41-.43-.61-.65-.2-.21-.41-.43-.6-.64-.21-.23-.4-.46-.6-.69-.18-.2-.36-.41-.54-.61-.2-.24-.39-.48-.58-.71-.16-.2-.33-.39-.48-.59-.2-.26-.39-.51-.58-.76-.13-.18-.27-.35-.4-.53-.21-.28-.4-.56-.59-.83-.1-.15-.21-.3-.31-.44-.24-.35-.46-.69-.68-1.02-.05-.07-.1-.15-.15-.22-3.19-4.92-4.61-8.89-4.65-9l-.15-.44.2-.42c.04-.08,4.03-8.54,10.63-17.43,6.17-8.31,16-18.78,27.77-21.52,9.52-2.21,19.3,2.9,28.28,14.79,5.08,6.73,8.58,13.87,9.97,16.93.36.08.69.24.97.49-1.17-21.39-18.93-38.43-40.61-38.43Z"/>
        <path class="cls-4" d="M291.97,51.93c-.55-1.26-14.37-32.55-33.34-28.3-16.87,3.79-29.63,25.53-33.02,31.87.06.07.13.15.18.23.08.12.15.25.2.39s.1.28.14.43c.02.15.05.3.05.44,0,.5-.19.99-.49,1.38,3.23,6.76,15.16,26.74,41.09,20.16,11.75-2.99,19.6-7.84,23.32-14.44,3.49-6.2,1.95-11.91,1.88-12.15ZM261.44,73.63c-12.72,0-23.06-10.35-23.06-23.06s10.35-23.06,23.06-23.06,23.06,10.35,23.06,23.06-10.35,23.06-23.06,23.06Z"/>
        <path class="cls-2" d="M261.44,29.78c-11.46,0-20.79,9.33-20.79,20.79s9.32,20.79,20.79,20.79,20.79-9.33,20.79-20.79-9.32-20.79-20.79-20.79ZM276.88,49.9c0,8.34-6.79,15.13-15.13,15.13s-15.13-6.79-15.13-15.13,6.79-15.13,15.13-15.13,15.13,6.79,15.13,15.13Z"/>
        <path class="cls-5" d="M261.44,27.5c-12.72,0-23.06,10.35-23.06,23.06s10.35,23.06,23.06,23.06,23.06-10.35,23.06-23.06-10.35-23.06-23.06-23.06ZM282.23,50.57c0,11.46-9.32,20.79-20.79,20.79s-20.79-9.33-20.79-20.79,9.32-20.79,20.79-20.79,20.79,9.33,20.79,20.79Z"/>
        <path class="cls-5" d="M261.75,34.77c-8.34,0-15.13,6.79-15.13,15.13s6.79,15.13,15.13,15.13,15.13-6.79,15.13-15.13-6.79-15.13-15.13-15.13Z"/>
        <polygon class="cls-5" points="185.93 174.34 185.93 174.34 185.93 174.34 185.93 174.34"/>
        <path class="cls-5" d="M81.14,87.27c-2.87-.15-4.76.68-5.63,2.43-3.04,6.1,9.87,22.12,11.75,24.4,3.52,14.71,11.2,26.21,23.46,35.17,16.91,12.35,42.57,19.47,76.25,21.14.23.01,5.63.36,8.28.3.22,0,.45,0,.7,0,2.82,0,7.4-.3,7.6-.31,33.59-1.67,58.88-8.79,75.19-21.15,15.26-11.57,20.09-25.58,22.38-35.16,1.89-2.29,14.81-18.29,11.75-24.4-.87-1.75-2.77-2.57-5.64-2.43-4.41.22-5.08,5.37-6.09,13.16-.49,3.74-1.09,8.4-2.29,13.32-5.1,20.96-11.44,47.04-101.2,47.33l-13.31.08c-73.99-3.25-89.3-24.71-94.82-47.41-1.2-4.92-1.8-9.58-2.29-13.33-1.01-7.79-1.68-12.93-6.09-13.16Z"/>
      </g>
    </g>
  </g>
</svg>