<?xml version="1.0" encoding="UTF-8"?>
<svg id="Layer_2" data-name="Layer 2" xmlns="http://www.w3.org/2000/svg" viewBox="0 0 552.88 600">
  <defs>
    <style>
      .cls-1 {
        fill: none;
      }

      .cls-1, .cls-2, .cls-3, .cls-4 {
        stroke-width: 0px;
      }

      .cls-2 {
        fill: #ffde17;
      }

      .cls-3 {
        fill: #de9b17;
      }

      .cls-4 {
        fill: #231f20;
      }
    </style>
  </defs>
  <g id="Layer_1-2" data-name="Layer 1">
    <g>
      <path class="cls-1" d="M236.5,317.35l.11-2.27c-9.77-.72-19.68-1.67-29.54-2.84,1.02,5.94,2.1,11.69,3.22,17.18,7.45-5.02,16.24-9.07,26.21-12.08Z"/>
      <path class="cls-1" d="M234.59,355.5l1.16-23.29c-8.84,3.09-16.26,7.21-22.12,12.28.75,3.14,1.51,6.18,2.27,9.07,6.17.74,12.44,1.39,18.68,1.93Z"/>
      <path class="cls-1" d="M232.41,399.1l1.14-22.78c-3.7-.31-7.45-.65-11.18-1.03,2.88,8.59,5.96,16.49,9.2,23.56.28.08.56.16.84.25Z"/>
      <path class="cls-1" d="M214.41,418.09c.77.68,1.55,1.35,2.31,2,3.12,2.83,6.43,5.56,9.88,8.17,1.37.21,2.78.41,4.31.61l.14-2.72c-1.42-2.13-2.81-4.33-4.15-6.58-4.15-.44-8.33-.94-12.49-1.48Z"/>
      <path class="cls-1" d="M516.85,127.07v56.3c0,.06,0,.12,0,.17,0,.35,0,.7-.01,1.05v.18c2.89,4.56,5.53,9.26,7.87,13.97.82,1.64,1.61,3.31,2.37,4.99,3.63-8.08,5.69-16.65,6.16-25.54-.66-12.94-4.5-26.92-11.4-41.55-1.52-3.22-3.18-6.42-4.97-9.58Z"/>
      <path class="cls-1" d="M442.48,140.21v43.55c0,.06,0,.12,0,.18-.02,8.96-.31,18.07-.85,27.08,15.05,10.37,27.68,22.33,37.65,35.62,5.08-2.72,9.72-5.46,13.94-8.22,2.96-15.35,4.81-31.06,5.48-46.8-13.3-20.32-32.19-37.59-56.22-51.41Z"/>
      <path class="cls-1" d="M413.8,338.18c3.97-1.17,7.84-2.37,11.57-3.61-1.79-3.56-3.86-7.05-6.19-10.43-1.71,4.78-3.51,9.47-5.38,14.04Z"/>
      <path class="cls-1" d="M46.99,263.2c-4.11-2.75-7.99-5.61-11.59-8.55,2.04,12.93,7.74,24.91,17.02,35.72.41-1.61.87-3.26,1.38-4.92-2.52-7.23-4.81-14.7-6.81-22.25Z"/>
      <path class="cls-1" d="M36.63,184.02v-.48c-.01-.06-.01-.12-.01-.18v-58.16c-2.14,3.73-4.11,7.55-5.89,11.43h0c-6.71,14.59-10.44,28.53-11.08,41.44.44,8.53,2.34,16.75,5.64,24.54.24.46.5.91.75,1.37.77-1.75,1.57-3.5,2.4-5.22,2.43-5.01,5.18-9.96,8.19-14.74Z"/>
      <path class="cls-1" d="M190.63,349.95c1.82-3.17,3.99-6.19,6.45-9.01-2.4-9.75-4.61-20.12-6.57-30.87-12.88-1.87-25.46-4.1-37.45-6.65-1.78,1.44-3.32,2.76-4.72,4.04,4.13,12.94,8.9,25.36,14.2,36.96,9.01,2.06,18.45,3.92,28.1,5.53Z"/>
      <path class="cls-1" d="M212.93,390.93c-2.24-5.52-4.4-11.36-6.45-17.44-2.54-.32-5.09-.66-7.62-1.01,1.06,7.17,5.78,13.35,14.07,18.45Z"/>
      <path class="cls-1" d="M111.69,328.92c4.19-8.57,9.68-16.64,16.32-24.03-.74-2.51-1.5-5.19-2.29-8.11-17.92-4.93-34.23-10.68-48.54-17.1-1.17,2.73-2.21,5.42-3.1,8.04,3.81,10.16,8.19,20.13,13.04,29.68,7.41,4.1,15.67,7.97,24.57,11.53Z"/>
      <path class="cls-1" d="M134.17,323.79c-2.42,3.55-4.56,7.23-6.4,10.99,3.89,1.29,7.92,2.54,12.04,3.75-1.96-4.78-3.85-9.71-5.64-14.74Z"/>
      <path class="cls-1" d="M270.01,24.13c-25.17.31-49.67,2.55-72.89,6.65v58.39c23.67-4.67,48.17-7.23,72.89-7.62V24.13Z"/>
      <path class="cls-1" d="M179.8,199.05c-18.28,5.46-34.69,12.56-48.85,21.12,1.61,17.33,4.23,34.44,7.79,51.01,8.12,2.38,16.25,4.52,24.31,6.44,6.64-3.68,13.74-7.02,21.23-9.97-2.5-22.15-4.01-45.2-4.49-68.6Z"/>
      <path class="cls-1" d="M356.51,194.75c-22.79-5.35-47.35-8.3-73.05-8.75v65.21c24.07.61,47.99,4.41,69.51,11.03,2.05-21.7,3.24-44.38,3.54-67.49Z"/>
      <path class="cls-1" d="M499.01,161.58v-59.61c-14.71-16.8-33.71-31.23-56.53-42.92v60c22.47,11.85,41.45,26.13,56.53,42.53Z"/>
      <path class="cls-1" d="M110.99,58.13c-22.82,11.49-41.82,25.7-56.53,42.28v60.39c15.05-16.34,34.03-30.56,56.53-42.32v-60.35Z"/>
      <path class="cls-1" d="M111.82,210.44c-.52-8.81-.8-17.71-.82-26.5,0-.06,0-.12,0-.18v-44.18c-24.11,13.73-43.02,30.97-56.25,51.28.62,15.58,2.39,31.15,5.28,46.39,4.63,3.01,9.45,5.83,14.36,8.46,9.91-13.16,22.46-25,37.44-35.27Z"/>
      <path class="cls-1" d="M128.96,109.94c15.68-6.77,32.69-12.44,50.66-16.89v-58.78c-18.16,4.08-35.18,9.35-50.66,15.68v59.98Z"/>
      <path class="cls-1" d="M283.46,81.56c24.7.42,49.2,3.05,72.89,7.81V31.09c-23.24-4.23-47.74-6.56-72.89-6.94v57.41Z"/>
      <path class="cls-1" d="M424.48,180.56c0-.11.01-.22.03-.33v-49.27c-15.34-7.06-32.36-12.92-50.66-17.45v66.06c18.23,5.42,35.06,12.33,50.09,20.57.32-6.53.5-13.1.55-19.58Z"/>
      <path class="cls-1" d="M283.46,165.89c24.63.49,49.72,3.6,72.89,9.04v-65.26c-23.14-4.49-47.64-6.95-72.89-7.34v63.57Z"/>
      <path class="cls-1" d="M439.76,232.85c-1.2,10.91-2.85,21.81-4.87,32.56,5.71-1.93,11.35-3.98,16.85-6.15,3.41-1.35,6.69-2.71,9.83-4.09-6.17-8.07-13.48-15.55-21.81-22.32Z"/>
      <path class="cls-1" d="M466.59,316.92c4.71-9.32,8.99-19.07,12.72-28.99-.99-2.84-2.14-5.75-3.45-8.69-14.15,6.37-30.28,12.09-47.98,17.02-.91,3.38-1.73,6.3-2.54,9.03,6.51,7.23,11.92,15.1,16.11,23.42,9.15-3.65,17.6-7.61,25.14-11.79Z"/>
      <path class="cls-1" d="M92.04,254.31c2.81,1.25,5.61,2.44,8.37,3.57,5.91,2.41,11.94,4.68,18.03,6.8-1.99-10.69-3.61-21.54-4.79-32.43-8.26,6.68-15.48,14.07-21.61,22.06Z"/>
      <path class="cls-1" d="M373.66,199.36c-.48,23.39-2,46.44-4.51,68.58,7.41,2.96,14.46,6.3,21.05,9.96,8.12-1.86,16.3-3.93,24.42-6.22,3.58-16.55,6.22-33.66,7.85-50.98-14.16-8.63-30.56-15.8-48.81-21.34Z"/>
      <path class="cls-1" d="M203.1,285.52c15.59,2.47,30.02,4.04,42.27,4.82h24.64v-22.21c-24.29.53-47.64,4.05-67.81,10.21.28,2.39.59,4.78.9,7.18Z"/>
      <path class="cls-1" d="M424.51,50.74c-15.52-6.47-32.54-11.86-50.66-16.04v58.63c17.95,4.51,34.97,10.26,50.66,17.11v-59.69Z"/>
      <path class="cls-1" d="M283.46,290.34h23.31c12.71-.82,27.61-2.42,43.61-4.87.29-2.3.6-4.61.86-6.89-20.21-6.27-43.55-9.86-67.78-10.44v22.2Z"/>
      <path class="cls-1" d="M336.68,420.14c.85-.72,1.7-1.45,2.54-2.2-4.18.56-8.4,1.07-12.6,1.53-1.66,2.8-3.43,5.55-5.26,8.21l.07,1.25c2.04-.28,3.87-.54,5.61-.81,3.44-2.61,6.59-5.22,9.63-7.97Z"/>
      <path class="cls-1" d="M347.04,373.35c-2.04,6.08-4.2,11.91-6.44,17.44,8.32-5.12,13.03-11.31,14.04-18.47-2.57.37-5.11.71-7.6,1.03Z"/>
      <path class="cls-1" d="M200.48,262.02c21.49-6.52,45.42-10.24,69.53-10.82v-65.22c-25.75.42-50.31,3.29-73.05,8.53.3,23.11,1.48,45.8,3.52,67.5Z"/>
      <path class="cls-1" d="M433.22,361.6c-.11-2.08-.36-4.23-.74-6.41-9.53,3.02-19.73,5.8-30.39,8.3-4.81,9.23-10.01,17.97-15.53,26.07,14.9-3.99,28.34-8.68,40.05-13.98,2.04-2.25,3.84-4.31,5.49-6.26.6-2.53.98-5.12,1.11-7.72Z"/>
      <path class="cls-1" d="M367.89,413.27c-2.55,2.78-5.16,5.45-7.79,8,7.26-1.95,14.07-4.13,20.34-6.49,2.66-1.57,4.98-2.99,7.07-4.33,1.02-.72,2.05-1.46,3.08-2.21-7.29,1.84-14.88,3.52-22.7,5.04Z"/>
      <path class="cls-1" d="M506.71,262.32c-2.07,7.91-4.46,15.74-7.1,23.31.49,1.55.93,3.1,1.33,4.63,9.57-11.05,15.36-23.29,17.27-36.51-3.58,2.96-7.43,5.84-11.5,8.58Z"/>
      <path class="cls-1" d="M331.14,375.19c-4.18.43-8.39.82-12.57,1.17l1.25,22.98c.75-.21,1.46-.41,2.13-.61,3.23-7.07,6.31-14.97,9.18-23.54Z"/>
      <path class="cls-1" d="M339.79,344.71c-6.22-5.4-14.16-9.73-23.65-12.9l1.29,23.74c6.74-.59,13.5-1.3,20.16-2.11.73-2.79,1.47-5.72,2.19-8.73Z"/>
      <path class="cls-1" d="M346.44,312.03c-10.41,1.27-20.88,2.3-31.21,3.06l.1,1.9c10.63,3.08,19.96,7.32,27.81,12.63,1.15-5.63,2.26-11.52,3.3-17.6Z"/>
      <path class="cls-1" d="M369.17,376.55c-.2,3.91-1.18,7.61-2.95,11.07,4.31-6.01,8.44-12.43,12.36-19.2-3.08.57-6.22,1.12-9.4,1.65.03.83.02,1.65-.02,2.45,0,.19-.02.37-.04.56v.06c.08,1.27.09,2.39.04,3.41Z"/>
      <path class="cls-1" d="M127.32,376.09c11.66,5.24,25.02,9.86,39.8,13.78-5.53-8.1-10.76-16.85-15.58-26.07-10.73-2.49-21.01-5.28-30.64-8.32-.34,2.06-.56,4.08-.66,6.05.14,2.62.51,5.24,1.11,7.79,1.77,2.1,3.68,4.27,5.96,6.77Z"/>
      <path class="cls-1" d="M184.35,373.08v-.05c-.02-.19-.04-.39-.05-.58-.04-.72-.04-1.45-.02-2.2-3.11-.51-6.2-1.05-9.25-1.61,3.86,6.64,7.92,12.95,12.14,18.85-1.72-3.44-2.68-7.12-2.87-11.01-.05-1.03-.04-2.15.05-3.41Z"/>
      <path class="cls-1" d="M128.96,180.24c.02.1.02.21.02.32.05,6.29.22,12.69.53,19.07,15.01-8.16,31.84-14.99,50.11-20.35v-66.06c-18.33,4.45-35.36,10.23-50.66,17.19v49.82Z"/>
      <path class="cls-1" d="M166.04,410.5c2.33,1.49,4.92,3.07,8.06,4.9,6.05,2.24,12.6,4.29,19.55,6.14-2.66-2.55-5.29-5.23-7.86-8.03-7.73-1.48-15.22-3.12-22.41-4.91.89.65,1.77,1.28,2.66,1.9Z"/>
      <path class="cls-1" d="M391.07,344.12c5.19-11.4,9.87-23.59,13.93-36.26-1.63-1.49-3.43-3.03-5.46-4.65-11.68,2.5-23.96,4.71-36.53,6.58-1.99,10.94-4.24,21.47-6.67,31.36,2.38,2.71,4.48,5.61,6.27,8.65,9.77-1.65,19.33-3.56,28.47-5.67Z"/>
      <path class="cls-1" d="M270.01,102.31c-25.29.35-49.79,2.75-72.89,7.14v65.26c23.16-5.35,48.24-8.39,72.89-8.84v-63.57Z"/>
      <path class="cls-4" d="M501.75,167.7v-66.6c-16.52-19.07-37.52-34.15-61.18-45.81v65.17c23.68,12.32,44.69,27.96,61.18,47.24ZM442.48,59.05c22.82,11.69,41.82,26.11,56.53,42.92v59.61c-15.08-16.4-34.06-30.68-56.53-42.53v-60Z"/>
      <path class="cls-4" d="M180.94,110.56c-19.32,4.6-38.01,10.83-55.31,18.92v51.1h.03c.06,7.89.31,15.69.75,23.41,16.74-9.55,35.23-17.06,54.53-22.67v-70.75ZM179.62,179.29c-18.26,5.36-35.1,12.19-50.11,20.35-.31-6.38-.48-12.78-.53-19.07,0-.11,0-.22-.02-.32v-49.82c15.31-6.96,32.33-12.74,50.66-17.19v66.06Z"/>
      <path class="cls-4" d="M193.79,177.88c25.54-6.25,52.09-9.36,77.54-9.7v-68.21c-25.48.26-51.9,2.68-77.54,7.79v70.12ZM197.12,109.46c23.1-4.39,47.61-6.79,72.89-7.14v63.57c-24.65.45-49.73,3.49-72.89,8.84v-65.26Z"/>
      <path class="cls-4" d="M197.46,265.32c23.78-7.65,49.46-11.41,73.87-11.83v-69.85c-25.61.3-52.31,3.15-77.72,9.28.28,25.2,1.6,49.49,3.85,72.39ZM270.01,251.2c-24.11.57-48.04,4.3-69.53,10.82-2.04-21.7-3.23-44.39-3.52-67.5,22.75-5.24,47.3-8.11,73.05-8.53v65.22Z"/>
      <path class="cls-4" d="M180.94,31.79c-19.17,4.26-37.83,10-55.31,17.41v64.81c17.49-7.9,36.15-14.15,55.31-18.87V31.79ZM179.62,93.05c-17.97,4.45-34.99,10.12-50.66,16.89v-59.98c15.49-6.33,32.51-11.6,50.66-15.68v58.78Z"/>
      <path class="cls-4" d="M112.31,120.46V55.29c-23.66,11.66-44.66,26.74-61.18,45.81v66.6c16.49-19.28,37.5-34.92,61.18-47.24ZM54.46,160.8v-60.39c14.71-16.58,33.71-30.79,56.53-42.28v60.35c-22.5,11.76-41.49,25.97-56.53,42.32Z"/>
      <path class="cls-4" d="M371.94,181.31c19.3,5.62,37.79,13.12,54.53,22.67.44-7.71.7-15.52.75-23.41h.03v-51.1c-17.3-8.09-35.99-14.32-55.31-18.92v70.75ZM373.84,113.52c18.3,4.53,35.33,10.39,50.66,17.45v49.27c-.02.11-.02.22-.03.33-.05,6.48-.23,13.05-.55,19.58-15.03-8.23-31.85-15.14-50.09-20.57v-66.06Z"/>
      <path class="cls-4" d="M281.55,253.49c24.41.42,50.09,4.18,73.87,11.83,2.25-22.9,3.57-47.19,3.85-72.39-25.41-6.13-52.11-8.98-77.72-9.28v69.85ZM283.46,186c25.7.46,50.26,3.4,73.05,8.75-.3,23.11-1.49,45.79-3.54,67.49-21.53-6.62-45.44-10.41-69.51-11.03v-65.21Z"/>
      <path class="cls-4" d="M371.94,95.14c19.16,4.71,37.82,10.97,55.31,18.87V49.19c-17.48-7.41-36.14-13.15-55.31-17.41v63.35ZM373.84,34.69c18.12,4.18,35.15,9.57,50.66,16.04v59.69c-15.69-6.85-32.71-12.6-50.66-17.11v-58.63Z"/>
      <path class="cls-4" d="M359.09,29.16c-25.71-4.8-52.07-7.1-77.54-7.36v62.05c25.41.29,51.79,2.99,77.54,8.37V29.16ZM356.35,89.37c-23.7-4.76-48.19-7.39-72.89-7.81V24.15c25.15.38,49.65,2.71,72.89,6.94v58.28Z"/>
      <path class="cls-4" d="M359.09,107.76c-25.64-5.11-52.06-7.52-77.54-7.79v68.21c25.45.34,52,3.45,77.54,9.7v-70.12ZM356.35,174.93c-23.18-5.44-48.26-8.55-72.89-9.04v-63.57c25.26.39,49.76,2.86,72.89,7.34v65.26Z"/>
      <path class="cls-4" d="M193.79,92.22c25.75-5.37,52.13-8.07,77.54-8.37V21.8c-25.47.26-51.83,2.56-77.54,7.36v63.06ZM197.12,30.78c23.22-4.1,47.72-6.33,72.89-6.65v57.42c-24.72.38-49.22,2.94-72.89,7.62V30.78Z"/>
      <path class="cls-4" d="M151.25,402.97c4.06,3.3,8.2,6.44,12.44,9.43,2.41,1.55,4.86,3.03,7.32,4.48,9.47,3.59,19.55,6.51,29.73,8.88-5.16-4.43-10.15-9.32-14.97-14.62-11.54-2.22-23.18-4.92-34.52-8.17ZM193.65,421.54c-6.95-1.84-13.49-3.9-19.55-6.14-3.15-1.83-5.74-3.4-8.06-4.9-.88-.62-1.77-1.26-2.66-1.9,7.19,1.79,14.69,3.43,22.41,4.91,2.57,2.79,5.2,5.48,7.86,8.03Z"/>
      <path class="cls-4" d="M440.72,331.66c9.9-3.86,19.34-8.19,28.04-13.05,5-9.83,9.49-20.06,13.43-30.64-1.29-3.82-2.87-7.75-4.76-11.8-15.79,7.28-33.15,13.29-51.03,18.21-1.04,3.88-2.1,7.73-3.24,11.51,6.72,7.28,12.44,15.39,16.89,24.38.23.47.45.93.67,1.4ZM427.88,296.26c17.7-4.93,33.83-10.65,47.98-17.02,1.31,2.94,2.46,5.85,3.45,8.69-3.73,9.92-8,19.67-12.72,28.99-7.54,4.18-15.99,8.14-25.14,11.79-4.19-8.32-9.6-16.19-16.11-23.42.81-2.72,1.63-5.65,2.54-9.03Z"/>
      <path class="cls-4" d="M428.84,335.53c-2.78-5.89-6.14-11.32-9.96-16.35-2.67,7.77-5.56,15.3-8.67,22.56,6.36-1.78,12.65-3.71,18.81-5.81-.06-.13-.12-.27-.18-.4ZM413.8,338.18c1.87-4.57,3.67-9.27,5.38-14.04,2.33,3.38,4.4,6.87,6.19,10.43-3.73,1.24-7.6,2.44-11.57,3.61Z"/>
      <path class="cls-4" d="M431.9,394.75c1.03-1.14,2-2.31,2.93-3.5-1.94.84-3.92,1.65-5.92,2.45-.73.54-1.47,1.07-2.21,1.6-4.88,4.53-9.91,8.86-15.1,12.94-3.7,2.91-7.46,5.7-11.31,8.36,12.66-5.86,23.66-13.06,31.61-21.85Z"/>
      <path class="cls-4" d="M106.18,348.02c-2.16-.8-4.31-1.61-6.42-2.44,1.74,2.65,3.53,5.24,5.35,7.81.27-1.76.63-3.54,1.07-5.37Z"/>
      <path class="cls-4" d="M124.45,377.5c14.47,6.59,30.56,11.81,46.96,15.88-7.01-9.71-13.52-20.38-19.47-31.91-11.42-2.65-22.76-5.73-33.73-9.29-.72,3.25-1.14,6.39-1.29,9.42.15,3.05.61,5.98,1.31,8.8,2.03,2.42,4.11,4.77,6.22,7.1ZM120.9,355.48c9.62,3.04,19.91,5.83,30.64,8.32,4.82,9.23,10.05,17.97,15.58,26.07-14.78-3.92-28.14-8.54-39.8-13.78-2.28-2.5-4.19-4.68-5.96-6.77-.6-2.55-.98-5.17-1.11-7.79.1-1.97.32-3.99.66-6.05Z"/>
      <path class="cls-4" d="M505.1,260.88c-2.17,8.41-4.68,16.66-7.52,24.7,1.04,3.24,1.88,6.4,2.52,9.49,12.46-13.06,20.33-28.56,21.42-46.92-4.99,4.52-10.48,8.76-16.42,12.72ZM499.61,285.62c2.65-7.57,5.03-15.4,7.1-23.31,4.07-2.75,7.92-5.62,11.5-8.58-1.91,13.22-7.7,25.47-17.27,36.51-.4-1.53-.84-3.07-1.33-4.63Z"/>
      <path class="cls-4" d="M434.65,370.41c.71-2.82,1.16-5.75,1.31-8.8-.15-3.03-.58-6.17-1.29-9.42-10.98,3.56-22.31,6.64-33.73,9.29-5.95,11.53-12.47,22.2-19.47,31.91,16.4-4.08,32.49-9.29,46.96-15.88,2.11-2.33,4.19-4.68,6.22-7.1ZM386.56,389.57c5.52-8.1,10.72-16.84,15.53-26.07,10.65-2.5,20.86-5.29,30.39-8.3.38,2.18.63,4.33.74,6.41-.14,2.6-.51,5.19-1.11,7.72-1.65,1.95-3.46,4.01-5.49,6.26-11.71,5.3-25.16,9.99-40.05,13.98Z"/>
      <path class="cls-4" d="M94.35,372.41c-14.34-13.75-27.11-29.11-38.04-45.79,5.15,18.9,19.17,33.93,38.04,45.79Z"/>
      <path class="cls-4" d="M200.48,399.45c-8.58-5.78-14.38-13.3-14.87-23.02-.05-1.07-.02-2.18.05-3.31-.02-.24-.04-.48-.05-.72-.07-1.38-.03-2.81.13-4.28-5.41-.89-10.87-1.86-16.35-2.92,6.6,11.91,13.82,22.8,21.57,32.51,3.18.62,6.36,1.2,9.52,1.75ZM175.03,368.65c3.05.56,6.14,1.09,9.25,1.61-.02.75-.01,1.48.02,2.2,0,.19.02.39.04.58v.05c-.08,1.26-.09,2.38-.04,3.41.19,3.9,1.15,7.57,2.87,11.01-4.23-5.91-8.29-12.21-12.14-18.85Z"/>
      <path class="cls-4" d="M351.06,353.67c-.03.12-.07.25-.1.37.11-.02.21-.03.32-.05-.07-.11-.14-.21-.21-.32Z"/>
      <path class="cls-4" d="M549.9,155.14c-1.4-8.63-4.05-17.69-8.79-27.25-20-40.32-58.33-73.76-110.85-96.7C384.22,11.07,329.49,0,276.15,0c0,0,0,0,0,0-53.53,0-108.31,11-154.22,30.98C69.27,53.89,31.06,87.4,11.43,127.89c-4.59,9.46-7.14,18.46-8.5,27.06-2.3,9.48-3.26,18.61-2.84,27.33-.38,8.34.45,16.51,2.46,24.28,5.18,60.64,30.9,118.65,72.44,163.37,40.91,44.03,95.77,73.76,154.67,83.87l-4.58,91.65c-.09,1.87-.06,3.82.11,5.81l-.11,2.25c-.6,11.94,3.68,23.36,12.05,32.16,8.66,9.1,20.96,14.33,33.75,14.33h11.11c12.83,0,25.15-5.25,33.82-14.4,8.37-8.84,12.62-20.3,11.97-32.28l-.11-1.98c.18-2.07.22-4.12.11-6.09l-4.98-91.38c59.01-10.03,113.96-39.74,154.96-83.81,41.63-44.75,67.4-102.83,72.57-163.56,2.01-7.71,2.83-15.81,2.45-24.07.42-8.71-.55-17.83-2.88-27.3ZM4.43,206.11c-1.8-6.84-2.67-14.09-2.48-21.77,2.58,38.37,31.81,68.94,86.92,90.88,53.66,21.35,116.76,28.44,149.97,30.76l-.34,6.88c-11.03-.8-22.91-1.94-35.28-3.51,1.39,8.36,2.9,16.46,4.56,24.24,8.72-6.52,19.24-11.26,30.41-14.45l-.29,5.74-.2,4.08c-10.47,3.24-20.09,8.08-27.6,14.95.94,3.97,1.91,7.86,2.93,11.65,7.99,1,15.73,1.8,23.12,2.42l-.57,8.58-.5,7.57c-5.51-.45-11.21-.98-17.07-1.62,3.33,10.34,6.94,19.76,10.83,28.15,1.45.45,2.92.85,4.39,1.24l-.74,11.08-.32,4.81-.21,3.2-.23,3.47c-1.52-2.28-3.01-4.65-4.48-7.16-6.79-.73-13.83-1.61-21-2.67,2.61,2.54,5.27,4.97,7.98,7.25,3.35,3.04,6.77,5.84,10.26,8.46,2.29.36,4.54.67,6.79.97l-.24,3.68-.28,4.26-.18,2.66-.1,1.57-.13,1.92-.26,3.92-.05.77-.04.57-.06.9C108.8,430.91,14.92,330.4,4.43,206.11ZM236.61,315.08l-.11,2.27c-9.97,3.01-18.76,7.06-26.21,12.08-1.12-5.49-2.2-11.25-3.22-17.18,9.86,1.17,19.77,2.13,29.54,2.84ZM235.75,332.22l-1.16,23.29c-6.24-.54-12.51-1.19-18.68-1.93-.76-2.89-1.52-5.93-2.27-9.07,5.86-5.07,13.28-9.19,22.12-12.28ZM233.55,376.32l-1.14,22.78c-.29-.08-.57-.16-.84-.25-3.23-7.06-6.32-14.97-9.2-23.56,3.73.38,7.48.72,11.18,1.03ZM231.05,426.16l-.14,2.72c-1.53-.21-2.94-.41-4.31-.61-3.46-2.61-6.76-5.34-9.88-8.17-.77-.65-1.54-1.32-2.31-2,4.16.54,8.34,1.04,12.49,1.48,1.34,2.25,2.73,4.46,4.15,6.58ZM325.88,553.45c1.31,24.04-18.53,44.23-43.47,44.23h-11.94c-24.94,0-44.78-20.19-43.47-44.23l.04-.81c2.33,21.43,21.42,38.1,43.84,38.1h11.11c22.4,0,41.5-16.66,43.84-38.08l.04.79ZM324.89,545.97c.1,1.88.06,3.85-.12,5.84-1.92,21.18-20.7,37.78-42.77,37.78h-11.11c-22.11,0-40.91-16.63-42.78-37.86-.17-1.91-.21-3.79-.12-5.57l12.07-241.25-.57-.04c-32.99-2.28-96.38-9.3-150.19-30.72C33.93,252.1,4.9,221.37,3,182.8c-.81-16.43-.22-34.4,9.48-54.4,19.51-40.24,57.51-73.56,109.9-96.35C168.16,12.13,222.77,1.16,276.15,1.16s107.75,11.04,153.64,31.09c52.27,22.83,90.41,56.08,110.28,96.16,10.01,20.19,10.63,38.15,9.81,54.55-1.93,38.42-31.26,69.1-87.19,91.18-54.22,21.41-117.49,28.45-150.38,30.74l-.57.04,13.15,241.05ZM548.45,206.11c-10.5,124.4-104.53,224.97-225.8,245.49l-.06-.89-.04-.56-.05-.79-.25-3.8-.13-1.93-.11-1.7-.18-2.64-.27-4.1-.26-3.85c2.35-.31,4.71-.64,7.1-1.01,3.48-2.62,6.91-5.42,10.26-8.46,2.7-2.29,5.36-4.71,7.98-7.25-7.17,1.06-14.21,1.95-21,2.67-1.56,2.67-3.15,5.19-4.76,7.6l-.23-3.43-.24-3.64-.32-4.8-.73-11.03c1.58-.42,3.15-.85,4.7-1.33,3.89-8.39,7.51-17.81,10.83-28.15-5.97.65-11.78,1.19-17.39,1.65l-.5-7.57-.57-8.58c7.49-.63,15.34-1.44,23.44-2.45,1.01-3.79,1.99-7.68,2.93-11.65-7.68-7.03-17.57-11.93-28.31-15.18l-.27-4.1-.38-5.75c11.49,3.2,22.34,8.02,31.29,14.71,1.66-7.78,3.17-15.88,4.56-24.24-12.73,1.62-24.94,2.79-36.24,3.58l-.46-6.93c33.11-2.34,96.1-9.43,150.15-30.78,55.69-21.99,85.21-52.52,87.82-90.76.18,7.64-.69,14.85-2.49,21.65ZM321.37,427.68c1.83-2.65,3.59-5.41,5.26-8.21,4.2-.46,8.41-.97,12.6-1.53-.85.75-1.69,1.49-2.54,2.2-3.03,2.76-6.19,5.37-9.63,7.97-1.75.27-3.58.53-5.61.81l-.07-1.25ZM318.57,376.36c4.18-.35,8.39-.74,12.57-1.17-2.87,8.57-5.95,16.47-9.18,23.54-.68.2-1.38.4-2.13.61l-1.25-22.98ZM316.14,331.81c9.49,3.17,17.43,7.5,23.65,12.9-.72,3.01-1.46,5.94-2.19,8.73-6.66.82-13.43,1.53-20.16,2.11l-1.29-23.74ZM315.23,315.09c10.33-.76,20.8-1.79,31.21-3.06-1.04,6.08-2.14,11.97-3.3,17.6-7.85-5.31-17.18-9.55-27.81-12.63l-.1-1.9Z"/>
      <path class="cls-4" d="M330.5,440.74l-2.74,1.6c2.42-.71,4.83-1.47,7.22-2.27-1.51.24-2.99.45-4.48.67Z"/>
      <path class="cls-4" d="M134,319.18c-3.82,5.04-7.18,10.46-9.96,16.35-.06.14-.12.27-.18.4,6.15,2.1,12.44,4.03,18.81,5.81-3.1-7.26-5.99-14.79-8.67-22.56ZM134.17,323.79c1.79,5.03,3.68,9.96,5.64,14.74-4.13-1.2-8.16-2.46-12.04-3.75,1.84-3.76,3.98-7.44,6.4-10.99Z"/>
      <path class="cls-4" d="M481,332.49c-2.27,1.27-4.59,2.51-6.96,3.72-4.8,8.12-9.98,15.93-15.49,23.39,9.81-7.78,17.58-16.77,22.45-27.11Z"/>
      <path class="cls-4" d="M496.57,326.61c-10.93,16.68-23.7,32.04-38.04,45.79,18.88-11.86,32.89-26.89,38.04-45.79Z"/>
      <path class="cls-4" d="M195.37,371.22c.88,11.24,9.53,19.2,21.17,24.73-3.32-7.63-6.45-15.89-9.38-24.72-3.83-.48-7.7-1.02-11.61-1.59-.07.53-.14,1.06-.18,1.57ZM206.48,373.49c2.05,6.08,4.21,11.91,6.45,17.44-8.29-5.1-13.01-11.28-14.07-18.45,2.53.35,5.08.69,7.62,1.01Z"/>
      <path class="cls-4" d="M201.82,353.67c-.07.11-.15.21-.21.32.11.02.21.03.32.05-.03-.12-.07-.25-.1-.37Z"/>
      <path class="cls-4" d="M191.07,352.35c2.11-3.84,4.67-7.36,7.6-10.57-2.69-10.78-5.1-22.17-7.23-34.05-12.8-1.87-25.96-4.18-39.11-7.03-2.61,2.06-5.14,4.19-7.54,6.45,4.34,13.75,9.35,26.78,14.96,38.96,10.46,2.45,20.98,4.51,31.32,6.23ZM153.06,303.41c11.99,2.55,24.57,4.78,37.45,6.65,1.96,10.75,4.17,21.12,6.57,30.87-2.47,2.83-4.63,5.85-6.45,9.01-9.65-1.61-19.09-3.47-28.1-5.53-5.29-11.6-10.07-24.02-14.2-36.96,1.4-1.28,2.94-2.6,4.72-4.04Z"/>
      <path class="cls-4" d="M401.63,402.97c-11.33,3.25-22.97,5.95-34.52,8.17-4.82,5.3-9.82,10.19-14.97,14.62,10.17-2.37,20.26-5.29,29.73-8.88,2.46-1.45,4.91-2.93,7.32-4.48,4.24-2.99,8.39-6.14,12.44-9.43ZM380.44,414.78c-6.27,2.37-13.08,4.54-20.34,6.49,2.64-2.54,5.24-5.22,7.79-8,7.82-1.52,15.42-3.2,22.7-5.04-1.03.75-2.06,1.49-3.08,2.21-2.1,1.34-4.41,2.76-7.07,4.33Z"/>
      <path class="cls-4" d="M222.38,440.74c-1.49-.22-2.97-.43-4.48-.67,2.39.8,4.8,1.56,7.22,2.27l-2.74-1.6Z"/>
      <path class="cls-4" d="M367.27,372.4c-.01.24-.04.48-.05.72.08,1.13.11,2.24.05,3.31-.49,9.72-6.29,17.24-14.87,23.02,3.16-.54,6.33-1.12,9.52-1.75,7.75-9.7,14.97-20.59,21.57-32.51-5.48,1.07-10.94,2.04-16.35,2.92.15,1.47.2,2.9.13,4.28ZM369.13,373.07c.02-.18.03-.37.04-.56.04-.8.05-1.61.02-2.45,3.17-.53,6.32-1.08,9.4-1.65-3.92,6.77-8.06,13.19-12.36,19.2,1.77-3.46,2.75-7.15,2.95-11.07.05-1.03.04-2.15-.04-3.41v-.06Z"/>
      <path class="cls-4" d="M357.51,371.22c-.04-.52-.11-1.04-.18-1.57-3.91.57-7.79,1.1-11.61,1.59-2.93,8.83-6.06,17.09-9.38,24.72,11.64-5.54,20.3-13.5,21.17-24.73ZM340.6,390.79c2.24-5.52,4.39-11.36,6.44-17.44,2.49-.32,5.03-.67,7.6-1.03-1,7.16-5.71,13.35-14.04,18.47Z"/>
      <path class="cls-4" d="M112.16,331.66c.22-.47.44-.93.67-1.4,4.46-8.99,10.18-17.09,16.89-24.38-1.14-3.78-2.21-7.63-3.24-11.51-17.88-4.92-35.24-10.93-51.03-18.21-1.89,4.05-3.47,7.98-4.76,11.8,3.94,10.59,8.43,20.82,13.43,30.64,8.7,4.86,18.13,9.2,28.04,13.05ZM77.18,279.68c14.32,6.43,30.63,12.18,48.54,17.1.79,2.92,1.55,5.6,2.29,8.11-6.64,7.39-12.12,15.46-16.32,24.03-8.91-3.56-17.16-7.43-24.57-11.53-4.85-9.54-9.23-19.52-13.04-29.68.89-2.61,1.93-5.3,3.1-8.04Z"/>
      <path class="cls-4" d="M152.58,416.6c-3.84-2.67-7.61-5.46-11.31-8.36-5.19-4.08-10.22-8.41-15.1-12.94-.74-.53-1.47-1.06-2.21-1.6-1.99-.8-3.97-1.61-5.92-2.45.92,1.19,1.9,2.36,2.93,3.5,7.94,8.79,18.95,15.99,31.61,21.85Z"/>
      <path class="cls-4" d="M393.12,346.12c5.6-12.19,10.61-25.22,14.96-38.96-2.39-2.27-4.93-4.4-7.54-6.45-13.15,2.84-26.31,5.16-39.11,7.03-2.13,11.88-4.54,23.26-7.23,34.05,2.93,3.21,5.49,6.74,7.6,10.57,10.34-1.72,20.86-3.78,31.32-6.23ZM363,309.79c12.57-1.87,24.85-4.08,36.53-6.58,2.03,1.62,3.83,3.15,5.46,4.65-4.06,12.67-8.74,24.86-13.93,36.26-9.13,2.11-18.7,4.02-28.47,5.67-1.79-3.03-3.89-5.93-6.27-8.65,2.44-9.88,4.68-20.42,6.67-31.36Z"/>
      <path class="cls-4" d="M94.33,359.59c-5.51-7.46-10.69-15.26-15.49-23.39-2.37-1.2-4.69-2.45-6.96-3.72,4.87,10.34,12.64,19.33,22.45,27.11Z"/>
      <path class="cls-4" d="M55.3,285.58c-2.84-8.05-5.35-16.29-7.52-24.7-5.94-3.96-11.44-8.2-16.42-12.72,1.09,18.36,8.97,33.86,21.42,46.92.64-3.09,1.48-6.25,2.52-9.49ZM35.4,254.65c3.6,2.94,7.48,5.8,11.59,8.55,2,7.55,4.29,15.03,6.81,22.25-.51,1.66-.97,3.3-1.38,4.92-9.27-10.81-14.98-22.79-17.02-35.72Z"/>
      <path class="cls-4" d="M453.12,345.58c-2.12.84-4.26,1.65-6.42,2.44.44,1.82.8,3.61,1.07,5.37,1.82-2.57,3.61-5.16,5.35-7.81Z"/>
      <path class="cls-2" d="M471.9,369.23c-8.95,7.5-19.69,13.98-31.57,19.54-.3.14-.6.29-.91.43-.15.07-.29.14-.44.21-1.37.63-2.75,1.24-4.15,1.85-.92,1.19-1.9,2.36-2.93,3.5-7.94,8.79-18.95,15.99-31.61,21.85-3.23,2.24-6.52,4.4-9.85,6.47,18.96-7.1,35.59-16.63,46.12-29.26-11.49,16.62-33.31,28.18-57.84,36.05-10.71,5.78-21.85,10.65-33.36,14.56,48.99-12.93,92.55-39.38,126.53-75.19Z"/>
      <path class="cls-2" d="M498.57,321.19c-.3.23-.61.45-.91.67-.3,1.61-.66,3.2-1.08,4.75-5.15,18.9-19.17,33.93-38.04,45.79-3.41,2.14-6.98,4.18-10.68,6.12,18.1-15.95,33.98-34.38,47.14-54.78-4.41,3.08-9.07,6-13.99,8.74-4.87,10.34-12.64,19.33-22.45,27.11-3.73,5.04-7.61,9.93-11.64,14.65-1.01,1.18-2.03,2.35-3.06,3.51-.89,1.01-1.78,2.01-2.69,3-.61.66-1.22,1.31-1.83,1.97-1.21,1.3-2.43,2.58-3.67,3.84,1.1-.47,2.19-.94,3.27-1.42.83-.37,1.66-.75,2.48-1.13.18-.09.37-.17.56-.25.56-.26,1.13-.52,1.68-.79,2.55-1.21,5.05-2.47,7.5-3.77,18.6-9.9,33.74-22.3,42.47-37.74,3.81-6.74,6.38-14.06,7.5-22,.08-.14.17-.28.26-.41-.08.06-.15.12-.23.18-.85.66-1.71,1.32-2.58,1.97Z"/>
      <path class="cls-2" d="M428.05,394.06c-.45.42-.9.83-1.35,1.24.74-.53,1.47-1.06,2.21-1.6-.29.12-.57.24-.86.36Z"/>
      <path class="cls-3" d="M321.3,431.34l.26,3.85c2.31-1.52,4.59-3.16,6.85-4.86-2.4.37-4.76.7-7.1,1.01Z"/>
      <path class="cls-3" d="M367.27,376.43c.05-1.07.02-2.18-.05-3.31-1.01,12.94-11.51,21.91-25.38,28.03,3.49-.52,7.02-1.08,10.56-1.7,8.58-5.78,14.38-13.3,14.87-23.02Z"/>
      <path class="cls-3" d="M314.2,324.61l.27,4.1c10.75,3.24,20.63,8.15,28.31,15.18.26-1.09.52-2.19.77-3.3-7.85-7.47-18.14-12.63-29.36-15.98Z"/>
      <path class="cls-2" d="M430.89,335.28c-.63.22-1.25.44-1.88.65-6.15,2.1-12.44,4.03-18.81,5.81-1.61,3.78-3.29,7.48-5.01,11.11,9.3-2.25,18.53-4.8,27.53-7.66.45-.14.9-.29,1.35-.43,3.57-1.15,7.1-2.35,10.58-3.6,5.07-1.83,10.03-3.77,14.87-5.83,3.7-1.57,7.33-3.21,10.86-4.93,3.23-5.96,6.27-12.08,9.11-18.34,1.98-4.36,3.86-8.79,5.64-13.29.26-.66.53-1.32.79-1.99,2.78-7.17,5.29-14.52,7.55-22.01.81-2.69,1.58-5.4,2.32-8.12-1.59.92-3.2,1.83-4.83,2.72-1,.54-2.01,1.08-3.03,1.62-2.67,1.4-5.39,2.75-8.16,4.07,1.38,3.38,2.57,6.7,3.52,9.92-.36,1-.75,1.99-1.12,2.99-3.94,10.59-8.43,20.82-13.43,30.64-8.7,4.86-18.13,9.2-28.04,13.05-.22-.47-.44-.93-.67-1.4-4.46-8.99-10.18-17.09-16.89-24.38-1.01,3.34-2.05,6.64-3.13,9.9,3.34,4.6,6.31,9.52,8.81,14.81.75,1.59,1.43,3.15,2.06,4.69Z"/>
      <path class="cls-2" d="M534.32,234.38c-1.21,1.57-2.47,3.12-3.8,4.64-2.77,3.17-5.77,6.22-9,9.14-1.09,18.36-8.97,33.86-21.42,46.92-3,3.14-6.26,6.13-9.76,9-1.28,2.96-2.59,5.9-3.95,8.8-2,4.24-4.09,8.4-6.28,12.5,1.5-.83,2.99-1.67,4.46-2.53,4.97-2.93,9.68-6.02,14.08-9.3,0,0,0,0,0,0,1.05-.78,2.08-1.57,3.09-2.37.56-.44,1.08-.9,1.63-1.35,2.18-1.79,4.3-3.62,6.3-5.52,8.56-8.1,15.37-17.14,19.88-27.25,1.57-3.52,2.85-7.17,3.84-10.96,1.22-4.66,1.99-9.52,2.24-14.59.28-5.57-.05-11.4-1.05-17.48-.09.12-.18.24-.27.36Z"/>
      <path class="cls-2" d="M356.63,362.13c2.47-.36,4.95-.74,7.45-1.13.48-.08.96-.15,1.43-.23,7.43-1.19,14.96-2.56,22.5-4.09,3.68-.75,7.36-1.54,11.03-2.37,1.67-3.54,3.29-7.16,4.85-10.85,3.97-9.36,7.6-19.17,10.86-29.37.38-1.19.76-2.39,1.13-3.6.94-3.06,1.85-6.15,2.73-9.28.47-1.69.91-3.4,1.37-5.11-1.8.47-3.61.93-5.42,1.37-1.28.32-2.56.62-3.85.93-1.81.43-3.62.85-5.44,1.26,1.36,1.2,2.7,2.43,3.99,3.69-.39,1.27-.78,2.54-1.18,3.8-4.34,13.75-9.35,26.78-14.96,38.96-10.46,2.45-20.98,4.51-31.32,6.23-2.11-3.84-4.67-7.36-7.6-10.57-.27,1.07-.53,2.13-.8,3.18-.51,2-1.04,3.97-1.57,5.93.54.91,1.05,1.84,1.54,2.8-.7.1-1.4.21-2.09.31-.11.02-.21.03-.32.05-.88,3.14-1.78,6.23-2.71,9.25,2.37-.31,4.76-.64,7.16-.98.41-.06.82-.12,1.23-.18Z"/>
      <path class="cls-2" d="M361.1,283.72c1.4-.24,2.82-.49,4.23-.75.09-.66.19-1.3.28-1.96-1.31-.52-2.63-1.01-3.96-1.5-.18,1.41-.37,2.81-.55,4.21Z"/>
      <path class="cls-2" d="M114,222.34c1.93-1.49,3.91-2.95,5.92-4.36-.24-3.23-.45-6.47-.63-9.74-.39-7.21-.61-14.5-.67-21.86h-.03v-53.47c-2.12,1.08-4.22,2.18-6.3,3.32v47.52h0c.02,9.6.34,19.09.93,28.43-14.29,9.71-26.9,21.15-37.14,34.44,3.26,1.71,6.55,3.35,9.83,4.9,7.78-11.14,17.26-20.84,28.06-29.19Z"/>
      <path class="cls-2" d="M114.57,228.42c1.26,12.57,3.05,24.83,5.3,36.75,2.17.75,4.35,1.47,6.53,2.18-2.64-13.94-4.67-28.37-5.98-43.2-1.99,1.38-3.94,2.81-5.85,4.27Z"/>
      <path class="cls-2" d="M369.49,432.62c-11.37,3.16-23.11,5.6-34.51,7.45-2.39.8-4.8,1.56-7.22,2.27l-5.51,3.22.25,3.8c3.63-.62,7.23-1.3,10.81-2.07,12.49-3.72,24.59-8.63,36.18-14.67Z"/>
      <path class="cls-2" d="M187.26,281.01c.08.61.17,1.2.26,1.81,1.42.27,2.83.53,4.24.78-.18-1.36-.36-2.72-.54-4.09-1.33.49-2.65.99-3.96,1.5Z"/>
      <path class="cls-2" d="M190.64,274.79c-.27-2.27-.53-4.56-.78-6.86-2.52-23.09-4.05-47.54-4.42-72.9-1.47.4-2.92.81-4.38,1.23.43,25.47,2.07,50.02,4.76,73.18-6.76,2.62-13.29,5.6-19.55,8.92,3.51.81,7.01,1.58,10.47,2.31,3.23-1.55,6.53-3.01,9.91-4.36,1.32-.53,2.65-1.03,3.99-1.53Z"/>
      <path class="cls-2" d="M344.66,363.75c.89-3,1.75-6.07,2.6-9.19.41-1.51.81-3.03,1.21-4.57.26-1,.52-2,.77-3,.41-1.64.82-3.3,1.22-4.97.26-1.09.52-2.18.78-3.28,2.26-9.7,4.3-19.87,6.13-30.44-2.58.36-5.15.7-7.69,1.03-1.39,8.36-2.9,16.46-4.56,24.24-8.95-6.69-19.79-11.51-31.29-14.71l.38,5.75c11.21,3.35,21.51,8.51,29.36,15.98-.25,1.11-.51,2.2-.77,3.3-.94,3.97-1.91,7.86-2.93,11.65-8.1,1.02-15.95,1.82-23.44,2.45l.57,8.58c6.52-.52,13.31-1.16,20.32-1.95,2.43-.27,4.87-.56,7.35-.87Z"/>
      <path class="cls-2" d="M506.88,174.02v12.37h-.04c-.02,1.93-.07,3.85-.12,5.77,1.36,2.49,2.66,5.02,3.89,7.62,1.24,2.62,2.35,5.19,3.37,7.73,1.42,3.53,2.61,6.98,3.62,10.36,3.45-3.93,6.22-7.82,8.44-11.62-.93-2.13-1.91-4.28-3-6.47-2.46-4.96-5.18-9.73-8.12-14.34,0-.69.02-1.37.03-2.06h0v-64.64c-2.52-3.93-5.22-7.73-8.07-11.39v66.68Z"/>
      <path class="cls-2" d="M320.4,417.81l.24,3.64c.77-1.27,1.53-2.55,2.29-3.89-.85.09-1.69.17-2.53.25Z"/>
      <path class="cls-2" d="M326.62,410.66c-.29.03-.58.06-.87.09.32-.09.64-.17.96-.26.77-1.53,1.53-3.1,2.28-4.69.48-1.02.96-2.05,1.43-3.1.04-.08.08-.17.11-.25.72-1.6,1.44-3.23,2.15-4.89,3.38-7.95,6.57-16.61,9.54-25.9-2.47.3-4.92.58-7.34.84-3.33,10.34-6.94,19.76-10.83,28.15-1.55.48-3.12.91-4.7,1.33l.73,11.03c1.86-.18,3.72-.36,5.61-.56.31-.6.62-1.19.93-1.8Z"/>
      <path class="cls-2" d="M332.53,437.42l3.85-2.52c3.41-2.42,6.75-5.05,10.03-7.87,5.23-4.48,10.3-9.45,15.18-14.87-5.03.9-10.03,1.72-14.97,2.45-2.61,2.54-5.27,4.97-7.98,7.25-3.35,3.04-6.77,5.84-10.26,8.46-2.26,1.7-4.54,3.34-6.85,4.86l.27,4.1c2.47-.43,4.94-.88,7.39-1.39,1.1-.16,2.21-.32,3.32-.49Z"/>
      <path class="cls-2" d="M322,441.93l.11,1.7,4.07-2.24c-1.41.19-2.79.37-4.18.54Z"/>
      <path class="cls-2" d="M42.27,199.77c1.22-2.6,2.52-5.13,3.89-7.62-.05-1.92-.1-3.84-.12-5.77h-.04v-79.04c-2.85,3.66-5.54,7.45-8.07,11.39v64.64h0c0,.69.02,1.37.03,2.06-2.95,4.61-5.66,9.39-8.12,14.34-1,2.01-1.91,3.99-2.78,5.96,2.39,3.93,5.25,7.68,8.49,11.26.96-3.1,2.06-6.26,3.35-9.49,1.02-2.54,2.13-5.11,3.37-7.73Z"/>
      <path class="cls-2" d="M42.27,207.38c-1.02,2.15-1.95,4.28-2.82,6.37.27,2.74.58,5.47.92,8.19,2.82,2.7,5.85,5.29,9.04,7.77-1.46-9.97-2.46-20.12-2.98-30.44-1.46,2.64-2.86,5.34-4.16,8.11Z"/>
      <path class="cls-2" d="M201.65,338.75c.26,1.1.52,2.19.78,3.28.4,1.67.81,3.33,1.22,4.97.25,1.01.51,2.01.77,3,.4,1.53.8,3.06,1.21,4.57.84,3.12,1.71,6.18,2.6,9.19,2.47.31,4.92.6,7.35.87,6.9.78,13.58,1.41,20,1.93l.57-8.58c-7.4-.63-15.14-1.42-23.12-2.42-1.01-3.79-1.99-7.68-2.93-11.65-.26-1.09-.52-2.19-.77-3.3,7.67-7.3,17.67-12.37,28.57-15.73l.29-5.74c-11.16,3.2-21.69,7.93-30.41,14.45-1.66-7.78-3.17-15.88-4.56-24.24-2.54-.32-5.11-.67-7.69-1.03,1.83,10.57,3.87,20.74,6.13,30.44Z"/>
      <path class="cls-2" d="M231.95,420.98l.21-3.2c-.74-.07-1.47-.14-2.21-.22.66,1.17,1.33,2.3,2,3.41Z"/>
      <path class="cls-2" d="M220.19,397.56c.71,1.67,1.43,3.29,2.15,4.89.04.08.08.17.11.25.47,1.05.95,2.08,1.43,3.1.75,1.59,1.51,3.16,2.28,4.69.32.09.64.18.96.26-.29-.03-.58-.06-.87-.09.31.61.62,1.2.93,1.8,1.79.19,3.55.36,5.3.52l.74-11.08c-1.48-.39-2.94-.8-4.39-1.24-3.89-8.39-7.51-17.81-10.83-28.15-2.42-.26-4.87-.54-7.34-.84,2.97,9.29,6.16,17.95,9.54,25.9Z"/>
      <path class="cls-2" d="M206.46,427.03c3.28,2.81,6.63,5.44,10.03,7.87l3.85,2.52c1.11.17,2.21.33,3.32.49,2.34.48,4.71.92,7.07,1.33l.28-4.26c-2.21-1.47-4.38-3.03-6.54-4.65-3.48-2.62-6.91-5.42-10.26-8.46-2.7-2.29-5.36-4.71-7.98-7.25-4.94-.73-9.94-1.55-14.97-2.45,4.88,5.42,9.95,10.39,15.18,14.87Z"/>
      <path class="cls-2" d="M217.9,440.07c-11.4-1.85-23.13-4.29-34.51-7.45,11.59,6.04,23.68,10.95,36.18,14.67,3.47.75,6.98,1.4,10.5,2.01l.26-3.92-5.21-3.04c-2.42-.71-4.83-1.47-7.22-2.27Z"/>
      <path class="cls-2" d="M230.46,443.46l.1-1.57c-1.28-.16-2.56-.32-3.87-.5l3.76,2.07Z"/>
      <path class="cls-2" d="M207.51,444.42c7.34,2.49,14.84,4.56,22.46,6.23l.04-.57c-3.51-.84-7-1.76-10.45-2.78-4.05-.87-8.07-1.82-12.06-2.88Z"/>
      <path class="cls-2" d="M363.02,267.92c-.25,2.3-.51,4.59-.78,6.86,1.34.5,2.67,1,3.99,1.53,3.5,1.4,6.91,2.91,10.25,4.53,3.51-.71,7.03-1.45,10.57-2.24-6.39-3.42-13.08-6.48-19.99-9.16,2.69-23.16,4.33-47.71,4.76-73.18-1.45-.42-2.91-.83-4.38-1.23-.37,25.35-1.89,49.8-4.42,72.9Z"/>
      <path class="cls-2" d="M506.45,199.28c-.54,10.85-1.63,21.52-3.21,31.99,3.36-2.63,6.38-5.25,9.08-7.87.42-3.2.8-6.41,1.11-9.64-.87-2.1-1.8-4.22-2.82-6.37-1.31-2.77-2.7-5.46-4.16-8.11Z"/>
      <path class="cls-2" d="M333.31,447.29c-3.55,1.06-7.14,2-10.76,2.86l.04.56c7.73-1.68,15.33-3.77,22.78-6.3-3.98,1.05-8,2.01-12.06,2.88Z"/>
      <path class="cls-2" d="M432.46,224.15c-1.33,15.13-3.41,29.84-6.14,44.04,2.18-.68,4.35-1.38,6.51-2.09,2.33-12.21,4.19-24.78,5.48-37.68-1.91-1.46-3.86-2.89-5.85-4.27Z"/>
      <path class="cls-2" d="M434.28,186.39h-.03c-.05,7.36-.28,14.65-.67,21.86-.17,3.26-.39,6.51-.63,9.74,2.01,1.41,3.99,2.86,5.92,4.36,11.11,8.59,20.83,18.58,28.72,30.11,3.47-1.61,6.76-3.24,9.89-4.87-10.36-13.69-23.22-25.46-37.86-35.39.59-9.35.91-18.83.93-28.43h0v-47.52c-2.07-1.14-4.17-2.24-6.3-3.32v53.47Z"/>
      <path class="cls-3" d="M322.5,449.36l.05.79c3.62-.86,7.21-1.8,10.76-2.86-3.58.77-7.18,1.45-10.81,2.07Z"/>
      <path class="cls-2" d="M445.09,368.94s0-.08,0-.12c.06-.04.12-.07.18-.11,1.05-1.34,2.08-2.68,3.11-4.04,5.72-7.59,11.09-15.56,16.08-23.88-3.7,1.67-7.49,3.27-11.35,4.8-1.74,2.65-3.53,5.24-5.35,7.81-.27-1.76-.63-3.54-1.07-5.37-3.68,1.36-7.41,2.66-11.19,3.89.46,3.36.61,6.59.46,9.69-.15,3.05-.61,5.98-1.31,8.8-2.03,2.42-4.11,4.77-6.22,7.1-14.47,6.59-30.56,11.81-46.96,15.88-2.47,3.42-5,6.71-7.58,9.88-.59.72-1.18,1.44-1.77,2.15,12.69-2.55,25.45-5.68,37.75-9.48,4.4-1.36,8.75-2.81,13.01-4.35,1.14-.41,2.27-.83,3.4-1.25,1.1-1.12,2.19-2.25,3.28-3.4,5.2-5.47,10.19-11.23,14.95-17.23.2-.25.4-.51.6-.76Z"/>
      <path class="cls-2" d="M401.63,402.97c-4.06,3.3-8.2,6.44-12.44,9.43-2.41,1.55-4.86,3.03-7.32,4.48-10.5,6.17-21.46,11.42-32.82,15.68-2.47.5-4.94.98-7.4,1.42-.76.54-1.53,1.07-2.3,1.59l-1.72,1c4.1-.68,8.22-1.41,12.36-2.25,2.69-.54,5.39-1.12,8.09-1.73,7.52-1.72,15-3.72,22.26-6.03,2.65-1.58,5.28-3.23,7.87-4.93,1.64-1.07,3.26-2.17,4.87-3.29,4.46-3.1,8.82-6.37,13.08-9.8,4.37-3.52,8.64-7.22,12.79-11.08-1.25.44-2.5.87-3.77,1.3-4.45,1.5-8.97,2.9-13.55,4.22Z"/>
      <path class="cls-2" d="M368.23,404.4c2.49-3.08,4.92-6.28,7.3-9.6,6.95-9.7,13.42-20.4,19.33-31.96-3.79.83-7.58,1.61-11.37,2.35-6.6,11.91-13.82,22.8-21.57,32.51-3.18.62-6.36,1.2-9.52,1.75-3.55.61-7.07,1.18-10.56,1.7,13.86-6.12,24.37-15.09,25.38-28.03.02-.24.04-.48.05-.72.07-1.38.03-2.81-.13-4.28-.22.04-.44.07-.66.11-2.98.48-5.95.94-8.89,1.38,0,.32,0,.65-.01.97-.01.22-.05.43-.07.64-.88,11.24-9.53,19.2-21.17,24.73-.75,1.73-1.51,3.41-2.28,5.07-.2.43-.4.87-.6,1.29-.39.83-.78,1.65-1.17,2.46-.79,1.63-1.6,3.23-2.41,4.79-.13.26-.27.52-.4.77-.32.61-.64,1.21-.96,1.81,7.65-.85,15.58-1.9,23.65-3.17,4.74-.75,9.53-1.57,14.33-2.47.58-.7,1.16-1.4,1.73-2.11Z"/>
      <path class="cls-2" d="M359.32,186.41s0-.02,0-.03h-.11s.08.02.11.03Z"/>
      <path class="cls-2" d="M359.09,177.88c-25.54-6.25-52.09-9.36-77.54-9.7v8.94c25.55.3,52.19,3.13,77.54,9.24v-8.48Z"/>
      <path class="cls-2" d="M281.55,260.83c24.33.38,49.89,3.78,73.16,11.33.24-2.27.48-4.55.71-6.84-23.78-7.65-49.46-11.41-73.87-11.83v7.34Z"/>
      <path class="cls-2" d="M359.09,92.22c-25.75-5.37-52.13-8.07-77.54-8.37v8.51c25.48.26,51.9,2.68,77.54,7.79v-7.93Z"/>
      <path class="cls-2" d="M501.65,183.66c.01-.78.05-1.56.06-2.34h.04v-13.61c-16.49-19.28-37.5-34.92-61.18-47.24V55.29c-2.08-1.02-4.18-2.03-6.3-3v73.02c2.12,1.08,4.22,2.18,6.3,3.32,24.88,13.69,46.11,31.76,61.08,55.03Z"/>
      <path class="cls-2" d="M371.94,31.79c-1.46-.33-2.93-.64-4.4-.95v71.1c1.47.33,2.94.67,4.4,1.02,19.32,4.6,38.01,10.83,55.31,18.92v-7.87c-17.49-7.9-36.15-14.15-55.31-18.87V31.79Z"/>
      <path class="cls-2" d="M371.94,110.56c-1.46-.35-2.93-.69-4.4-1.02v76.84h-.01c0,.71-.01,1.42-.02,2.14,1.47.4,2.93.81,4.39,1.24,19.39,5.65,37.75,13.36,53.95,23.51.24-3.08.45-6.17.62-9.28-16.74-9.55-35.23-17.06-54.53-22.67v-70.75Z"/>
      <path class="cls-3" d="M281.99,590.74h-11.11c-22.43,0-41.51-16.67-43.84-38.1l-.04.81c-1.31,24.04,18.53,44.23,43.47,44.23h11.94c24.94,0,44.78-20.19,43.47-44.23l-.04-.79c-2.34,21.41-21.44,38.08-43.84,38.08Z"/>
      <path class="cls-3" d="M463.12,275.22c-54.05,21.34-117.04,28.44-150.15,30.78l.46,6.93c11.3-.8,23.52-1.97,36.24-3.58,2.54-.32,5.11-.67,7.69-1.03-1.83,10.57-3.87,20.74-6.13,30.44-.26,1.1-.52,2.19-.78,3.28-.4,1.67-.81,3.33-1.22,4.97-.25,1.01-.51,2.01-.77,3-.4,1.53-.8,3.06-1.21,4.57-.84,3.12-1.71,6.18-2.6,9.19-2.47.31-4.92.6-7.35.87-7.01.79-13.8,1.43-20.32,1.95l.5,7.57c5.61-.45,11.41-1,17.39-1.65,2.42-.26,4.87-.54,7.34-.84-2.97,9.29-6.16,17.95-9.54,25.9-.71,1.67-1.43,3.29-2.15,4.89-.04.08-.08.17-.11.25-.47,1.05-.95,2.08-1.43,3.1-.75,1.59-1.51,3.16-2.28,4.69-.32.09-.64.18-.96.26.29-.03.58-.06.87-.09-.31.61-.62,1.2-.93,1.8-1.9.2-3.76.38-5.61.56l.32,4.8c.84-.08,1.68-.16,2.53-.25-.75,1.34-1.52,2.62-2.29,3.89l.23,3.43c1.62-2.41,3.21-4.93,4.76-7.6,6.79-.73,13.83-1.61,21-2.67,4.94-.73,9.94-1.55,14.97-2.45-4.88,5.42-9.95,10.39-15.18,14.87-3.28,2.81-6.63,5.44-10.03,7.87l-3.85,2.52c-1.11.17-2.21.33-3.32.49-2.45.5-4.91.96-7.39,1.39l.18,2.64c1.39-.17,2.77-.34,4.18-.54l-4.07,2.24.13,1.93,5.51-3.22,2.74-1.6c1.49-.22,2.97-.43,4.48-.67,11.4-1.85,23.13-4.29,34.51-7.45-11.59,6.04-23.68,10.95-36.18,14.67,4.05-.87,8.07-1.82,12.06-2.88,11.51-3.9,22.65-8.77,33.36-14.56,24.54-7.87,46.35-19.43,57.84-36.05-10.53,12.63-27.16,22.16-46.12,29.26,3.33-2.07,6.61-4.23,9.85-6.47,3.84-2.67,7.61-5.46,11.31-8.36,5.19-4.08,10.22-8.41,15.1-12.94.45-.42.9-.82,1.35-1.24.29-.12.57-.24.86-.36,1.99-.8,3.97-1.61,5.92-2.45,1.4-.6,2.78-1.22,4.15-1.85.15-.07.29-.14.44-.21.3-.14.6-.28.91-.43,11.88-5.56,22.62-12.04,31.57-19.54-33.98,35.8-77.55,62.26-126.53,75.19-7.44,2.53-15.05,4.62-22.78,6.3l.06.89c121.27-20.52,215.3-121.09,225.8-245.49,1.79-6.81,2.66-14.02,2.49-21.65-2.61,38.24-32.13,68.77-87.82,90.76ZM423.16,305.88c1.14-3.78,2.21-7.63,3.24-11.51,17.88-4.92,35.24-10.93,51.03-18.21,1.89,4.05,3.47,7.98,4.76,11.8.37-1,.76-1.99,1.12-2.99-.95-3.22-2.14-6.53-3.52-9.92,2.77-1.31,5.49-2.67,8.16-4.07,1.02-.53,2.03-1.07,3.03-1.62,1.63-.89,3.24-1.8,4.83-2.72-.74,2.72-1.51,5.43-2.32,8.12-2.26,7.49-4.77,14.84-7.55,22.01-.26.67-.53,1.32-.79,1.99-1.78,4.5-3.67,8.93-5.64,13.29-2.84,6.26-5.88,12.38-9.11,18.34-3.53,1.71-7.16,3.35-10.86,4.93-4.84,2.06-9.8,4-14.87,5.83-3.48,1.26-7.02,2.45-10.58,3.6-.45.15-.9.29-1.35.43-9,2.86-18.22,5.41-27.53,7.66,1.72-3.63,3.4-7.33,5.01-11.11,3.1-7.26,5.99-14.79,8.67-22.56,3.82,5.04,7.18,10.46,9.96,16.35.06.14.12.27.18.4.63-.21,1.25-.44,1.88-.65-.63-1.54-1.31-3.1-2.06-4.69-2.5-5.29-5.47-10.21-8.81-14.81,1.08-3.26,2.13-6.56,3.13-9.9ZM350.96,354.04c.03-.12.07-.25.1-.37.07.11.15.21.21.32.7-.1,1.39-.21,2.09-.31-.48-.96-1-1.89-1.54-2.8.53-1.96,1.06-3.93,1.57-5.93.27-1.05.54-2.12.8-3.18,2.69-10.78,5.1-22.17,7.23-34.05,12.8-1.87,25.96-4.18,39.11-7.03,2.61,2.06,5.14,4.19,7.54,6.45.4-1.26.79-2.53,1.18-3.8-1.29-1.27-2.63-2.49-3.99-3.69,1.81-.41,3.63-.83,5.44-1.26,1.28-.31,2.57-.61,3.85-.93,1.81-.45,3.62-.9,5.42-1.37-.45,1.7-.89,3.42-1.37,5.11-.88,3.13-1.79,6.22-2.73,9.28-.37,1.2-.75,2.4-1.13,3.6-3.26,10.21-6.89,20.02-10.86,29.37-1.56,3.69-3.18,7.3-4.85,10.85-3.67.84-7.35,1.62-11.03,2.37-7.54,1.54-15.07,2.9-22.5,4.09-.48.08-.96.15-1.43.23-2.5.4-4.98.77-7.45,1.13-.41.06-.82.12-1.23.18-2.4.34-4.79.67-7.16.98.93-3.02,1.83-6.11,2.71-9.25ZM352.16,408.98c-8.08,1.27-16.01,2.32-23.65,3.17.32-.6.64-1.2.96-1.81.13-.26.27-.52.4-.77.81-1.56,1.62-3.16,2.41-4.79.39-.81.79-1.63,1.17-2.46.2-.43.4-.86.6-1.29.77-1.66,1.53-3.35,2.28-5.07,3.32-7.63,6.45-15.89,9.38-24.72,3.83-.48,7.7-1.02,11.61-1.59.07.53.14,1.06.18,1.57.02-.22.05-.42.07-.64.02-.32.01-.65.01-.97,2.95-.43,5.91-.89,8.89-1.38.22-.04.44-.07.66-.11,5.41-.89,10.87-1.86,16.35-2.92,3.78-.74,7.58-1.52,11.37-2.35-5.91,11.56-12.37,22.26-19.33,31.96-2.38,3.32-4.81,6.52-7.3,9.6-.57.71-1.15,1.41-1.73,2.11-4.81.9-9.6,1.72-14.33,2.47ZM406.16,408.54c-4.26,3.43-8.62,6.71-13.08,9.8-1.61,1.12-3.24,2.22-4.87,3.29-2.59,1.7-5.22,3.35-7.87,4.93-7.25,2.31-14.73,4.32-22.26,6.03-2.69.61-5.39,1.19-8.09,1.73-4.14.84-8.26,1.57-12.36,2.25l1.72-1c.77-.53,1.53-1.05,2.3-1.59,2.46-.45,4.93-.92,7.4-1.42,11.36-4.26,22.32-9.51,32.82-15.68-9.47,3.59-19.55,6.51-29.73,8.88,5.16-4.43,10.15-9.32,14.97-14.62,11.54-2.22,23.18-4.92,34.52-8.17,4.58-1.31,9.1-2.72,13.55-4.22,1.26-.43,2.52-.86,3.77-1.3-4.15,3.87-8.41,7.56-12.79,11.08ZM429.54,386.94c-1.09,1.14-2.18,2.28-3.28,3.4-1.13.42-2.26.84-3.4,1.25-4.26,1.54-8.61,2.99-13.01,4.35-12.3,3.81-25.05,6.94-37.75,9.48.59-.71,1.18-1.43,1.77-2.15,2.59-3.17,5.12-6.46,7.58-9.88,7.01-9.71,13.52-20.38,19.47-31.91,11.42-2.65,22.76-5.73,33.73-9.29.72,3.25,1.14,6.39,1.29,9.42.16-3.1,0-6.33-.46-9.69,3.78-1.24,7.51-2.54,11.19-3.89,2.16-.8,4.31-1.61,6.42-2.44,3.86-1.53,7.65-3.13,11.35-4.8-4.99,8.32-10.36,16.29-16.08,23.88-1.03,1.36-2.06,2.71-3.11,4.04-.06.04-.12.07-.18.11,0,.04,0,.08,0,.12-.2.26-.4.51-.6.76-4.76,6.01-9.75,11.76-14.95,17.23ZM501.12,319.46c-1.11,7.94-3.69,15.26-7.5,22-8.72,15.44-23.87,27.84-42.47,37.74-2.44,1.3-4.94,2.55-7.5,3.77-.56.27-1.12.53-1.68.79-.18.09-.37.17-.56.25-.82.38-1.65.76-2.48,1.13-1.08.48-2.17.96-3.27,1.42,1.23-1.27,2.46-2.55,3.67-3.84.61-.65,1.23-1.3,1.83-1.97.9-.99,1.79-2,2.69-3,1.03-1.16,2.05-2.33,3.06-3.51,4.03-4.72,7.91-9.6,11.64-14.65,5.51-7.46,10.69-15.26,15.49-23.39,2.37-1.2,4.69-2.45,6.96-3.72,4.91-2.75,9.58-5.67,13.99-8.74-13.16,20.39-29.04,38.83-47.14,54.78,3.7-1.94,7.28-3.98,10.68-6.12,14.34-13.75,27.11-29.11,38.04-45.79.42-1.56.78-3.14,1.08-4.75.31-.22.61-.45.91-.67.87-.65,1.73-1.31,2.58-1.97.08-.06.15-.12.23-.18-.08.14-.17.28-.26.41ZM535.64,251.5c-.25,5.07-1.02,9.93-2.24,14.59-.99,3.78-2.27,7.43-3.84,10.96-4.51,10.1-11.32,19.15-19.88,27.25-2,1.89-4.12,3.72-6.3,5.52-.55.45-1.07.91-1.63,1.35-1.01.8-2.04,1.59-3.09,2.37,0,0,0,0,0,0-4.4,3.28-9.11,6.38-14.08,9.3-1.46.86-2.95,1.7-4.46,2.53,2.18-4.1,4.28-8.26,6.28-12.5,1.37-2.9,2.68-5.84,3.95-8.8,3.49-2.86,6.76-5.86,9.76-9-.64-3.09-1.48-6.25-2.52-9.49,2.84-8.05,5.35-16.29,7.52-24.7,5.94-3.96,11.44-8.2,16.42-12.72,3.23-2.93,6.23-5.97,9-9.14,1.32-1.52,2.59-3.06,3.8-4.64.09-.12.18-.24.27-.36.99,6.08,1.33,11.91,1.05,17.48Z"/>
      <path class="cls-3" d="M438.31,228.42c9.73,7.45,18.4,15.98,25.74,25.66,1.2-.54,2.38-1.08,3.55-1.62-7.89-11.53-17.61-21.53-28.72-30.11-1.93-1.49-3.91-2.95-5.92-4.36.24-3.23.45-6.47.63-9.74.39-7.21.61-14.5.67-21.86h.03v-53.47c2.12,1.08,4.22,2.18,6.3,3.32,24.77,13.63,45.93,31.61,60.89,54.73-.62,15.48-2.35,30.61-5.06,45.31,2.42-1.67,4.7-3.34,6.83-5.01,1.58-10.47,2.67-21.14,3.21-31.99,1.46,2.64,2.86,5.34,4.16,8.11,1.02,2.15,1.95,4.28,2.82,6.37.86,2.07,1.63,4.11,2.34,6.13.63-.68,1.24-1.35,1.83-2.03-1.01-3.38-2.21-6.83-3.62-10.36-1.02-2.54-2.13-5.11-3.37-7.73-1.22-2.6-2.52-5.13-3.89-7.62.05-1.92.1-3.84.12-5.77h.04v-79.04c2.85,3.66,5.54,7.45,8.07,11.39,3.45,5.38,6.6,11.02,9.39,16.93,3.31,7.02,5.87,13.76,7.75,20.24-1.45-8.49-4.05-17.68-8.69-27.51-18.4-38.99-52.84-68.76-102.36-88.48-52.05-20.73-107.52-25.08-144.89-25.08s-93.2,4.31-145.05,24.87c-49.62,19.67-83.92,49.51-101.95,88.69-4.62,10.04-7.15,19.43-8.53,28.1,1.89-6.66,4.5-13.59,7.91-20.83,2.79-5.92,5.94-11.55,9.39-16.93,2.52-3.93,5.22-7.73,8.07-11.39v79.04h.04c.02,1.93.07,3.85.12,5.77-1.36,2.49-2.66,5.02-3.89,7.62-1.24,2.62-2.35,5.19-3.37,7.73-1.3,3.23-2.4,6.39-3.35,9.49.61.68,1.23,1.35,1.87,2.02.63-1.73,1.3-3.48,2.03-5.25.87-2.1,1.8-4.22,2.82-6.37,1.31-2.77,2.7-5.46,4.16-8.11.51,10.31,1.52,20.47,2.98,30.44,2.19,1.71,4.46,3.36,6.78,4.97-2.54-14.19-4.18-28.79-4.77-43.71,14.96-23.13,36.12-41.1,60.89-54.73,2.07-1.14,4.17-2.24,6.3-3.32v53.47h.03c.05,7.36.28,14.65.67,21.86.17,3.26.39,6.51.63,9.74-2.01,1.41-3.99,2.86-5.92,4.36-10.81,8.35-20.29,18.05-28.06,29.19,1.19.56,2.39,1.11,3.58,1.66,7.2-9.31,15.62-17.55,25.05-24.76,1.91-1.46,3.86-2.89,5.85-4.27,1.31,14.84,3.34,29.26,5.98,43.2,2.9.94,5.81,1.86,8.73,2.74-3.42-16.21-6-33.13-7.58-50.62,16.1-10,34.3-17.62,53.51-23.21,1.45-.42,2.91-.83,4.38-1.23.37,25.35,1.89,49.8,4.42,72.9.25,2.3.51,4.59.78,6.86-1.34.5-2.67,1-3.99,1.53-3.37,1.35-6.68,2.81-9.91,4.36,2.55.54,5.09,1.05,7.6,1.54.97-.41,1.94-.81,2.92-1.2,1.31-.52,2.63-1.01,3.96-1.5.17,1.37.36,2.73.54,4.09,2.66.48,5.3.93,7.9,1.36-.34-2.66-.66-5.33-.97-8.03,23.13-7.43,48.49-10.79,72.64-11.17v24.57h10.23v-24.57c24.14.37,49.51,3.74,72.64,11.17-.31,2.72-.64,5.41-.98,8.09,2.61-.41,5.24-.85,7.89-1.31.19-1.4.38-2.8.55-4.21,1.33.49,2.65.99,3.96,1.5,1.08.43,2.14.87,3.21,1.32,2.54-.47,5.09-.97,7.66-1.49-3.34-1.62-6.76-3.13-10.25-4.53-1.32-.53-2.65-1.03-3.99-1.53.27-2.27.53-4.56.78-6.86,2.52-23.09,4.05-47.54,4.42-72.9,1.47.4,2.92.81,4.38,1.23,19.21,5.59,37.42,13.21,53.51,23.21-1.61,17.75-4.23,34.91-7.73,51.35,2.92-.85,5.83-1.72,8.72-2.63,2.72-14.2,4.8-28.91,6.14-44.04,1.99,1.38,3.94,2.81,5.85,4.27ZM434.28,117.3V52.29c2.12.97,4.22,1.98,6.3,3,23.66,11.66,44.66,26.74,61.18,45.81v80.21h-.04c0,.78-.04,1.56-.06,2.34-14.97-23.27-36.2-41.34-61.08-55.03-2.07-1.14-4.17-2.24-6.3-3.32v-8ZM118.6,117.3v8c-2.12,1.08-4.22,2.18-6.3,3.32-24.88,13.69-46.11,31.76-61.08,55.03-.01-.78-.05-1.56-.06-2.34h-.04v-80.21c16.52-19.07,37.52-34.15,61.18-45.81,2.08-1.02,4.18-2.03,6.3-3v65.01ZM125.63,114V49.19c17.48-7.41,36.14-13.15,55.31-17.41,1.46-.33,2.93-.64,4.4-.95v71.1c-1.47.33-2.94.67-4.4,1.02-19.32,4.6-38.01,10.83-55.31,18.92v-7.87ZM180.98,189.76c-19.39,5.65-37.75,13.36-53.95,23.51-.24-3.08-.45-6.17-.62-9.28-.44-7.71-.7-15.52-.75-23.41h-.03v-51.1c17.3-8.09,35.99-14.32,55.31-18.92,1.46-.35,2.93-.69,4.4-1.02v76.84h.01c0,.71.01,1.42.02,2.14-1.47.4-2.93.81-4.39,1.24ZM193.56,186.39h.11s-.08.02-.11.03c0,0,0-.02,0-.03ZM271.33,253.49v7.34c-24.33.38-49.89,3.78-73.16,11.33-.24-2.27-.48-4.55-.71-6.84-2.25-22.9-3.57-47.19-3.85-72.39,25.41-6.13,52.11-8.98,77.72-9.28v69.85ZM271.33,168.18v8.94c-25.55.3-52.19,3.13-77.54,9.24v-78.6c25.64-5.11,52.06-7.52,77.54-7.79v68.21ZM271.33,83.85v8.51c-25.48.26-51.9,2.68-77.54,7.79V29.16c25.71-4.8,52.07-7.1,77.54-7.36v62.05ZM281.55,83.85V21.8c25.47.26,51.83,2.56,77.54,7.36v70.99c-25.64-5.11-52.06-7.52-77.54-7.79v-8.51ZM281.55,168.18v-68.21c25.48.26,51.9,2.68,77.54,7.79v78.6c-25.35-6.1-51.99-8.93-77.54-9.24v-8.94ZM355.42,265.32c-.23,2.3-.46,4.58-.71,6.84-23.27-7.55-48.84-10.96-73.16-11.33v-77.18c25.61.3,52.31,3.15,77.72,9.28-.28,25.2-1.6,49.49-3.85,72.39ZM359.32,186.41s-.08-.02-.11-.03h.11s0,.02,0,.03ZM427.25,180.58h-.03c-.06,7.89-.31,15.69-.75,23.41-.18,3.11-.39,6.21-.62,9.28-16.2-10.14-34.56-17.86-53.95-23.51-1.46-.42-2.92-.84-4.39-1.24,0-.71.01-1.42.02-2.14h.01v-76.84c1.47.33,2.94.67,4.4,1.02,19.32,4.6,38.01,10.83,55.31,18.92v51.1ZM427.25,114v7.87c-17.3-8.09-35.99-14.32-55.31-18.92-1.46-.35-2.93-.69-4.4-1.02V30.83c1.47.31,2.94.63,4.4.95,19.17,4.26,37.83,10,55.31,17.41v64.81Z"/>
      <path class="cls-2" d="M116.31,393.81c10.53,12.63,27.16,22.16,46.12,29.26-3.33-2.07-6.61-4.23-9.85-6.47-12.66-5.86-23.66-13.06-31.61-21.85-1.03-1.14-2-2.31-2.93-3.5-1.4-.6-2.78-1.22-4.15-1.85-.15-.07-.29-.14-.44-.21-.3-.14-.6-.28-.91-.43-11.88-5.56-22.62-12.04-31.57-19.54,33.98,35.8,77.55,62.26,126.53,75.19-11.51-3.9-22.65-8.77-33.36-14.56-24.54-7.87-46.35-19.43-57.84-36.05Z"/>
      <path class="cls-2" d="M109.22,382.97c.56.27,1.12.53,1.68.79.18.09.37.17.56.25.82.38,1.65.76,2.48,1.13,1.08.48,2.17.96,3.27,1.42-1.23-1.27-2.46-2.55-3.67-3.84-.61-.65-1.23-1.3-1.83-1.97-.9-.99-1.79-2-2.69-3-1.03-1.16-2.05-2.33-3.06-3.51-4.03-4.72-7.91-9.6-11.64-14.65-9.81-7.78-17.58-16.77-22.45-27.11-4.91-2.75-9.58-5.67-13.99-8.74,13.16,20.39,29.04,38.83,47.14,54.78-3.7-1.94-7.28-3.98-10.68-6.12-18.88-11.86-32.89-26.89-38.04-45.79-.42-1.56-.78-3.14-1.08-4.75-.31-.22-.61-.45-.91-.67-.87-.65-1.73-1.31-2.58-1.97-.08-.06-.15-.12-.23-.18.08.14.17.28.26.41,1.11,7.94,3.69,15.26,7.5,22,8.72,15.44,23.87,27.84,42.47,37.74,2.44,1.3,4.94,2.55,7.5,3.77Z"/>
      <path class="cls-2" d="M124.83,394.06c-.29-.12-.57-.24-.86-.36.73.54,1.47,1.07,2.21,1.6-.45-.42-.9-.82-1.35-1.24Z"/>
      <path class="cls-3" d="M231.26,431.29c-2.24-.3-4.5-.61-6.79-.97,2.16,1.62,4.34,3.18,6.54,4.65l.24-3.68Z"/>
      <path class="cls-3" d="M185.61,376.43c.49,9.72,6.29,17.24,14.87,23.02,3.55.61,7.07,1.18,10.56,1.7-13.86-6.12-24.37-15.09-25.38-28.03-.08,1.13-.11,2.24-.05,3.31Z"/>
      <path class="cls-3" d="M210.09,343.9c7.51-6.87,17.13-11.71,27.6-14.95l.2-4.08c-10.91,3.36-20.91,8.43-28.57,15.73.25,1.11.51,2.2.77,3.3Z"/>
      <path class="cls-2" d="M66.94,296.79c.26.67.53,1.32.79,1.99,1.78,4.5,3.67,8.93,5.64,13.29,2.84,6.26,5.88,12.38,9.11,18.34,3.53,1.71,7.16,3.35,10.86,4.93,4.84,2.06,9.8,4,14.87,5.83,3.48,1.26,7.02,2.45,10.58,3.6.45.15.9.29,1.35.43,9,2.86,18.22,5.41,27.53,7.66-1.72-3.63-3.4-7.33-5.01-11.11-6.36-1.78-12.65-3.71-18.81-5.81-.63-.21-1.25-.44-1.88-.65.63-1.54,1.31-3.1,2.06-4.69,2.5-5.29,5.47-10.21,8.81-14.81-1.08-3.26-2.13-6.56-3.13-9.9-6.72,7.28-12.44,15.39-16.89,24.38-.23.47-.45.93-.67,1.4-9.9-3.86-19.34-8.19-28.04-13.05-5-9.83-9.49-20.06-13.43-30.64-.37-1-.76-1.99-1.12-2.99.95-3.22,2.14-6.53,3.52-9.92-2.77-1.31-5.49-2.67-8.16-4.07-1.02-.53-2.03-1.07-3.03-1.62-1.63-.89-3.24-1.8-4.83-2.72.74,2.72,1.51,5.43,2.32,8.12,2.26,7.49,4.77,14.84,7.55,22.01Z"/>
      <path class="cls-2" d="M54.22,313.53c4.4,3.28,9.11,6.38,14.08,9.3,1.46.86,2.95,1.7,4.46,2.53-2.18-4.1-4.28-8.26-6.28-12.5-1.37-2.9-2.68-5.84-3.95-8.8-3.49-2.86-6.76-5.86-9.76-9-12.46-13.06-20.33-28.56-21.42-46.92-3.23-2.93-6.23-5.97-9-9.14-1.32-1.52-2.59-3.06-3.8-4.64-.09-.12-.18-.24-.27-.36-.99,6.08-1.33,11.91-1.05,17.48.25,5.07,1.02,9.93,2.24,14.59.99,3.78,2.27,7.43,3.84,10.96,4.51,10.1,11.32,19.15,19.88,27.25,2,1.89,4.12,3.72,6.3,5.52.55.45,1.07.91,1.63,1.35,1.01.8,2.04,1.59,3.09,2.37,0,0,0,0,0,0Z"/>
      <path class="cls-2" d="M137,310.49c.37,1.2.75,2.4,1.13,3.6,3.26,10.21,6.89,20.02,10.86,29.37,1.56,3.69,3.18,7.3,4.85,10.85,3.67.84,7.35,1.62,11.03,2.37,7.54,1.54,15.07,2.9,22.5,4.09.48.08.96.15,1.43.23,2.5.4,4.98.77,7.45,1.13.41.06.82.12,1.23.18,2.4.34,4.79.67,7.16.98-.93-3.02-1.83-6.11-2.71-9.25-.11-.02-.21-.03-.32-.05-.7-.1-1.39-.21-2.09-.31.48-.96,1-1.89,1.54-2.8-.53-1.96-1.06-3.93-1.57-5.93-.27-1.05-.54-2.12-.8-3.18-2.93,3.21-5.49,6.74-7.6,10.57-10.34-1.72-20.86-3.78-31.32-6.23-5.6-12.19-10.61-25.22-14.96-38.96-.4-1.26-.79-2.53-1.18-3.8,1.29-1.27,2.63-2.49,3.99-3.69-1.81-.41-3.63-.83-5.44-1.26-1.28-.31-2.57-.61-3.85-.93-1.81-.45-3.62-.9-5.42-1.37.45,1.7.89,3.42,1.37,5.11.88,3.13,1.79,6.22,2.73,9.28Z"/>
      <path class="cls-3" d="M230.02,450.07l.05-.77c-3.52-.61-7.02-1.27-10.5-2.01,3.45,1.03,6.94,1.94,10.45,2.78Z"/>
      <path class="cls-2" d="M180.77,405.42c-.59-.71-1.18-1.43-1.77-2.15-2.59-3.17-5.12-6.46-7.58-9.88-16.4-4.08-32.49-9.29-46.96-15.88-2.11-2.33-4.19-4.68-6.22-7.1-.71-2.82-1.16-5.75-1.31-8.8-.16-3.1,0-6.33.46-9.69-3.78-1.24-7.51-2.54-11.19-3.89-.44,1.82-.8,3.61-1.07,5.37-1.82-2.57-3.61-5.16-5.35-7.81-3.86-1.53-7.65-3.13-11.35-4.8,4.99,8.32,10.36,16.29,16.08,23.88,1.03,1.36,2.06,2.71,3.11,4.04.06.04.12.07.18.11,0,.04,0,.08,0,.12.2.26.4.51.6.76,4.76,6.01,9.75,11.76,14.95,17.23,1.09,1.14,2.18,2.28,3.28,3.4,1.13.42,2.26.84,3.4,1.25,4.26,1.54,8.61,2.99,13.01,4.35,12.3,3.81,25.05,6.94,37.75,9.48Z"/>
      <path class="cls-2" d="M151.25,402.97c-4.58-1.31-9.1-2.72-13.55-4.22-1.26-.43-2.52-.86-3.77-1.3,4.15,3.87,8.41,7.56,12.79,11.08,4.26,3.43,8.62,6.71,13.08,9.8,1.61,1.12,3.24,2.22,4.87,3.29,2.59,1.7,5.22,3.35,7.87,4.93,7.25,2.31,14.73,4.32,22.26,6.03,2.69.61,5.39,1.19,8.09,1.73,4.14.84,8.26,1.57,12.36,2.25l-1.72-1c-.77-.53-1.53-1.05-2.3-1.59-2.46-.45-4.93-.92-7.4-1.42-11.36-4.26-22.32-9.51-32.82-15.68-2.46-1.45-4.91-2.93-7.32-4.48-4.24-2.99-8.39-6.14-12.44-9.43Z"/>
      <path class="cls-2" d="M195.37,371.22c-.02-.22-.05-.42-.07-.64-.02-.32-.01-.65-.01-.97-2.95-.43-5.91-.89-8.89-1.38-.22-.04-.44-.07-.66-.11-.15,1.47-.2,2.9-.13,4.28.01.24.04.48.05.72,1.01,12.94,11.51,21.91,25.38,28.03-3.49-.52-7.02-1.08-10.56-1.7-3.16-.54-6.33-1.12-9.52-1.75-7.75-9.7-14.97-20.59-21.57-32.51-3.78-.74-7.58-1.52-11.37-2.35,5.91,11.56,12.37,22.26,19.33,31.96,2.38,3.32,4.81,6.52,7.3,9.6.57.71,1.15,1.41,1.73,2.11,4.81.9,9.6,1.72,14.33,2.47,8.08,1.27,16.01,2.32,23.65,3.17-.32-.6-.64-1.2-.96-1.81-.13-.26-.27-.52-.4-.77-.81-1.56-1.62-3.16-2.41-4.79-.39-.81-.79-1.63-1.17-2.46-.2-.43-.4-.86-.6-1.29-.77-1.66-1.53-3.35-2.28-5.07-11.64-5.54-20.3-13.5-21.17-24.73Z"/>
      <path class="cls-2" d="M193.56,186.39s0,.02,0,.03c.04,0,.08-.02.11-.03h-.11Z"/>
      <path class="cls-2" d="M193.79,186.36c25.35-6.1,51.99-8.93,77.54-9.24v-8.94c-25.45.34-52,3.45-77.54,9.7v8.48Z"/>
      <path class="cls-2" d="M198.16,272.16c23.27-7.55,48.84-10.96,73.16-11.33v-7.34c-24.41.42-50.09,4.18-73.87,11.83.23,2.3.46,4.58.71,6.84Z"/>
      <path class="cls-2" d="M193.79,100.15c25.64-5.11,52.06-7.52,77.54-7.79v-8.51c-25.41.29-51.79,2.99-77.54,8.37v7.93Z"/>
      <path class="cls-2" d="M112.31,120.46c-23.68,12.32-44.69,27.96-61.18,47.24v13.61h.04c0,.78.04,1.56.06,2.34,14.97-23.27,36.2-41.34,61.08-55.03,2.07-1.14,4.17-2.24,6.3-3.32V52.29c-2.12.97-4.22,1.98-6.3,3v65.17Z"/>
      <path class="cls-2" d="M185.34,101.94V30.83c-1.47.31-2.94.63-4.4.95v63.35c-19.16,4.71-37.82,10.97-55.31,18.87v7.87c17.3-8.09,35.99-14.32,55.31-18.92,1.46-.35,2.93-.69,4.4-1.02Z"/>
      <path class="cls-2" d="M185.34,186.39v-76.84c-1.47.33-2.94.67-4.4,1.02v70.75c-19.3,5.62-37.79,13.12-54.53,22.67.18,3.11.39,6.21.62,9.28,16.2-10.14,34.56-17.86,53.95-23.51,1.46-.42,2.92-.84,4.39-1.24,0-.71-.01-1.42-.02-2.14h-.01Z"/>
      <path class="cls-3" d="M229.98,450.64c-7.62-1.67-15.12-3.73-22.46-6.23-48.99-12.93-92.55-39.38-126.53-75.19,8.95,7.5,19.69,13.98,31.57,19.54.3.14.6.29.91.43.15.07.29.14.44.21,1.37.63,2.75,1.24,4.15,1.85,1.94.84,3.92,1.65,5.92,2.45.29.12.57.24.86.36.45.42.9.83,1.35,1.24,4.88,4.53,9.91,8.86,15.1,12.94,3.7,2.91,7.46,5.7,11.31,8.36,3.23,2.24,6.52,4.4,9.85,6.47-18.96-7.1-35.59-16.63-46.12-29.26,11.49,16.62,33.31,28.18,57.84,36.05,10.71,5.78,21.85,10.65,33.36,14.56,3.98,1.05,8,2.01,12.06,2.88-12.49-3.72-24.59-8.63-36.18-14.67,11.37,3.16,23.11,5.6,34.51,7.45,1.51.24,2.99.45,4.48.67l2.74,1.6,5.21,3.04.13-1.92-3.76-2.07c1.3.18,2.58.34,3.87.5l.18-2.66c-2.37-.41-4.73-.85-7.07-1.33-1.1-.16-2.21-.32-3.32-.49l-3.85-2.52c-3.41-2.42-6.75-5.05-10.03-7.87-5.23-4.48-10.3-9.45-15.18-14.87,5.03.9,10.03,1.72,14.97,2.45,7.17,1.06,14.21,1.95,21,2.67,1.46,2.51,2.96,4.89,4.48,7.16l.23-3.47c-.67-1.11-1.34-2.24-2-3.41.74.08,1.48.15,2.21.22l.32-4.81c-1.75-.17-3.51-.34-5.3-.52-.31-.6-.62-1.19-.93-1.8.29.03.58.06.87.09-.32-.09-.64-.17-.96-.26-.77-1.53-1.53-3.1-2.28-4.69-.48-1.02-.96-2.05-1.43-3.1-.04-.08-.08-.17-.11-.25-.72-1.6-1.44-3.23-2.15-4.89-3.38-7.95-6.57-16.61-9.54-25.9,2.47.3,4.92.58,7.34.84,5.86.64,11.56,1.17,17.07,1.62l.5-7.57c-6.43-.52-13.11-1.15-20-1.93-2.43-.27-4.87-.56-7.35-.87-.89-3-1.75-6.07-2.6-9.19-.41-1.51-.81-3.03-1.21-4.57-.26-1-.52-2-.77-3-.41-1.64-.82-3.3-1.22-4.97-.26-1.09-.52-2.18-.78-3.28-2.26-9.7-4.3-19.87-6.13-30.44,2.58.36,5.15.7,7.69,1.03,12.37,1.57,24.25,2.72,35.28,3.51l.34-6.88c-33.22-2.33-96.32-9.41-149.97-30.76C33.75,253.28,4.53,222.71,1.95,184.34c-.19,7.68.68,14.93,2.48,21.77,10.49,124.29,104.37,224.8,225.49,245.43l.06-.9ZM126.62,390.33c-1.1-1.12-2.19-2.25-3.28-3.4-5.2-5.47-10.19-11.23-14.95-17.23-.2-.25-.4-.51-.6-.76,0-.04,0-.08,0-.12-.06-.04-.12-.07-.18-.11-1.05-1.34-2.08-2.68-3.11-4.04-5.72-7.59-11.09-15.56-16.08-23.88,3.7,1.67,7.49,3.27,11.35,4.8,2.12.84,4.26,1.65,6.42,2.44,3.68,1.36,7.41,2.66,11.19,3.89-.46,3.36-.61,6.59-.46,9.69.15-3.03.58-6.17,1.29-9.42,10.98,3.56,22.31,6.64,33.73,9.29,5.95,11.53,12.47,22.2,19.47,31.91,2.47,3.42,5,6.71,7.58,9.88.59.72,1.18,1.44,1.77,2.15-12.69-2.55-25.45-5.68-37.75-9.48-4.4-1.36-8.75-2.81-13.01-4.35-1.14-.41-2.27-.83-3.4-1.25ZM200.74,425.76c-10.17-2.37-20.26-5.29-29.73-8.88,10.5,6.17,21.46,11.42,32.82,15.68,2.47.5,4.94.98,7.4,1.42.76.54,1.53,1.07,2.3,1.59l1.72,1c-4.1-.68-8.22-1.41-12.36-2.25-2.69-.54-5.39-1.12-8.09-1.73-7.52-1.72-15-3.72-22.26-6.03-2.65-1.58-5.28-3.23-7.87-4.93-1.64-1.07-3.26-2.17-4.87-3.29-4.46-3.1-8.82-6.37-13.08-9.8-4.37-3.52-8.64-7.22-12.79-11.08,1.25.44,2.5.87,3.77,1.3,4.45,1.5,8.97,2.9,13.55,4.22,11.33,3.25,22.97,5.95,34.52,8.17,4.82,5.3,9.82,10.19,14.97,14.62ZM207.17,371.23c2.93,8.83,6.06,17.09,9.38,24.72.75,1.73,1.51,3.41,2.28,5.07.2.43.4.87.6,1.29.39.83.78,1.65,1.17,2.46.79,1.63,1.6,3.23,2.41,4.79.13.26.27.52.4.77.32.61.64,1.21.96,1.81-7.65-.85-15.58-1.9-23.65-3.17-4.74-.75-9.53-1.57-14.33-2.47-.58-.7-1.16-1.4-1.73-2.11-2.49-3.08-4.92-6.28-7.3-9.6-6.95-9.7-13.42-20.4-19.33-31.96,3.79.83,7.58,1.61,11.37,2.35,5.48,1.07,10.94,2.04,16.35,2.92.22.04.44.07.66.11,2.98.48,5.95.94,8.89,1.38,0,.32,0,.65.01.97.01.22.05.43.07.64.04-.52.11-1.04.18-1.57,3.91.57,7.79,1.1,11.61,1.59ZM138.33,297.47c1.28.32,2.56.62,3.85.93,1.81.43,3.62.85,5.44,1.26-1.36,1.2-2.7,2.43-3.99,3.69.39,1.27.78,2.54,1.18,3.8,2.39-2.27,4.93-4.4,7.54-6.45,13.15,2.84,26.31,5.16,39.11,7.03,2.13,11.88,4.54,23.26,7.23,34.05.27,1.07.53,2.13.8,3.18.51,2,1.04,3.97,1.57,5.93-.54.91-1.05,1.84-1.54,2.8.7.1,1.4.21,2.09.31.07-.11.14-.21.21-.32.03.12.07.25.1.37.88,3.14,1.78,6.23,2.71,9.25-2.37-.31-4.76-.64-7.16-.98-.41-.06-.82-.12-1.23-.18-2.47-.36-4.95-.74-7.45-1.13-.48-.08-.96-.15-1.43-.23-7.43-1.19-14.96-2.56-22.5-4.09-3.68-.75-7.36-1.54-11.03-2.37-1.67-3.54-3.29-7.16-4.85-10.85-3.97-9.36-7.6-19.17-10.86-29.37-.38-1.19-.76-2.39-1.13-3.6-.94-3.06-1.85-6.15-2.73-9.28-.47-1.69-.91-3.4-1.37-5.11,1.8.47,3.61.93,5.42,1.37ZM61.9,269.37c1,.54,2.01,1.08,3.03,1.62,2.67,1.4,5.39,2.75,8.16,4.07-1.38,3.38-2.57,6.7-3.52,9.92.36,1,.75,1.99,1.12,2.99,1.29-3.82,2.87-7.75,4.76-11.8,15.79,7.28,33.15,13.29,51.03,18.21,1.04,3.88,2.1,7.73,3.24,11.51,1.01,3.34,2.05,6.64,3.13,9.9-3.34,4.6-6.31,9.52-8.81,14.81-.75,1.59-1.43,3.15-2.06,4.69.63.22,1.25.44,1.88.65.06-.13.12-.27.18-.4,2.78-5.89,6.14-11.32,9.96-16.35,2.67,7.77,5.56,15.3,8.67,22.56,1.61,3.78,3.29,7.48,5.01,11.11-9.3-2.25-18.53-4.8-27.53-7.66-.45-.14-.9-.29-1.35-.43-3.57-1.15-7.1-2.35-10.58-3.6-5.07-1.83-10.03-3.77-14.87-5.83-3.7-1.57-7.33-3.21-10.86-4.93-3.23-5.96-6.27-12.08-9.11-18.34-1.98-4.36-3.86-8.79-5.64-13.29-.26-.66-.53-1.32-.79-1.99-2.78-7.17-5.29-14.52-7.55-22.01-.81-2.69-1.58-5.4-2.32-8.12,1.59.92,3.2,1.83,4.83,2.72ZM49.5,309.81c-2.18-1.79-4.3-3.62-6.3-5.52-8.56-8.1-15.37-17.14-19.88-27.25-1.57-3.52-2.85-7.17-3.84-10.96-1.22-4.66-1.99-9.52-2.24-14.59-.28-5.57.05-11.4,1.05-17.48.09.12.18.24.27.36,1.21,1.57,2.47,3.12,3.8,4.64,2.77,3.17,5.77,6.22,9,9.14,4.99,4.52,10.48,8.76,16.42,12.72,2.17,8.41,4.68,16.66,7.52,24.7-1.04,3.24-1.88,6.4-2.52,9.49,3,3.14,6.26,6.13,9.76,9,1.28,2.96,2.59,5.9,3.95,8.8,2,4.24,4.09,8.4,6.28,12.5-1.5-.83-2.99-1.67-4.46-2.53-4.97-2.93-9.68-6.02-14.08-9.3,0,0,0,0,0,0-1.05-.78-2.08-1.57-3.09-2.37-.56-.44-1.08-.9-1.63-1.35ZM59.26,341.46c-3.81-6.74-6.38-14.06-7.5-22-.08-.14-.17-.28-.26-.41.08.06.15.12.23.18.85.66,1.71,1.32,2.58,1.97.3.23.61.45.91.67.3,1.61.66,3.2,1.08,4.75,10.93,16.68,23.7,32.04,38.04,45.79,3.41,2.14,6.98,4.18,10.68,6.12-18.1-15.95-33.98-34.38-47.14-54.78,4.41,3.08,9.07,6,13.99,8.74,2.27,1.27,4.59,2.51,6.96,3.72,4.8,8.12,9.98,15.93,15.49,23.39,3.73,5.04,7.61,9.93,11.64,14.65,1.01,1.18,2.03,2.35,3.06,3.51.89,1.01,1.78,2.01,2.69,3,.61.66,1.22,1.31,1.83,1.97,1.21,1.3,2.43,2.58,3.67,3.84-1.1-.47-2.19-.94-3.27-1.42-.83-.37-1.66-.75-2.48-1.13-.18-.09-.37-.17-.56-.25-.56-.26-1.13-.52-1.68-.79-2.55-1.21-5.05-2.47-7.5-3.77-18.6-9.9-33.74-22.3-42.47-37.74Z"/>
      <path class="cls-2" d="M312.31,304.88c32.89-2.29,96.16-9.33,150.38-30.74,55.93-22.08,85.26-52.76,87.19-91.18.82-16.4.2-34.36-9.81-54.55-19.87-40.07-58.01-73.32-110.28-96.16C383.89,12.2,329.33,1.16,276.15,1.16s-107.99,10.97-153.76,30.88C69.99,54.84,31.99,88.16,12.48,128.4c-9.7,20-10.29,37.97-9.48,54.4,1.9,38.57,30.93,69.3,86.29,91.34,53.82,21.42,117.2,28.44,150.19,30.72l.57.04-12.07,241.25c-.09,1.79-.05,3.66.12,5.57,1.88,21.23,20.67,37.86,42.78,37.86h11.11c22.07,0,40.86-16.59,42.77-37.78.18-1.99.22-3.95.12-5.84l-13.15-241.05.57-.04ZM245.33,291.5c-37.63-2.39-95.54-12.2-145.37-32.55-37.44-15.3-82.06-41.65-82.06-80.33,0-14.14,1.21-31.22,10.19-50.72,18.16-39.46,52.67-69.49,102.58-89.28,52.02-20.62,107.82-24.95,145.48-24.95h0c37.47,0,93.1,4.37,145.32,25.17,49.8,19.83,84.45,49.8,102.98,89.06,9.27,19.63,10.52,36.72,10.52,50.85,0,22.28-14.37,54.51-82.8,81.58-48.52,19.19-106.9,28.68-145.36,31.17h-61.47Z"/>
      <path class="cls-4" d="M534.97,178.75c0-14.13-1.25-31.22-10.52-50.85-18.53-39.26-53.18-69.23-102.98-89.06-52.22-20.8-107.85-25.17-145.32-25.17h0c-37.65,0-93.46,4.33-145.48,24.95-49.91,19.79-84.42,49.82-102.58,89.28-8.98,19.5-10.19,36.58-10.19,50.72,0,38.68,44.63,65.03,82.06,80.33,49.82,20.36,107.74,30.16,145.37,32.55h61.47c38.46-2.49,96.85-11.98,145.36-31.17,68.44-27.07,82.8-59.31,82.8-81.58ZM479.27,246.63c-9.97-13.29-22.61-25.25-37.65-35.62.55-9.01.83-18.11.85-27.08,0-.06,0-.12,0-.18v-43.55c24.02,13.81,42.92,31.09,56.22,51.41-.67,15.74-2.52,31.45-5.48,46.8-4.22,2.76-8.86,5.5-13.94,8.22ZM527.07,203.74c-.76-1.68-1.55-3.35-2.37-4.99-2.34-4.71-4.98-9.41-7.87-13.97v-.18c0-.35.01-.7.02-1.05,0-.06,0-.11,0-.17v-56.3c1.79,3.16,3.45,6.36,4.97,9.58,6.9,14.62,10.74,28.6,11.4,41.55-.46,8.89-2.53,17.45-6.16,25.54ZM25.28,202.61c-3.29-7.78-5.2-16.01-5.64-24.54.64-12.91,4.37-26.85,11.08-41.44h0c1.78-3.87,3.75-7.7,5.89-11.43v58.16c0,.06,0,.12,0,.18v.48c-3,4.78-5.76,9.73-8.18,14.74-.83,1.72-1.63,3.46-2.4,5.22-.26-.45-.51-.91-.75-1.37ZM60.02,237.24c-2.88-15.24-4.65-30.81-5.28-46.39,13.23-20.31,32.14-37.54,56.25-51.28v44.18c0,.06,0,.12,0,.18.02,8.79.3,17.7.82,26.5-14.98,10.26-27.53,22.1-37.44,35.27-4.9-2.63-9.72-5.45-14.36-8.46ZM100.41,257.87c-2.76-1.13-5.55-2.32-8.37-3.57,6.12-7.99,13.35-15.38,21.61-22.06,1.18,10.89,2.8,21.74,4.79,32.43-6.09-2.12-12.12-4.38-18.03-6.8ZM138.74,271.18c-3.57-16.57-6.19-33.69-7.79-51.01,14.15-8.56,30.57-15.65,48.85-21.12.47,23.39,1.98,46.45,4.49,68.6-7.49,2.95-14.59,6.29-21.23,9.97-8.06-1.92-16.2-4.06-24.31-6.44ZM270.01,290.34h-24.64c-12.25-.78-26.68-2.35-42.27-4.82-.31-2.39-.62-4.79-.9-7.18,20.17-6.16,43.52-9.68,67.81-10.21v22.21ZM350.38,285.47c-16,2.46-30.9,4.05-43.61,4.87h-23.31s0-22.2,0-22.2c24.24.57,47.58,4.17,67.78,10.44-.27,2.29-.57,4.59-.86,6.89ZM390.2,277.9c-6.59-3.67-13.64-7.01-21.05-9.96,2.51-22.14,4.03-45.18,4.51-68.58,18.25,5.54,34.65,12.71,48.81,21.34-1.63,17.32-4.27,34.43-7.85,50.98-8.12,2.29-16.29,4.36-24.42,6.22ZM426.32,268.19c-2.89.91-5.8,1.78-8.72,2.63,3.5-16.43,6.12-33.6,7.73-51.35-16.1-10-34.3-17.62-53.51-23.21-.43,25.47-2.07,50.02-4.76,73.18,6.92,2.69,13.6,5.74,19.99,9.16-3.54.79-7.07,1.53-10.57,2.24-2.57.52-5.12,1.01-7.66,1.49-1.06-.45-2.13-.89-3.21-1.32-.09.66-.19,1.3-.28,1.96-1.42.26-2.83.51-4.23.75-2.66.46-5.29.89-7.89,1.31.34-2.68.67-5.37.98-8.09-23.13-7.43-48.49-10.79-72.64-11.17v24.57h-10.23s0-24.57,0-24.57c-24.14.37-49.51,3.74-72.64,11.17.31,2.7.63,5.37.97,8.03-2.61-.43-5.24-.88-7.9-1.36-1.41-.25-2.82-.52-4.24-.78-.08-.61-.17-1.2-.26-1.81-.98.39-1.95.79-2.92,1.2-2.52-.49-5.05-1-7.6-1.54-3.47-.73-6.96-1.5-10.47-2.31,6.26-3.32,12.79-6.3,19.55-8.92-2.69-23.16-4.33-47.71-4.76-73.18-19.21,5.59-37.42,13.21-53.51,23.21,1.59,17.49,4.16,34.4,7.58,50.62-2.92-.88-5.83-1.8-8.73-2.74-2.18-.71-4.36-1.43-6.53-2.18-2.25-11.92-4.04-24.18-5.3-36.75-9.43,7.22-17.86,15.46-25.05,24.76-1.19-.54-2.38-1.09-3.58-1.66-3.29-1.55-6.57-3.18-9.83-4.9,10.23-13.29,22.84-24.74,37.14-34.44-.59-9.35-.91-18.83-.93-28.43h0v-47.52c-24.77,13.63-45.93,31.61-60.89,54.73.6,14.92,2.23,29.52,4.77,43.71-2.32-1.6-4.59-3.26-6.78-4.97-3.19-2.48-6.22-5.07-9.04-7.77-.34-2.72-.65-5.44-.92-8.19-.73,1.77-1.41,3.52-2.03,5.25-.64-.66-1.26-1.34-1.87-2.02-3.24-3.58-6.09-7.33-8.49-11.26.87-1.96,1.78-3.94,2.78-5.96,2.46-4.96,5.18-9.73,8.12-14.34,0-.69-.02-1.37-.03-2.06h0v-64.64c-3.45,5.38-6.6,11.02-9.39,16.93-3.41,7.23-6.03,14.17-7.91,20.83,1.37-8.68,3.91-18.07,8.53-28.1,18.03-39.18,52.34-69.01,101.95-88.69,51.85-20.56,107.5-24.87,145.05-24.87s92.84,4.35,144.89,25.08c49.52,19.72,83.95,49.49,102.36,88.48,4.64,9.83,7.24,19.01,8.69,27.51-1.87-6.48-4.43-13.22-7.75-20.24-2.79-5.92-5.94-11.55-9.39-16.93v64.64h0c0,.69-.02,1.37-.03,2.06,2.95,4.61,5.66,9.39,8.12,14.34,1.08,2.19,2.06,4.34,3,6.47-2.21,3.8-4.99,7.68-8.44,11.62-.59.67-1.2,1.35-1.83,2.03-.71-2.02-1.48-4.06-2.34-6.13-.32,3.23-.7,6.44-1.11,9.64-2.7,2.62-5.72,5.24-9.08,7.87-2.14,1.67-4.41,3.34-6.83,5.01,2.71-14.69,4.44-29.83,5.06-45.31-14.96-23.13-36.12-41.1-60.89-54.73v47.52h0c-.02,9.6-.34,19.09-.93,28.43,14.63,9.93,27.49,21.7,37.86,35.39-3.13,1.64-6.43,3.26-9.89,4.87-1.16.54-2.34,1.08-3.55,1.62-7.34-9.67-16.01-18.21-25.74-25.66-1.29,12.9-3.14,25.47-5.48,37.68-2.16.72-4.33,1.41-6.51,2.09ZM434.89,265.41c2.02-10.75,3.67-21.64,4.87-32.56,8.33,6.77,15.64,14.24,21.81,22.32-3.15,1.37-6.42,2.74-9.83,4.09-5.5,2.18-11.14,4.22-16.85,6.15Z"/>
    </g>
  </g>
</svg>