<?xml version="1.0" encoding="UTF-8"?>
<svg id="Layer_2" data-name="Layer 2" xmlns="http://www.w3.org/2000/svg" viewBox="0 0 628.05 628.05">
  <defs>
    <style>
      .cls-1 {
        fill: none;
      }

      .cls-1, .cls-2, .cls-3, .cls-4, .cls-5, .cls-6 {
        stroke-width: 0px;
      }

      .cls-2 {
        fill: #e0e6e2;
      }

      .cls-3 {
        fill: #c1272d;
      }

      .cls-4 {
        fill: red;
      }

      .cls-5 {
        fill: #fcee21;
      }

      .cls-6 {
        fill: #77272d;
      }
    </style>
  </defs>
  <g id="Layer_1-2" data-name="Layer 1">
    <g>
      <rect class="cls-3" width="628.05" height="628.05" rx="28.15" ry="28.15"/>
      <circle class="cls-6" cx="314.02" cy="314.02" r="266.72"/>
      <g>
        <path class="cls-1" d="M498.36,236.16c-10.08-23.82-24.5-45.22-42.87-63.59-18.37-18.37-39.77-32.8-63.59-42.87-24.66-10.43-50.86-15.72-77.87-15.72s-53.21,5.29-77.87,15.72c-23.82,10.08-45.22,24.5-63.59,42.87-18.37,18.37-32.8,39.77-42.87,63.59-10.43,24.66-15.72,50.86-15.72,77.87s5.29,53.21,15.72,77.87c10.08,23.82,24.5,45.22,42.87,63.59,18.37,18.37,39.77,32.8,63.59,42.87,24.66,10.43,50.86,15.72,77.87,15.72s53.21-5.29,77.87-15.72c23.82-10.08,45.22-24.5,63.59-42.87,18.37-18.37,32.8-39.77,42.87-63.59,10.43-24.66,15.72-50.86,15.72-77.87s-5.29-53.21-15.72-77.87ZM432.47,347.73c-.55,1.95-1.15,3.88-1.8,5.78-4.19,12.39-10.31,23.9-17.99,34.17-1.18,1.58-2.4,3.13-3.65,4.65-.63.76-1.26,1.51-1.91,2.26-1.29,1.49-2.61,2.95-3.97,4.37-.68.71-1.37,1.42-2.06,2.11-1.39,1.39-2.82,2.75-4.28,4.08-.73.66-1.47,1.32-2.21,1.96-21.59,18.7-49.76,30.02-80.57,30.02-16.69,0-32.6-3.33-47.12-9.35-.67-.28-1.34-.56-2.01-.85-10.73-4.67-20.66-10.83-29.54-18.21-1.4-1.16-2.77-2.35-4.12-3.57-.75-.68-1.48-1.37-2.21-2.06-1.41-1.34-2.78-2.72-4.13-4.13-2.04-2.14-4-4.35-5.88-6.63-1.25-1.52-2.47-3.07-3.65-4.65-5.32-7.11-9.88-14.81-13.58-23-.82-1.82-1.6-3.66-2.34-5.52s-1.43-3.75-2.07-5.66c-.65-1.91-1.25-3.83-1.8-5.78-1.11-3.9-2.03-7.87-2.75-11.91-.36-2.02-.67-4.06-.93-6.11-.65-5.13-.99-10.37-.99-15.68s.34-10.55.99-15.68c.26-2.05.57-4.09.93-6.11,1.44-8.08,3.68-15.89,6.62-23.35.73-1.86,1.51-3.71,2.34-5.52,4.52-10,10.34-19.29,17.24-27.65,1.88-2.28,3.84-4.49,5.88-6.63s4.15-4.2,6.34-6.19c2.19-1.99,4.44-3.9,6.77-5.72,1.55-1.22,3.13-2.4,4.74-3.54,4.83-3.43,9.91-6.53,15.22-9.25,3.54-1.81,7.18-3.46,10.91-4.93,2.8-1.1,5.64-2.11,8.53-3,1.93-.6,3.88-1.15,5.84-1.66.98-.25,1.97-.49,2.96-.72,1.99-.46,3.99-.87,6.01-1.23,1.01-.18,2.03-.35,3.04-.5,3.06-.47,6.15-.82,9.28-1.06,3.13-.24,6.29-.36,9.47-.36,67.99,0,123.11,55.12,123.11,123.11,0,11.69-1.63,22.99-4.67,33.7Z"/>
        <path class="cls-3" d="M314.02,109.97c-112.7,0-204.05,91.36-204.05,204.05s91.36,204.05,204.05,204.05,204.05-91.36,204.05-204.05-91.36-204.05-204.05-204.05ZM455.48,455.48c-18.37,18.37-39.77,32.8-63.59,42.87-24.66,10.43-50.86,15.72-77.87,15.72s-53.21-5.29-77.87-15.72c-23.82-10.08-45.22-24.5-63.59-42.87-18.37-18.37-32.8-39.77-42.87-63.59-10.43-24.66-15.72-50.86-15.72-77.87s5.29-53.21,15.72-77.87c10.08-23.82,24.5-45.22,42.87-63.59,18.37-18.37,39.77-32.8,63.59-42.87,24.66-10.43,50.86-15.72,77.87-15.72s53.21,5.29,77.87,15.72c23.82,10.08,45.22,24.5,63.59,42.87,18.37,18.37,32.8,39.77,42.87,63.59,10.43,24.66,15.72,50.86,15.72,77.87s-5.29,53.21-15.72,77.87c-10.08,23.82-24.5,45.22-42.87,63.59Z"/>
        <path class="cls-5" d="M224.91,398.97c1.34,1.41,2.72,2.78,4.13,4.13-1.41-1.34-2.78-2.72-4.13-4.13Z"/>
        <path class="cls-5" d="M231.25,222.89c2.19-1.99,4.44-3.9,6.77-5.72-2.33,1.83-4.58,3.74-6.77,5.72Z"/>
        <path class="cls-5" d="M231.25,222.89c-2.19,1.99-4.3,4.05-6.34,6.19,2.04-2.14,4.15-4.2,6.34-6.19Z"/>
        <path class="cls-5" d="M266.91,427.79c-.67-.28-1.34-.56-2.01-.85.67.29,1.33.58,2.01.85Z"/>
        <path class="cls-5" d="M219.02,235.71c1.88-2.28,3.84-4.49,5.88-6.63-2.04,2.14-4,4.35-5.88,6.63Z"/>
        <path class="cls-5" d="M286.22,194.06c1.99-.46,3.99-.87,6.01-1.23-2.02.36-4.03.77-6.01,1.23Z"/>
        <path class="cls-5" d="M295.28,192.33c3.06-.47,6.15-.82,9.28-1.06-3.13.24-6.22.59-9.28,1.06Z"/>
        <path class="cls-5" d="M277.41,196.45c1.93-.6,3.88-1.15,5.84-1.66-1.97.51-3.91,1.06-5.84,1.66Z"/>
        <path class="cls-5" d="M242.76,213.62c4.83-3.43,9.91-6.53,15.22-9.25-5.31,2.72-10.39,5.81-15.22,9.25Z"/>
        <path class="cls-5" d="M257.98,204.38c3.54-1.81,7.18-3.46,10.91-4.93-3.73,1.47-7.37,3.12-10.91,4.93Z"/>
        <path class="cls-5" d="M191.9,298.34c.26-2.05.57-4.09.93-6.11-.36,2.02-.67,4.06-.93,6.11Z"/>
        <path class="cls-5" d="M235.36,408.73c-1.4-1.16-2.77-2.35-4.12-3.57,1.34,1.22,2.72,2.41,4.12,3.57Z"/>
        <path class="cls-5" d="M201.79,364.69c-.82-1.82-1.6-3.66-2.34-5.52.73,1.86,1.51,3.71,2.34,5.52Z"/>
        <path class="cls-5" d="M192.83,335.82c-.36-2.02-.67-4.06-.93-6.11.26,2.05.57,4.09.93,6.11Z"/>
        <path class="cls-5" d="M224.91,398.97c-2.04-2.14-4-4.35-5.88-6.63,1.88,2.28,3.84,4.49,5.88,6.63Z"/>
        <path class="cls-5" d="M199.45,268.88c.73-1.86,1.51-3.71,2.34-5.52-.82,1.82-1.6,3.66-2.34,5.52Z"/>
        <path class="cls-3" d="M314.02,190.91c-3.19,0-6.35.12-9.47.36-3.13.24-6.22.59-9.28,1.06-1.02.16-2.03.32-3.04.5-2.02.36-4.02.77-6.01,1.23-.99.23-1.98.47-2.96.72-1.97.51-3.91,1.06-5.84,1.66-2.89.9-5.74,1.9-8.53,3-3.73,1.47-7.37,3.12-10.91,4.93-5.31,2.72-10.39,5.81-15.22,9.25-1.61,1.14-3.19,2.33-4.74,3.54-2.33,1.83-4.58,3.74-6.77,5.72-2.19,1.99-4.3,4.05-6.34,6.19s-4,4.35-5.88,6.63c-6.9,8.36-12.72,17.65-17.24,27.65-.82,1.82-1.6,3.66-2.34,5.52-2.94,7.45-5.17,15.27-6.62,23.35-.36,2.02-.67,4.06-.93,6.11-.65,5.13-.99,10.37-.99,15.68s.34,10.55.99,15.68c.26,2.05.57,4.09.93,6.11.72,4.04,1.64,8.02,2.75,11.91.55,1.95,1.15,3.88,1.8,5.78.65,1.91,1.34,3.79,2.07,5.66s1.51,3.71,2.34,5.52c3.7,8.18,8.27,15.88,13.58,23,1.18,1.58,2.4,3.13,3.65,4.65,1.88,2.28,3.84,4.49,5.88,6.63,1.34,1.41,2.72,2.78,4.13,4.13.73.7,1.47,1.38,2.21,2.06,1.34,1.22,2.72,2.41,4.12,3.57,8.88,7.38,18.81,13.53,29.54,18.21.67.29,1.33.58,2.01.85,14.51,6.02,30.43,9.35,47.12,9.35,30.81,0,58.98-11.32,80.57-30.02.74-.64,1.48-1.3,2.21-1.96,1.46-1.32,2.88-2.68,4.28-4.08.7-.7,1.38-1.4,2.06-2.11,1.36-1.43,2.68-2.88,3.97-4.37.65-.74,1.28-1.5,1.91-2.26,1.25-1.52,2.47-3.07,3.65-4.65,7.68-10.27,13.8-21.78,17.99-34.17.65-1.91,1.25-3.83,1.8-5.78,3.04-10.71,4.67-22.02,4.67-33.7,0-67.99-55.12-123.11-123.11-123.11ZM398.25,398.25c-22.5,22.5-52.41,34.89-84.23,34.89s-61.73-12.39-84.23-34.89c-22.5-22.5-34.89-52.41-34.89-84.23s12.39-61.73,34.89-84.23c22.5-22.5,52.41-34.89,84.23-34.89s61.73,12.39,84.23,34.89c22.5,22.5,34.89,52.41,34.89,84.23s-12.39,61.73-34.89,84.23Z"/>
      </g>
      <circle class="cls-3" cx="314.02" cy="314.02" r="10.65"/>
      <g>
        <path class="cls-6" d="M30,25h-5v193.13h13.41l1.19-3.3c1.74-4.81,3.64-9.64,5.63-14.36,14.69-34.74,35.72-65.94,62.51-92.72,26.78-26.78,57.98-47.81,92.72-62.51,4.72-2,9.55-3.89,14.36-5.63l3.3-1.19v-13.41H30Z"/>
        <path class="cls-6" d="M598.05,25h-188.13v13.41l3.3,1.19c4.81,1.74,9.64,3.64,14.36,5.63,34.74,14.69,65.94,35.72,92.72,62.51,26.78,26.78,47.81,57.98,62.51,92.72,2,4.72,3.89,9.55,5.63,14.36l1.19,3.3h13.41V25h-5Z"/>
        <path class="cls-6" d="M593.14,409.92h-3.51l-1.19,3.3c-1.74,4.81-3.64,9.65-5.63,14.36-14.69,34.74-35.72,65.94-62.51,92.72-26.78,26.78-57.98,47.81-92.72,62.51-4.72,2-9.55,3.89-14.36,5.63l-3.3,1.19v13.41h193.13v-193.13h-9.91Z"/>
        <path class="cls-6" d="M200.47,582.81c-34.74-14.69-65.94-35.72-92.72-62.51-26.78-26.78-47.81-57.98-62.51-92.72-2-4.72-3.89-9.55-5.63-14.36l-1.19-3.3h-13.41v193.13h193.13v-13.41l-3.3-1.19c-4.81-1.74-9.64-3.64-14.36-5.63Z"/>
      </g>
      <g>
        <path class="cls-2" d="M40.64,198.52c14.95-35.34,36.34-67.07,63.58-94.31,27.24-27.24,58.97-48.63,94.31-63.58,4.83-2.04,9.7-3.95,14.61-5.73v-4.91H30v183.13h4.91c1.78-4.91,3.69-9.78,5.73-14.61Z"/>
        <path class="cls-2" d="M429.53,40.64c35.34,14.95,67.07,36.34,94.31,63.58,27.24,27.24,48.63,58.97,63.58,94.31,2.04,4.83,3.95,9.7,5.73,14.61h4.91V30h-183.13v4.91c4.91,1.78,9.78,3.69,14.61,5.73Z"/>
        <path class="cls-2" d="M587.41,429.53c-14.95,35.34-36.34,67.07-63.58,94.31-27.24,27.24-58.97,48.63-94.31,63.58-4.83,2.04-9.7,3.95-14.61,5.73v4.91h183.13v-183.13h-4.91c-1.78,4.91-3.69,9.78-5.73,14.61Z"/>
        <path class="cls-2" d="M198.52,587.41c-35.34-14.95-67.07-36.34-94.31-63.58-27.24-27.24-48.63-58.97-63.58-94.31-2.04-4.83-3.95-9.7-5.73-14.61h-4.91v183.13h183.13v-4.91c-4.91-1.78-9.78-3.69-14.61-5.73Z"/>
        <g>
          <polygon class="cls-5" points="36 428 36 592.05 36 592.05 36 428 36 428"/>
          <path class="cls-5" d="M38,437.69v152.36h152.36c-33.59-15.12-63.87-36.05-90.09-62.26-26.22-26.22-47.14-56.5-62.27-90.09Z"/>
          <path class="cls-4" d="M164.99,574.87c-8.39-4.81-16.53-10.01-24.41-15.61-3.94-2.8-7.81-5.69-11.62-8.68-9.52-7.48-18.62-15.55-27.28-24.21-27.7-27.7-49.45-59.96-64.65-95.89-.35-.82-.69-1.65-1.03-2.47h0v164.04h164.04c-.83-.34-1.65-.69-2.47-1.03-11.23-4.75-22.1-10.14-32.58-16.15ZM38,590.05v-152.36c15.12,33.59,36.05,63.87,62.27,90.09,26.22,26.22,56.5,47.14,90.09,62.26H38Z"/>
          <path class="cls-5" d="M437.69,590.05h152.36v-152.36c-15.12,33.59-36.05,63.87-62.26,90.09-26.22,26.22-56.5,47.14-90.09,62.27Z"/>
          <path class="cls-4" d="M526.37,526.37c-27.7,27.7-59.96,49.45-95.89,64.65-.82.35-1.65.69-2.47,1.03h164.04v-164.04c-.34.83-.69,1.65-1.03,2.47-15.2,35.93-36.95,68.19-64.65,95.89ZM590.05,590.05h-152.36c33.59-15.12,63.87-36.05,90.09-62.27,26.22-26.22,47.14-56.5,62.26-90.09v152.36Z"/>
          <path class="cls-5" d="M527.78,100.26c26.22,26.22,47.14,56.5,62.27,90.09V38h-152.36c33.59,15.12,63.87,36.05,90.09,62.26Z"/>
          <path class="cls-4" d="M428.01,36c.83.34,1.65.69,2.47,1.03,35.93,15.2,68.19,36.95,95.89,64.65,27.7,27.7,49.45,59.96,64.65,95.89.35.82.69,1.65,1.03,2.47V36h-164.04ZM590.05,190.35c-15.12-33.59-36.05-63.87-62.27-90.09-26.22-26.22-56.5-47.14-90.09-62.26h152.36v152.36Z"/>
          <path class="cls-5" d="M200.04,36h0c-.83.34-1.65.69-2.47,1.03.82-.35,1.65-.69,2.47-1.03Z"/>
          <path class="cls-5" d="M38,190.36c15.12-33.59,36.05-63.87,62.26-90.09,26.22-26.22,56.5-47.14,90.09-62.27H38v152.36Z"/>
          <polygon class="cls-5" points="36 36 36 200.04 36 200.04 36 36 36 36"/>
          <path class="cls-4" d="M36,36h0v164.04h0c.34-.83.69-1.65,1.03-2.47,15.2-35.93,36.95-68.19,64.65-95.89,8.66-8.66,17.76-16.73,27.28-24.21,3.81-2.99,7.68-5.88,11.62-8.68,7.88-5.59,16.02-10.8,24.41-15.61,10.48-6.01,21.36-11.4,32.58-16.15.82-.35,1.65-.69,2.47-1.03,0,0,0,0,0,0H36ZM100.26,100.27c-26.22,26.22-47.14,56.5-62.26,90.09V38h152.36c-33.59,15.12-63.87,36.05-90.09,62.27Z"/>
        </g>
      </g>
    </g>
  </g>
</svg>